%TF.GenerationSoftware,KiCad,Pcbnew,7.0.10-7.0.10~ubuntu22.04.1*%
%TF.CreationDate,2024-02-26T16:55:56+02:00*%
%TF.ProjectId,AS5600,41533536-3030-42e6-9b69-6361645f7063,rev?*%
%TF.SameCoordinates,Original*%
%TF.FileFunction,Copper,L1,Top*%
%TF.FilePolarity,Positive*%
%FSLAX46Y46*%
G04 Gerber Fmt 4.6, Leading zero omitted, Abs format (unit mm)*
G04 Created by KiCad (PCBNEW 7.0.10-7.0.10~ubuntu22.04.1) date 2024-02-26 16:55:56*
%MOMM*%
%LPD*%
G01*
G04 APERTURE LIST*
G04 Aperture macros list*
%AMRoundRect*
0 Rectangle with rounded corners*
0 $1 Rounding radius*
0 $2 $3 $4 $5 $6 $7 $8 $9 X,Y pos of 4 corners*
0 Add a 4 corners polygon primitive as box body*
4,1,4,$2,$3,$4,$5,$6,$7,$8,$9,$2,$3,0*
0 Add four circle primitives for the rounded corners*
1,1,$1+$1,$2,$3*
1,1,$1+$1,$4,$5*
1,1,$1+$1,$6,$7*
1,1,$1+$1,$8,$9*
0 Add four rect primitives between the rounded corners*
20,1,$1+$1,$2,$3,$4,$5,0*
20,1,$1+$1,$4,$5,$6,$7,0*
20,1,$1+$1,$6,$7,$8,$9,0*
20,1,$1+$1,$8,$9,$2,$3,0*%
G04 Aperture macros list end*
%TA.AperFunction,SMDPad,CuDef*%
%ADD10RoundRect,0.200000X-0.275000X0.200000X-0.275000X-0.200000X0.275000X-0.200000X0.275000X0.200000X0*%
%TD*%
%TA.AperFunction,SMDPad,CuDef*%
%ADD11RoundRect,0.150000X-0.825000X-0.150000X0.825000X-0.150000X0.825000X0.150000X-0.825000X0.150000X0*%
%TD*%
%TA.AperFunction,SMDPad,CuDef*%
%ADD12RoundRect,0.250000X0.312500X0.625000X-0.312500X0.625000X-0.312500X-0.625000X0.312500X-0.625000X0*%
%TD*%
%TA.AperFunction,SMDPad,CuDef*%
%ADD13RoundRect,0.225000X-0.250000X0.225000X-0.250000X-0.225000X0.250000X-0.225000X0.250000X0.225000X0*%
%TD*%
%TA.AperFunction,SMDPad,CuDef*%
%ADD14RoundRect,0.225000X-0.225000X-0.250000X0.225000X-0.250000X0.225000X0.250000X-0.225000X0.250000X0*%
%TD*%
%TA.AperFunction,ComponentPad*%
%ADD15R,1.350000X1.350000*%
%TD*%
%TA.AperFunction,Conductor*%
%ADD16C,0.600000*%
%TD*%
%TA.AperFunction,Profile*%
%ADD17C,0.100000*%
%TD*%
G04 APERTURE END LIST*
D10*
X143154400Y-113348000D03*
X143154400Y-114998000D03*
D11*
X146724650Y-113982250D03*
X146724650Y-115252250D03*
X146724650Y-116522250D03*
X146724650Y-117792250D03*
X151674650Y-117792250D03*
X151674650Y-116522250D03*
X151674650Y-115252250D03*
X151674650Y-113982250D03*
D12*
X156874400Y-114782600D03*
X153949400Y-114782600D03*
X156874400Y-117043200D03*
X153949400Y-117043200D03*
X150814500Y-119708450D03*
X147889500Y-119708450D03*
D13*
X143154400Y-116369800D03*
X143154400Y-117919800D03*
D14*
X148437050Y-112266250D03*
X149987050Y-112266250D03*
D15*
X146837400Y-110007400D03*
X154635200Y-119684800D03*
X151612600Y-110007400D03*
X154635200Y-112141000D03*
X144805400Y-120167400D03*
D16*
X146724650Y-115252250D02*
X143408650Y-115252250D01*
X143154400Y-116369800D02*
X143154400Y-114998000D01*
X143408650Y-115252250D02*
X143154400Y-114998000D01*
X149987050Y-111582150D02*
X151561800Y-110007400D01*
X149987050Y-112266250D02*
X149987050Y-111582150D01*
X146405600Y-122351800D02*
X143230600Y-122351800D01*
X147889500Y-117602400D02*
X148684450Y-116807450D01*
X148684450Y-116807450D02*
X149072600Y-116419300D01*
X147699650Y-117792250D02*
X148684450Y-116807450D01*
X142671800Y-118402400D02*
X143154400Y-117919800D01*
X151674650Y-113982250D02*
X150863050Y-113982250D01*
X149987050Y-113106250D02*
X149987050Y-112266250D01*
X150863050Y-113982250D02*
X149987050Y-113106250D01*
X147889500Y-119708450D02*
X147889500Y-120867900D01*
X149072600Y-116419300D02*
X149072600Y-114020700D01*
X150039600Y-112318800D02*
X149987050Y-112266250D01*
X147889500Y-119708450D02*
X147889500Y-117602400D01*
X147889500Y-120867900D02*
X146405600Y-122351800D01*
X151561800Y-110007400D02*
X151612600Y-110007400D01*
X142671800Y-121793000D02*
X142671800Y-118402400D01*
X143230600Y-122351800D02*
X142671800Y-121793000D01*
X146724650Y-117792250D02*
X147699650Y-117792250D01*
X149072600Y-114020700D02*
X149987050Y-113106250D01*
X156874400Y-110773400D02*
X154076400Y-107975400D01*
X156874400Y-114782600D02*
X156874400Y-110773400D01*
X146724650Y-113982250D02*
X143788650Y-113982250D01*
X146724650Y-113982250D02*
X147536150Y-113982250D01*
X143788650Y-113982250D02*
X143154400Y-113348000D01*
X147536150Y-113982250D02*
X148437050Y-113081350D01*
X148437050Y-111607050D02*
X146837400Y-110007400D01*
X146724650Y-113982250D02*
X146724650Y-113978650D01*
X148437050Y-112266250D02*
X148437050Y-111607050D01*
X154076400Y-107975400D02*
X148869400Y-107975400D01*
X148437050Y-113081350D02*
X148437050Y-112266250D01*
X156874400Y-114782600D02*
X156874400Y-117043200D01*
X148869400Y-107975400D02*
X146837400Y-110007400D01*
X150814500Y-118652400D02*
X151674650Y-117792250D01*
X150814500Y-119708450D02*
X150814500Y-118652400D01*
X151674650Y-115252250D02*
X153479750Y-115252250D01*
X153479750Y-115252250D02*
X153949400Y-114782600D01*
X153949400Y-114782600D02*
X153949400Y-112816100D01*
X153949400Y-112816100D02*
X154624500Y-112141000D01*
X144780000Y-117491900D02*
X144780000Y-120167400D01*
X145749650Y-116522250D02*
X144780000Y-117491900D01*
X146724650Y-116522250D02*
X145749650Y-116522250D01*
X151674650Y-116522250D02*
X153428450Y-116522250D01*
X153428450Y-116522250D02*
X153949400Y-117043200D01*
X153949400Y-117043200D02*
X153949400Y-119009700D01*
X153949400Y-119009700D02*
X154624500Y-119684800D01*
D17*
X158999650Y-115887250D02*
G75*
G03*
X139399650Y-115887250I-9800000J0D01*
G01*
X139399650Y-115887250D02*
G75*
G03*
X158999650Y-115887250I9800000J0D01*
G01*
M02*
