%TF.GenerationSoftware,KiCad,Pcbnew,7.0.8*%
%TF.CreationDate,2024-02-27T02:32:04+02:00*%
%TF.ProjectId,AS5600,41533536-3030-42e6-9b69-6361645f7063,rev?*%
%TF.SameCoordinates,Original*%
%TF.FileFunction,Copper,L1,Top*%
%TF.FilePolarity,Positive*%
%FSLAX46Y46*%
G04 Gerber Fmt 4.6, Leading zero omitted, Abs format (unit mm)*
G04 Created by KiCad (PCBNEW 7.0.8) date 2024-02-27 02:32:04*
%MOMM*%
%LPD*%
G01*
G04 APERTURE LIST*
%TA.AperFunction,ComponentPad*%
%ADD10R,1.350000X1.350000*%
%TD*%
%TA.AperFunction,Conductor*%
%ADD11C,0.600000*%
%TD*%
%TA.AperFunction,Profile*%
%ADD12C,0.100000*%
%TD*%
G04 APERTURE END LIST*
%TA.AperFunction,SMDPad,CuDef*%
G36*
G01*
X142879400Y-112948000D02*
X143429400Y-112948000D01*
G75*
G02*
X143629400Y-113148000I0J-200000D01*
G01*
X143629400Y-113548000D01*
G75*
G02*
X143429400Y-113748000I-200000J0D01*
G01*
X142879400Y-113748000D01*
G75*
G02*
X142679400Y-113548000I0J200000D01*
G01*
X142679400Y-113148000D01*
G75*
G02*
X142879400Y-112948000I200000J0D01*
G01*
G37*
%TD.AperFunction*%
%TA.AperFunction,SMDPad,CuDef*%
G36*
G01*
X142879400Y-114598000D02*
X143429400Y-114598000D01*
G75*
G02*
X143629400Y-114798000I0J-200000D01*
G01*
X143629400Y-115198000D01*
G75*
G02*
X143429400Y-115398000I-200000J0D01*
G01*
X142879400Y-115398000D01*
G75*
G02*
X142679400Y-115198000I0J200000D01*
G01*
X142679400Y-114798000D01*
G75*
G02*
X142879400Y-114598000I200000J0D01*
G01*
G37*
%TD.AperFunction*%
%TA.AperFunction,SMDPad,CuDef*%
G36*
G01*
X145749650Y-114132250D02*
X145749650Y-113832250D01*
G75*
G02*
X145899650Y-113682250I150000J0D01*
G01*
X147549650Y-113682250D01*
G75*
G02*
X147699650Y-113832250I0J-150000D01*
G01*
X147699650Y-114132250D01*
G75*
G02*
X147549650Y-114282250I-150000J0D01*
G01*
X145899650Y-114282250D01*
G75*
G02*
X145749650Y-114132250I0J150000D01*
G01*
G37*
%TD.AperFunction*%
%TA.AperFunction,SMDPad,CuDef*%
G36*
G01*
X145749650Y-115402250D02*
X145749650Y-115102250D01*
G75*
G02*
X145899650Y-114952250I150000J0D01*
G01*
X147549650Y-114952250D01*
G75*
G02*
X147699650Y-115102250I0J-150000D01*
G01*
X147699650Y-115402250D01*
G75*
G02*
X147549650Y-115552250I-150000J0D01*
G01*
X145899650Y-115552250D01*
G75*
G02*
X145749650Y-115402250I0J150000D01*
G01*
G37*
%TD.AperFunction*%
%TA.AperFunction,SMDPad,CuDef*%
G36*
G01*
X145749650Y-116672250D02*
X145749650Y-116372250D01*
G75*
G02*
X145899650Y-116222250I150000J0D01*
G01*
X147549650Y-116222250D01*
G75*
G02*
X147699650Y-116372250I0J-150000D01*
G01*
X147699650Y-116672250D01*
G75*
G02*
X147549650Y-116822250I-150000J0D01*
G01*
X145899650Y-116822250D01*
G75*
G02*
X145749650Y-116672250I0J150000D01*
G01*
G37*
%TD.AperFunction*%
%TA.AperFunction,SMDPad,CuDef*%
G36*
G01*
X145749650Y-117942250D02*
X145749650Y-117642250D01*
G75*
G02*
X145899650Y-117492250I150000J0D01*
G01*
X147549650Y-117492250D01*
G75*
G02*
X147699650Y-117642250I0J-150000D01*
G01*
X147699650Y-117942250D01*
G75*
G02*
X147549650Y-118092250I-150000J0D01*
G01*
X145899650Y-118092250D01*
G75*
G02*
X145749650Y-117942250I0J150000D01*
G01*
G37*
%TD.AperFunction*%
%TA.AperFunction,SMDPad,CuDef*%
G36*
G01*
X150699650Y-117942250D02*
X150699650Y-117642250D01*
G75*
G02*
X150849650Y-117492250I150000J0D01*
G01*
X152499650Y-117492250D01*
G75*
G02*
X152649650Y-117642250I0J-150000D01*
G01*
X152649650Y-117942250D01*
G75*
G02*
X152499650Y-118092250I-150000J0D01*
G01*
X150849650Y-118092250D01*
G75*
G02*
X150699650Y-117942250I0J150000D01*
G01*
G37*
%TD.AperFunction*%
%TA.AperFunction,SMDPad,CuDef*%
G36*
G01*
X150699650Y-116672250D02*
X150699650Y-116372250D01*
G75*
G02*
X150849650Y-116222250I150000J0D01*
G01*
X152499650Y-116222250D01*
G75*
G02*
X152649650Y-116372250I0J-150000D01*
G01*
X152649650Y-116672250D01*
G75*
G02*
X152499650Y-116822250I-150000J0D01*
G01*
X150849650Y-116822250D01*
G75*
G02*
X150699650Y-116672250I0J150000D01*
G01*
G37*
%TD.AperFunction*%
%TA.AperFunction,SMDPad,CuDef*%
G36*
G01*
X150699650Y-115402250D02*
X150699650Y-115102250D01*
G75*
G02*
X150849650Y-114952250I150000J0D01*
G01*
X152499650Y-114952250D01*
G75*
G02*
X152649650Y-115102250I0J-150000D01*
G01*
X152649650Y-115402250D01*
G75*
G02*
X152499650Y-115552250I-150000J0D01*
G01*
X150849650Y-115552250D01*
G75*
G02*
X150699650Y-115402250I0J150000D01*
G01*
G37*
%TD.AperFunction*%
%TA.AperFunction,SMDPad,CuDef*%
G36*
G01*
X150699650Y-114132250D02*
X150699650Y-113832250D01*
G75*
G02*
X150849650Y-113682250I150000J0D01*
G01*
X152499650Y-113682250D01*
G75*
G02*
X152649650Y-113832250I0J-150000D01*
G01*
X152649650Y-114132250D01*
G75*
G02*
X152499650Y-114282250I-150000J0D01*
G01*
X150849650Y-114282250D01*
G75*
G02*
X150699650Y-114132250I0J150000D01*
G01*
G37*
%TD.AperFunction*%
%TA.AperFunction,SMDPad,CuDef*%
G36*
G01*
X157436900Y-114157600D02*
X157436900Y-115407600D01*
G75*
G02*
X157186900Y-115657600I-250000J0D01*
G01*
X156561900Y-115657600D01*
G75*
G02*
X156311900Y-115407600I0J250000D01*
G01*
X156311900Y-114157600D01*
G75*
G02*
X156561900Y-113907600I250000J0D01*
G01*
X157186900Y-113907600D01*
G75*
G02*
X157436900Y-114157600I0J-250000D01*
G01*
G37*
%TD.AperFunction*%
%TA.AperFunction,SMDPad,CuDef*%
G36*
G01*
X154511900Y-114157600D02*
X154511900Y-115407600D01*
G75*
G02*
X154261900Y-115657600I-250000J0D01*
G01*
X153636900Y-115657600D01*
G75*
G02*
X153386900Y-115407600I0J250000D01*
G01*
X153386900Y-114157600D01*
G75*
G02*
X153636900Y-113907600I250000J0D01*
G01*
X154261900Y-113907600D01*
G75*
G02*
X154511900Y-114157600I0J-250000D01*
G01*
G37*
%TD.AperFunction*%
%TA.AperFunction,SMDPad,CuDef*%
G36*
G01*
X157436900Y-116418200D02*
X157436900Y-117668200D01*
G75*
G02*
X157186900Y-117918200I-250000J0D01*
G01*
X156561900Y-117918200D01*
G75*
G02*
X156311900Y-117668200I0J250000D01*
G01*
X156311900Y-116418200D01*
G75*
G02*
X156561900Y-116168200I250000J0D01*
G01*
X157186900Y-116168200D01*
G75*
G02*
X157436900Y-116418200I0J-250000D01*
G01*
G37*
%TD.AperFunction*%
%TA.AperFunction,SMDPad,CuDef*%
G36*
G01*
X154511900Y-116418200D02*
X154511900Y-117668200D01*
G75*
G02*
X154261900Y-117918200I-250000J0D01*
G01*
X153636900Y-117918200D01*
G75*
G02*
X153386900Y-117668200I0J250000D01*
G01*
X153386900Y-116418200D01*
G75*
G02*
X153636900Y-116168200I250000J0D01*
G01*
X154261900Y-116168200D01*
G75*
G02*
X154511900Y-116418200I0J-250000D01*
G01*
G37*
%TD.AperFunction*%
%TA.AperFunction,SMDPad,CuDef*%
G36*
G01*
X151377000Y-119083450D02*
X151377000Y-120333450D01*
G75*
G02*
X151127000Y-120583450I-250000J0D01*
G01*
X150502000Y-120583450D01*
G75*
G02*
X150252000Y-120333450I0J250000D01*
G01*
X150252000Y-119083450D01*
G75*
G02*
X150502000Y-118833450I250000J0D01*
G01*
X151127000Y-118833450D01*
G75*
G02*
X151377000Y-119083450I0J-250000D01*
G01*
G37*
%TD.AperFunction*%
%TA.AperFunction,SMDPad,CuDef*%
G36*
G01*
X148452000Y-119083450D02*
X148452000Y-120333450D01*
G75*
G02*
X148202000Y-120583450I-250000J0D01*
G01*
X147577000Y-120583450D01*
G75*
G02*
X147327000Y-120333450I0J250000D01*
G01*
X147327000Y-119083450D01*
G75*
G02*
X147577000Y-118833450I250000J0D01*
G01*
X148202000Y-118833450D01*
G75*
G02*
X148452000Y-119083450I0J-250000D01*
G01*
G37*
%TD.AperFunction*%
%TA.AperFunction,SMDPad,CuDef*%
G36*
G01*
X142904400Y-115919800D02*
X143404400Y-115919800D01*
G75*
G02*
X143629400Y-116144800I0J-225000D01*
G01*
X143629400Y-116594800D01*
G75*
G02*
X143404400Y-116819800I-225000J0D01*
G01*
X142904400Y-116819800D01*
G75*
G02*
X142679400Y-116594800I0J225000D01*
G01*
X142679400Y-116144800D01*
G75*
G02*
X142904400Y-115919800I225000J0D01*
G01*
G37*
%TD.AperFunction*%
%TA.AperFunction,SMDPad,CuDef*%
G36*
G01*
X142904400Y-117469800D02*
X143404400Y-117469800D01*
G75*
G02*
X143629400Y-117694800I0J-225000D01*
G01*
X143629400Y-118144800D01*
G75*
G02*
X143404400Y-118369800I-225000J0D01*
G01*
X142904400Y-118369800D01*
G75*
G02*
X142679400Y-118144800I0J225000D01*
G01*
X142679400Y-117694800D01*
G75*
G02*
X142904400Y-117469800I225000J0D01*
G01*
G37*
%TD.AperFunction*%
%TA.AperFunction,SMDPad,CuDef*%
G36*
G01*
X147987050Y-112516250D02*
X147987050Y-112016250D01*
G75*
G02*
X148212050Y-111791250I225000J0D01*
G01*
X148662050Y-111791250D01*
G75*
G02*
X148887050Y-112016250I0J-225000D01*
G01*
X148887050Y-112516250D01*
G75*
G02*
X148662050Y-112741250I-225000J0D01*
G01*
X148212050Y-112741250D01*
G75*
G02*
X147987050Y-112516250I0J225000D01*
G01*
G37*
%TD.AperFunction*%
%TA.AperFunction,SMDPad,CuDef*%
G36*
G01*
X149537050Y-112516250D02*
X149537050Y-112016250D01*
G75*
G02*
X149762050Y-111791250I225000J0D01*
G01*
X150212050Y-111791250D01*
G75*
G02*
X150437050Y-112016250I0J-225000D01*
G01*
X150437050Y-112516250D01*
G75*
G02*
X150212050Y-112741250I-225000J0D01*
G01*
X149762050Y-112741250D01*
G75*
G02*
X149537050Y-112516250I0J225000D01*
G01*
G37*
%TD.AperFunction*%
D10*
X146837400Y-110007400D03*
X154635200Y-119684800D03*
X151612600Y-110007400D03*
X154635200Y-112141000D03*
X144805400Y-120167400D03*
D11*
X146724650Y-115252250D02*
X143408650Y-115252250D01*
X143154400Y-116369800D02*
X143154400Y-114998000D01*
X143408650Y-115252250D02*
X143154400Y-114998000D01*
X149987050Y-111582150D02*
X151561800Y-110007400D01*
X149987050Y-112266250D02*
X149987050Y-111582150D01*
X146405600Y-122351800D02*
X143230600Y-122351800D01*
X147889500Y-117602400D02*
X148684450Y-116807450D01*
X148684450Y-116807450D02*
X149072600Y-116419300D01*
X147699650Y-117792250D02*
X148684450Y-116807450D01*
X142671800Y-118402400D02*
X143154400Y-117919800D01*
X151674650Y-113982250D02*
X150863050Y-113982250D01*
X149987050Y-113106250D02*
X149987050Y-112266250D01*
X150863050Y-113982250D02*
X149987050Y-113106250D01*
X147889500Y-119708450D02*
X147889500Y-120867900D01*
X149072600Y-116419300D02*
X149072600Y-114020700D01*
X150039600Y-112318800D02*
X149987050Y-112266250D01*
X147889500Y-119708450D02*
X147889500Y-117602400D01*
X147889500Y-120867900D02*
X146405600Y-122351800D01*
X151561800Y-110007400D02*
X151612600Y-110007400D01*
X142671800Y-121793000D02*
X142671800Y-118402400D01*
X143230600Y-122351800D02*
X142671800Y-121793000D01*
X146724650Y-117792250D02*
X147699650Y-117792250D01*
X149072600Y-114020700D02*
X149987050Y-113106250D01*
X156874400Y-110773400D02*
X154076400Y-107975400D01*
X156874400Y-114782600D02*
X156874400Y-110773400D01*
X146724650Y-113982250D02*
X143788650Y-113982250D01*
X146724650Y-113982250D02*
X147536150Y-113982250D01*
X143788650Y-113982250D02*
X143154400Y-113348000D01*
X147536150Y-113982250D02*
X148437050Y-113081350D01*
X148437050Y-111607050D02*
X146837400Y-110007400D01*
X146724650Y-113982250D02*
X146724650Y-113978650D01*
X148437050Y-112266250D02*
X148437050Y-111607050D01*
X154076400Y-107975400D02*
X148869400Y-107975400D01*
X148437050Y-113081350D02*
X148437050Y-112266250D01*
X156874400Y-114782600D02*
X156874400Y-117043200D01*
X148869400Y-107975400D02*
X146837400Y-110007400D01*
X150814500Y-118652400D02*
X151674650Y-117792250D01*
X150814500Y-119708450D02*
X150814500Y-118652400D01*
X151674650Y-115252250D02*
X153479750Y-115252250D01*
X153479750Y-115252250D02*
X153949400Y-114782600D01*
X153949400Y-114782600D02*
X153949400Y-112816100D01*
X153949400Y-112816100D02*
X154624500Y-112141000D01*
X144780000Y-117491900D02*
X144780000Y-120167400D01*
X145749650Y-116522250D02*
X144780000Y-117491900D01*
X146724650Y-116522250D02*
X145749650Y-116522250D01*
X151674650Y-116522250D02*
X153428450Y-116522250D01*
X153428450Y-116522250D02*
X153949400Y-117043200D01*
X153949400Y-117043200D02*
X153949400Y-119009700D01*
X153949400Y-119009700D02*
X154624500Y-119684800D01*
D12*
X158999650Y-115887250D02*
G75*
G03*
X158999650Y-115887250I-9800000J0D01*
G01*
M02*
