%TF.GenerationSoftware,KiCad,Pcbnew,6.0.10-86aedd382b~118~ubuntu20.04.1*%
%TF.CreationDate,2023-01-05T00:51:07+02:00*%
%TF.ProjectId,PSU controller,50535520-636f-46e7-9472-6f6c6c65722e,rev?*%
%TF.SameCoordinates,Original*%
%TF.FileFunction,Copper,L1,Top*%
%TF.FilePolarity,Positive*%
%FSLAX46Y46*%
G04 Gerber Fmt 4.6, Leading zero omitted, Abs format (unit mm)*
G04 Created by KiCad (PCBNEW 6.0.10-86aedd382b~118~ubuntu20.04.1) date 2023-01-05 00:51:07*
%MOMM*%
%LPD*%
G01*
G04 APERTURE LIST*
%TA.AperFunction,Profile*%
%ADD10C,0.100000*%
%TD*%
%TA.AperFunction,ComponentPad*%
%ADD11O,1.500000X1.500000*%
%TD*%
%TA.AperFunction,ComponentPad*%
%ADD12R,1.500000X1.500000*%
%TD*%
%TA.AperFunction,ComponentPad*%
%ADD13C,2.500000*%
%TD*%
%TA.AperFunction,ComponentPad*%
%ADD14C,3.000000*%
%TD*%
%TA.AperFunction,ComponentPad*%
%ADD15O,1.050000X1.500000*%
%TD*%
%TA.AperFunction,ComponentPad*%
%ADD16R,1.050000X1.500000*%
%TD*%
%TA.AperFunction,ComponentPad*%
%ADD17O,1.700000X1.700000*%
%TD*%
%TA.AperFunction,ComponentPad*%
%ADD18R,1.700000X1.700000*%
%TD*%
%TA.AperFunction,ComponentPad*%
%ADD19R,3.000000X3.000000*%
%TD*%
%TA.AperFunction,ComponentPad*%
%ADD20O,1.600000X1.600000*%
%TD*%
%TA.AperFunction,ComponentPad*%
%ADD21C,1.600000*%
%TD*%
%TA.AperFunction,ComponentPad*%
%ADD22R,1.600000X1.600000*%
%TD*%
%TA.AperFunction,ComponentPad*%
%ADD23O,1.800000X1.800000*%
%TD*%
%TA.AperFunction,ComponentPad*%
%ADD24R,1.800000X1.800000*%
%TD*%
%TA.AperFunction,Conductor*%
%ADD25C,1.500000*%
%TD*%
%TA.AperFunction,Conductor*%
%ADD26C,0.800000*%
%TD*%
G04 APERTURE END LIST*
D10*
X2000000Y34385000D02*
X49625000Y34385000D01*
X49625000Y17240000D02*
X49625000Y2000000D01*
X49625000Y34385000D02*
X49625000Y17875000D01*
X2000000Y2000000D02*
X2000000Y34385000D01*
X49625000Y17875000D02*
X49625000Y17240000D01*
X49625000Y2000000D02*
X2000000Y2000000D01*
D11*
X44545000Y26125000D03*
D12*
X44545000Y18505000D03*
D13*
X18110000Y28235000D03*
D14*
X18160000Y15985000D03*
X6110000Y16035000D03*
D13*
X6110000Y28235000D03*
D14*
X12160000Y30185000D03*
D15*
X43165424Y29305000D03*
X41895424Y29305000D03*
D16*
X40625424Y29305000D03*
D17*
X36915000Y7055000D03*
X39455000Y7055000D03*
X41995000Y7055000D03*
D18*
X44535000Y7055000D03*
D14*
X17875000Y6445000D03*
D19*
X22955000Y6445000D03*
D20*
X47085000Y26130000D03*
D21*
X47085000Y18510000D03*
D20*
X39465000Y26130000D03*
D21*
X39465000Y18510000D03*
D20*
X42005000Y18510000D03*
D21*
X42005000Y26130000D03*
X42025000Y10255000D03*
X44525000Y10255000D03*
X40640000Y14700000D03*
D22*
X42640000Y14700000D03*
D23*
X46958000Y12824000D03*
D24*
X46958000Y15364000D03*
D14*
X12160000Y6445000D03*
D19*
X7080000Y6445000D03*
D13*
X35890000Y28235000D03*
D14*
X35940000Y15985000D03*
X23890000Y16035000D03*
D13*
X23890000Y28235000D03*
D14*
X29940000Y30185000D03*
D25*
X29940000Y30185000D02*
X29940000Y13430000D01*
X29940000Y13430000D02*
X22955000Y6445000D01*
X12160000Y30185000D02*
X3660000Y21685000D01*
X5085000Y3995000D02*
X15425000Y3995000D01*
X3660000Y5420000D02*
X5085000Y3995000D01*
X3660000Y21685000D02*
X3660000Y5420000D01*
X15425000Y3995000D02*
X17875000Y6445000D01*
X6110000Y16035000D02*
X6110000Y7415000D01*
X6110000Y7415000D02*
X7080000Y6445000D01*
X21750000Y16035000D02*
X12160000Y6445000D01*
X23890000Y16035000D02*
X21750000Y16035000D01*
D26*
X31840000Y32285000D02*
X22160000Y32285000D01*
X46958000Y12688000D02*
X44525000Y10255000D01*
X44535000Y7055000D02*
X41385000Y3905000D01*
X42640000Y12140000D02*
X44525000Y10255000D01*
X32114999Y6665787D02*
X32114999Y24459999D01*
X42640000Y14700000D02*
X42640000Y12140000D01*
X41385000Y3905000D02*
X34875786Y3905000D01*
X42640000Y16600000D02*
X42640000Y14700000D01*
X44535000Y7070000D02*
X44545000Y7080000D01*
X34875786Y3905000D02*
X32114999Y6665787D01*
X46958000Y12824000D02*
X46958000Y12688000D01*
X44545000Y18505000D02*
X42640000Y16600000D01*
X32114999Y24459999D02*
X35890000Y28235000D01*
X22160000Y32285000D02*
X18110000Y28235000D01*
X44525000Y7100000D02*
X44525000Y10255000D01*
X35890000Y28235000D02*
X31840000Y32285000D01*
X44535000Y7055000D02*
X44535000Y7070000D01*
X44525000Y10255000D02*
X44545000Y10255000D01*
X44545000Y7080000D02*
X44525000Y7100000D01*
X39455000Y7055000D02*
X37575000Y5175000D01*
X35020000Y5175000D02*
X33115000Y7080000D01*
X40640000Y11640000D02*
X42025000Y10255000D01*
X38195000Y26130000D02*
X39465000Y26130000D01*
X37575000Y5175000D02*
X35020000Y5175000D01*
X39455000Y7055000D02*
X41995000Y7055000D01*
X41995000Y10225000D02*
X42025000Y10255000D01*
X39465000Y28144576D02*
X40625424Y29305000D01*
X41995000Y7055000D02*
X41995000Y10225000D01*
X40640000Y14700000D02*
X40640000Y11640000D01*
X33115000Y7080000D02*
X33115000Y21050000D01*
X39465000Y26130000D02*
X39465000Y28144576D01*
X33115000Y21050000D02*
X38195000Y26130000D01*
X38830000Y10890000D02*
X36915000Y8975000D01*
X36915000Y8975000D02*
X36915000Y7055000D01*
X42005000Y18510000D02*
X38830000Y15335000D01*
X38830000Y15335000D02*
X38830000Y10890000D01*
X43165424Y29305000D02*
X43165424Y27504576D01*
X17598704Y26130000D02*
X21785000Y26130000D01*
X18045001Y33285001D02*
X16260000Y31500000D01*
X21785000Y26130000D02*
X23890000Y28235000D01*
X43165424Y27504576D02*
X44545000Y26125000D01*
X18045001Y33285001D02*
X11160001Y33285001D01*
X16260000Y27468704D02*
X17598704Y26130000D01*
X11160001Y33285001D02*
X6110000Y28235000D01*
X43165424Y29305000D02*
X43165424Y30855000D01*
X43165424Y30855000D02*
X40735423Y33285001D01*
X40735423Y33285001D02*
X18045001Y33285001D01*
X16260000Y31500000D02*
X16260000Y27468704D01*
X44545000Y26125000D02*
X47080000Y26125000D01*
X47080000Y26125000D02*
X47085000Y26130000D01*
X47085000Y18510000D02*
X47085000Y15491000D01*
X47085000Y15491000D02*
X46958000Y15364000D01*
X39465000Y23590000D02*
X42005000Y26130000D01*
X39465000Y18510000D02*
X39465000Y23590000D01*
X42005000Y26130000D02*
X42005000Y29195424D01*
X42005000Y29195424D02*
X41895424Y29305000D01*
M02*
