%TF.GenerationSoftware,KiCad,Pcbnew,7.0.8*%
%TF.CreationDate,2023-12-07T21:12:40+02:00*%
%TF.ProjectId,limit_switch,6c696d69-745f-4737-9769-7463682e6b69,rev?*%
%TF.SameCoordinates,Original*%
%TF.FileFunction,Copper,L1,Top*%
%TF.FilePolarity,Positive*%
%FSLAX46Y46*%
G04 Gerber Fmt 4.6, Leading zero omitted, Abs format (unit mm)*
G04 Created by KiCad (PCBNEW 7.0.8) date 2023-12-07 21:12:40*
%MOMM*%
%LPD*%
G01*
G04 APERTURE LIST*
G04 Aperture macros list*
%AMRoundRect*
0 Rectangle with rounded corners*
0 $1 Rounding radius*
0 $2 $3 $4 $5 $6 $7 $8 $9 X,Y pos of 4 corners*
0 Add a 4 corners polygon primitive as box body*
4,1,4,$2,$3,$4,$5,$6,$7,$8,$9,$2,$3,0*
0 Add four circle primitives for the rounded corners*
1,1,$1+$1,$2,$3*
1,1,$1+$1,$4,$5*
1,1,$1+$1,$6,$7*
1,1,$1+$1,$8,$9*
0 Add four rect primitives between the rounded corners*
20,1,$1+$1,$2,$3,$4,$5,0*
20,1,$1+$1,$4,$5,$6,$7,0*
20,1,$1+$1,$6,$7,$8,$9,0*
20,1,$1+$1,$8,$9,$2,$3,0*%
G04 Aperture macros list end*
%TA.AperFunction,ComponentPad*%
%ADD10RoundRect,0.250000X-0.725000X0.600000X-0.725000X-0.600000X0.725000X-0.600000X0.725000X0.600000X0*%
%TD*%
%TA.AperFunction,ComponentPad*%
%ADD11O,1.950000X1.700000*%
%TD*%
%TA.AperFunction,ComponentPad*%
%ADD12C,1.600000*%
%TD*%
%TA.AperFunction,ComponentPad*%
%ADD13O,1.600000X1.600000*%
%TD*%
%TA.AperFunction,ComponentPad*%
%ADD14RoundRect,0.250000X0.750000X-0.600000X0.750000X0.600000X-0.750000X0.600000X-0.750000X-0.600000X0*%
%TD*%
%TA.AperFunction,ComponentPad*%
%ADD15O,2.000000X1.700000*%
%TD*%
%TA.AperFunction,ComponentPad*%
%ADD16RoundRect,0.250000X0.600000X0.750000X-0.600000X0.750000X-0.600000X-0.750000X0.600000X-0.750000X0*%
%TD*%
%TA.AperFunction,ComponentPad*%
%ADD17O,1.700000X2.000000*%
%TD*%
%TA.AperFunction,ComponentPad*%
%ADD18R,1.600000X1.600000*%
%TD*%
%TA.AperFunction,ComponentPad*%
%ADD19RoundRect,0.250000X-0.750000X0.600000X-0.750000X-0.600000X0.750000X-0.600000X0.750000X0.600000X0*%
%TD*%
%TA.AperFunction,Conductor*%
%ADD20C,0.800000*%
%TD*%
%TA.AperFunction,Profile*%
%ADD21C,0.100000*%
%TD*%
G04 APERTURE END LIST*
D10*
X42397000Y15274000D03*
D11*
X42397000Y12774000D03*
X42397000Y10274000D03*
D12*
X35147000Y7774000D03*
X35147000Y2774000D03*
X11986000Y19673000D03*
D13*
X19606000Y19673000D03*
D14*
X8764500Y4274000D03*
D15*
X8764500Y6774000D03*
D14*
X8797000Y12774000D03*
D15*
X8797000Y15274000D03*
D12*
X32147000Y7774000D03*
X32147000Y2774000D03*
D14*
X8897000Y21274000D03*
D15*
X8897000Y23774000D03*
D16*
X16397000Y8306500D03*
D17*
X13897000Y8306500D03*
D18*
X21775000Y14090000D03*
D13*
X21775000Y11550000D03*
X29395000Y11550000D03*
X29395000Y14090000D03*
D12*
X39147000Y22274000D03*
D13*
X31527000Y22274000D03*
D12*
X39147000Y10274000D03*
D13*
X31527000Y10274000D03*
D12*
X11986000Y14720000D03*
D13*
X19606000Y14720000D03*
D12*
X38147000Y7774000D03*
X38147000Y2774000D03*
X39147000Y13274000D03*
D13*
X31527000Y13274000D03*
D12*
X39147000Y25274000D03*
D13*
X31527000Y25274000D03*
D19*
X42397000Y23774000D03*
D15*
X42397000Y21274000D03*
D18*
X21775000Y19678000D03*
D13*
X21775000Y17138000D03*
X29395000Y17138000D03*
X29395000Y19678000D03*
D12*
X11986000Y25261000D03*
D13*
X19606000Y25261000D03*
D12*
X39147000Y16274000D03*
D13*
X31527000Y16274000D03*
D18*
X21775000Y25266000D03*
D13*
X21775000Y22726000D03*
X29395000Y22726000D03*
X29395000Y25266000D03*
D12*
X39147000Y19274000D03*
D13*
X31527000Y19274000D03*
D20*
X45972000Y17699000D02*
X42397000Y21274000D01*
X29395000Y5526000D02*
X32147000Y2774000D01*
X27995000Y18538000D02*
X27995000Y12950000D01*
X45972000Y8844962D02*
X45972000Y17699000D01*
X39901038Y2774000D02*
X45972000Y8844962D01*
X29395000Y11550000D02*
X29395000Y5526000D01*
X35147000Y2774000D02*
X38147000Y2774000D01*
X32147000Y2774000D02*
X35147000Y2774000D01*
X27995000Y12950000D02*
X29395000Y11550000D01*
X38147000Y2774000D02*
X39901038Y2774000D01*
X29395000Y22726000D02*
X27995000Y21326000D01*
X27995000Y21326000D02*
X27995000Y18538000D01*
X27995000Y18538000D02*
X29395000Y17138000D01*
X11986000Y19673000D02*
X11986000Y25261000D01*
X11986000Y14720000D02*
X11986000Y19673000D01*
X10384000Y25261000D02*
X8897000Y23774000D01*
X11986000Y25261000D02*
X10384000Y25261000D01*
X39147000Y16274000D02*
X39147000Y19274000D01*
X39147000Y16274000D02*
X39147000Y13274000D01*
X39147000Y13274000D02*
X39147000Y10274000D01*
X39147000Y25274000D02*
X40897000Y25274000D01*
X40897000Y25274000D02*
X42397000Y23774000D01*
X39147000Y22274000D02*
X39147000Y25274000D01*
X39147000Y19274000D02*
X39147000Y22274000D01*
X9452101Y15274000D02*
X8797000Y15274000D01*
X18206000Y20252899D02*
X20679101Y22726000D01*
X12943002Y13320000D02*
X18206000Y18582998D01*
X11406101Y13320000D02*
X9452101Y15274000D01*
X12943002Y13320000D02*
X11406101Y13320000D01*
X18206000Y18582998D02*
X18206000Y20252899D01*
X20679101Y22726000D02*
X21775000Y22726000D01*
X9680101Y6774000D02*
X20044101Y17138000D01*
X20044101Y17138000D02*
X21775000Y17138000D01*
X8764500Y6774000D02*
X9680101Y6774000D01*
X13897000Y8306500D02*
X13897000Y8365510D01*
X13897000Y8365510D02*
X17081490Y11550000D01*
X17081490Y11550000D02*
X21775000Y11550000D01*
X21775000Y25266000D02*
X19611000Y25266000D01*
X19611000Y25266000D02*
X19606000Y25261000D01*
X19611000Y19678000D02*
X19606000Y19673000D01*
X19606000Y19673000D02*
X21770000Y19673000D01*
X21770000Y19673000D02*
X21775000Y19678000D01*
X19606000Y14720000D02*
X21145000Y14720000D01*
X21145000Y14720000D02*
X21775000Y14090000D01*
X29403000Y25274000D02*
X29395000Y25266000D01*
X36597000Y9324000D02*
X38147000Y7774000D01*
X31527000Y25274000D02*
X29403000Y25274000D01*
X36597000Y17204000D02*
X36597000Y9324000D01*
X29400000Y25261000D02*
X29395000Y25266000D01*
X31527000Y22274000D02*
X36597000Y17204000D01*
X38147000Y7774000D02*
X39897000Y7774000D01*
X31527000Y22274000D02*
X31527000Y25274000D01*
X39897000Y7774000D02*
X42397000Y10274000D01*
X43972000Y9673390D02*
X43972000Y11199000D01*
X34647000Y16274000D02*
X35147000Y15774000D01*
X29400000Y19673000D02*
X29395000Y19678000D01*
X29395000Y19678000D02*
X31123000Y19678000D01*
X35147000Y15774000D02*
X35147000Y7774000D01*
X31527000Y16274000D02*
X34647000Y16274000D01*
X31527000Y19274000D02*
X31527000Y16274000D01*
X43972000Y11199000D02*
X42397000Y12774000D01*
X40672610Y6374000D02*
X43972000Y9673390D01*
X35147000Y7774000D02*
X36547000Y6374000D01*
X36547000Y6374000D02*
X40672610Y6374000D01*
X31123000Y19678000D02*
X31527000Y19274000D01*
X31527000Y13274000D02*
X31527000Y10274000D01*
X31527000Y10274000D02*
X31527000Y8394000D01*
X41086823Y5373999D02*
X44972000Y9259176D01*
X30711000Y14090000D02*
X31527000Y13274000D01*
X34547000Y5374000D02*
X41086823Y5373999D01*
X29395000Y14090000D02*
X30711000Y14090000D01*
X31527000Y8394000D02*
X32147000Y7774000D01*
X44972000Y12699000D02*
X42397000Y15274000D01*
X44972000Y9259176D02*
X44972000Y12699000D01*
X32147000Y7774000D02*
X34547000Y5374000D01*
X8897000Y21274000D02*
X7197000Y19574000D01*
X7197000Y19574000D02*
X7197000Y14374000D01*
X7164500Y14341500D02*
X7164500Y5874000D01*
X7197000Y14374000D02*
X8797000Y12774000D01*
X8764500Y4274000D02*
X12364500Y4274000D01*
X7164500Y5874000D02*
X8764500Y4274000D01*
X7197000Y14374000D02*
X7164500Y14341500D01*
X12364500Y4274000D02*
X16397000Y8306500D01*
D21*
X49897000Y1524000D02*
X1397000Y1524000D01*
X1397000Y26912000D02*
X49897000Y26874000D01*
X1397000Y26912000D02*
X1397000Y1524000D01*
X49897000Y26874000D02*
X49897000Y1524000D01*
M02*
