%TF.GenerationSoftware,KiCad,Pcbnew,7.0.8*%
%TF.CreationDate,2023-12-13T18:07:35+02:00*%
%TF.ProjectId,limit_switch,6c696d69-745f-4737-9769-7463682e6b69,rev?*%
%TF.SameCoordinates,Original*%
%TF.FileFunction,Copper,L1,Top*%
%TF.FilePolarity,Positive*%
%FSLAX46Y46*%
G04 Gerber Fmt 4.6, Leading zero omitted, Abs format (unit mm)*
G04 Created by KiCad (PCBNEW 7.0.8) date 2023-12-13 18:07:35*
%MOMM*%
%LPD*%
G01*
G04 APERTURE LIST*
G04 Aperture macros list*
%AMRoundRect*
0 Rectangle with rounded corners*
0 $1 Rounding radius*
0 $2 $3 $4 $5 $6 $7 $8 $9 X,Y pos of 4 corners*
0 Add a 4 corners polygon primitive as box body*
4,1,4,$2,$3,$4,$5,$6,$7,$8,$9,$2,$3,0*
0 Add four circle primitives for the rounded corners*
1,1,$1+$1,$2,$3*
1,1,$1+$1,$4,$5*
1,1,$1+$1,$6,$7*
1,1,$1+$1,$8,$9*
0 Add four rect primitives between the rounded corners*
20,1,$1+$1,$2,$3,$4,$5,0*
20,1,$1+$1,$4,$5,$6,$7,0*
20,1,$1+$1,$6,$7,$8,$9,0*
20,1,$1+$1,$8,$9,$2,$3,0*%
G04 Aperture macros list end*
%TA.AperFunction,ComponentPad*%
%ADD10RoundRect,0.250000X-0.725000X0.600000X-0.725000X-0.600000X0.725000X-0.600000X0.725000X0.600000X0*%
%TD*%
%TA.AperFunction,ComponentPad*%
%ADD11O,1.950000X1.700000*%
%TD*%
%TA.AperFunction,ComponentPad*%
%ADD12C,1.600000*%
%TD*%
%TA.AperFunction,ComponentPad*%
%ADD13O,1.600000X1.600000*%
%TD*%
%TA.AperFunction,ComponentPad*%
%ADD14RoundRect,0.250000X0.750000X-0.600000X0.750000X0.600000X-0.750000X0.600000X-0.750000X-0.600000X0*%
%TD*%
%TA.AperFunction,ComponentPad*%
%ADD15O,2.000000X1.700000*%
%TD*%
%TA.AperFunction,ComponentPad*%
%ADD16RoundRect,0.250000X0.600000X0.750000X-0.600000X0.750000X-0.600000X-0.750000X0.600000X-0.750000X0*%
%TD*%
%TA.AperFunction,ComponentPad*%
%ADD17O,1.700000X2.000000*%
%TD*%
%TA.AperFunction,ComponentPad*%
%ADD18R,1.600000X1.600000*%
%TD*%
%TA.AperFunction,ComponentPad*%
%ADD19RoundRect,0.250000X-0.750000X0.600000X-0.750000X-0.600000X0.750000X-0.600000X0.750000X0.600000X0*%
%TD*%
%TA.AperFunction,Conductor*%
%ADD20C,0.800000*%
%TD*%
%TA.AperFunction,Profile*%
%ADD21C,0.100000*%
%TD*%
G04 APERTURE END LIST*
D10*
X193273000Y-94581000D03*
D11*
X193273000Y-97081000D03*
X193273000Y-99581000D03*
D12*
X186023000Y-102081000D03*
X186023000Y-107081000D03*
X162862000Y-90182000D03*
D13*
X170482000Y-90182000D03*
D14*
X159640500Y-105581000D03*
D15*
X159640500Y-103081000D03*
D14*
X159673000Y-97081000D03*
D15*
X159673000Y-94581000D03*
D12*
X183023000Y-102081000D03*
X183023000Y-107081000D03*
D14*
X159773000Y-88581000D03*
D15*
X159773000Y-86081000D03*
D16*
X167273000Y-101548500D03*
D17*
X164773000Y-101548500D03*
D18*
X172651000Y-95765000D03*
D13*
X172651000Y-98305000D03*
X180271000Y-98305000D03*
X180271000Y-95765000D03*
D12*
X190023000Y-87581000D03*
D13*
X182403000Y-87581000D03*
D12*
X190023000Y-99581000D03*
D13*
X182403000Y-99581000D03*
D12*
X162862000Y-95135000D03*
D13*
X170482000Y-95135000D03*
D12*
X189023000Y-102081000D03*
X189023000Y-107081000D03*
X190023000Y-96581000D03*
D13*
X182403000Y-96581000D03*
D12*
X190023000Y-84581000D03*
D13*
X182403000Y-84581000D03*
D19*
X193273000Y-86081000D03*
D15*
X193273000Y-88581000D03*
D18*
X172651000Y-90177000D03*
D13*
X172651000Y-92717000D03*
X180271000Y-92717000D03*
X180271000Y-90177000D03*
D12*
X162862000Y-84594000D03*
D13*
X170482000Y-84594000D03*
D12*
X190023000Y-93581000D03*
D13*
X182403000Y-93581000D03*
D18*
X172651000Y-84589000D03*
D13*
X172651000Y-87129000D03*
X180271000Y-87129000D03*
X180271000Y-84589000D03*
D12*
X190023000Y-90581000D03*
D13*
X182403000Y-90581000D03*
D20*
X196848000Y-92156000D02*
X193273000Y-88581000D01*
X180271000Y-104329000D02*
X183023000Y-107081000D01*
X178871000Y-91317000D02*
X178871000Y-96905000D01*
X196848000Y-101010038D02*
X196848000Y-92156000D01*
X190777038Y-107081000D02*
X196848000Y-101010038D01*
X180271000Y-98305000D02*
X180271000Y-104329000D01*
X186023000Y-107081000D02*
X189023000Y-107081000D01*
X183023000Y-107081000D02*
X186023000Y-107081000D01*
X178871000Y-96905000D02*
X180271000Y-98305000D01*
X189023000Y-107081000D02*
X190777038Y-107081000D01*
X180271000Y-87129000D02*
X178871000Y-88529000D01*
X178871000Y-88529000D02*
X178871000Y-91317000D01*
X178871000Y-91317000D02*
X180271000Y-92717000D01*
X162862000Y-90182000D02*
X162862000Y-84594000D01*
X162862000Y-95135000D02*
X162862000Y-90182000D01*
X161260000Y-84594000D02*
X159773000Y-86081000D01*
X162862000Y-84594000D02*
X161260000Y-84594000D01*
X190023000Y-93581000D02*
X190023000Y-90581000D01*
X190023000Y-93581000D02*
X190023000Y-96581000D01*
X190023000Y-96581000D02*
X190023000Y-99581000D01*
X190023000Y-84581000D02*
X191773000Y-84581000D01*
X191773000Y-84581000D02*
X193273000Y-86081000D01*
X190023000Y-87581000D02*
X190023000Y-84581000D01*
X190023000Y-90581000D02*
X190023000Y-87581000D01*
X160328101Y-94581000D02*
X159673000Y-94581000D01*
X169082000Y-89602101D02*
X171555101Y-87129000D01*
X163819002Y-96535000D02*
X169082000Y-91272002D01*
X162282101Y-96535000D02*
X160328101Y-94581000D01*
X163819002Y-96535000D02*
X162282101Y-96535000D01*
X169082000Y-91272002D02*
X169082000Y-89602101D01*
X171555101Y-87129000D02*
X172651000Y-87129000D01*
X160556101Y-103081000D02*
X170920101Y-92717000D01*
X170920101Y-92717000D02*
X172651000Y-92717000D01*
X159640500Y-103081000D02*
X160556101Y-103081000D01*
X164773000Y-101548500D02*
X164773000Y-101489490D01*
X164773000Y-101489490D02*
X167957490Y-98305000D01*
X167957490Y-98305000D02*
X172651000Y-98305000D01*
X172651000Y-84589000D02*
X170487000Y-84589000D01*
X170487000Y-84589000D02*
X170482000Y-84594000D01*
X170487000Y-90177000D02*
X170482000Y-90182000D01*
X170482000Y-90182000D02*
X172646000Y-90182000D01*
X172646000Y-90182000D02*
X172651000Y-90177000D01*
X170482000Y-95135000D02*
X172021000Y-95135000D01*
X172021000Y-95135000D02*
X172651000Y-95765000D01*
X180279000Y-84581000D02*
X180271000Y-84589000D01*
X187473000Y-100531000D02*
X189023000Y-102081000D01*
X182403000Y-84581000D02*
X180279000Y-84581000D01*
X187473000Y-92651000D02*
X187473000Y-100531000D01*
X180276000Y-84594000D02*
X180271000Y-84589000D01*
X182403000Y-87581000D02*
X187473000Y-92651000D01*
X189023000Y-102081000D02*
X190773000Y-102081000D01*
X182403000Y-87581000D02*
X182403000Y-84581000D01*
X190773000Y-102081000D02*
X193273000Y-99581000D01*
X194848000Y-100181610D02*
X194848000Y-98656000D01*
X185523000Y-93581000D02*
X186023000Y-94081000D01*
X180276000Y-90182000D02*
X180271000Y-90177000D01*
X180271000Y-90177000D02*
X181999000Y-90177000D01*
X186023000Y-94081000D02*
X186023000Y-102081000D01*
X182403000Y-93581000D02*
X185523000Y-93581000D01*
X182403000Y-90581000D02*
X182403000Y-93581000D01*
X194848000Y-98656000D02*
X193273000Y-97081000D01*
X191548610Y-103481000D02*
X194848000Y-100181610D01*
X186023000Y-102081000D02*
X187423000Y-103481000D01*
X187423000Y-103481000D02*
X191548610Y-103481000D01*
X181999000Y-90177000D02*
X182403000Y-90581000D01*
X182403000Y-96581000D02*
X182403000Y-99581000D01*
X182403000Y-99581000D02*
X182403000Y-101461000D01*
X191962823Y-104481001D02*
X195848000Y-100595824D01*
X181587000Y-95765000D02*
X182403000Y-96581000D01*
X185423000Y-104481000D02*
X191962823Y-104481001D01*
X180271000Y-95765000D02*
X181587000Y-95765000D01*
X182403000Y-101461000D02*
X183023000Y-102081000D01*
X195848000Y-97156000D02*
X193273000Y-94581000D01*
X195848000Y-100595824D02*
X195848000Y-97156000D01*
X183023000Y-102081000D02*
X185423000Y-104481000D01*
X159773000Y-88581000D02*
X158073000Y-90281000D01*
X158073000Y-90281000D02*
X158073000Y-95481000D01*
X158040500Y-95513500D02*
X158040500Y-103981000D01*
X158073000Y-95481000D02*
X159673000Y-97081000D01*
X159640500Y-105581000D02*
X163240500Y-105581000D01*
X158040500Y-103981000D02*
X159640500Y-105581000D01*
X158073000Y-95481000D02*
X158040500Y-95513500D01*
X163240500Y-105581000D02*
X167273000Y-101548500D01*
D21*
X200773000Y-108331000D02*
X152273000Y-108331000D01*
X152273000Y-82943000D02*
X200773000Y-82981000D01*
X152273000Y-82943000D02*
X152273000Y-108331000D01*
X200773000Y-82981000D02*
X200773000Y-108331000D01*
M02*
