G04 EAGLE Gerber RS-274X export*
G75*
%MOMM*%
%FSLAX34Y34*%
%LPD*%
%INBottom Copper*%
%IPPOS*%
%AMOC8*%
G01*
%ADD10C,0.6858*%
%ADD11C,2.184*%
%ADD12C,1.93*%
%ADD13P,2.364X8X112.5*%
%ADD14P,1.815X8X112.5*%
%ADD15C,1.676*%
%ADD16C,1.676*%
%ADD17C,3*%
%ADD18C,3.5*%
%ADD19R,2.54X2.54*%
%ADD20C,2.54*%
%ADD21C,1.321*%
%ADD22C,5*%
%ADD23C,2*%
%ADD24C,3.81*%
%ADD25R,3.81X3.81*%
%ADD26C,2.032*%
%ADD27R,2.184X2.184*%
%ADD28C,1.93*%
%ADD29C,0.254*%
%ADD30C,1.016*%
%ADD31C,5.08*%
%ADD32C,1.27*%
%ADD33C,6.452*%
%ADD34C,0.8128*%
%ADD35C,5.08*%
%ADD36C,1.422*%
G36*
X862629Y372307D02*
X862629Y372307D01*
X862622Y372188D01*
X862609Y372150D01*
X862604Y372109D01*
X862561Y371999D01*
X862524Y371886D01*
X862502Y371851D01*
X862487Y371814D01*
X862417Y371718D01*
X862354Y371617D01*
X862324Y371589D01*
X862301Y371556D01*
X862209Y371480D01*
X862122Y371399D01*
X862087Y371379D01*
X862056Y371354D01*
X861948Y371303D01*
X861844Y371245D01*
X861804Y371235D01*
X861768Y371218D01*
X861651Y371196D01*
X861536Y371166D01*
X861475Y371162D01*
X861455Y371158D01*
X861435Y371160D01*
X861375Y371156D01*
X577530Y371156D01*
X577412Y371171D01*
X577293Y371178D01*
X577255Y371191D01*
X577214Y371196D01*
X577104Y371239D01*
X576991Y371276D01*
X576956Y371298D01*
X576919Y371313D01*
X576823Y371382D01*
X576722Y371446D01*
X576694Y371476D01*
X576661Y371499D01*
X576585Y371591D01*
X576504Y371678D01*
X576484Y371713D01*
X576459Y371744D01*
X576408Y371852D01*
X576350Y371956D01*
X576340Y371996D01*
X576323Y372032D01*
X576301Y372149D01*
X576271Y372264D01*
X576267Y372324D01*
X576263Y372344D01*
X576265Y372365D01*
X576261Y372425D01*
X576261Y396810D01*
X576273Y396908D01*
X576276Y397008D01*
X576293Y397066D01*
X576301Y397126D01*
X576337Y397218D01*
X576365Y397313D01*
X576395Y397365D01*
X576418Y397422D01*
X576476Y397502D01*
X576526Y397587D01*
X576592Y397662D01*
X576604Y397679D01*
X576614Y397687D01*
X576632Y397708D01*
X581965Y403041D01*
X582043Y403101D01*
X582116Y403169D01*
X582169Y403198D01*
X582216Y403235D01*
X582307Y403275D01*
X582394Y403323D01*
X582453Y403338D01*
X582508Y403362D01*
X582606Y403377D01*
X582702Y403402D01*
X582719Y403403D01*
X590023Y406429D01*
X590602Y407008D01*
X590696Y407081D01*
X590786Y407160D01*
X590822Y407178D01*
X590854Y407203D01*
X590963Y407250D01*
X591069Y407304D01*
X591108Y407313D01*
X591146Y407329D01*
X591263Y407348D01*
X591379Y407374D01*
X591420Y407373D01*
X591460Y407379D01*
X591578Y407368D01*
X591697Y407364D01*
X591736Y407353D01*
X591776Y407349D01*
X591888Y407309D01*
X592003Y407276D01*
X592038Y407255D01*
X592076Y407242D01*
X592174Y407175D01*
X592277Y407114D01*
X592322Y407075D01*
X592339Y407063D01*
X592352Y407048D01*
X592397Y407008D01*
X592977Y406429D01*
X600259Y403412D01*
X608141Y403412D01*
X615423Y406429D01*
X620996Y412002D01*
X624013Y419284D01*
X624013Y427166D01*
X620996Y434448D01*
X619812Y435632D01*
X619752Y435710D01*
X619684Y435782D01*
X619655Y435835D01*
X619618Y435883D01*
X619578Y435974D01*
X619530Y436061D01*
X619515Y436119D01*
X619491Y436175D01*
X619476Y436273D01*
X619451Y436369D01*
X619445Y436469D01*
X619441Y436489D01*
X619443Y436501D01*
X619441Y436529D01*
X619441Y454832D01*
X617120Y460433D01*
X607112Y470441D01*
X607052Y470519D01*
X606984Y470592D01*
X606955Y470645D01*
X606918Y470692D01*
X606878Y470783D01*
X606830Y470870D01*
X606815Y470929D01*
X606791Y470984D01*
X606776Y471082D01*
X606751Y471178D01*
X606745Y471278D01*
X606741Y471298D01*
X606743Y471311D01*
X606741Y471339D01*
X606741Y478392D01*
X606753Y478490D01*
X606756Y478589D01*
X606773Y478647D01*
X606781Y478707D01*
X606817Y478799D01*
X606845Y478894D01*
X606875Y478947D01*
X606898Y479003D01*
X606956Y479083D01*
X607006Y479168D01*
X607072Y479243D01*
X607084Y479260D01*
X607094Y479268D01*
X607113Y479289D01*
X607220Y479396D01*
X610043Y486212D01*
X610043Y493588D01*
X607220Y500404D01*
X602004Y505620D01*
X595188Y508443D01*
X587812Y508443D01*
X582107Y506080D01*
X582079Y506072D01*
X582052Y506059D01*
X581925Y506030D01*
X581800Y505996D01*
X581771Y505995D01*
X581742Y505989D01*
X581612Y505993D01*
X581482Y505991D01*
X581454Y505998D01*
X581424Y505999D01*
X581299Y506035D01*
X581173Y506065D01*
X581147Y506079D01*
X581119Y506087D01*
X581007Y506153D01*
X580892Y506214D01*
X580870Y506233D01*
X580845Y506249D01*
X580724Y506355D01*
X569012Y518066D01*
X568952Y518144D01*
X568884Y518217D01*
X568855Y518270D01*
X568818Y518317D01*
X568778Y518408D01*
X568730Y518495D01*
X568715Y518554D01*
X568691Y518609D01*
X568676Y518707D01*
X568651Y518803D01*
X568645Y518903D01*
X568641Y518923D01*
X568643Y518936D01*
X568641Y518964D01*
X568641Y541120D01*
X568656Y541244D01*
X568666Y541370D01*
X568676Y541402D01*
X568681Y541435D01*
X568727Y541552D01*
X568767Y541671D01*
X568785Y541700D01*
X568798Y541731D01*
X568871Y541833D01*
X568940Y541938D01*
X568965Y541961D01*
X568984Y541988D01*
X569081Y542068D01*
X569174Y542154D01*
X569203Y542170D01*
X569229Y542191D01*
X569343Y542245D01*
X569454Y542304D01*
X569487Y542312D01*
X569517Y542327D01*
X569640Y542350D01*
X569763Y542380D01*
X569796Y542380D01*
X569829Y542386D01*
X569955Y542379D01*
X570081Y542377D01*
X570129Y542368D01*
X570147Y542367D01*
X570167Y542360D01*
X570238Y542346D01*
X575488Y540939D01*
X582112Y540939D01*
X588512Y542654D01*
X590230Y543646D01*
X590353Y543698D01*
X590472Y543754D01*
X590499Y543759D01*
X590524Y543769D01*
X590655Y543789D01*
X590785Y543814D01*
X590811Y543812D01*
X590838Y543816D01*
X590970Y543802D01*
X591102Y543794D01*
X591128Y543786D01*
X591154Y543783D01*
X591279Y543737D01*
X591404Y543696D01*
X591427Y543681D01*
X591453Y543672D01*
X591561Y543597D01*
X591673Y543526D01*
X591692Y543506D01*
X591714Y543491D01*
X591800Y543391D01*
X591891Y543294D01*
X591904Y543271D01*
X591922Y543250D01*
X591981Y543131D01*
X592045Y543016D01*
X592051Y542990D01*
X592063Y542965D01*
X592091Y542836D01*
X592124Y542708D01*
X592126Y542670D01*
X592130Y542654D01*
X592129Y542632D01*
X592134Y542547D01*
X592134Y534493D01*
X594455Y528892D01*
X639388Y483959D01*
X639448Y483881D01*
X639516Y483808D01*
X639545Y483755D01*
X639582Y483708D01*
X639622Y483617D01*
X639670Y483530D01*
X639685Y483471D01*
X639709Y483416D01*
X639724Y483318D01*
X639749Y483222D01*
X639755Y483122D01*
X639759Y483102D01*
X639757Y483089D01*
X639759Y483061D01*
X639759Y445593D01*
X642080Y439992D01*
X659067Y423005D01*
X664668Y420684D01*
X678000Y420684D01*
X678098Y420672D01*
X678197Y420669D01*
X678255Y420652D01*
X678315Y420644D01*
X678407Y420608D01*
X678502Y420580D01*
X678554Y420550D01*
X678611Y420527D01*
X678691Y420469D01*
X678776Y420419D01*
X678852Y420353D01*
X678868Y420341D01*
X678876Y420331D01*
X678897Y420313D01*
X684367Y414842D01*
X701833Y414842D01*
X714183Y427192D01*
X714183Y444658D01*
X701833Y457008D01*
X684367Y457008D01*
X678897Y451537D01*
X678819Y451477D01*
X678747Y451409D01*
X678694Y451380D01*
X678646Y451343D01*
X678555Y451303D01*
X678468Y451255D01*
X678410Y451240D01*
X678354Y451216D01*
X678256Y451201D01*
X678160Y451176D01*
X678060Y451170D01*
X678040Y451166D01*
X678028Y451168D01*
X678000Y451166D01*
X674539Y451166D01*
X674440Y451178D01*
X674341Y451181D01*
X674283Y451198D01*
X674223Y451206D01*
X674131Y451242D01*
X674036Y451270D01*
X673984Y451300D01*
X673927Y451323D01*
X673847Y451381D01*
X673762Y451431D01*
X673687Y451497D01*
X673670Y451509D01*
X673662Y451519D01*
X673641Y451537D01*
X670612Y454566D01*
X670552Y454644D01*
X670484Y454717D01*
X670455Y454770D01*
X670418Y454817D01*
X670378Y454908D01*
X670330Y454995D01*
X670315Y455054D01*
X670291Y455109D01*
X670276Y455207D01*
X670251Y455303D01*
X670245Y455403D01*
X670241Y455423D01*
X670243Y455436D01*
X670241Y455464D01*
X670241Y476705D01*
X670258Y476842D01*
X670271Y476981D01*
X670278Y477000D01*
X670281Y477020D01*
X670332Y477149D01*
X670379Y477280D01*
X670390Y477297D01*
X670398Y477316D01*
X670479Y477428D01*
X670557Y477543D01*
X670573Y477557D01*
X670584Y477573D01*
X670692Y477662D01*
X670796Y477754D01*
X670814Y477763D01*
X670829Y477776D01*
X670955Y477835D01*
X671079Y477898D01*
X671099Y477903D01*
X671117Y477911D01*
X671253Y477938D01*
X671389Y477968D01*
X671410Y477967D01*
X671429Y477971D01*
X671568Y477963D01*
X671707Y477958D01*
X671727Y477953D01*
X671747Y477952D01*
X671879Y477909D01*
X672013Y477870D01*
X672030Y477860D01*
X672049Y477853D01*
X672167Y477779D01*
X672287Y477708D01*
X672308Y477690D01*
X672318Y477683D01*
X672332Y477668D01*
X672407Y477602D01*
X684367Y465642D01*
X701833Y465642D01*
X714183Y477992D01*
X714183Y495458D01*
X701833Y507808D01*
X684367Y507808D01*
X672017Y495458D01*
X672017Y495024D01*
X672009Y494954D01*
X672010Y494885D01*
X671989Y494797D01*
X671977Y494708D01*
X671952Y494643D01*
X671935Y494575D01*
X671893Y494496D01*
X671860Y494412D01*
X671819Y494356D01*
X671787Y494294D01*
X671726Y494228D01*
X671674Y494155D01*
X671620Y494110D01*
X671573Y494059D01*
X671498Y494009D01*
X671429Y493952D01*
X671365Y493922D01*
X671307Y493884D01*
X671222Y493855D01*
X671141Y493817D01*
X671072Y493804D01*
X671006Y493781D01*
X670917Y493774D01*
X670829Y493757D01*
X670759Y493761D01*
X670689Y493756D01*
X670601Y493771D01*
X670511Y493777D01*
X670445Y493798D01*
X670376Y493810D01*
X670294Y493847D01*
X670209Y493875D01*
X670150Y493912D01*
X670086Y493941D01*
X670016Y493997D01*
X669940Y494045D01*
X669892Y494096D01*
X669838Y494139D01*
X669783Y494211D01*
X669722Y494276D01*
X669688Y494338D01*
X669646Y494393D01*
X669575Y494538D01*
X667920Y498533D01*
X622987Y543466D01*
X622927Y543544D01*
X622859Y543617D01*
X622830Y543670D01*
X622793Y543717D01*
X622753Y543808D01*
X622705Y543895D01*
X622690Y543954D01*
X622666Y544009D01*
X622651Y544107D01*
X622626Y544203D01*
X622620Y544303D01*
X622616Y544323D01*
X622618Y544336D01*
X622616Y544364D01*
X622616Y606886D01*
X622628Y606985D01*
X622631Y607084D01*
X622648Y607142D01*
X622656Y607202D01*
X622692Y607294D01*
X622720Y607389D01*
X622750Y607441D01*
X622773Y607498D01*
X622831Y607578D01*
X622881Y607663D01*
X622947Y607738D01*
X622959Y607755D01*
X622969Y607763D01*
X622987Y607784D01*
X641230Y626026D01*
X645695Y630492D01*
X648016Y636093D01*
X648016Y696132D01*
X645695Y701733D01*
X629999Y717430D01*
X625533Y721895D01*
X619932Y724216D01*
X617523Y724216D01*
X617424Y724228D01*
X617325Y724231D01*
X617267Y724248D01*
X617207Y724256D01*
X617115Y724292D01*
X617020Y724320D01*
X616968Y724350D01*
X616911Y724373D01*
X616831Y724431D01*
X616746Y724481D01*
X616670Y724547D01*
X616654Y724559D01*
X616646Y724569D01*
X616625Y724587D01*
X614364Y726848D01*
X606616Y730058D01*
X597342Y730058D01*
X597224Y730073D01*
X597105Y730080D01*
X597067Y730093D01*
X597026Y730098D01*
X596916Y730141D01*
X596803Y730178D01*
X596768Y730200D01*
X596731Y730215D01*
X596635Y730284D01*
X596534Y730348D01*
X596506Y730378D01*
X596473Y730401D01*
X596397Y730493D01*
X596316Y730580D01*
X596296Y730615D01*
X596271Y730646D01*
X596220Y730754D01*
X596162Y730858D01*
X596152Y730898D01*
X596135Y730934D01*
X596113Y731051D01*
X596083Y731166D01*
X596079Y731226D01*
X596075Y731246D01*
X596077Y731267D01*
X596073Y731327D01*
X596073Y763164D01*
X596085Y763263D01*
X596088Y763362D01*
X596105Y763420D01*
X596113Y763480D01*
X596149Y763572D01*
X596177Y763667D01*
X596207Y763719D01*
X596230Y763776D01*
X596288Y763856D01*
X596338Y763941D01*
X596404Y764016D01*
X596416Y764033D01*
X596426Y764041D01*
X596444Y764062D01*
X598934Y766551D01*
X602246Y772288D01*
X603961Y778688D01*
X603961Y785312D01*
X602246Y791712D01*
X598934Y797449D01*
X594249Y802134D01*
X588512Y805446D01*
X582112Y807161D01*
X575488Y807161D01*
X569088Y805446D01*
X563351Y802134D01*
X558666Y797449D01*
X555354Y791712D01*
X553639Y785312D01*
X553639Y778688D01*
X555354Y772288D01*
X558666Y766551D01*
X561156Y764062D01*
X561216Y763984D01*
X561284Y763911D01*
X561313Y763858D01*
X561350Y763811D01*
X561390Y763720D01*
X561438Y763633D01*
X561453Y763574D01*
X561477Y763519D01*
X561492Y763421D01*
X561517Y763325D01*
X561523Y763225D01*
X561527Y763205D01*
X561525Y763192D01*
X561527Y763164D01*
X561527Y724342D01*
X561512Y724224D01*
X561505Y724105D01*
X561492Y724067D01*
X561487Y724026D01*
X561444Y723916D01*
X561407Y723803D01*
X561385Y723768D01*
X561370Y723731D01*
X561301Y723635D01*
X561237Y723534D01*
X561207Y723506D01*
X561184Y723473D01*
X561092Y723397D01*
X561005Y723316D01*
X560970Y723296D01*
X560939Y723271D01*
X560831Y723220D01*
X560727Y723162D01*
X560687Y723152D01*
X560651Y723135D01*
X560534Y723113D01*
X560419Y723083D01*
X560359Y723079D01*
X560339Y723075D01*
X560318Y723077D01*
X560258Y723073D01*
X533864Y723073D01*
X533855Y723074D01*
X533845Y723073D01*
X533701Y723093D01*
X533672Y723095D01*
X533662Y723098D01*
X533548Y723113D01*
X533540Y723116D01*
X533531Y723117D01*
X533378Y723169D01*
X530545Y724343D01*
X518475Y724343D01*
X518357Y724358D01*
X518238Y724365D01*
X518200Y724378D01*
X518159Y724383D01*
X518049Y724426D01*
X517936Y724463D01*
X517901Y724485D01*
X517864Y724500D01*
X517768Y724569D01*
X517667Y724633D01*
X517639Y724663D01*
X517606Y724686D01*
X517530Y724778D01*
X517449Y724865D01*
X517429Y724900D01*
X517404Y724931D01*
X517353Y725039D01*
X517295Y725143D01*
X517285Y725183D01*
X517268Y725219D01*
X517246Y725336D01*
X517216Y725451D01*
X517212Y725511D01*
X517208Y725531D01*
X517210Y725552D01*
X517206Y725612D01*
X517206Y736788D01*
X517221Y736906D01*
X517228Y737025D01*
X517241Y737063D01*
X517246Y737104D01*
X517289Y737214D01*
X517326Y737327D01*
X517348Y737362D01*
X517363Y737399D01*
X517432Y737495D01*
X517496Y737596D01*
X517526Y737624D01*
X517549Y737657D01*
X517641Y737733D01*
X517728Y737814D01*
X517763Y737834D01*
X517794Y737859D01*
X517902Y737910D01*
X518006Y737968D01*
X518046Y737978D01*
X518082Y737995D01*
X518199Y738017D01*
X518314Y738047D01*
X518374Y738051D01*
X518394Y738055D01*
X518415Y738053D01*
X518475Y738057D01*
X530545Y738057D01*
X537361Y740880D01*
X542577Y746096D01*
X545400Y752912D01*
X545400Y760288D01*
X542577Y767104D01*
X541278Y768403D01*
X541205Y768497D01*
X541126Y768586D01*
X541108Y768622D01*
X541083Y768654D01*
X541036Y768763D01*
X540982Y768869D01*
X540973Y768908D01*
X540957Y768946D01*
X540938Y769063D01*
X540912Y769179D01*
X540913Y769220D01*
X540907Y769260D01*
X540918Y769378D01*
X540922Y769497D01*
X540933Y769536D01*
X540937Y769576D01*
X540977Y769688D01*
X541010Y769803D01*
X541030Y769838D01*
X541044Y769876D01*
X541111Y769974D01*
X541172Y770077D01*
X541211Y770122D01*
X541223Y770139D01*
X541238Y770152D01*
X541278Y770198D01*
X542577Y771496D01*
X545400Y778312D01*
X545400Y785688D01*
X542577Y792504D01*
X541278Y793803D01*
X541205Y793897D01*
X541126Y793986D01*
X541108Y794022D01*
X541083Y794054D01*
X541036Y794163D01*
X540982Y794269D01*
X540973Y794308D01*
X540957Y794346D01*
X540938Y794463D01*
X540912Y794579D01*
X540913Y794620D01*
X540907Y794660D01*
X540918Y794778D01*
X540922Y794897D01*
X540933Y794936D01*
X540937Y794976D01*
X540977Y795088D01*
X541010Y795203D01*
X541030Y795238D01*
X541044Y795276D01*
X541111Y795374D01*
X541172Y795477D01*
X541211Y795522D01*
X541223Y795539D01*
X541238Y795552D01*
X541278Y795598D01*
X542577Y796896D01*
X545400Y803712D01*
X545400Y811088D01*
X542577Y817904D01*
X537361Y823120D01*
X530545Y825943D01*
X518475Y825943D01*
X518357Y825958D01*
X518238Y825965D01*
X518200Y825978D01*
X518159Y825983D01*
X518049Y826026D01*
X517936Y826063D01*
X517901Y826085D01*
X517864Y826100D01*
X517768Y826169D01*
X517667Y826233D01*
X517639Y826263D01*
X517606Y826286D01*
X517530Y826378D01*
X517449Y826465D01*
X517429Y826500D01*
X517404Y826531D01*
X517353Y826639D01*
X517295Y826743D01*
X517285Y826783D01*
X517268Y826819D01*
X517246Y826936D01*
X517216Y827051D01*
X517212Y827111D01*
X517208Y827131D01*
X517210Y827152D01*
X517206Y827212D01*
X517206Y838388D01*
X517221Y838506D01*
X517228Y838625D01*
X517241Y838663D01*
X517246Y838704D01*
X517289Y838814D01*
X517326Y838927D01*
X517348Y838962D01*
X517363Y838999D01*
X517432Y839095D01*
X517496Y839196D01*
X517526Y839224D01*
X517549Y839257D01*
X517641Y839333D01*
X517728Y839414D01*
X517763Y839434D01*
X517794Y839459D01*
X517902Y839510D01*
X518006Y839568D01*
X518046Y839578D01*
X518082Y839595D01*
X518199Y839617D01*
X518314Y839647D01*
X518374Y839651D01*
X518394Y839655D01*
X518415Y839653D01*
X518475Y839657D01*
X530545Y839657D01*
X537361Y842480D01*
X542577Y847696D01*
X545400Y854512D01*
X545400Y861888D01*
X542577Y868704D01*
X541278Y870003D01*
X541205Y870097D01*
X541126Y870186D01*
X541108Y870222D01*
X541083Y870254D01*
X541036Y870363D01*
X540982Y870469D01*
X540973Y870508D01*
X540957Y870546D01*
X540938Y870663D01*
X540912Y870779D01*
X540913Y870820D01*
X540907Y870860D01*
X540918Y870978D01*
X540922Y871097D01*
X540933Y871136D01*
X540937Y871176D01*
X540977Y871288D01*
X541010Y871403D01*
X541030Y871438D01*
X541044Y871476D01*
X541111Y871574D01*
X541172Y871677D01*
X541211Y871722D01*
X541223Y871739D01*
X541238Y871752D01*
X541278Y871798D01*
X542577Y873096D01*
X545400Y879912D01*
X545400Y887288D01*
X542577Y894104D01*
X537361Y899320D01*
X530545Y902143D01*
X518475Y902143D01*
X518357Y902158D01*
X518238Y902165D01*
X518200Y902178D01*
X518159Y902183D01*
X518049Y902226D01*
X517936Y902263D01*
X517901Y902285D01*
X517864Y902300D01*
X517768Y902369D01*
X517667Y902433D01*
X517639Y902463D01*
X517606Y902486D01*
X517530Y902578D01*
X517449Y902665D01*
X517429Y902700D01*
X517404Y902731D01*
X517353Y902839D01*
X517295Y902943D01*
X517285Y902983D01*
X517268Y903019D01*
X517246Y903136D01*
X517216Y903251D01*
X517212Y903311D01*
X517208Y903331D01*
X517210Y903352D01*
X517206Y903412D01*
X517206Y914588D01*
X517221Y914706D01*
X517228Y914825D01*
X517241Y914863D01*
X517246Y914904D01*
X517289Y915014D01*
X517326Y915127D01*
X517348Y915162D01*
X517363Y915199D01*
X517432Y915295D01*
X517496Y915396D01*
X517526Y915424D01*
X517549Y915457D01*
X517641Y915533D01*
X517728Y915614D01*
X517763Y915634D01*
X517794Y915659D01*
X517902Y915710D01*
X518006Y915768D01*
X518046Y915778D01*
X518082Y915795D01*
X518199Y915817D01*
X518314Y915847D01*
X518374Y915851D01*
X518394Y915855D01*
X518415Y915853D01*
X518475Y915857D01*
X530545Y915857D01*
X537361Y918680D01*
X542577Y923896D01*
X545400Y930712D01*
X545400Y938088D01*
X542577Y944904D01*
X537361Y950120D01*
X530545Y952943D01*
X518475Y952943D01*
X518357Y952958D01*
X518238Y952965D01*
X518200Y952978D01*
X518159Y952983D01*
X518049Y953026D01*
X517936Y953063D01*
X517901Y953085D01*
X517864Y953100D01*
X517768Y953169D01*
X517667Y953233D01*
X517639Y953263D01*
X517606Y953286D01*
X517530Y953378D01*
X517449Y953465D01*
X517429Y953500D01*
X517404Y953531D01*
X517353Y953639D01*
X517295Y953743D01*
X517285Y953783D01*
X517268Y953819D01*
X517246Y953936D01*
X517216Y954051D01*
X517212Y954111D01*
X517208Y954131D01*
X517210Y954152D01*
X517206Y954212D01*
X517206Y965388D01*
X517221Y965506D01*
X517228Y965625D01*
X517241Y965663D01*
X517246Y965704D01*
X517289Y965814D01*
X517326Y965927D01*
X517348Y965962D01*
X517363Y965999D01*
X517432Y966095D01*
X517496Y966196D01*
X517526Y966224D01*
X517549Y966257D01*
X517641Y966333D01*
X517728Y966414D01*
X517763Y966434D01*
X517794Y966459D01*
X517902Y966510D01*
X518006Y966568D01*
X518046Y966578D01*
X518082Y966595D01*
X518199Y966617D01*
X518314Y966647D01*
X518374Y966651D01*
X518394Y966655D01*
X518415Y966653D01*
X518475Y966657D01*
X530545Y966657D01*
X537361Y969480D01*
X542577Y974696D01*
X545400Y981512D01*
X545400Y988888D01*
X542577Y995704D01*
X537361Y1000920D01*
X530545Y1003743D01*
X506405Y1003743D01*
X504798Y1003077D01*
X504789Y1003075D01*
X504781Y1003070D01*
X504637Y1003033D01*
X504492Y1002993D01*
X504482Y1002993D01*
X504473Y1002991D01*
X504313Y1002981D01*
X404175Y1002981D01*
X404077Y1002993D01*
X403978Y1002996D01*
X403920Y1003013D01*
X403859Y1003021D01*
X403767Y1003057D01*
X403672Y1003085D01*
X403620Y1003115D01*
X403564Y1003138D01*
X403484Y1003196D01*
X403398Y1003246D01*
X403323Y1003312D01*
X403306Y1003324D01*
X403299Y1003334D01*
X403277Y1003352D01*
X384227Y1022402D01*
X384167Y1022481D01*
X384099Y1022553D01*
X384070Y1022606D01*
X384033Y1022654D01*
X383993Y1022745D01*
X383945Y1022831D01*
X383930Y1022890D01*
X383906Y1022946D01*
X383891Y1023044D01*
X383866Y1023139D01*
X383860Y1023239D01*
X383856Y1023260D01*
X383858Y1023272D01*
X383856Y1023300D01*
X383856Y1235499D01*
X365177Y1254177D01*
X365117Y1254256D01*
X365049Y1254328D01*
X365020Y1254381D01*
X364983Y1254429D01*
X364943Y1254520D01*
X364895Y1254606D01*
X364880Y1254665D01*
X364856Y1254721D01*
X364841Y1254819D01*
X364816Y1254914D01*
X364810Y1255014D01*
X364806Y1255035D01*
X364808Y1255047D01*
X364806Y1255075D01*
X364806Y1315400D01*
X364821Y1315518D01*
X364828Y1315637D01*
X364841Y1315675D01*
X364846Y1315716D01*
X364889Y1315826D01*
X364926Y1315939D01*
X364948Y1315974D01*
X364963Y1316011D01*
X365032Y1316107D01*
X365096Y1316208D01*
X365126Y1316236D01*
X365149Y1316269D01*
X365241Y1316344D01*
X365328Y1316426D01*
X365363Y1316446D01*
X365394Y1316471D01*
X365502Y1316522D01*
X365606Y1316580D01*
X365646Y1316590D01*
X365682Y1316607D01*
X365799Y1316629D01*
X365914Y1316659D01*
X365974Y1316663D01*
X365994Y1316667D01*
X366015Y1316665D01*
X366075Y1316669D01*
X420050Y1316669D01*
X420148Y1316657D01*
X420247Y1316654D01*
X420305Y1316637D01*
X420366Y1316629D01*
X420458Y1316593D01*
X420553Y1316565D01*
X420605Y1316535D01*
X420661Y1316512D01*
X420741Y1316454D01*
X420827Y1316404D01*
X420902Y1316338D01*
X420919Y1316326D01*
X420926Y1316316D01*
X420947Y1316297D01*
X430472Y1306772D01*
X430533Y1306694D01*
X430601Y1306622D01*
X430630Y1306569D01*
X430667Y1306521D01*
X430707Y1306430D01*
X430755Y1306344D01*
X430770Y1306285D01*
X430794Y1306229D01*
X430809Y1306131D01*
X430834Y1306036D01*
X430840Y1305936D01*
X430844Y1305915D01*
X430842Y1305903D01*
X430844Y1305875D01*
X430844Y1277826D01*
X474551Y1234119D01*
X735645Y1234119D01*
X735763Y1234104D01*
X735882Y1234097D01*
X735920Y1234084D01*
X735961Y1234079D01*
X736071Y1234036D01*
X736184Y1233999D01*
X736219Y1233977D01*
X736256Y1233962D01*
X736352Y1233892D01*
X736453Y1233829D01*
X736481Y1233799D01*
X736514Y1233776D01*
X736590Y1233684D01*
X736671Y1233597D01*
X736691Y1233562D01*
X736716Y1233531D01*
X736767Y1233423D01*
X736825Y1233319D01*
X736835Y1233279D01*
X736852Y1233243D01*
X736874Y1233126D01*
X736904Y1233011D01*
X736908Y1232950D01*
X736912Y1232930D01*
X736910Y1232910D01*
X736914Y1232850D01*
X736914Y1133723D01*
X736908Y1133673D01*
X736910Y1133624D01*
X736888Y1133516D01*
X736874Y1133407D01*
X736856Y1133361D01*
X736846Y1133312D01*
X736798Y1133213D01*
X736757Y1133111D01*
X736728Y1133071D01*
X736706Y1133026D01*
X736635Y1132943D01*
X736571Y1132854D01*
X736532Y1132822D01*
X736500Y1132784D01*
X736410Y1132721D01*
X736326Y1132651D01*
X736281Y1132630D01*
X736240Y1132601D01*
X736137Y1132562D01*
X736038Y1132516D01*
X735989Y1132506D01*
X735943Y1132489D01*
X735833Y1132476D01*
X735726Y1132456D01*
X735676Y1132459D01*
X735627Y1132453D01*
X735518Y1132469D01*
X735408Y1132476D01*
X735361Y1132491D01*
X735312Y1132498D01*
X735159Y1132550D01*
X728791Y1135188D01*
X720909Y1135188D01*
X713593Y1132157D01*
X713563Y1132129D01*
X713510Y1132100D01*
X713462Y1132063D01*
X713371Y1132023D01*
X713284Y1131975D01*
X713226Y1131960D01*
X713170Y1131936D01*
X713072Y1131921D01*
X712976Y1131896D01*
X712876Y1131890D01*
X712856Y1131886D01*
X712844Y1131888D01*
X712816Y1131886D01*
X658066Y1131886D01*
X651997Y1129372D01*
X631478Y1108853D01*
X628964Y1102784D01*
X628964Y1049715D01*
X628952Y1049617D01*
X628949Y1049517D01*
X628932Y1049459D01*
X628924Y1049399D01*
X628888Y1049307D01*
X628860Y1049212D01*
X628830Y1049160D01*
X628807Y1049103D01*
X628749Y1049023D01*
X628699Y1048938D01*
X628633Y1048863D01*
X628621Y1048846D01*
X628611Y1048838D01*
X628593Y1048817D01*
X612391Y1032616D01*
X612368Y1032598D01*
X612349Y1032575D01*
X612243Y1032501D01*
X612140Y1032421D01*
X612113Y1032409D01*
X612089Y1032392D01*
X611967Y1032346D01*
X611848Y1032295D01*
X611819Y1032290D01*
X611791Y1032279D01*
X611662Y1032265D01*
X611534Y1032245D01*
X611505Y1032247D01*
X611475Y1032244D01*
X611347Y1032262D01*
X611217Y1032275D01*
X611190Y1032285D01*
X611160Y1032289D01*
X611075Y1032318D01*
X603687Y1032318D01*
X596871Y1029495D01*
X591655Y1024279D01*
X588832Y1017463D01*
X588832Y1010087D01*
X591655Y1003271D01*
X592954Y1001972D01*
X593027Y1001878D01*
X593106Y1001789D01*
X593124Y1001753D01*
X593149Y1001721D01*
X593196Y1001612D01*
X593250Y1001506D01*
X593259Y1001467D01*
X593275Y1001429D01*
X593294Y1001312D01*
X593320Y1001196D01*
X593319Y1001155D01*
X593325Y1001115D01*
X593314Y1000997D01*
X593310Y1000878D01*
X593299Y1000839D01*
X593295Y1000799D01*
X593255Y1000687D01*
X593222Y1000572D01*
X593202Y1000537D01*
X593188Y1000499D01*
X593121Y1000401D01*
X593060Y1000298D01*
X593021Y1000253D01*
X593009Y1000236D01*
X592994Y1000223D01*
X592954Y1000177D01*
X591655Y998879D01*
X588832Y992063D01*
X588832Y984687D01*
X591655Y977871D01*
X592954Y976573D01*
X593027Y976478D01*
X593106Y976389D01*
X593124Y976353D01*
X593149Y976321D01*
X593196Y976212D01*
X593250Y976106D01*
X593259Y976067D01*
X593275Y976029D01*
X593294Y975912D01*
X593320Y975796D01*
X593319Y975755D01*
X593325Y975715D01*
X593314Y975597D01*
X593310Y975478D01*
X593299Y975439D01*
X593295Y975399D01*
X593255Y975286D01*
X593222Y975172D01*
X593202Y975138D01*
X593188Y975099D01*
X593121Y975001D01*
X593061Y974898D01*
X593021Y974853D01*
X593009Y974836D01*
X592994Y974823D01*
X592954Y974778D01*
X591655Y973479D01*
X588832Y966663D01*
X588832Y959287D01*
X591655Y952471D01*
X592954Y951173D01*
X593027Y951078D01*
X593106Y950989D01*
X593124Y950953D01*
X593149Y950921D01*
X593196Y950812D01*
X593250Y950706D01*
X593259Y950667D01*
X593275Y950629D01*
X593294Y950512D01*
X593320Y950396D01*
X593319Y950355D01*
X593325Y950315D01*
X593314Y950197D01*
X593310Y950078D01*
X593299Y950039D01*
X593295Y949999D01*
X593255Y949886D01*
X593222Y949772D01*
X593202Y949738D01*
X593188Y949699D01*
X593121Y949601D01*
X593061Y949498D01*
X593021Y949453D01*
X593009Y949436D01*
X592994Y949423D01*
X592954Y949378D01*
X591655Y948079D01*
X588832Y941263D01*
X588832Y933887D01*
X591655Y927071D01*
X593846Y924881D01*
X593876Y924842D01*
X593913Y924808D01*
X593973Y924716D01*
X594041Y924630D01*
X594060Y924584D01*
X594088Y924542D01*
X594123Y924439D01*
X594167Y924338D01*
X594175Y924289D01*
X594191Y924242D01*
X594200Y924132D01*
X594217Y924024D01*
X594212Y923974D01*
X594216Y923925D01*
X594197Y923816D01*
X594187Y923707D01*
X594170Y923660D01*
X594162Y923611D01*
X594117Y923511D01*
X594079Y923408D01*
X594052Y923367D01*
X594031Y923321D01*
X593963Y923236D01*
X593901Y923145D01*
X593864Y923112D01*
X593833Y923073D01*
X593745Y923007D01*
X593662Y922934D01*
X593618Y922911D01*
X593579Y922882D01*
X593434Y922811D01*
X592977Y922621D01*
X587404Y917048D01*
X584387Y909766D01*
X584387Y901884D01*
X587418Y894568D01*
X587446Y894538D01*
X587475Y894485D01*
X587512Y894437D01*
X587552Y894346D01*
X587600Y894259D01*
X587615Y894201D01*
X587639Y894145D01*
X587654Y894047D01*
X587679Y893951D01*
X587685Y893851D01*
X587689Y893831D01*
X587687Y893819D01*
X587689Y893791D01*
X587689Y892459D01*
X587677Y892361D01*
X587674Y892262D01*
X587657Y892204D01*
X587649Y892144D01*
X587613Y892052D01*
X587585Y891957D01*
X587555Y891905D01*
X587532Y891848D01*
X587474Y891768D01*
X587424Y891683D01*
X587413Y891670D01*
X584387Y884366D01*
X584387Y876484D01*
X587404Y869202D01*
X592977Y863629D01*
X600259Y860612D01*
X608141Y860612D01*
X615423Y863629D01*
X620996Y869202D01*
X624013Y876484D01*
X624013Y884366D01*
X622188Y888771D01*
X622157Y888885D01*
X622118Y888998D01*
X622115Y889038D01*
X622104Y889077D01*
X622102Y889196D01*
X622093Y889315D01*
X622100Y889355D01*
X622099Y889395D01*
X622127Y889511D01*
X622147Y889628D01*
X622164Y889665D01*
X622173Y889705D01*
X622229Y889810D01*
X622278Y889918D01*
X622303Y889950D01*
X622322Y889986D01*
X622402Y890074D01*
X622477Y890167D01*
X622509Y890191D01*
X622536Y890221D01*
X622636Y890286D01*
X622731Y890358D01*
X622785Y890385D01*
X622802Y890396D01*
X622821Y890402D01*
X622875Y890429D01*
X626253Y891828D01*
X646772Y912347D01*
X649286Y918416D01*
X649286Y990535D01*
X649298Y990633D01*
X649301Y990733D01*
X649318Y990791D01*
X649326Y990851D01*
X649362Y990943D01*
X649390Y991038D01*
X649420Y991090D01*
X649443Y991147D01*
X649501Y991227D01*
X649551Y991312D01*
X649617Y991387D01*
X649629Y991404D01*
X649639Y991412D01*
X649657Y991433D01*
X655117Y996893D01*
X655195Y996953D01*
X655268Y997021D01*
X655321Y997050D01*
X655368Y997087D01*
X655459Y997127D01*
X655546Y997175D01*
X655605Y997190D01*
X655660Y997214D01*
X655758Y997229D01*
X655854Y997254D01*
X655954Y997260D01*
X655974Y997264D01*
X655987Y997262D01*
X656015Y997264D01*
X665287Y997264D01*
X665336Y997258D01*
X665386Y997260D01*
X665493Y997238D01*
X665603Y997224D01*
X665649Y997206D01*
X665697Y997196D01*
X665796Y997148D01*
X665898Y997107D01*
X665938Y997078D01*
X665983Y997056D01*
X666067Y996985D01*
X666156Y996921D01*
X666187Y996882D01*
X666225Y996850D01*
X666288Y996760D01*
X666358Y996676D01*
X666380Y996631D01*
X666408Y996590D01*
X666447Y996487D01*
X666494Y996388D01*
X666503Y996339D01*
X666521Y996293D01*
X666533Y996183D01*
X666554Y996076D01*
X666551Y996026D01*
X666556Y995977D01*
X666541Y995868D01*
X666534Y995758D01*
X666519Y995711D01*
X666512Y995662D01*
X666460Y995509D01*
X665032Y992063D01*
X665032Y984687D01*
X667855Y977871D01*
X669154Y976573D01*
X669227Y976478D01*
X669306Y976389D01*
X669324Y976353D01*
X669349Y976321D01*
X669396Y976212D01*
X669450Y976106D01*
X669459Y976067D01*
X669475Y976029D01*
X669494Y975912D01*
X669520Y975796D01*
X669519Y975755D01*
X669525Y975715D01*
X669514Y975597D01*
X669510Y975478D01*
X669499Y975439D01*
X669495Y975399D01*
X669455Y975286D01*
X669422Y975172D01*
X669402Y975138D01*
X669388Y975099D01*
X669321Y975001D01*
X669261Y974898D01*
X669221Y974853D01*
X669209Y974836D01*
X669194Y974823D01*
X669154Y974778D01*
X667855Y973479D01*
X665032Y966663D01*
X665032Y959287D01*
X667855Y952471D01*
X673071Y947255D01*
X679887Y944432D01*
X687263Y944432D01*
X694079Y947255D01*
X694186Y947363D01*
X694264Y947423D01*
X694336Y947491D01*
X694389Y947520D01*
X694437Y947557D01*
X694528Y947597D01*
X694615Y947645D01*
X694673Y947660D01*
X694729Y947684D01*
X694827Y947699D01*
X694923Y947724D01*
X695013Y947730D01*
X695023Y947732D01*
X695029Y947731D01*
X695043Y947734D01*
X695055Y947732D01*
X695083Y947734D01*
X702482Y947734D01*
X708083Y950055D01*
X730791Y972763D01*
X730869Y972823D01*
X730942Y972891D01*
X730995Y972920D01*
X731042Y972957D01*
X731133Y972997D01*
X731220Y973045D01*
X731279Y973060D01*
X731334Y973084D01*
X731432Y973099D01*
X731528Y973124D01*
X731628Y973130D01*
X731648Y973134D01*
X731661Y973132D01*
X731689Y973134D01*
X750107Y973134D01*
X755708Y975455D01*
X775870Y995617D01*
X777937Y1000606D01*
X777942Y1000614D01*
X777944Y1000623D01*
X778020Y1000752D01*
X778095Y1000882D01*
X778101Y1000889D01*
X778106Y1000897D01*
X778212Y1001018D01*
X779746Y1002552D01*
X782763Y1009834D01*
X782763Y1017716D01*
X779746Y1024998D01*
X774173Y1030571D01*
X766891Y1033588D01*
X766106Y1033588D01*
X765968Y1033605D01*
X765829Y1033618D01*
X765810Y1033625D01*
X765790Y1033628D01*
X765661Y1033679D01*
X765530Y1033726D01*
X765513Y1033737D01*
X765494Y1033745D01*
X765382Y1033826D01*
X765267Y1033904D01*
X765253Y1033920D01*
X765237Y1033931D01*
X765148Y1034039D01*
X765056Y1034143D01*
X765047Y1034161D01*
X765034Y1034176D01*
X764975Y1034302D01*
X764912Y1034426D01*
X764907Y1034446D01*
X764899Y1034464D01*
X764873Y1034600D01*
X764842Y1034736D01*
X764843Y1034757D01*
X764839Y1034776D01*
X764848Y1034915D01*
X764852Y1035054D01*
X764857Y1035074D01*
X764859Y1035094D01*
X764901Y1035226D01*
X764940Y1035360D01*
X764950Y1035377D01*
X764957Y1035396D01*
X765031Y1035514D01*
X765102Y1035634D01*
X765120Y1035655D01*
X765127Y1035665D01*
X765142Y1035679D01*
X765208Y1035754D01*
X778416Y1048963D01*
X778494Y1049023D01*
X778567Y1049091D01*
X778620Y1049120D01*
X778667Y1049157D01*
X778758Y1049197D01*
X778845Y1049245D01*
X778904Y1049260D01*
X778959Y1049284D01*
X779057Y1049299D01*
X779153Y1049324D01*
X779253Y1049330D01*
X779273Y1049334D01*
X779286Y1049332D01*
X779314Y1049334D01*
X787746Y1049334D01*
X787844Y1049322D01*
X787943Y1049319D01*
X788001Y1049302D01*
X788061Y1049294D01*
X788153Y1049258D01*
X788248Y1049230D01*
X788301Y1049200D01*
X788357Y1049177D01*
X788437Y1049119D01*
X788522Y1049069D01*
X788563Y1049033D01*
X788567Y1049031D01*
X788572Y1049025D01*
X788598Y1049003D01*
X788614Y1048991D01*
X788622Y1048981D01*
X788643Y1048963D01*
X789827Y1047779D01*
X797109Y1044762D01*
X804991Y1044762D01*
X812273Y1047779D01*
X817846Y1053352D01*
X820863Y1060634D01*
X820863Y1068516D01*
X819014Y1072979D01*
X819001Y1073027D01*
X818980Y1073072D01*
X818959Y1073180D01*
X818930Y1073286D01*
X818929Y1073336D01*
X818920Y1073385D01*
X818927Y1073494D01*
X818925Y1073604D01*
X818937Y1073652D01*
X818940Y1073702D01*
X818973Y1073806D01*
X818999Y1073913D01*
X819022Y1073957D01*
X819038Y1074004D01*
X819096Y1074097D01*
X819148Y1074194D01*
X819181Y1074231D01*
X819208Y1074273D01*
X819288Y1074348D01*
X819362Y1074430D01*
X819403Y1074457D01*
X819439Y1074491D01*
X819536Y1074544D01*
X819627Y1074604D01*
X819674Y1074621D01*
X819718Y1074645D01*
X819824Y1074672D01*
X819928Y1074708D01*
X819978Y1074712D01*
X820026Y1074724D01*
X820187Y1074734D01*
X822786Y1074734D01*
X822885Y1074722D01*
X822984Y1074719D01*
X823042Y1074702D01*
X823102Y1074694D01*
X823194Y1074658D01*
X823289Y1074630D01*
X823341Y1074600D01*
X823398Y1074577D01*
X823478Y1074519D01*
X823563Y1074469D01*
X823638Y1074403D01*
X823655Y1074391D01*
X823663Y1074381D01*
X823684Y1074363D01*
X833063Y1064984D01*
X833123Y1064906D01*
X833191Y1064833D01*
X833220Y1064780D01*
X833257Y1064733D01*
X833297Y1064642D01*
X833345Y1064555D01*
X833360Y1064496D01*
X833384Y1064441D01*
X833399Y1064343D01*
X833424Y1064247D01*
X833430Y1064147D01*
X833434Y1064127D01*
X833432Y1064114D01*
X833434Y1064086D01*
X833434Y699939D01*
X833422Y699840D01*
X833419Y699741D01*
X833402Y699683D01*
X833394Y699623D01*
X833358Y699531D01*
X833330Y699436D01*
X833300Y699384D01*
X833277Y699327D01*
X833219Y699247D01*
X833169Y699162D01*
X833103Y699087D01*
X833091Y699070D01*
X833081Y699062D01*
X833063Y699041D01*
X801459Y667437D01*
X801381Y667377D01*
X801308Y667309D01*
X801255Y667280D01*
X801208Y667243D01*
X801117Y667203D01*
X801030Y667155D01*
X800971Y667140D01*
X800916Y667116D01*
X800818Y667101D01*
X800722Y667076D01*
X800622Y667070D01*
X800602Y667066D01*
X800589Y667068D01*
X800561Y667066D01*
X782604Y667066D01*
X782506Y667078D01*
X782407Y667081D01*
X782349Y667098D01*
X782289Y667106D01*
X782197Y667142D01*
X782102Y667170D01*
X782049Y667200D01*
X781993Y667223D01*
X781913Y667281D01*
X781828Y667331D01*
X781752Y667397D01*
X781736Y667409D01*
X781728Y667419D01*
X781707Y667437D01*
X780523Y668621D01*
X773241Y671638D01*
X765359Y671638D01*
X758077Y668621D01*
X752504Y663048D01*
X749487Y655766D01*
X749487Y647884D01*
X752518Y640568D01*
X752546Y640538D01*
X752575Y640485D01*
X752612Y640437D01*
X752652Y640346D01*
X752700Y640259D01*
X752715Y640201D01*
X752739Y640145D01*
X752754Y640047D01*
X752779Y639951D01*
X752785Y639851D01*
X752789Y639831D01*
X752787Y639819D01*
X752789Y639791D01*
X752789Y627555D01*
X752777Y627457D01*
X752774Y627358D01*
X752757Y627300D01*
X752749Y627240D01*
X752713Y627148D01*
X752685Y627053D01*
X752655Y627001D01*
X752632Y626944D01*
X752574Y626864D01*
X752524Y626779D01*
X752458Y626703D01*
X752446Y626687D01*
X752436Y626679D01*
X752418Y626658D01*
X748217Y622458D01*
X748217Y604992D01*
X752418Y600792D01*
X752478Y600714D01*
X752546Y600642D01*
X752575Y600589D01*
X752612Y600541D01*
X752652Y600450D01*
X752700Y600363D01*
X752715Y600305D01*
X752739Y600249D01*
X752754Y600151D01*
X752779Y600055D01*
X752785Y599955D01*
X752789Y599935D01*
X752787Y599923D01*
X752789Y599895D01*
X752789Y555305D01*
X752774Y555187D01*
X752767Y555068D01*
X752754Y555030D01*
X752749Y554989D01*
X752706Y554879D01*
X752669Y554766D01*
X752647Y554731D01*
X752632Y554694D01*
X752563Y554598D01*
X752499Y554497D01*
X752469Y554469D01*
X752446Y554436D01*
X752354Y554360D01*
X752267Y554279D01*
X752232Y554259D01*
X752201Y554234D01*
X752093Y554183D01*
X751989Y554125D01*
X751949Y554115D01*
X751913Y554098D01*
X751796Y554076D01*
X751681Y554046D01*
X751621Y554042D01*
X751601Y554038D01*
X751580Y554040D01*
X751520Y554036D01*
X706930Y554036D01*
X706832Y554048D01*
X706733Y554051D01*
X706675Y554068D01*
X706615Y554076D01*
X706523Y554112D01*
X706428Y554140D01*
X706376Y554170D01*
X706319Y554193D01*
X706239Y554251D01*
X706154Y554301D01*
X706078Y554367D01*
X706062Y554379D01*
X706054Y554389D01*
X706033Y554407D01*
X701833Y558608D01*
X684367Y558608D01*
X672017Y546258D01*
X672017Y528792D01*
X684367Y516442D01*
X701833Y516442D01*
X706033Y520643D01*
X706111Y520703D01*
X706183Y520771D01*
X706236Y520800D01*
X706284Y520837D01*
X706375Y520877D01*
X706462Y520925D01*
X706520Y520940D01*
X706576Y520964D01*
X706674Y520979D01*
X706770Y521004D01*
X706870Y521010D01*
X706890Y521014D01*
X706902Y521012D01*
X706930Y521014D01*
X755470Y521014D01*
X755568Y521002D01*
X755667Y520999D01*
X755725Y520982D01*
X755785Y520974D01*
X755877Y520938D01*
X755972Y520910D01*
X756024Y520880D01*
X756081Y520857D01*
X756161Y520799D01*
X756246Y520749D01*
X756322Y520683D01*
X756338Y520671D01*
X756346Y520661D01*
X756367Y520643D01*
X760567Y516442D01*
X778033Y516442D01*
X789993Y528402D01*
X790102Y528487D01*
X790209Y528576D01*
X790228Y528585D01*
X790244Y528597D01*
X790372Y528652D01*
X790497Y528711D01*
X790517Y528715D01*
X790536Y528723D01*
X790674Y528745D01*
X790810Y528771D01*
X790830Y528770D01*
X790850Y528773D01*
X790989Y528760D01*
X791127Y528752D01*
X791146Y528745D01*
X791166Y528743D01*
X791298Y528696D01*
X791429Y528653D01*
X791447Y528643D01*
X791466Y528636D01*
X791581Y528558D01*
X791698Y528483D01*
X791712Y528469D01*
X791729Y528457D01*
X791821Y528353D01*
X791916Y528252D01*
X791926Y528234D01*
X791939Y528219D01*
X792003Y528095D01*
X792070Y527973D01*
X792075Y527954D01*
X792084Y527936D01*
X792114Y527800D01*
X792149Y527665D01*
X792151Y527637D01*
X792154Y527625D01*
X792153Y527605D01*
X792159Y527505D01*
X792159Y496745D01*
X792142Y496608D01*
X792129Y496469D01*
X792122Y496450D01*
X792119Y496430D01*
X792068Y496301D01*
X792021Y496170D01*
X792010Y496153D01*
X792002Y496134D01*
X791921Y496022D01*
X791843Y495907D01*
X791827Y495893D01*
X791816Y495877D01*
X791708Y495788D01*
X791604Y495696D01*
X791586Y495687D01*
X791571Y495674D01*
X791445Y495615D01*
X791321Y495552D01*
X791301Y495547D01*
X791283Y495539D01*
X791147Y495512D01*
X791011Y495482D01*
X790990Y495483D01*
X790971Y495479D01*
X790832Y495487D01*
X790693Y495492D01*
X790673Y495497D01*
X790653Y495498D01*
X790521Y495541D01*
X790387Y495580D01*
X790370Y495590D01*
X790351Y495597D01*
X790233Y495671D01*
X790113Y495742D01*
X790092Y495760D01*
X790082Y495767D01*
X790068Y495782D01*
X789993Y495848D01*
X778033Y507808D01*
X760567Y507808D01*
X748217Y495458D01*
X748217Y477992D01*
X760567Y465642D01*
X778033Y465642D01*
X789993Y477602D01*
X790102Y477687D01*
X790209Y477776D01*
X790228Y477785D01*
X790244Y477797D01*
X790372Y477852D01*
X790497Y477911D01*
X790517Y477915D01*
X790536Y477923D01*
X790674Y477945D01*
X790810Y477971D01*
X790830Y477970D01*
X790850Y477973D01*
X790989Y477960D01*
X791127Y477952D01*
X791146Y477945D01*
X791166Y477943D01*
X791298Y477896D01*
X791429Y477853D01*
X791447Y477843D01*
X791466Y477836D01*
X791581Y477758D01*
X791698Y477683D01*
X791712Y477669D01*
X791729Y477657D01*
X791821Y477553D01*
X791916Y477452D01*
X791926Y477434D01*
X791939Y477419D01*
X792003Y477295D01*
X792070Y477173D01*
X792075Y477154D01*
X792084Y477136D01*
X792114Y477000D01*
X792149Y476865D01*
X792151Y476837D01*
X792154Y476825D01*
X792153Y476805D01*
X792159Y476705D01*
X792159Y461814D01*
X792147Y461715D01*
X792144Y461616D01*
X792127Y461558D01*
X792119Y461498D01*
X792083Y461406D01*
X792055Y461311D01*
X792025Y461259D01*
X792002Y461202D01*
X791944Y461122D01*
X791894Y461037D01*
X791828Y460962D01*
X791816Y460945D01*
X791806Y460937D01*
X791788Y460916D01*
X783853Y452982D01*
X783759Y452909D01*
X783670Y452830D01*
X783634Y452812D01*
X783602Y452787D01*
X783493Y452740D01*
X783387Y452686D01*
X783347Y452677D01*
X783310Y452661D01*
X783192Y452642D01*
X783077Y452616D01*
X783036Y452617D01*
X782996Y452611D01*
X782878Y452622D01*
X782759Y452626D01*
X782720Y452637D01*
X782680Y452641D01*
X782567Y452681D01*
X782453Y452714D01*
X782418Y452735D01*
X782380Y452748D01*
X782282Y452815D01*
X782179Y452876D01*
X782134Y452915D01*
X782117Y452927D01*
X782104Y452942D01*
X782058Y452982D01*
X778033Y457008D01*
X760567Y457008D01*
X748217Y444658D01*
X748217Y427192D01*
X760567Y414842D01*
X778033Y414842D01*
X783503Y420313D01*
X783581Y420373D01*
X783653Y420441D01*
X783706Y420470D01*
X783754Y420507D01*
X783845Y420547D01*
X783932Y420595D01*
X783990Y420610D01*
X784046Y420634D01*
X784144Y420649D01*
X784240Y420674D01*
X784340Y420680D01*
X784360Y420684D01*
X784372Y420682D01*
X784400Y420684D01*
X791382Y420684D01*
X796983Y423005D01*
X820320Y446342D01*
X822641Y451943D01*
X822641Y616411D01*
X822653Y616510D01*
X822656Y616609D01*
X822673Y616667D01*
X822681Y616727D01*
X822717Y616819D01*
X822745Y616914D01*
X822775Y616966D01*
X822798Y617023D01*
X822856Y617103D01*
X822906Y617188D01*
X822972Y617263D01*
X822984Y617280D01*
X822994Y617288D01*
X823012Y617309D01*
X860477Y654774D01*
X860587Y654859D01*
X860694Y654948D01*
X860713Y654956D01*
X860729Y654969D01*
X860857Y655024D01*
X860982Y655083D01*
X861002Y655087D01*
X861021Y655095D01*
X861159Y655117D01*
X861294Y655143D01*
X861315Y655142D01*
X861335Y655145D01*
X861474Y655132D01*
X861612Y655123D01*
X861631Y655117D01*
X861651Y655115D01*
X861783Y655068D01*
X861914Y655025D01*
X861932Y655014D01*
X861951Y655008D01*
X862066Y654929D01*
X862183Y654855D01*
X862197Y654840D01*
X862214Y654829D01*
X862306Y654725D01*
X862401Y654623D01*
X862411Y654606D01*
X862424Y654591D01*
X862487Y654467D01*
X862555Y654345D01*
X862560Y654325D01*
X862569Y654307D01*
X862599Y654171D01*
X862634Y654037D01*
X862636Y654009D01*
X862638Y653997D01*
X862638Y653977D01*
X862644Y653876D01*
X862644Y372425D01*
X862629Y372307D01*
G37*
G36*
X595932Y1267677D02*
X595932Y1267677D01*
X595929Y1267578D01*
X595912Y1267520D01*
X595904Y1267459D01*
X595868Y1267367D01*
X595840Y1267272D01*
X595810Y1267220D01*
X595787Y1267164D01*
X595729Y1267084D01*
X595679Y1266998D01*
X595613Y1266923D01*
X595601Y1266906D01*
X595591Y1266899D01*
X595572Y1266877D01*
X573347Y1244652D01*
X573269Y1244592D01*
X573197Y1244524D01*
X573144Y1244495D01*
X573096Y1244458D01*
X573005Y1244418D01*
X572919Y1244370D01*
X572860Y1244355D01*
X572804Y1244331D01*
X572706Y1244316D01*
X572611Y1244291D01*
X572511Y1244285D01*
X572490Y1244281D01*
X572478Y1244283D01*
X572450Y1244281D01*
X486725Y1244281D01*
X486627Y1244293D01*
X486528Y1244296D01*
X486470Y1244313D01*
X486409Y1244321D01*
X486317Y1244357D01*
X486222Y1244385D01*
X486170Y1244415D01*
X486114Y1244438D01*
X486034Y1244496D01*
X485948Y1244546D01*
X485873Y1244612D01*
X485856Y1244624D01*
X485849Y1244634D01*
X485827Y1244652D01*
X444552Y1285927D01*
X444492Y1286006D01*
X444424Y1286078D01*
X444395Y1286131D01*
X444358Y1286179D01*
X444318Y1286270D01*
X444270Y1286356D01*
X444255Y1286415D01*
X444231Y1286471D01*
X444216Y1286569D01*
X444191Y1286664D01*
X444185Y1286764D01*
X444181Y1286785D01*
X444183Y1286797D01*
X444181Y1286825D01*
X444181Y1318049D01*
X425874Y1336356D01*
X220551Y1336356D01*
X106994Y1222799D01*
X106994Y938101D01*
X153876Y891219D01*
X197800Y891219D01*
X197918Y891204D01*
X198037Y891197D01*
X198075Y891184D01*
X198116Y891179D01*
X198226Y891136D01*
X198339Y891099D01*
X198374Y891077D01*
X198411Y891062D01*
X198507Y890992D01*
X198608Y890929D01*
X198636Y890899D01*
X198669Y890876D01*
X198744Y890784D01*
X198826Y890697D01*
X198846Y890662D01*
X198871Y890631D01*
X198922Y890523D01*
X198980Y890419D01*
X198990Y890379D01*
X199007Y890343D01*
X199029Y890226D01*
X199059Y890111D01*
X199063Y890050D01*
X199067Y890030D01*
X199065Y890010D01*
X199069Y889950D01*
X199069Y870900D01*
X199054Y870782D01*
X199047Y870663D01*
X199034Y870625D01*
X199029Y870584D01*
X198986Y870474D01*
X198949Y870361D01*
X198927Y870326D01*
X198912Y870289D01*
X198842Y870193D01*
X198779Y870092D01*
X198749Y870064D01*
X198726Y870031D01*
X198634Y869955D01*
X198547Y869874D01*
X198512Y869854D01*
X198481Y869829D01*
X198373Y869778D01*
X198269Y869720D01*
X198229Y869710D01*
X198193Y869693D01*
X198076Y869671D01*
X197961Y869641D01*
X197900Y869637D01*
X197880Y869633D01*
X197860Y869635D01*
X197800Y869631D01*
X169751Y869631D01*
X157794Y857674D01*
X157794Y745169D01*
X200975Y745169D01*
X201093Y745154D01*
X201212Y745147D01*
X201250Y745134D01*
X201291Y745129D01*
X201401Y745086D01*
X201514Y745049D01*
X201549Y745027D01*
X201586Y745012D01*
X201682Y744942D01*
X201783Y744879D01*
X201811Y744849D01*
X201844Y744826D01*
X201919Y744734D01*
X202001Y744647D01*
X202021Y744612D01*
X202046Y744581D01*
X202097Y744473D01*
X202155Y744369D01*
X202165Y744329D01*
X202182Y744293D01*
X202204Y744176D01*
X202234Y744061D01*
X202238Y744000D01*
X202242Y743980D01*
X202240Y743960D01*
X202244Y743900D01*
X202244Y724850D01*
X202229Y724732D01*
X202222Y724613D01*
X202209Y724575D01*
X202204Y724534D01*
X202161Y724424D01*
X202124Y724311D01*
X202102Y724276D01*
X202087Y724239D01*
X202017Y724143D01*
X201954Y724042D01*
X201924Y724014D01*
X201901Y723981D01*
X201809Y723905D01*
X201722Y723824D01*
X201687Y723804D01*
X201656Y723779D01*
X201548Y723728D01*
X201444Y723670D01*
X201404Y723660D01*
X201368Y723643D01*
X201251Y723621D01*
X201136Y723591D01*
X201075Y723587D01*
X201055Y723583D01*
X201035Y723585D01*
X200975Y723581D01*
X169751Y723581D01*
X157794Y711624D01*
X157794Y607375D01*
X157779Y607257D01*
X157772Y607138D01*
X157759Y607100D01*
X157754Y607059D01*
X157711Y606949D01*
X157674Y606836D01*
X157652Y606801D01*
X157637Y606764D01*
X157567Y606668D01*
X157504Y606567D01*
X157474Y606539D01*
X157451Y606506D01*
X157359Y606430D01*
X157272Y606349D01*
X157237Y606329D01*
X157206Y606304D01*
X157098Y606253D01*
X156994Y606195D01*
X156954Y606185D01*
X156918Y606168D01*
X156801Y606146D01*
X156686Y606116D01*
X156625Y606112D01*
X156605Y606108D01*
X156585Y606110D01*
X156525Y606106D01*
X131651Y606106D01*
X106994Y581449D01*
X106994Y334851D01*
X150701Y291144D01*
X197800Y291144D01*
X197918Y291129D01*
X198037Y291122D01*
X198075Y291109D01*
X198116Y291104D01*
X198226Y291061D01*
X198339Y291024D01*
X198374Y291002D01*
X198411Y290987D01*
X198507Y290917D01*
X198608Y290854D01*
X198636Y290824D01*
X198669Y290801D01*
X198744Y290709D01*
X198826Y290622D01*
X198846Y290587D01*
X198871Y290556D01*
X198922Y290448D01*
X198980Y290344D01*
X198990Y290304D01*
X199007Y290268D01*
X199029Y290151D01*
X199059Y290036D01*
X199063Y289975D01*
X199067Y289955D01*
X199065Y289935D01*
X199069Y289875D01*
X199069Y270825D01*
X199054Y270707D01*
X199047Y270588D01*
X199034Y270550D01*
X199029Y270509D01*
X198986Y270399D01*
X198949Y270286D01*
X198927Y270251D01*
X198912Y270214D01*
X198842Y270118D01*
X198779Y270017D01*
X198749Y269989D01*
X198726Y269956D01*
X198634Y269880D01*
X198547Y269799D01*
X198512Y269779D01*
X198481Y269754D01*
X198373Y269703D01*
X198269Y269645D01*
X198229Y269635D01*
X198193Y269618D01*
X198076Y269596D01*
X197961Y269566D01*
X197900Y269562D01*
X197880Y269558D01*
X197860Y269560D01*
X197800Y269556D01*
X169751Y269556D01*
X157794Y257599D01*
X157794Y145094D01*
X200975Y145094D01*
X201093Y145079D01*
X201212Y145072D01*
X201250Y145059D01*
X201291Y145054D01*
X201401Y145011D01*
X201514Y144974D01*
X201549Y144952D01*
X201586Y144937D01*
X201682Y144867D01*
X201783Y144804D01*
X201811Y144774D01*
X201844Y144751D01*
X201919Y144659D01*
X202001Y144572D01*
X202021Y144537D01*
X202046Y144506D01*
X202097Y144398D01*
X202155Y144294D01*
X202165Y144254D01*
X202182Y144218D01*
X202204Y144101D01*
X202234Y143986D01*
X202238Y143925D01*
X202242Y143905D01*
X202240Y143885D01*
X202244Y143825D01*
X202244Y124775D01*
X202229Y124657D01*
X202222Y124538D01*
X202209Y124500D01*
X202204Y124459D01*
X202161Y124349D01*
X202124Y124236D01*
X202102Y124201D01*
X202087Y124164D01*
X202017Y124068D01*
X201954Y123967D01*
X201924Y123939D01*
X201901Y123906D01*
X201809Y123830D01*
X201722Y123749D01*
X201687Y123729D01*
X201656Y123704D01*
X201548Y123653D01*
X201444Y123595D01*
X201404Y123585D01*
X201368Y123568D01*
X201251Y123546D01*
X201136Y123516D01*
X201075Y123512D01*
X201055Y123508D01*
X201035Y123510D01*
X200975Y123506D01*
X42225Y123506D01*
X42107Y123521D01*
X41988Y123528D01*
X41950Y123541D01*
X41909Y123546D01*
X41799Y123589D01*
X41686Y123626D01*
X41651Y123648D01*
X41614Y123663D01*
X41518Y123732D01*
X41417Y123796D01*
X41389Y123826D01*
X41356Y123849D01*
X41280Y123941D01*
X41199Y124028D01*
X41179Y124063D01*
X41154Y124094D01*
X41103Y124202D01*
X41045Y124306D01*
X41035Y124346D01*
X41018Y124382D01*
X40996Y124499D01*
X40966Y124614D01*
X40962Y124674D01*
X40958Y124694D01*
X40960Y124715D01*
X40956Y124775D01*
X40956Y1321750D01*
X40968Y1321848D01*
X40971Y1321947D01*
X40988Y1322005D01*
X40996Y1322066D01*
X41032Y1322158D01*
X41060Y1322253D01*
X41090Y1322305D01*
X41113Y1322361D01*
X41171Y1322441D01*
X41221Y1322527D01*
X41287Y1322602D01*
X41299Y1322619D01*
X41309Y1322626D01*
X41327Y1322647D01*
X152452Y1433773D01*
X152531Y1433833D01*
X152603Y1433901D01*
X152656Y1433930D01*
X152704Y1433967D01*
X152795Y1434007D01*
X152881Y1434055D01*
X152940Y1434070D01*
X152996Y1434094D01*
X153094Y1434109D01*
X153189Y1434134D01*
X153289Y1434140D01*
X153310Y1434144D01*
X153322Y1434142D01*
X153350Y1434144D01*
X594675Y1434144D01*
X594793Y1434129D01*
X594912Y1434122D01*
X594950Y1434109D01*
X594991Y1434104D01*
X595101Y1434061D01*
X595214Y1434024D01*
X595249Y1434002D01*
X595286Y1433987D01*
X595382Y1433918D01*
X595483Y1433854D01*
X595511Y1433824D01*
X595544Y1433801D01*
X595619Y1433709D01*
X595701Y1433622D01*
X595721Y1433587D01*
X595746Y1433556D01*
X595797Y1433448D01*
X595855Y1433344D01*
X595865Y1433304D01*
X595882Y1433268D01*
X595904Y1433151D01*
X595934Y1433036D01*
X595938Y1432976D01*
X595942Y1432956D01*
X595940Y1432935D01*
X595944Y1432875D01*
X595944Y1267775D01*
X595932Y1267677D01*
G37*
G36*
X322879Y451682D02*
X322879Y451682D01*
X322872Y451563D01*
X322859Y451525D01*
X322854Y451484D01*
X322811Y451374D01*
X322774Y451261D01*
X322752Y451226D01*
X322737Y451189D01*
X322667Y451093D01*
X322604Y450992D01*
X322574Y450964D01*
X322551Y450931D01*
X322459Y450855D01*
X322372Y450774D01*
X322337Y450754D01*
X322306Y450729D01*
X322198Y450678D01*
X322094Y450620D01*
X322054Y450610D01*
X322018Y450593D01*
X321901Y450571D01*
X321786Y450541D01*
X321725Y450537D01*
X321705Y450533D01*
X321685Y450535D01*
X321625Y450531D01*
X169225Y450531D01*
X169107Y450546D01*
X168988Y450553D01*
X168950Y450566D01*
X168909Y450571D01*
X168799Y450614D01*
X168686Y450651D01*
X168651Y450673D01*
X168614Y450688D01*
X168518Y450757D01*
X168417Y450821D01*
X168389Y450851D01*
X168356Y450874D01*
X168280Y450966D01*
X168199Y451053D01*
X168179Y451088D01*
X168154Y451119D01*
X168103Y451227D01*
X168045Y451331D01*
X168035Y451371D01*
X168018Y451407D01*
X167996Y451524D01*
X167966Y451639D01*
X167962Y451699D01*
X167958Y451719D01*
X167960Y451740D01*
X167956Y451800D01*
X167956Y524825D01*
X167971Y524943D01*
X167978Y525062D01*
X167991Y525100D01*
X167996Y525141D01*
X168039Y525251D01*
X168076Y525364D01*
X168098Y525399D01*
X168113Y525436D01*
X168182Y525532D01*
X168246Y525633D01*
X168276Y525661D01*
X168299Y525694D01*
X168391Y525769D01*
X168478Y525851D01*
X168513Y525871D01*
X168544Y525896D01*
X168652Y525947D01*
X168756Y526005D01*
X168796Y526015D01*
X168832Y526032D01*
X168949Y526054D01*
X169064Y526084D01*
X169124Y526088D01*
X169144Y526092D01*
X169165Y526090D01*
X169225Y526094D01*
X253681Y526094D01*
X253681Y596581D01*
X169225Y596581D01*
X169107Y596596D01*
X168988Y596603D01*
X168950Y596616D01*
X168909Y596621D01*
X168799Y596664D01*
X168686Y596701D01*
X168651Y596723D01*
X168614Y596738D01*
X168518Y596807D01*
X168417Y596871D01*
X168389Y596901D01*
X168356Y596924D01*
X168280Y597016D01*
X168199Y597103D01*
X168179Y597138D01*
X168154Y597169D01*
X168103Y597277D01*
X168045Y597381D01*
X168035Y597421D01*
X168018Y597457D01*
X167996Y597574D01*
X167966Y597689D01*
X167962Y597749D01*
X167958Y597769D01*
X167960Y597790D01*
X167956Y597850D01*
X167956Y680400D01*
X167971Y680518D01*
X167978Y680637D01*
X167991Y680675D01*
X167996Y680716D01*
X168039Y680826D01*
X168076Y680939D01*
X168098Y680974D01*
X168113Y681011D01*
X168182Y681107D01*
X168246Y681208D01*
X168276Y681236D01*
X168299Y681269D01*
X168391Y681344D01*
X168478Y681426D01*
X168513Y681446D01*
X168544Y681471D01*
X168652Y681522D01*
X168756Y681580D01*
X168796Y681590D01*
X168832Y681607D01*
X168949Y681629D01*
X169064Y681659D01*
X169124Y681663D01*
X169144Y681667D01*
X169165Y681665D01*
X169225Y681669D01*
X248074Y681669D01*
X263206Y696801D01*
X263206Y737550D01*
X263218Y737648D01*
X263221Y737747D01*
X263238Y737805D01*
X263246Y737866D01*
X263282Y737958D01*
X263310Y738053D01*
X263340Y738105D01*
X263363Y738161D01*
X263421Y738241D01*
X263471Y738327D01*
X263537Y738402D01*
X263549Y738419D01*
X263559Y738426D01*
X263577Y738447D01*
X288606Y763476D01*
X288606Y991024D01*
X225849Y1053781D01*
X169225Y1053781D01*
X169107Y1053796D01*
X168988Y1053803D01*
X168950Y1053816D01*
X168909Y1053821D01*
X168799Y1053864D01*
X168686Y1053901D01*
X168651Y1053923D01*
X168614Y1053938D01*
X168518Y1054007D01*
X168417Y1054071D01*
X168389Y1054101D01*
X168356Y1054124D01*
X168280Y1054216D01*
X168199Y1054303D01*
X168179Y1054338D01*
X168154Y1054369D01*
X168103Y1054477D01*
X168045Y1054581D01*
X168035Y1054621D01*
X168018Y1054657D01*
X167996Y1054774D01*
X167966Y1054889D01*
X167962Y1054949D01*
X167958Y1054969D01*
X167960Y1054990D01*
X167956Y1055050D01*
X167956Y1128075D01*
X167971Y1128193D01*
X167978Y1128312D01*
X167991Y1128350D01*
X167996Y1128391D01*
X168039Y1128501D01*
X168076Y1128614D01*
X168098Y1128649D01*
X168113Y1128686D01*
X168182Y1128782D01*
X168246Y1128883D01*
X168276Y1128911D01*
X168299Y1128944D01*
X168391Y1129019D01*
X168478Y1129101D01*
X168513Y1129121D01*
X168544Y1129146D01*
X168652Y1129197D01*
X168756Y1129255D01*
X168796Y1129265D01*
X168832Y1129282D01*
X168949Y1129304D01*
X169064Y1129334D01*
X169124Y1129338D01*
X169144Y1129342D01*
X169165Y1129340D01*
X169225Y1129344D01*
X253681Y1129344D01*
X253681Y1199831D01*
X169225Y1199831D01*
X169107Y1199846D01*
X168988Y1199853D01*
X168950Y1199866D01*
X168909Y1199871D01*
X168799Y1199914D01*
X168686Y1199951D01*
X168651Y1199973D01*
X168614Y1199988D01*
X168518Y1200057D01*
X168417Y1200121D01*
X168389Y1200151D01*
X168356Y1200174D01*
X168280Y1200266D01*
X168199Y1200353D01*
X168179Y1200388D01*
X168154Y1200419D01*
X168103Y1200527D01*
X168045Y1200631D01*
X168035Y1200671D01*
X168018Y1200707D01*
X167996Y1200824D01*
X167966Y1200939D01*
X167962Y1200999D01*
X167958Y1201019D01*
X167960Y1201040D01*
X167956Y1201100D01*
X167956Y1258250D01*
X167968Y1258348D01*
X167971Y1258447D01*
X167988Y1258505D01*
X167996Y1258566D01*
X168032Y1258658D01*
X168060Y1258753D01*
X168090Y1258805D01*
X168113Y1258861D01*
X168171Y1258941D01*
X168221Y1259027D01*
X168287Y1259102D01*
X168299Y1259119D01*
X168309Y1259126D01*
X168327Y1259147D01*
X225477Y1316297D01*
X225556Y1316358D01*
X225628Y1316426D01*
X225681Y1316455D01*
X225729Y1316492D01*
X225820Y1316532D01*
X225906Y1316580D01*
X225965Y1316595D01*
X226021Y1316619D01*
X226119Y1316634D01*
X226214Y1316659D01*
X226314Y1316665D01*
X226335Y1316669D01*
X226347Y1316667D01*
X226375Y1316669D01*
X321625Y1316669D01*
X321743Y1316654D01*
X321862Y1316647D01*
X321900Y1316634D01*
X321941Y1316629D01*
X322051Y1316586D01*
X322164Y1316549D01*
X322199Y1316527D01*
X322236Y1316512D01*
X322332Y1316442D01*
X322433Y1316379D01*
X322461Y1316349D01*
X322494Y1316326D01*
X322569Y1316234D01*
X322651Y1316147D01*
X322671Y1316112D01*
X322696Y1316081D01*
X322747Y1315973D01*
X322805Y1315869D01*
X322815Y1315829D01*
X322832Y1315793D01*
X322854Y1315676D01*
X322884Y1315561D01*
X322888Y1315500D01*
X322892Y1315480D01*
X322890Y1315460D01*
X322894Y1315400D01*
X322894Y451800D01*
X322879Y451682D01*
G37*
G36*
X322882Y169127D02*
X322882Y169127D01*
X322879Y169028D01*
X322862Y168970D01*
X322854Y168909D01*
X322818Y168817D01*
X322790Y168722D01*
X322760Y168670D01*
X322737Y168614D01*
X322679Y168534D01*
X322629Y168448D01*
X322563Y168373D01*
X322551Y168356D01*
X322541Y168349D01*
X322522Y168327D01*
X306647Y152452D01*
X306569Y152392D01*
X306497Y152324D01*
X306444Y152295D01*
X306396Y152258D01*
X306305Y152218D01*
X306219Y152170D01*
X306160Y152155D01*
X306104Y152131D01*
X306006Y152116D01*
X305911Y152091D01*
X305811Y152085D01*
X305790Y152081D01*
X305778Y152083D01*
X305750Y152081D01*
X166050Y152081D01*
X165932Y152096D01*
X165813Y152103D01*
X165775Y152116D01*
X165734Y152121D01*
X165624Y152164D01*
X165511Y152201D01*
X165476Y152223D01*
X165439Y152238D01*
X165343Y152307D01*
X165242Y152371D01*
X165214Y152401D01*
X165181Y152424D01*
X165105Y152516D01*
X165024Y152603D01*
X165004Y152638D01*
X164979Y152669D01*
X164928Y152777D01*
X164870Y152881D01*
X164860Y152921D01*
X164843Y152957D01*
X164821Y153074D01*
X164791Y153189D01*
X164787Y153249D01*
X164783Y153269D01*
X164785Y153290D01*
X164781Y153350D01*
X164781Y216850D01*
X164796Y216968D01*
X164803Y217087D01*
X164816Y217125D01*
X164821Y217166D01*
X164864Y217276D01*
X164901Y217389D01*
X164923Y217424D01*
X164938Y217461D01*
X165007Y217557D01*
X165071Y217658D01*
X165101Y217686D01*
X165124Y217719D01*
X165216Y217794D01*
X165303Y217876D01*
X165338Y217896D01*
X165369Y217921D01*
X165477Y217972D01*
X165581Y218030D01*
X165621Y218040D01*
X165657Y218057D01*
X165774Y218079D01*
X165889Y218109D01*
X165949Y218113D01*
X165969Y218117D01*
X165990Y218115D01*
X166050Y218119D01*
X235374Y218119D01*
X250506Y233251D01*
X250506Y282999D01*
X235374Y298131D01*
X175575Y298131D01*
X175457Y298146D01*
X175338Y298153D01*
X175300Y298166D01*
X175259Y298171D01*
X175149Y298214D01*
X175036Y298251D01*
X175001Y298273D01*
X174964Y298288D01*
X174868Y298357D01*
X174767Y298421D01*
X174739Y298451D01*
X174706Y298474D01*
X174630Y298566D01*
X174549Y298653D01*
X174529Y298688D01*
X174504Y298719D01*
X174453Y298827D01*
X174395Y298931D01*
X174385Y298971D01*
X174368Y299007D01*
X174346Y299124D01*
X174316Y299239D01*
X174312Y299299D01*
X174308Y299319D01*
X174310Y299340D01*
X174306Y299400D01*
X174306Y301306D01*
X153350Y301306D01*
X153252Y301318D01*
X153153Y301321D01*
X153095Y301338D01*
X153034Y301346D01*
X152942Y301382D01*
X152847Y301410D01*
X152795Y301440D01*
X152739Y301463D01*
X152659Y301521D01*
X152573Y301571D01*
X152498Y301637D01*
X152481Y301649D01*
X152474Y301659D01*
X152452Y301677D01*
X117527Y336602D01*
X117467Y336681D01*
X117399Y336753D01*
X117370Y336806D01*
X117333Y336854D01*
X117293Y336945D01*
X117245Y337031D01*
X117230Y337090D01*
X117206Y337146D01*
X117191Y337244D01*
X117166Y337339D01*
X117160Y337439D01*
X117156Y337460D01*
X117158Y337472D01*
X117156Y337500D01*
X117156Y575625D01*
X117168Y575723D01*
X117171Y575822D01*
X117188Y575880D01*
X117196Y575941D01*
X117232Y576033D01*
X117260Y576128D01*
X117290Y576180D01*
X117313Y576236D01*
X117371Y576316D01*
X117421Y576402D01*
X117487Y576477D01*
X117499Y576494D01*
X117509Y576501D01*
X117527Y576522D01*
X130227Y589222D01*
X130306Y589283D01*
X130378Y589351D01*
X130431Y589380D01*
X130479Y589417D01*
X130570Y589457D01*
X130656Y589505D01*
X130715Y589520D01*
X130771Y589544D01*
X130869Y589559D01*
X130964Y589584D01*
X131064Y589590D01*
X131085Y589594D01*
X131097Y589592D01*
X131125Y589594D01*
X197800Y589594D01*
X197918Y589579D01*
X198037Y589572D01*
X198075Y589559D01*
X198116Y589554D01*
X198226Y589511D01*
X198339Y589474D01*
X198374Y589452D01*
X198411Y589437D01*
X198507Y589367D01*
X198608Y589304D01*
X198636Y589274D01*
X198669Y589251D01*
X198744Y589159D01*
X198826Y589072D01*
X198846Y589037D01*
X198871Y589006D01*
X198922Y588898D01*
X198980Y588794D01*
X198990Y588754D01*
X199007Y588718D01*
X199029Y588601D01*
X199059Y588486D01*
X199063Y588425D01*
X199067Y588405D01*
X199065Y588385D01*
X199069Y588325D01*
X199069Y569275D01*
X199054Y569157D01*
X199047Y569038D01*
X199034Y569000D01*
X199029Y568959D01*
X198986Y568849D01*
X198949Y568736D01*
X198927Y568701D01*
X198912Y568664D01*
X198842Y568568D01*
X198779Y568467D01*
X198749Y568439D01*
X198726Y568406D01*
X198634Y568330D01*
X198547Y568249D01*
X198512Y568229D01*
X198481Y568204D01*
X198373Y568153D01*
X198269Y568095D01*
X198229Y568085D01*
X198193Y568068D01*
X198076Y568046D01*
X197961Y568016D01*
X197900Y568012D01*
X197880Y568008D01*
X197860Y568010D01*
X197800Y568006D01*
X169751Y568006D01*
X157794Y556049D01*
X157794Y455501D01*
X169751Y443544D01*
X197800Y443544D01*
X197918Y443529D01*
X198037Y443522D01*
X198075Y443509D01*
X198116Y443504D01*
X198226Y443461D01*
X198339Y443424D01*
X198374Y443402D01*
X198411Y443387D01*
X198507Y443317D01*
X198608Y443254D01*
X198636Y443224D01*
X198669Y443201D01*
X198744Y443109D01*
X198826Y443022D01*
X198846Y442987D01*
X198871Y442956D01*
X198922Y442848D01*
X198980Y442744D01*
X198990Y442704D01*
X199007Y442668D01*
X199029Y442551D01*
X199059Y442436D01*
X199063Y442375D01*
X199067Y442355D01*
X199065Y442335D01*
X199069Y442275D01*
X199069Y423225D01*
X199054Y423107D01*
X199047Y422988D01*
X199034Y422950D01*
X199029Y422909D01*
X198986Y422799D01*
X198949Y422686D01*
X198927Y422651D01*
X198912Y422614D01*
X198842Y422518D01*
X198779Y422417D01*
X198749Y422389D01*
X198726Y422356D01*
X198634Y422280D01*
X198547Y422199D01*
X198512Y422179D01*
X198481Y422154D01*
X198373Y422103D01*
X198269Y422045D01*
X198229Y422035D01*
X198193Y422018D01*
X198076Y421996D01*
X197961Y421966D01*
X197900Y421962D01*
X197880Y421958D01*
X197860Y421960D01*
X197800Y421956D01*
X169751Y421956D01*
X157794Y409999D01*
X157794Y392001D01*
X169751Y380044D01*
X321625Y380044D01*
X321743Y380029D01*
X321862Y380022D01*
X321900Y380009D01*
X321941Y380004D01*
X322051Y379961D01*
X322164Y379924D01*
X322199Y379902D01*
X322236Y379887D01*
X322332Y379817D01*
X322433Y379754D01*
X322461Y379724D01*
X322494Y379701D01*
X322569Y379609D01*
X322651Y379522D01*
X322671Y379487D01*
X322696Y379456D01*
X322747Y379348D01*
X322805Y379244D01*
X322815Y379204D01*
X322832Y379168D01*
X322854Y379051D01*
X322884Y378936D01*
X322888Y378875D01*
X322892Y378855D01*
X322890Y378835D01*
X322894Y378775D01*
X322894Y169225D01*
X322882Y169127D01*
G37*
G36*
X281607Y769202D02*
X281607Y769202D01*
X281604Y769103D01*
X281587Y769045D01*
X281579Y768984D01*
X281543Y768892D01*
X281515Y768797D01*
X281485Y768745D01*
X281462Y768689D01*
X281404Y768609D01*
X281354Y768523D01*
X281288Y768448D01*
X281276Y768431D01*
X281266Y768424D01*
X281247Y768402D01*
X265372Y752527D01*
X265294Y752467D01*
X265222Y752399D01*
X265169Y752370D01*
X265121Y752333D01*
X265030Y752293D01*
X264944Y752245D01*
X264885Y752230D01*
X264829Y752206D01*
X264731Y752191D01*
X264636Y752166D01*
X264536Y752160D01*
X264515Y752156D01*
X264503Y752158D01*
X264475Y752156D01*
X166050Y752156D01*
X165932Y752171D01*
X165813Y752178D01*
X165775Y752191D01*
X165734Y752196D01*
X165624Y752239D01*
X165511Y752276D01*
X165476Y752298D01*
X165439Y752313D01*
X165343Y752382D01*
X165242Y752446D01*
X165214Y752476D01*
X165181Y752499D01*
X165105Y752591D01*
X165024Y752678D01*
X165004Y752713D01*
X164979Y752744D01*
X164928Y752852D01*
X164870Y752956D01*
X164860Y752996D01*
X164843Y753032D01*
X164821Y753149D01*
X164791Y753264D01*
X164787Y753324D01*
X164783Y753344D01*
X164785Y753365D01*
X164781Y753425D01*
X164781Y816925D01*
X164796Y817043D01*
X164803Y817162D01*
X164816Y817200D01*
X164821Y817241D01*
X164864Y817351D01*
X164901Y817464D01*
X164923Y817499D01*
X164938Y817536D01*
X165007Y817632D01*
X165071Y817733D01*
X165101Y817761D01*
X165124Y817794D01*
X165216Y817869D01*
X165303Y817951D01*
X165338Y817971D01*
X165369Y817996D01*
X165477Y818047D01*
X165581Y818105D01*
X165621Y818115D01*
X165657Y818132D01*
X165774Y818154D01*
X165889Y818184D01*
X165949Y818188D01*
X165969Y818192D01*
X165990Y818190D01*
X166050Y818194D01*
X235374Y818194D01*
X250506Y833326D01*
X250506Y883074D01*
X235374Y898206D01*
X175575Y898206D01*
X175457Y898221D01*
X175338Y898228D01*
X175300Y898241D01*
X175259Y898246D01*
X175149Y898289D01*
X175036Y898326D01*
X175001Y898348D01*
X174964Y898363D01*
X174868Y898432D01*
X174767Y898496D01*
X174739Y898526D01*
X174706Y898549D01*
X174630Y898641D01*
X174549Y898728D01*
X174529Y898763D01*
X174504Y898794D01*
X174453Y898902D01*
X174395Y899006D01*
X174385Y899046D01*
X174368Y899082D01*
X174346Y899199D01*
X174316Y899314D01*
X174312Y899374D01*
X174308Y899394D01*
X174310Y899415D01*
X174306Y899475D01*
X174306Y901381D01*
X153350Y901381D01*
X153252Y901393D01*
X153153Y901396D01*
X153095Y901413D01*
X153034Y901421D01*
X152942Y901457D01*
X152847Y901485D01*
X152795Y901515D01*
X152739Y901538D01*
X152659Y901596D01*
X152573Y901646D01*
X152498Y901712D01*
X152481Y901724D01*
X152474Y901734D01*
X152452Y901752D01*
X117527Y936677D01*
X117467Y936756D01*
X117399Y936828D01*
X117370Y936881D01*
X117333Y936929D01*
X117293Y937020D01*
X117245Y937106D01*
X117230Y937165D01*
X117206Y937221D01*
X117191Y937319D01*
X117166Y937414D01*
X117160Y937514D01*
X117156Y937535D01*
X117158Y937547D01*
X117156Y937575D01*
X117156Y1178875D01*
X117168Y1178973D01*
X117171Y1179072D01*
X117188Y1179130D01*
X117196Y1179191D01*
X117232Y1179283D01*
X117260Y1179378D01*
X117290Y1179430D01*
X117313Y1179486D01*
X117371Y1179566D01*
X117421Y1179652D01*
X117487Y1179727D01*
X117499Y1179744D01*
X117509Y1179751D01*
X117527Y1179772D01*
X130227Y1192472D01*
X130306Y1192533D01*
X130378Y1192601D01*
X130431Y1192630D01*
X130479Y1192667D01*
X130570Y1192707D01*
X130656Y1192755D01*
X130715Y1192770D01*
X130771Y1192794D01*
X130869Y1192809D01*
X130964Y1192834D01*
X131064Y1192840D01*
X131085Y1192844D01*
X131097Y1192842D01*
X131125Y1192844D01*
X197800Y1192844D01*
X197918Y1192829D01*
X198037Y1192822D01*
X198075Y1192809D01*
X198116Y1192804D01*
X198226Y1192761D01*
X198339Y1192724D01*
X198374Y1192702D01*
X198411Y1192687D01*
X198507Y1192617D01*
X198608Y1192554D01*
X198636Y1192524D01*
X198669Y1192501D01*
X198744Y1192409D01*
X198826Y1192322D01*
X198846Y1192287D01*
X198871Y1192256D01*
X198922Y1192148D01*
X198980Y1192044D01*
X198990Y1192004D01*
X199007Y1191968D01*
X199029Y1191851D01*
X199059Y1191736D01*
X199063Y1191675D01*
X199067Y1191655D01*
X199065Y1191635D01*
X199069Y1191575D01*
X199069Y1172525D01*
X199054Y1172407D01*
X199047Y1172288D01*
X199034Y1172250D01*
X199029Y1172209D01*
X198986Y1172099D01*
X198949Y1171986D01*
X198927Y1171951D01*
X198912Y1171914D01*
X198842Y1171818D01*
X198779Y1171717D01*
X198749Y1171689D01*
X198726Y1171656D01*
X198634Y1171580D01*
X198547Y1171499D01*
X198512Y1171479D01*
X198481Y1171454D01*
X198373Y1171403D01*
X198269Y1171345D01*
X198229Y1171335D01*
X198193Y1171318D01*
X198076Y1171296D01*
X197961Y1171266D01*
X197900Y1171262D01*
X197880Y1171258D01*
X197860Y1171260D01*
X197800Y1171256D01*
X169751Y1171256D01*
X157794Y1159299D01*
X157794Y1058751D01*
X169751Y1046794D01*
X197800Y1046794D01*
X197918Y1046779D01*
X198037Y1046772D01*
X198075Y1046759D01*
X198116Y1046754D01*
X198226Y1046711D01*
X198339Y1046674D01*
X198374Y1046652D01*
X198411Y1046637D01*
X198507Y1046567D01*
X198608Y1046504D01*
X198636Y1046474D01*
X198669Y1046451D01*
X198744Y1046359D01*
X198826Y1046272D01*
X198846Y1046237D01*
X198871Y1046206D01*
X198922Y1046098D01*
X198980Y1045994D01*
X198990Y1045954D01*
X199007Y1045918D01*
X199029Y1045801D01*
X199059Y1045686D01*
X199063Y1045625D01*
X199067Y1045605D01*
X199065Y1045585D01*
X199069Y1045525D01*
X199069Y1026475D01*
X199054Y1026357D01*
X199047Y1026238D01*
X199034Y1026200D01*
X199029Y1026159D01*
X198986Y1026049D01*
X198949Y1025936D01*
X198927Y1025901D01*
X198912Y1025864D01*
X198842Y1025768D01*
X198779Y1025667D01*
X198749Y1025639D01*
X198726Y1025606D01*
X198634Y1025530D01*
X198547Y1025449D01*
X198512Y1025429D01*
X198481Y1025404D01*
X198373Y1025353D01*
X198269Y1025295D01*
X198229Y1025285D01*
X198193Y1025268D01*
X198076Y1025246D01*
X197961Y1025216D01*
X197900Y1025212D01*
X197880Y1025208D01*
X197860Y1025210D01*
X197800Y1025206D01*
X169751Y1025206D01*
X157794Y1013249D01*
X157794Y995251D01*
X169751Y983294D01*
X264475Y983294D01*
X264573Y983282D01*
X264672Y983279D01*
X264730Y983262D01*
X264791Y983254D01*
X264883Y983218D01*
X264978Y983190D01*
X265030Y983160D01*
X265086Y983137D01*
X265166Y983079D01*
X265252Y983029D01*
X265327Y982963D01*
X265344Y982951D01*
X265351Y982941D01*
X265372Y982922D01*
X281247Y967047D01*
X281308Y966969D01*
X281376Y966897D01*
X281405Y966844D01*
X281442Y966796D01*
X281482Y966705D01*
X281530Y966619D01*
X281545Y966560D01*
X281569Y966504D01*
X281584Y966406D01*
X281609Y966311D01*
X281615Y966211D01*
X281619Y966190D01*
X281617Y966178D01*
X281619Y966150D01*
X281619Y769300D01*
X281607Y769202D01*
G37*
%LPC*%
G36*
X819720Y890574D02*
X819720Y890574D01*
X818173Y894309D01*
X815315Y897167D01*
X811580Y898714D01*
X785694Y898714D01*
X781959Y897167D01*
X778925Y894132D01*
X778847Y894072D01*
X778775Y894004D01*
X778722Y893975D01*
X778674Y893938D01*
X778583Y893898D01*
X778496Y893850D01*
X778438Y893835D01*
X778382Y893811D01*
X778284Y893796D01*
X778188Y893771D01*
X778088Y893765D01*
X778068Y893761D01*
X778056Y893763D01*
X778028Y893761D01*
X754222Y893761D01*
X754124Y893773D01*
X754025Y893776D01*
X753967Y893793D01*
X753907Y893801D01*
X753815Y893837D01*
X753720Y893865D01*
X753668Y893895D01*
X753611Y893918D01*
X753531Y893976D01*
X753446Y894026D01*
X753370Y894092D01*
X753354Y894104D01*
X753346Y894114D01*
X753325Y894132D01*
X750291Y897167D01*
X746690Y898658D01*
X746647Y898683D01*
X746600Y898700D01*
X746509Y898761D01*
X746414Y898816D01*
X746378Y898850D01*
X746337Y898878D01*
X746264Y898961D01*
X746185Y899037D01*
X746159Y899079D01*
X746126Y899117D01*
X746076Y899215D01*
X746019Y899308D01*
X746004Y899356D01*
X745982Y899400D01*
X745958Y899507D01*
X745925Y899612D01*
X745923Y899662D01*
X745912Y899710D01*
X745915Y899820D01*
X745910Y899930D01*
X745920Y899978D01*
X745922Y900028D01*
X745952Y900134D01*
X745975Y900241D01*
X745996Y900286D01*
X746010Y900334D01*
X746066Y900428D01*
X746114Y900527D01*
X746147Y900565D01*
X746172Y900608D01*
X746278Y900728D01*
X756242Y910693D01*
X756320Y910753D01*
X756393Y910821D01*
X756446Y910850D01*
X756493Y910887D01*
X756584Y910927D01*
X756671Y910975D01*
X756730Y910990D01*
X756785Y911014D01*
X756883Y911029D01*
X756979Y911054D01*
X757079Y911060D01*
X757099Y911064D01*
X757112Y911062D01*
X757140Y911064D01*
X757435Y911064D01*
X764845Y914134D01*
X770516Y919805D01*
X773586Y927215D01*
X773586Y935235D01*
X770516Y942645D01*
X764845Y948316D01*
X757435Y951386D01*
X749415Y951386D01*
X742005Y948316D01*
X736334Y942645D01*
X733264Y935235D01*
X733264Y934940D01*
X733252Y934842D01*
X733249Y934742D01*
X733232Y934684D01*
X733224Y934624D01*
X733188Y934532D01*
X733160Y934437D01*
X733130Y934385D01*
X733107Y934328D01*
X733049Y934248D01*
X732999Y934163D01*
X732933Y934088D01*
X732921Y934071D01*
X732911Y934063D01*
X732893Y934042D01*
X721558Y922707D01*
X721480Y922647D01*
X721407Y922579D01*
X721354Y922550D01*
X721307Y922513D01*
X721216Y922473D01*
X721129Y922425D01*
X721070Y922410D01*
X721015Y922386D01*
X720917Y922371D01*
X720821Y922346D01*
X720721Y922340D01*
X720701Y922336D01*
X720688Y922338D01*
X720660Y922336D01*
X692434Y922336D01*
X692336Y922348D01*
X692237Y922351D01*
X692179Y922368D01*
X692119Y922376D01*
X692027Y922412D01*
X691932Y922440D01*
X691879Y922470D01*
X691823Y922493D01*
X691743Y922551D01*
X691658Y922601D01*
X691645Y922612D01*
X684341Y925638D01*
X676459Y925638D01*
X669177Y922621D01*
X663604Y917048D01*
X660587Y909766D01*
X660587Y901884D01*
X663604Y894602D01*
X664183Y894023D01*
X664256Y893929D01*
X664335Y893839D01*
X664353Y893803D01*
X664378Y893771D01*
X664425Y893662D01*
X664479Y893556D01*
X664488Y893517D01*
X664504Y893479D01*
X664523Y893362D01*
X664549Y893246D01*
X664548Y893205D01*
X664554Y893165D01*
X664543Y893047D01*
X664539Y892928D01*
X664528Y892889D01*
X664524Y892849D01*
X664484Y892737D01*
X664451Y892622D01*
X664430Y892587D01*
X664417Y892549D01*
X664350Y892451D01*
X664289Y892348D01*
X664250Y892303D01*
X664238Y892286D01*
X664223Y892273D01*
X664183Y892228D01*
X663604Y891648D01*
X660587Y884366D01*
X660587Y876484D01*
X663618Y869168D01*
X663646Y869138D01*
X663675Y869085D01*
X663712Y869037D01*
X663752Y868946D01*
X663800Y868859D01*
X663815Y868801D01*
X663839Y868745D01*
X663854Y868647D01*
X663879Y868551D01*
X663885Y868451D01*
X663889Y868431D01*
X663887Y868419D01*
X663889Y868391D01*
X663889Y867059D01*
X663877Y866961D01*
X663874Y866862D01*
X663857Y866804D01*
X663849Y866744D01*
X663813Y866652D01*
X663785Y866557D01*
X663755Y866504D01*
X663732Y866448D01*
X663674Y866368D01*
X663624Y866283D01*
X663613Y866270D01*
X660587Y858966D01*
X660587Y851084D01*
X663604Y843802D01*
X669177Y838229D01*
X676459Y835212D01*
X684341Y835212D01*
X691623Y838229D01*
X697196Y843802D01*
X700213Y851084D01*
X700213Y858966D01*
X700047Y859365D01*
X700034Y859413D01*
X700013Y859458D01*
X699992Y859566D01*
X699963Y859672D01*
X699963Y859722D01*
X699953Y859771D01*
X699960Y859880D01*
X699958Y859990D01*
X699970Y860038D01*
X699973Y860088D01*
X700007Y860192D01*
X700032Y860299D01*
X700056Y860343D01*
X700071Y860390D01*
X700130Y860483D01*
X700181Y860580D01*
X700215Y860617D01*
X700241Y860659D01*
X700321Y860734D01*
X700395Y860816D01*
X700437Y860843D01*
X700473Y860877D01*
X700569Y860930D01*
X700661Y860990D01*
X700708Y861007D01*
X700751Y861031D01*
X700858Y861058D01*
X700962Y861094D01*
X701011Y861098D01*
X701059Y861110D01*
X701220Y861120D01*
X713385Y861120D01*
X713483Y861108D01*
X713582Y861105D01*
X713640Y861088D01*
X713700Y861080D01*
X713792Y861044D01*
X713887Y861016D01*
X713939Y860986D01*
X713996Y860963D01*
X714076Y860905D01*
X714161Y860855D01*
X714237Y860789D01*
X714253Y860777D01*
X714261Y860767D01*
X714282Y860749D01*
X716935Y858095D01*
X720670Y856548D01*
X746556Y856548D01*
X747859Y857088D01*
X747907Y857101D01*
X747952Y857122D01*
X748060Y857143D01*
X748166Y857172D01*
X748216Y857173D01*
X748265Y857182D01*
X748374Y857175D01*
X748484Y857177D01*
X748532Y857165D01*
X748582Y857162D01*
X748686Y857129D01*
X748793Y857103D01*
X748837Y857080D01*
X748884Y857064D01*
X748977Y857006D01*
X749074Y856954D01*
X749111Y856921D01*
X749153Y856894D01*
X749228Y856814D01*
X749310Y856740D01*
X749337Y856699D01*
X749371Y856663D01*
X749424Y856566D01*
X749484Y856475D01*
X749501Y856428D01*
X749525Y856384D01*
X749552Y856278D01*
X749588Y856174D01*
X749592Y856124D01*
X749604Y856076D01*
X749614Y855915D01*
X749614Y774760D01*
X749608Y774710D01*
X749610Y774661D01*
X749588Y774553D01*
X749574Y774444D01*
X749556Y774398D01*
X749546Y774349D01*
X749498Y774251D01*
X749457Y774148D01*
X749428Y774108D01*
X749406Y774063D01*
X749335Y773980D01*
X749271Y773891D01*
X749232Y773859D01*
X749200Y773821D01*
X749110Y773758D01*
X749026Y773688D01*
X748981Y773667D01*
X748940Y773638D01*
X748837Y773599D01*
X748738Y773553D01*
X748689Y773543D01*
X748643Y773526D01*
X748533Y773513D01*
X748426Y773493D01*
X748376Y773496D01*
X748327Y773490D01*
X748218Y773506D01*
X748108Y773513D01*
X748061Y773528D01*
X748012Y773535D01*
X747859Y773587D01*
X746556Y774127D01*
X720670Y774127D01*
X716935Y772580D01*
X714077Y769722D01*
X714038Y769627D01*
X714004Y769568D01*
X713985Y769519D01*
X713969Y769498D01*
X713948Y769451D01*
X713911Y769404D01*
X713881Y769351D01*
X713812Y769280D01*
X713806Y769273D01*
X713798Y769262D01*
X713796Y769260D01*
X713750Y769202D01*
X713701Y769166D01*
X713659Y769122D01*
X713575Y769071D01*
X713496Y769011D01*
X713406Y768967D01*
X713388Y768956D01*
X713376Y768953D01*
X713351Y768940D01*
X708766Y767041D01*
X691803Y750078D01*
X689289Y744009D01*
X689289Y695609D01*
X689277Y695511D01*
X689274Y695412D01*
X689257Y695354D01*
X689249Y695294D01*
X689213Y695202D01*
X689185Y695107D01*
X689155Y695055D01*
X689132Y694998D01*
X689074Y694918D01*
X689024Y694833D01*
X689013Y694820D01*
X685973Y687482D01*
X685972Y687440D01*
X685955Y687382D01*
X685947Y687322D01*
X685911Y687230D01*
X685883Y687135D01*
X685853Y687083D01*
X685830Y687026D01*
X685772Y686946D01*
X685722Y686861D01*
X685656Y686786D01*
X685644Y686769D01*
X685634Y686761D01*
X685616Y686740D01*
X679103Y680228D01*
X676589Y674159D01*
X676589Y663859D01*
X676577Y663761D01*
X676574Y663662D01*
X676557Y663604D01*
X676549Y663544D01*
X676513Y663452D01*
X676485Y663357D01*
X676455Y663305D01*
X676432Y663248D01*
X676374Y663168D01*
X676324Y663083D01*
X676313Y663070D01*
X673287Y655766D01*
X673287Y647884D01*
X676318Y640568D01*
X676346Y640538D01*
X676375Y640485D01*
X676412Y640437D01*
X676452Y640346D01*
X676500Y640259D01*
X676515Y640201D01*
X676539Y640145D01*
X676554Y640047D01*
X676579Y639951D01*
X676585Y639851D01*
X676589Y639831D01*
X676587Y639819D01*
X676589Y639791D01*
X676589Y627555D01*
X676577Y627457D01*
X676574Y627358D01*
X676557Y627300D01*
X676549Y627240D01*
X676513Y627148D01*
X676485Y627053D01*
X676455Y627001D01*
X676432Y626944D01*
X676374Y626864D01*
X676324Y626779D01*
X676258Y626703D01*
X676246Y626687D01*
X676236Y626679D01*
X676218Y626658D01*
X672017Y622458D01*
X672017Y604992D01*
X684367Y592642D01*
X701833Y592642D01*
X714183Y604992D01*
X714183Y622458D01*
X709982Y626658D01*
X709922Y626736D01*
X709854Y626808D01*
X709825Y626861D01*
X709788Y626909D01*
X709748Y627000D01*
X709700Y627087D01*
X709685Y627145D01*
X709661Y627201D01*
X709646Y627299D01*
X709621Y627395D01*
X709615Y627495D01*
X709611Y627515D01*
X709613Y627527D01*
X709611Y627555D01*
X709611Y639791D01*
X709623Y639889D01*
X709626Y639988D01*
X709643Y640046D01*
X709651Y640106D01*
X709687Y640198D01*
X709715Y640293D01*
X709745Y640345D01*
X709768Y640402D01*
X709826Y640482D01*
X709876Y640567D01*
X709887Y640580D01*
X712913Y647884D01*
X712913Y655766D01*
X710107Y662540D01*
X710075Y662655D01*
X710037Y662767D01*
X710034Y662808D01*
X710023Y662847D01*
X710021Y662966D01*
X710012Y663084D01*
X710019Y663124D01*
X710018Y663165D01*
X710046Y663280D01*
X710066Y663398D01*
X710083Y663435D01*
X710092Y663474D01*
X710148Y663579D01*
X710197Y663688D01*
X710222Y663719D01*
X710241Y663755D01*
X710321Y663843D01*
X710395Y663936D01*
X710427Y663961D01*
X710455Y663990D01*
X710554Y664056D01*
X710649Y664127D01*
X710703Y664154D01*
X710720Y664165D01*
X710740Y664172D01*
X710794Y664198D01*
X717023Y666779D01*
X722596Y672352D01*
X725613Y679634D01*
X725613Y687527D01*
X725584Y687630D01*
X725544Y687762D01*
X725543Y687783D01*
X725537Y687802D01*
X725535Y687942D01*
X725529Y688080D01*
X725533Y688100D01*
X725532Y688120D01*
X725565Y688256D01*
X725593Y688391D01*
X725602Y688410D01*
X725606Y688429D01*
X725672Y688553D01*
X725733Y688677D01*
X725746Y688692D01*
X725755Y688710D01*
X725849Y688814D01*
X725939Y688919D01*
X725955Y688931D01*
X725969Y688946D01*
X726085Y689022D01*
X726199Y689102D01*
X726218Y689109D01*
X726235Y689121D01*
X726366Y689166D01*
X726496Y689215D01*
X726516Y689217D01*
X726536Y689224D01*
X726674Y689235D01*
X726812Y689250D01*
X726832Y689247D01*
X726853Y689249D01*
X726990Y689225D01*
X727127Y689206D01*
X727154Y689197D01*
X727166Y689195D01*
X727185Y689186D01*
X727255Y689162D01*
X735141Y689162D01*
X742423Y692179D01*
X747996Y697752D01*
X751027Y705068D01*
X751028Y705110D01*
X751045Y705168D01*
X751053Y705228D01*
X751089Y705320D01*
X751117Y705415D01*
X751147Y705467D01*
X751170Y705524D01*
X751228Y705604D01*
X751278Y705689D01*
X751344Y705764D01*
X751356Y705781D01*
X751366Y705789D01*
X751384Y705810D01*
X775299Y729724D01*
X779624Y734049D01*
X779718Y734122D01*
X779807Y734201D01*
X779843Y734219D01*
X779875Y734244D01*
X779984Y734291D01*
X780090Y734345D01*
X780130Y734354D01*
X780167Y734370D01*
X780285Y734389D01*
X780400Y734415D01*
X780441Y734414D01*
X780481Y734420D01*
X780599Y734409D01*
X780718Y734405D01*
X780757Y734394D01*
X780797Y734390D01*
X780909Y734350D01*
X781024Y734317D01*
X781059Y734296D01*
X781097Y734283D01*
X781195Y734216D01*
X781298Y734155D01*
X781343Y734116D01*
X781360Y734104D01*
X781373Y734089D01*
X781419Y734049D01*
X781959Y733508D01*
X785694Y731961D01*
X811580Y731961D01*
X815315Y733508D01*
X818173Y736366D01*
X819720Y740101D01*
X819720Y765987D01*
X818173Y769722D01*
X815315Y772580D01*
X811580Y774127D01*
X785694Y774127D01*
X784391Y773587D01*
X784356Y773577D01*
X784344Y773572D01*
X784334Y773570D01*
X784298Y773553D01*
X784190Y773532D01*
X784084Y773503D01*
X784034Y773502D01*
X783985Y773493D01*
X783876Y773500D01*
X783766Y773498D01*
X783718Y773510D01*
X783668Y773513D01*
X783564Y773546D01*
X783457Y773572D01*
X783413Y773595D01*
X783366Y773611D01*
X783273Y773669D01*
X783176Y773721D01*
X783139Y773754D01*
X783097Y773781D01*
X783022Y773861D01*
X782940Y773935D01*
X782913Y773976D01*
X782879Y774012D01*
X782826Y774109D01*
X782766Y774200D01*
X782749Y774247D01*
X782725Y774291D01*
X782698Y774397D01*
X782662Y774501D01*
X782658Y774551D01*
X782646Y774599D01*
X782636Y774760D01*
X782636Y855915D01*
X782642Y855965D01*
X782640Y856014D01*
X782662Y856122D01*
X782676Y856231D01*
X782694Y856277D01*
X782704Y856326D01*
X782752Y856424D01*
X782793Y856527D01*
X782822Y856567D01*
X782844Y856612D01*
X782915Y856695D01*
X782979Y856784D01*
X783018Y856816D01*
X783050Y856854D01*
X783140Y856917D01*
X783224Y856987D01*
X783269Y857008D01*
X783310Y857037D01*
X783413Y857076D01*
X783512Y857122D01*
X783561Y857132D01*
X783607Y857149D01*
X783717Y857162D01*
X783824Y857182D01*
X783874Y857179D01*
X783923Y857185D01*
X784032Y857169D01*
X784142Y857162D01*
X784189Y857147D01*
X784238Y857140D01*
X784391Y857088D01*
X785694Y856548D01*
X811580Y856548D01*
X815315Y858095D01*
X818173Y860953D01*
X819720Y864688D01*
X819720Y890574D01*
G37*
%LPD*%
G36*
X722932Y1267677D02*
X722932Y1267677D01*
X722929Y1267578D01*
X722912Y1267520D01*
X722904Y1267459D01*
X722868Y1267367D01*
X722840Y1267272D01*
X722810Y1267220D01*
X722787Y1267164D01*
X722729Y1267084D01*
X722679Y1266998D01*
X722613Y1266923D01*
X722601Y1266906D01*
X722591Y1266899D01*
X722572Y1266877D01*
X700347Y1244652D01*
X700269Y1244592D01*
X700197Y1244524D01*
X700144Y1244495D01*
X700096Y1244458D01*
X700005Y1244418D01*
X699919Y1244370D01*
X699860Y1244355D01*
X699804Y1244331D01*
X699706Y1244316D01*
X699611Y1244291D01*
X699511Y1244285D01*
X699490Y1244281D01*
X699478Y1244283D01*
X699450Y1244281D01*
X642300Y1244281D01*
X642202Y1244293D01*
X642103Y1244296D01*
X642045Y1244313D01*
X641984Y1244321D01*
X641892Y1244357D01*
X641797Y1244385D01*
X641745Y1244415D01*
X641689Y1244438D01*
X641609Y1244496D01*
X641523Y1244546D01*
X641448Y1244612D01*
X641431Y1244624D01*
X641424Y1244634D01*
X641402Y1244652D01*
X619177Y1266877D01*
X619117Y1266956D01*
X619049Y1267028D01*
X619020Y1267081D01*
X618983Y1267129D01*
X618943Y1267220D01*
X618895Y1267306D01*
X618880Y1267365D01*
X618856Y1267421D01*
X618841Y1267519D01*
X618816Y1267614D01*
X618810Y1267714D01*
X618806Y1267735D01*
X618808Y1267747D01*
X618806Y1267775D01*
X618806Y1385250D01*
X618818Y1385348D01*
X618821Y1385447D01*
X618838Y1385505D01*
X618846Y1385566D01*
X618882Y1385658D01*
X618910Y1385753D01*
X618940Y1385805D01*
X618963Y1385861D01*
X619021Y1385941D01*
X619071Y1386027D01*
X619137Y1386102D01*
X619149Y1386119D01*
X619159Y1386126D01*
X619177Y1386148D01*
X635052Y1402023D01*
X635131Y1402083D01*
X635203Y1402151D01*
X635256Y1402180D01*
X635304Y1402217D01*
X635395Y1402257D01*
X635481Y1402305D01*
X635540Y1402320D01*
X635596Y1402344D01*
X635694Y1402359D01*
X635789Y1402384D01*
X635889Y1402390D01*
X635910Y1402394D01*
X635922Y1402392D01*
X635950Y1402394D01*
X689925Y1402394D01*
X690023Y1402382D01*
X690122Y1402379D01*
X690180Y1402362D01*
X690241Y1402354D01*
X690333Y1402318D01*
X690428Y1402290D01*
X690480Y1402260D01*
X690536Y1402237D01*
X690616Y1402179D01*
X690702Y1402129D01*
X690751Y1402086D01*
X690752Y1402085D01*
X690754Y1402083D01*
X690777Y1402063D01*
X690794Y1402051D01*
X690801Y1402041D01*
X690822Y1402023D01*
X700347Y1392498D01*
X700408Y1392419D01*
X700476Y1392347D01*
X700505Y1392294D01*
X700542Y1392246D01*
X700582Y1392155D01*
X700630Y1392069D01*
X700645Y1392010D01*
X700669Y1391954D01*
X700684Y1391856D01*
X700709Y1391761D01*
X700715Y1391661D01*
X700719Y1391640D01*
X700717Y1391628D01*
X700719Y1391600D01*
X700719Y1350851D01*
X722572Y1328997D01*
X722633Y1328919D01*
X722701Y1328847D01*
X722730Y1328794D01*
X722767Y1328746D01*
X722807Y1328655D01*
X722855Y1328569D01*
X722870Y1328510D01*
X722894Y1328454D01*
X722909Y1328356D01*
X722934Y1328261D01*
X722940Y1328161D01*
X722944Y1328140D01*
X722942Y1328128D01*
X722944Y1328100D01*
X722944Y1267775D01*
X722932Y1267677D01*
G37*
G36*
X617517Y669454D02*
X617517Y669454D01*
X617504Y669316D01*
X617497Y669297D01*
X617494Y669277D01*
X617443Y669148D01*
X617396Y669017D01*
X617385Y669000D01*
X617377Y668981D01*
X617296Y668869D01*
X617218Y668754D01*
X617202Y668740D01*
X617191Y668724D01*
X617083Y668635D01*
X616979Y668543D01*
X616961Y668534D01*
X616946Y668521D01*
X616820Y668462D01*
X616696Y668399D01*
X616676Y668394D01*
X616658Y668386D01*
X616521Y668359D01*
X616386Y668329D01*
X616365Y668330D01*
X616346Y668326D01*
X616207Y668334D01*
X616068Y668339D01*
X616048Y668344D01*
X616028Y668346D01*
X615896Y668388D01*
X615762Y668427D01*
X615745Y668437D01*
X615726Y668444D01*
X615608Y668518D01*
X615488Y668589D01*
X615467Y668607D01*
X615457Y668614D01*
X615443Y668629D01*
X615368Y668695D01*
X614364Y669698D01*
X606616Y672908D01*
X576384Y672908D01*
X575085Y672369D01*
X575076Y672367D01*
X575067Y672362D01*
X574922Y672325D01*
X574778Y672285D01*
X574769Y672285D01*
X574760Y672283D01*
X574599Y672273D01*
X533864Y672273D01*
X533855Y672274D01*
X533845Y672273D01*
X533701Y672293D01*
X533672Y672295D01*
X533662Y672298D01*
X533548Y672313D01*
X533540Y672316D01*
X533531Y672317D01*
X533378Y672369D01*
X530545Y673543D01*
X518475Y673543D01*
X518357Y673558D01*
X518238Y673565D01*
X518200Y673578D01*
X518159Y673583D01*
X518049Y673626D01*
X517936Y673663D01*
X517901Y673685D01*
X517864Y673700D01*
X517768Y673769D01*
X517667Y673833D01*
X517639Y673863D01*
X517606Y673886D01*
X517530Y673978D01*
X517449Y674065D01*
X517429Y674100D01*
X517404Y674131D01*
X517353Y674239D01*
X517295Y674343D01*
X517285Y674383D01*
X517268Y674419D01*
X517246Y674536D01*
X517216Y674651D01*
X517212Y674711D01*
X517208Y674731D01*
X517210Y674752D01*
X517206Y674812D01*
X517206Y685988D01*
X517221Y686106D01*
X517228Y686225D01*
X517241Y686263D01*
X517246Y686304D01*
X517289Y686414D01*
X517326Y686527D01*
X517348Y686562D01*
X517363Y686599D01*
X517432Y686695D01*
X517496Y686796D01*
X517526Y686824D01*
X517549Y686857D01*
X517641Y686933D01*
X517728Y687014D01*
X517763Y687034D01*
X517794Y687059D01*
X517902Y687110D01*
X518006Y687168D01*
X518046Y687178D01*
X518082Y687195D01*
X518199Y687217D01*
X518314Y687247D01*
X518374Y687251D01*
X518394Y687255D01*
X518415Y687253D01*
X518475Y687257D01*
X530545Y687257D01*
X533378Y688431D01*
X533387Y688433D01*
X533395Y688438D01*
X533540Y688475D01*
X533685Y688515D01*
X533694Y688515D01*
X533703Y688517D01*
X533864Y688527D01*
X574599Y688527D01*
X574608Y688526D01*
X574617Y688527D01*
X574766Y688506D01*
X574914Y688487D01*
X574923Y688484D01*
X574932Y688483D01*
X575085Y688431D01*
X576384Y687892D01*
X606616Y687892D01*
X612771Y690442D01*
X612800Y690450D01*
X612826Y690463D01*
X612953Y690492D01*
X613078Y690526D01*
X613108Y690526D01*
X613136Y690533D01*
X613266Y690529D01*
X613396Y690531D01*
X613425Y690524D01*
X613454Y690523D01*
X613579Y690487D01*
X613705Y690457D01*
X613731Y690443D01*
X613760Y690435D01*
X613871Y690369D01*
X613986Y690308D01*
X614008Y690288D01*
X614034Y690273D01*
X614154Y690167D01*
X617163Y687159D01*
X617223Y687081D01*
X617291Y687008D01*
X617320Y686955D01*
X617357Y686908D01*
X617397Y686817D01*
X617445Y686730D01*
X617460Y686671D01*
X617484Y686616D01*
X617499Y686518D01*
X617524Y686422D01*
X617530Y686322D01*
X617534Y686302D01*
X617532Y686289D01*
X617534Y686261D01*
X617534Y669592D01*
X617517Y669454D01*
G37*
D10*
X835721Y1148277D02*
X804452Y1148277D01*
X804452Y1137854D02*
X804452Y1158700D01*
X804452Y1172936D02*
X835721Y1172936D01*
X820087Y1172936D02*
X814875Y1178147D01*
X814875Y1188570D01*
X820087Y1193782D01*
X835721Y1193782D01*
X835721Y1213229D02*
X835721Y1223652D01*
X835721Y1213229D02*
X830510Y1208018D01*
X820087Y1208018D01*
X814875Y1213229D01*
X814875Y1223652D01*
X820087Y1228864D01*
X825298Y1228864D01*
X825298Y1208018D01*
X820087Y1243100D02*
X820087Y1263946D01*
X835721Y1278182D02*
X804452Y1278182D01*
X804452Y1293816D01*
X809664Y1299028D01*
X820087Y1299028D01*
X825298Y1293816D01*
X825298Y1278182D01*
X835721Y1313264D02*
X804452Y1313264D01*
X804452Y1328898D01*
X809664Y1334110D01*
X820087Y1334110D01*
X825298Y1328898D01*
X825298Y1313264D01*
X825298Y1323687D02*
X835721Y1334110D01*
X804452Y1353557D02*
X804452Y1363980D01*
X804452Y1353557D02*
X809664Y1348346D01*
X830510Y1348346D01*
X835721Y1353557D01*
X835721Y1363980D01*
X830510Y1369192D01*
X809664Y1369192D01*
X804452Y1363980D01*
D11*
X199197Y851850D02*
X177353Y851850D01*
X177353Y880425D02*
X199197Y880425D01*
X199197Y909000D02*
X177353Y909000D01*
X177353Y705800D02*
X199197Y705800D01*
X199197Y734375D02*
X177353Y734375D01*
X177353Y762950D02*
X199197Y762950D01*
X199197Y1153475D02*
X177353Y1153475D01*
X177353Y1182050D02*
X199197Y1182050D01*
X199197Y1210625D02*
X177353Y1210625D01*
X177353Y1007425D02*
X199197Y1007425D01*
X199197Y1036000D02*
X177353Y1036000D01*
X177353Y1064575D02*
X199197Y1064575D01*
X199197Y251775D02*
X177353Y251775D01*
X177353Y280350D02*
X199197Y280350D01*
X199197Y308925D02*
X177353Y308925D01*
X177353Y105725D02*
X199197Y105725D01*
X199197Y134300D02*
X177353Y134300D01*
X177353Y162875D02*
X199197Y162875D01*
X199197Y550225D02*
X177353Y550225D01*
X177353Y578800D02*
X199197Y578800D01*
X199197Y607375D02*
X177353Y607375D01*
X177353Y404175D02*
X199197Y404175D01*
X199197Y432750D02*
X177353Y432750D01*
X177353Y461325D02*
X199197Y461325D01*
D12*
X337500Y851850D03*
X235900Y851850D03*
X337500Y705800D03*
X235900Y705800D03*
X337500Y1153475D03*
X235900Y1153475D03*
X337500Y1007425D03*
X235900Y1007425D03*
X235900Y404175D03*
X337500Y404175D03*
X235900Y550225D03*
X337500Y550225D03*
X235900Y105725D03*
X337500Y105725D03*
X235900Y251775D03*
X337500Y251775D03*
X337500Y909000D03*
X235900Y909000D03*
X337500Y1210625D03*
X235900Y1210625D03*
X235900Y607375D03*
X337500Y607375D03*
X235900Y308925D03*
X337500Y308925D03*
D13*
X769300Y613725D03*
X769300Y537525D03*
X769300Y486725D03*
X769300Y435925D03*
X693100Y435925D03*
X693100Y486725D03*
X693100Y537525D03*
X693100Y613725D03*
D12*
X693100Y651825D03*
X769300Y651825D03*
D14*
X683575Y1013775D03*
D15*
X683575Y988375D03*
X607375Y988375D03*
X607375Y1013775D03*
X683575Y962975D03*
X683575Y937575D03*
X607375Y962975D03*
X607375Y937575D03*
D12*
X705800Y683575D03*
X731200Y708975D03*
X756600Y683575D03*
X680400Y880425D03*
X604200Y880425D03*
X801050Y1089975D03*
X724850Y1089975D03*
X788350Y1013775D03*
X762950Y1013775D03*
X737550Y1013775D03*
X724850Y1064575D03*
X801050Y1064575D03*
X680400Y855025D03*
X604200Y855025D03*
D16*
X526857Y985200D02*
X510093Y985200D01*
X510093Y959800D02*
X526857Y959800D01*
X526857Y934400D02*
X510093Y934400D01*
X510093Y909000D02*
X526857Y909000D01*
X526857Y883600D02*
X510093Y883600D01*
X510093Y858200D02*
X526857Y858200D01*
X526857Y832800D02*
X510093Y832800D01*
X510093Y807400D02*
X526857Y807400D01*
X526857Y782000D02*
X510093Y782000D01*
X510093Y756600D02*
X526857Y756600D01*
X526857Y731200D02*
X510093Y731200D01*
X510093Y705800D02*
X526857Y705800D01*
X526857Y680400D02*
X510093Y680400D01*
X510093Y655000D02*
X526857Y655000D01*
X526857Y629600D02*
X510093Y629600D01*
X510093Y604200D02*
X526857Y604200D01*
X526857Y578800D02*
X510093Y578800D01*
D17*
X804225Y191500D03*
X804225Y267650D03*
D18*
X674050Y58100D03*
X674050Y324800D03*
D19*
X540700Y188275D03*
D20*
X540700Y108900D03*
X591500Y108900D03*
X591500Y188275D03*
D11*
X602422Y708975D02*
X580578Y708975D01*
X580578Y680400D02*
X602422Y680400D01*
X602422Y651825D02*
X580578Y651825D01*
D17*
X578800Y566100D03*
X629600Y566100D03*
X578800Y782000D03*
X629600Y782000D03*
D21*
X477454Y629600D02*
X464246Y629600D01*
X464246Y604200D02*
X477454Y604200D01*
D22*
X559750Y1369375D03*
X661350Y1369375D03*
D12*
X559750Y308925D03*
X559750Y232725D03*
X591500Y232725D03*
X591500Y308925D03*
X629600Y423225D03*
X604200Y423225D03*
X578800Y423225D03*
D15*
X616900Y489900D03*
X591500Y489900D03*
D12*
X534350Y423225D03*
X534350Y499425D03*
X480375Y353375D03*
X505775Y378775D03*
X531175Y353375D03*
X680400Y905825D03*
X604200Y905825D03*
D23*
X753425Y931225D03*
X778825Y931225D03*
D24*
X543875Y1201100D03*
X543875Y1277300D03*
D25*
X394650Y1296350D03*
X293050Y1296350D03*
D12*
X607375Y1048700D03*
X683575Y1048700D03*
D26*
X620075Y1089975D03*
X670875Y1089975D03*
D27*
X798637Y798256D03*
X798637Y753044D03*
X733613Y798256D03*
X733613Y753044D03*
X733613Y832419D03*
X733613Y877631D03*
X798637Y832419D03*
X798637Y877631D03*
D12*
X724850Y1115375D03*
X801050Y1115375D03*
D28*
X480375Y309052D02*
X480375Y289748D01*
X505775Y289748D02*
X505775Y309052D01*
D29*
X188275Y1182050D02*
X134300Y1182050D01*
X134300Y1039175D01*
X134300Y1036000D01*
X188275Y1036000D01*
X137475Y1036000D01*
X134300Y1039175D01*
X134300Y1036000D02*
X134300Y959800D01*
X147000Y959800D01*
X267650Y959800D01*
X267650Y912175D01*
X267650Y766125D01*
X191450Y766125D01*
X188275Y762950D01*
X188275Y909000D02*
X235900Y909000D01*
X264475Y909000D01*
X267650Y912175D01*
D30*
X261300Y912175D01*
X235900Y937575D01*
D12*
X235900Y937575D03*
X337500Y937575D03*
D30*
X350200Y937575D01*
X404175Y883600D01*
X518475Y883600D01*
D31*
X147000Y959800D03*
D29*
X188275Y308925D02*
X235900Y308925D01*
X264475Y308925D01*
X267650Y305750D01*
X267650Y162875D01*
X188275Y162875D01*
D30*
X401000Y782000D02*
X518475Y782000D01*
X401000Y782000D02*
X385125Y766125D01*
X385125Y658175D01*
X362900Y635950D01*
X362900Y394650D01*
X340675Y372425D01*
X299400Y372425D01*
X235900Y308925D01*
D31*
X147000Y356550D03*
D32*
X543875Y1277300D02*
X534350Y1426525D01*
X699450Y1426525D01*
X721675Y1404300D01*
X721675Y1356675D01*
X753425Y1324925D01*
X769300Y651825D02*
X769300Y613725D01*
X769300Y537525D02*
X693100Y537525D01*
X769300Y537525D02*
X769300Y613725D01*
D30*
X769300Y651825D02*
X807400Y651825D01*
X848675Y1070925D02*
X829625Y1089975D01*
X848675Y1070925D02*
X848675Y693100D01*
X807400Y651825D01*
D32*
X753425Y1089975D02*
X753425Y1324925D01*
X753425Y1089975D02*
X753425Y1077275D01*
X740725Y1064575D01*
X724850Y1064575D01*
X753425Y1089975D02*
X801050Y1089975D01*
D30*
X829625Y1089975D01*
D32*
X480375Y299400D02*
X404175Y299400D01*
X258125Y134300D02*
X188275Y134300D01*
X258125Y134300D02*
X286700Y105725D01*
X286700Y89850D01*
X308925Y67625D01*
X366075Y67625D01*
X381950Y83500D01*
X381950Y277175D01*
X404175Y299400D01*
D16*
X235900Y851850D02*
X188275Y851850D01*
X188275Y705800D02*
X235900Y705800D01*
X235900Y1153475D02*
X188275Y1153475D01*
X188275Y1007425D02*
X235900Y1007425D01*
X235900Y404175D02*
X188275Y404175D01*
X188275Y550225D02*
X235900Y550225D01*
X235900Y105725D02*
X188275Y105725D01*
X188275Y251775D02*
X235900Y251775D01*
D32*
X337500Y858200D02*
X337500Y909000D01*
X337500Y858200D02*
X337500Y851850D01*
X337500Y705800D01*
D30*
X337500Y858200D02*
X518475Y858200D01*
D32*
X337500Y1153475D02*
X337500Y1210625D01*
X337500Y1153475D02*
X337500Y1007425D01*
D30*
X391475Y934400D02*
X518475Y934400D01*
X391475Y934400D02*
X337500Y988375D01*
X337500Y1007425D01*
D32*
X337500Y607375D02*
X337500Y550225D01*
X337500Y404175D01*
D30*
X388300Y807400D02*
X518475Y807400D01*
X388300Y807400D02*
X359725Y778825D01*
X359725Y670875D01*
X337500Y648650D01*
X337500Y607375D01*
D32*
X337500Y308925D02*
X337500Y251775D01*
X337500Y105725D01*
D30*
X416875Y756600D02*
X518475Y756600D01*
X416875Y756600D02*
X407350Y747075D01*
X407350Y645475D01*
X388300Y626425D01*
X388300Y388300D01*
X337500Y337500D01*
X337500Y308925D01*
D33*
X683575Y1185225D03*
D32*
X518475Y680400D02*
X496250Y680400D01*
X483550Y693100D01*
X483550Y718500D01*
X496250Y731200D01*
X518475Y731200D01*
D30*
X591500Y391475D02*
X581975Y381950D01*
X581975Y331150D01*
X591500Y321625D01*
X591500Y308925D01*
X581975Y381950D02*
X616900Y381950D01*
X620075Y378775D01*
X620075Y299400D01*
X591500Y270825D01*
X547050Y270825D01*
X531175Y286700D02*
X531175Y353375D01*
X531175Y286700D02*
X547050Y270825D01*
D32*
X604200Y880425D02*
X604200Y905825D01*
X648650Y1013775D02*
X683575Y1013775D01*
X648650Y1013775D02*
X632775Y997900D01*
X632775Y921700D01*
X616900Y905825D01*
X604200Y905825D01*
X680400Y880425D02*
X680400Y874075D01*
X680400Y855025D01*
X683956Y877631D02*
X733613Y877631D01*
X683956Y877631D02*
X680400Y874075D01*
X766125Y743900D02*
X731200Y708975D01*
X766125Y743900D02*
X766125Y877250D01*
X733994Y877250D01*
X733613Y877631D01*
X766125Y877250D02*
X798256Y877250D01*
X798637Y877631D01*
X693100Y651825D02*
X693100Y613725D01*
X693100Y651825D02*
X693100Y670875D01*
X705800Y683575D01*
X718119Y753044D02*
X733613Y753044D01*
X718119Y753044D02*
X705800Y740725D01*
X705800Y683575D01*
X696275Y988375D02*
X683575Y988375D01*
X696275Y988375D02*
X705800Y997900D01*
X705800Y1026475D01*
X683575Y1048700D01*
X683575Y1089975D02*
X724850Y1089975D01*
X683575Y1089975D02*
X670875Y1089975D01*
X683575Y1089975D02*
X683575Y1048700D01*
D30*
X772475Y1064575D02*
X801050Y1064575D01*
X772475Y1064575D02*
X737550Y1029650D01*
X737550Y1013775D01*
X699450Y962975D02*
X683575Y962975D01*
X699450Y962975D02*
X724850Y988375D01*
X747075Y988375D01*
X762950Y1004250D01*
X762950Y1013775D01*
D34*
X20000Y1451925D02*
X20000Y20000D01*
X889950Y20000D01*
X889950Y1451925D01*
X20000Y1451925D01*
D35*
X743950Y191500D02*
X804225Y191500D01*
X743950Y191500D02*
X674050Y121600D01*
X674050Y64450D01*
D32*
X674050Y58100D01*
X562925Y58100D01*
X540700Y80325D01*
X540700Y108900D01*
D35*
X731200Y267650D02*
X804225Y267650D01*
X731200Y267650D02*
X697862Y300987D01*
X674050Y324800D01*
D32*
X667700Y200975D02*
X591500Y124775D01*
X591500Y108900D01*
X667700Y200975D02*
X667700Y270825D01*
X697862Y300987D01*
D36*
X578800Y705800D02*
X518475Y705800D01*
X578800Y705800D02*
X588325Y705800D01*
X591500Y708975D01*
X578800Y705800D02*
X578800Y782000D01*
D30*
X607375Y537525D02*
X655000Y489900D01*
X607375Y537525D02*
X607375Y613725D01*
X632775Y639125D01*
X632775Y693100D01*
X616900Y708975D01*
X591500Y708975D01*
X655000Y489900D02*
X655000Y448625D01*
X667700Y435925D01*
X693100Y435925D01*
D36*
X578800Y655000D02*
X518475Y655000D01*
X578800Y655000D02*
X588325Y655000D01*
X591500Y651825D01*
X578800Y655000D02*
X578800Y566100D01*
D32*
X518475Y655000D02*
X496250Y655000D01*
X470850Y629600D01*
X470850Y604200D02*
X518475Y604200D01*
D33*
X683575Y1290000D03*
D32*
X559750Y232725D02*
X540700Y188275D01*
X559750Y308925D02*
X559750Y404175D01*
X578800Y423225D01*
D30*
X540700Y629600D02*
X518475Y629600D01*
X540700Y629600D02*
X553400Y616900D01*
X553400Y512125D01*
X575625Y489900D01*
X591500Y489900D01*
X604200Y451800D02*
X604200Y423225D01*
X604200Y451800D02*
X591500Y464500D01*
X591500Y489900D01*
D29*
X235900Y1210625D02*
X188275Y1210625D01*
X293050Y1245550D02*
X293050Y1296350D01*
X293050Y1245550D02*
X293050Y1210625D01*
X293050Y1061400D01*
X293050Y607375D01*
X235900Y607375D01*
X188275Y607375D01*
X293050Y607375D02*
X293050Y461325D01*
X188275Y461325D01*
X235900Y1210625D02*
X293050Y1210625D01*
X289875Y1064575D02*
X188275Y1064575D01*
X289875Y1064575D02*
X293050Y1061400D01*
D30*
X391475Y985200D02*
X518475Y985200D01*
X391475Y985200D02*
X362900Y1013775D01*
X362900Y1229675D01*
X347025Y1245550D01*
X293050Y1245550D01*
D32*
X518475Y578800D02*
X518475Y515300D01*
X534350Y499425D01*
D30*
X534350Y423225D02*
X534350Y391475D01*
X521650Y378775D01*
X505775Y378775D01*
D32*
X680400Y905825D02*
X728025Y905825D01*
X753425Y931225D01*
X591500Y232725D02*
X591500Y188275D01*
D31*
X61275Y1410650D03*
X61275Y77150D03*
X835975Y1410650D03*
X835975Y77150D03*
D32*
X724850Y1115375D02*
X661350Y1115375D01*
X645475Y1099500D01*
X645475Y1042350D01*
X616900Y1013775D01*
X607375Y1013775D01*
D30*
X807400Y623250D02*
X807400Y454975D01*
X788350Y435925D01*
X769300Y435925D01*
X864550Y680400D02*
X864550Y1083625D01*
X864550Y680400D02*
X807400Y623250D01*
X864550Y1083625D02*
X832800Y1115375D01*
X801050Y1115375D01*
D32*
X505775Y327975D02*
X505775Y299400D01*
X505775Y327975D02*
X480375Y353375D01*
M02*
