%TF.GenerationSoftware,KiCad,Pcbnew,6.0.10-86aedd382b~118~ubuntu20.04.1*%
%TF.CreationDate,2023-01-05T00:51:07+02:00*%
%TF.ProjectId,PSU controller,50535520-636f-46e7-9472-6f6c6c65722e,rev?*%
%TF.SameCoordinates,Original*%
%TF.FileFunction,Copper,L1,Top*%
%TF.FilePolarity,Positive*%
%FSLAX46Y46*%
G04 Gerber Fmt 4.6, Leading zero omitted, Abs format (unit mm)*
G04 Created by KiCad (PCBNEW 6.0.10-86aedd382b~118~ubuntu20.04.1) date 2023-01-05 00:51:07*
%MOMM*%
%LPD*%
G01*
G04 APERTURE LIST*
%TA.AperFunction,Profile*%
%ADD10C,0.1*%
%TD*%
%TA.AperFunction,ComponentPad*%
%ADD11O,1.5X1.5*%
%TD*%
%TA.AperFunction,ComponentPad*%
%ADD12R,1.5X1.5*%
%TD*%
%TA.AperFunction,ComponentPad*%
%ADD13C,2.5*%
%TD*%
%TA.AperFunction,ComponentPad*%
%ADD14C,3*%
%TD*%
%TA.AperFunction,ComponentPad*%
%ADD15O,1.5X1.05*%
%TD*%
%TA.AperFunction,ComponentPad*%
%ADD16R,1.5X1.05*%
%TD*%
%TA.AperFunction,ComponentPad*%
%ADD17O,1.7X1.7*%
%TD*%
%TA.AperFunction,ComponentPad*%
%ADD18R,1.7X1.7*%
%TD*%
%TA.AperFunction,ComponentPad*%
%ADD19R,3X3*%
%TD*%
%TA.AperFunction,ComponentPad*%
%ADD20O,1.6X1.6*%
%TD*%
%TA.AperFunction,ComponentPad*%
%ADD21C,1.6*%
%TD*%
%TA.AperFunction,ComponentPad*%
%ADD22R,1.6X1.6*%
%TD*%
%TA.AperFunction,ComponentPad*%
%ADD23O,1.8X1.8*%
%TD*%
%TA.AperFunction,ComponentPad*%
%ADD24R,1.8X1.8*%
%TD*%
%TA.AperFunction,Conductor*%
%ADD25C,1.5*%
%TD*%
%TA.AperFunction,Conductor*%
%ADD26C,0.8*%
%TD*%
G04 APERTURE END LIST*
D10*
X2000000Y49625000D02*
X2000000Y2000000D01*
X19145000Y2000000D02*
X34385000Y2000000D01*
X2000000Y2000000D02*
X18510000Y2000000D01*
X34385000Y49625000D02*
X2000000Y49625000D01*
X18510000Y2000000D02*
X19145000Y2000000D01*
X34385000Y2000000D02*
X34385000Y49625000D01*
D11*
X10260000Y7080000D03*
D12*
X17880000Y7080000D03*
D13*
X8150000Y33515000D03*
D14*
X20400000Y33465000D03*
X20350000Y45515000D03*
D13*
X8150000Y45515000D03*
D14*
X6200000Y39465000D03*
D15*
X7080000Y8459580D03*
X7080000Y9729580D03*
D16*
X7080000Y10999580D03*
D17*
X29330000Y14710000D03*
X29330000Y12170000D03*
X29330000Y9630000D03*
D18*
X29330000Y7090000D03*
D14*
X29940000Y33750000D03*
D19*
X29940000Y28670000D03*
D20*
X10255000Y4540000D03*
D21*
X17875000Y4540000D03*
D20*
X10255000Y12160000D03*
D21*
X17875000Y12160000D03*
D20*
X17875000Y9620000D03*
D21*
X10255000Y9620000D03*
X26130000Y9600000D03*
X26130000Y7100000D03*
X21685000Y10985000D03*
D22*
X21685000Y8985000D03*
D23*
X23561000Y4667000D03*
D24*
X21021000Y4667000D03*
D14*
X29940000Y39465000D03*
D19*
X29940000Y44545000D03*
D13*
X8150000Y15735000D03*
D14*
X20400000Y15685000D03*
X20350000Y27735000D03*
D13*
X8150000Y27735000D03*
D14*
X6200000Y21685000D03*
D25*
X6200000Y21685000D02*
X22955000Y21685000D01*
X22955000Y21685000D02*
X29940000Y28670000D01*
X6200000Y39465000D02*
X14700000Y47965000D01*
X32390000Y46540000D02*
X32390000Y36200000D01*
X30965000Y47965000D02*
X32390000Y46540000D01*
X14700000Y47965000D02*
X30965000Y47965000D01*
X32390000Y36200000D02*
X29940000Y33750000D01*
X20350000Y45515000D02*
X28970000Y45515000D01*
X28970000Y45515000D02*
X29940000Y44545000D01*
X20350000Y29875000D02*
X29940000Y39465000D01*
X20350000Y27735000D02*
X20350000Y29875000D01*
D26*
X4100000Y19785000D02*
X4100000Y29465000D01*
X23697000Y4667000D02*
X26130000Y7100000D01*
X29330000Y7090000D02*
X32480000Y10240000D01*
X24245000Y8985000D02*
X26130000Y7100000D01*
X29719210Y19510000D02*
X11925000Y19510000D01*
X21685000Y8985000D02*
X24245000Y8985000D01*
X32480000Y10240000D02*
X32480000Y16749210D01*
X19785000Y8985000D02*
X21685000Y8985000D01*
X29315000Y7090000D02*
X29305000Y7080000D01*
X32480000Y16749210D02*
X29719210Y19510000D01*
X23561000Y4667000D02*
X23697000Y4667000D01*
X17880000Y7080000D02*
X19785000Y8985000D01*
X11925000Y19510000D02*
X8150000Y15735000D01*
X4100000Y29465000D02*
X8150000Y33515000D01*
X29285000Y7100000D02*
X26130000Y7100000D01*
X8150000Y15735000D02*
X4100000Y19785000D01*
X29330000Y7090000D02*
X29315000Y7090000D01*
X26130000Y7100000D02*
X26130000Y7080000D01*
X29305000Y7080000D02*
X29285000Y7100000D01*
X29330000Y12170000D02*
X31210000Y14050000D01*
X31210000Y16605000D02*
X29305000Y18510000D01*
X24745000Y10985000D02*
X26130000Y9600000D01*
X10255000Y13430000D02*
X10255000Y12160000D01*
X31210000Y14050000D02*
X31210000Y16605000D01*
X29330000Y12170000D02*
X29330000Y9630000D01*
X26160000Y9630000D02*
X26130000Y9600000D01*
X8240420Y12160000D02*
X7080000Y10999580D01*
X29330000Y9630000D02*
X26160000Y9630000D01*
X21685000Y10985000D02*
X24745000Y10985000D01*
X29305000Y18510000D02*
X15335000Y18510000D01*
X10255000Y12160000D02*
X8240420Y12160000D01*
X15335000Y18510000D02*
X10255000Y13430000D01*
X25495000Y12795000D02*
X27410000Y14710000D01*
X27410000Y14710000D02*
X29330000Y14710000D01*
X17875000Y9620000D02*
X21050000Y12795000D01*
X21050000Y12795000D02*
X25495000Y12795000D01*
X7080000Y8459580D02*
X8880420Y8459580D01*
X10255000Y34026300D02*
X10255000Y29840000D01*
X3100000Y33580000D02*
X4885000Y35365000D01*
X10255000Y29840000D02*
X8150000Y27735000D01*
X8880420Y8459580D02*
X10260000Y7080000D01*
X3100000Y33580000D02*
X3100000Y40465000D01*
X8916300Y35365000D02*
X10255000Y34026300D01*
X3100000Y40465000D02*
X8150000Y45515000D01*
X7080000Y8459580D02*
X5530000Y8459580D01*
X5530000Y8459580D02*
X3100000Y10889580D01*
X3100000Y10889580D02*
X3100000Y33580000D01*
X4885000Y35365000D02*
X8916300Y35365000D01*
X10260000Y7080000D02*
X10260000Y4545000D01*
X10260000Y4545000D02*
X10255000Y4540000D01*
X17875000Y4540000D02*
X20894000Y4540000D01*
X20894000Y4540000D02*
X21021000Y4667000D01*
X12795000Y12160000D02*
X10255000Y9620000D01*
X17875000Y12160000D02*
X12795000Y12160000D01*
X10255000Y9620000D02*
X7189580Y9620000D01*
X7189580Y9620000D02*
X7080000Y9729580D01*
M02*
