%TF.GenerationSoftware,KiCad,Pcbnew,7.0.10-7.0.10~ubuntu22.04.1*%
%TF.CreationDate,2024-02-26T16:55:56+02:00*%
%TF.ProjectId,AS5600,41533536-3030-42e6-9b69-6361645f7063,rev?*%
%TF.SameCoordinates,Original*%
%TF.FileFunction,Copper,L1,Top*%
%TF.FilePolarity,Positive*%
%FSLAX46Y46*%
G04 Gerber Fmt 4.6, Leading zero omitted, Abs format (unit mm)*
G04 Created by KiCad (PCBNEW 7.0.10-7.0.10~ubuntu22.04.1) date 2024-02-26 16:55:56*
%MOMM*%
%LPD*%
G01*
G04 APERTURE LIST*
G04 Aperture macros list*
%AMRoundRect*0 ,Rectangle with rounded corners *0 ,$1 Rounding radius *0 ,$2 $3 $4 $5 $6 $7 $8 $9 X,Y pos of 4 corners *0 ,Add a 4 corners polygon primitive as box body *4,1,4,-0.225,-0.25,0.225,-0.25,
0.225,0.25,
-0.225,0.25,
-0.225,-0.25,0.0*0 ,Add four circle primitives for the rounded corners *1,1,0.45,-0.225,-0.25*1,1,0.45,0.225,-0.25*1,1,0.45,0.225,0.25*1,1,0.45,-0.225,0.25*0 ,Add four rect primitives between the rounded corners *20,1,0.45,-0.225,-0.25,0.225,-0.25,0.0*20,1,0.45,0.225,-0.25,0.225,0.25,0.0*20,1,0.45,0.225,0.25,-0.225,0.25,0.0*20,1,0.45,-0.225,0.25,-0.225,-0.25,0.0*%
G04 Aperture macros list end*
%TA.AperFunction,SMDPad,CuDef*%
%ADD10RoundRect,-0.275X0.2*%
%TD*%
%TA.AperFunction,SMDPad,CuDef*%
%ADD11RoundRect,-0.825X0.15*%
%TD*%
%TA.AperFunction,SMDPad,CuDef*%
%ADD12RoundRect,0.3125X0.25*%
%TD*%
%TA.AperFunction,SMDPad,CuDef*%
%ADD13RoundRect,-0.25X0.225*%
%TD*%
%TA.AperFunction,SMDPad,CuDef*%
%ADD14RoundRect,-0.225X0.225*%
%TD*%
%TA.AperFunction,ComponentPad*%
%ADD15R,1.35X1.35*%
%TD*%
%TA.AperFunction,Conductor*%
%ADD16C,0.6*%
%TD*%
%TA.AperFunction,Profile*%
%ADD17C,0.1*%
%TD*%
G04 APERTURE END LIST*
D10*
X7372600Y17845250D03*
X9022600Y17845250D03*
D11*
X8006850Y14275000D03*
X9276850Y14275000D03*
X10546850Y14275000D03*
X11816850Y14275000D03*
X11816850Y9325000D03*
X10546850Y9325000D03*
X9276850Y9325000D03*
X8006850Y9325000D03*
D12*
X8807200Y4125250D03*
X8807200Y7050250D03*
X11067800Y4125250D03*
X11067800Y7050250D03*
X13733050Y10185150D03*
X13733050Y13110150D03*
D13*
X10394400Y17845250D03*
X11944400Y17845250D03*
D14*
X6290850Y12562600D03*
X6290850Y11012600D03*
D15*
X4032000Y14162250D03*
X13709400Y6364450D03*
X4032000Y9387050D03*
X6165600Y6364450D03*
X14192000Y16194250D03*
D16*
X9276850Y14275000D02*
X9276850Y17591000D01*
X10394400Y17845250D02*
X9022600Y17845250D01*
X9276850Y17591000D02*
X9022600Y17845250D01*
X5606750Y11012600D02*
X4032000Y9437850D01*
X6290850Y11012600D02*
X5606750Y11012600D01*
X16376400Y14594050D02*
X16376400Y17769050D01*
X11627000Y13110150D02*
X10832050Y12315200D01*
X10832050Y12315200D02*
X10443900Y11927050D01*
X11816850Y13300000D02*
X10832050Y12315200D01*
X12427000Y18327850D02*
X11944400Y17845250D01*
X8006850Y9325000D02*
X8006850Y10136600D01*
X7130850Y11012600D02*
X6290850Y11012600D01*
X8006850Y10136600D02*
X7130850Y11012600D01*
X13733050Y13110150D02*
X14892500Y13110150D01*
X10443900Y11927050D02*
X8045300Y11927050D01*
X6343400Y10960050D02*
X6290850Y11012600D01*
X13733050Y13110150D02*
X11627000Y13110150D01*
X14892500Y13110150D02*
X16376400Y14594050D01*
X4032000Y9437850D02*
X4032000Y9387050D01*
X15817600Y18327850D02*
X12427000Y18327850D01*
X16376400Y17769050D02*
X15817600Y18327850D01*
X11816850Y14275000D02*
X11816850Y13300000D01*
X8045300Y11927050D02*
X7130850Y11012600D01*
X4798000Y4125250D02*
X2000000Y6923250D01*
X8807200Y4125250D02*
X4798000Y4125250D01*
X8006850Y14275000D02*
X8006850Y17211000D01*
X8006850Y14275000D02*
X8006850Y13463500D01*
X8006850Y17211000D02*
X7372600Y17845250D01*
X8006850Y13463500D02*
X7105950Y12562600D01*
X5631650Y12562600D02*
X4032000Y14162250D01*
X8006850Y14275000D02*
X8003250Y14275000D01*
X6290850Y12562600D02*
X5631650Y12562600D01*
X2000000Y6923250D02*
X2000000Y12130250D01*
X7105950Y12562600D02*
X6290850Y12562600D01*
X8807200Y4125250D02*
X11067800Y4125250D01*
X2000000Y12130250D02*
X4032000Y14162250D01*
X12677000Y10185150D02*
X11816850Y9325000D01*
X13733050Y10185150D02*
X12677000Y10185150D01*
X9276850Y9325000D02*
X9276850Y7519900D01*
X9276850Y7519900D02*
X8807200Y7050250D01*
X8807200Y7050250D02*
X6840700Y7050250D01*
X6840700Y7050250D02*
X6165600Y6375150D01*
X11516500Y16219650D02*
X14192000Y16219650D01*
X10546850Y15250000D02*
X11516500Y16219650D01*
X10546850Y14275000D02*
X10546850Y15250000D01*
X10546850Y9325000D02*
X10546850Y7571200D01*
X10546850Y7571200D02*
X11067800Y7050250D01*
X11067800Y7050250D02*
X13034300Y7050250D01*
X13034300Y7050250D02*
X13709400Y6375150D01*
D17*
X9911850Y2000000D02*
G75*
G03*
X9911850Y21600000I-105223250J124351800D01*
G01*
X9911850Y21600000D02*
G75*
G03*
X9911850Y2000000I-85623250J124351800D01*
G01*
M02*
