%TF.GenerationSoftware,KiCad,Pcbnew,7.0.10-7.0.10~ubuntu22.04.1*%
%TF.CreationDate,2024-02-26T16:55:56+02:00*%
%TF.ProjectId,AS5600,41533536-3030-42e6-9b69-6361645f7063,rev?*%
%TF.SameCoordinates,Original*%
%TF.FileFunction,Copper,L1,Top*%
%TF.FilePolarity,Positive*%
%FSLAX46Y46*%
G04 Gerber Fmt 4.6, Leading zero omitted, Abs format (unit mm)*
G04 Created by KiCad (PCBNEW 7.0.10-7.0.10~ubuntu22.04.1) date 2024-02-26 16:55:56*
%MOMM*%
%LPD*%
G01*
G04 APERTURE LIST*
G04 Aperture macros list*
%AMRoundRect*0 ,Rectangle with rounded corners *0 ,$1 Rounding radius *0 ,$2 $3 $4 $5 $6 $7 $8 $9 X,Y pos of 4 corners *0 ,Add a 4 corners polygon primitive as box body *4,1,4,-0.225,-0.25,0.225,-0.25,
0.225,0.25,
-0.225,0.25,
-0.225,-0.25,0.0*0 ,Add four circle primitives for the rounded corners *1,1,0.45,-0.225,-0.25*1,1,0.45,0.225,-0.25*1,1,0.45,0.225,0.25*1,1,0.45,-0.225,0.25*0 ,Add four rect primitives between the rounded corners *20,1,0.45,-0.225,-0.25,0.225,-0.25,0.0*20,1,0.45,0.225,-0.25,0.225,0.25,0.0*20,1,0.45,0.225,0.25,-0.225,0.25,0.0*20,1,0.45,-0.225,0.25,-0.225,-0.25,0.0*%
G04 Aperture macros list end*
%TA.AperFunction,SMDPad,CuDef*%
%ADD10RoundRect,-0.275X0.2*%
%TD*%
%TA.AperFunction,SMDPad,CuDef*%
%ADD11RoundRect,-0.825X0.15*%
%TD*%
%TA.AperFunction,SMDPad,CuDef*%
%ADD12RoundRect,0.3125X0.25*%
%TD*%
%TA.AperFunction,SMDPad,CuDef*%
%ADD13RoundRect,-0.25X0.225*%
%TD*%
%TA.AperFunction,SMDPad,CuDef*%
%ADD14RoundRect,-0.225X0.225*%
%TD*%
%TA.AperFunction,ComponentPad*%
%ADD15R,1.35X1.35*%
%TD*%
%TA.AperFunction,Conductor*%
%ADD16C,0.6*%
%TD*%
%TA.AperFunction,Profile*%
%ADD17C,0.1*%
%TD*%
G04 APERTURE END LIST*
D10*
X7372600Y5754750D03*
X9022600Y5754750D03*
D11*
X8006850Y9325000D03*
X9276850Y9325000D03*
X10546850Y9325000D03*
X11816850Y9325000D03*
X11816850Y14275000D03*
X10546850Y14275000D03*
X9276850Y14275000D03*
X8006850Y14275000D03*
D12*
X8807200Y19474750D03*
X8807200Y16549750D03*
X11067800Y19474750D03*
X11067800Y16549750D03*
X13733050Y13414850D03*
X13733050Y10489850D03*
D13*
X10394400Y5754750D03*
X11944400Y5754750D03*
D14*
X6290850Y11037400D03*
X6290850Y12587400D03*
D15*
X4032000Y9437750D03*
X13709400Y17235550D03*
X4032000Y14212950D03*
X6165600Y17235550D03*
X14192000Y7405750D03*
D16*
X9276850Y9325000D02*
X9276850Y6009000D01*
X10394400Y5754750D02*
X9022600Y5754750D01*
X9276850Y6009000D02*
X9022600Y5754750D01*
X5606750Y12587400D02*
X4032000Y14162150D01*
X6290850Y12587400D02*
X5606750Y12587400D01*
X16376400Y9005950D02*
X16376400Y5830950D01*
X11627000Y10489850D02*
X10832050Y11284800D01*
X10832050Y11284800D02*
X10443900Y11672950D01*
X11816850Y10300000D02*
X10832050Y11284800D01*
X12427000Y5272150D02*
X11944400Y5754750D01*
X8006850Y14275000D02*
X8006850Y13463400D01*
X7130850Y12587400D02*
X6290850Y12587400D01*
X8006850Y13463400D02*
X7130850Y12587400D01*
X13733050Y10489850D02*
X14892500Y10489850D01*
X10443900Y11672950D02*
X8045300Y11672950D01*
X6343400Y12639950D02*
X6290850Y12587400D01*
X13733050Y10489850D02*
X11627000Y10489850D01*
X14892500Y10489850D02*
X16376400Y9005950D01*
X4032000Y14162150D02*
X4032000Y14212950D01*
X15817600Y5272150D02*
X12427000Y5272150D01*
X16376400Y5830950D02*
X15817600Y5272150D01*
X11816850Y9325000D02*
X11816850Y10300000D01*
X8045300Y11672950D02*
X7130850Y12587400D01*
X4798000Y19474750D02*
X2000000Y16676750D01*
X8807200Y19474750D02*
X4798000Y19474750D01*
X8006850Y9325000D02*
X8006850Y6389000D01*
X8006850Y9325000D02*
X8006850Y10136500D01*
X8006850Y6389000D02*
X7372600Y5754750D01*
X8006850Y10136500D02*
X7105950Y11037400D01*
X5631650Y11037400D02*
X4032000Y9437750D01*
X8006850Y9325000D02*
X8003250Y9325000D01*
X6290850Y11037400D02*
X5631650Y11037400D01*
X2000000Y16676750D02*
X2000000Y11469750D01*
X7105950Y11037400D02*
X6290850Y11037400D01*
X8807200Y19474750D02*
X11067800Y19474750D01*
X2000000Y11469750D02*
X4032000Y9437750D01*
X12677000Y13414850D02*
X11816850Y14275000D01*
X13733050Y13414850D02*
X12677000Y13414850D01*
X9276850Y14275000D02*
X9276850Y16080100D01*
X9276850Y16080100D02*
X8807200Y16549750D01*
X8807200Y16549750D02*
X6840700Y16549750D01*
X6840700Y16549750D02*
X6165600Y17224850D01*
X11516500Y7380350D02*
X14192000Y7380350D01*
X10546850Y8350000D02*
X11516500Y7380350D01*
X10546850Y9325000D02*
X10546850Y8350000D01*
X10546850Y14275000D02*
X10546850Y16028800D01*
X10546850Y16028800D02*
X11067800Y16549750D01*
X11067800Y16549750D02*
X13034300Y16549750D01*
X13034300Y16549750D02*
X13709400Y17224850D01*
D17*
X9911850Y21600000D02*
G75*
G03*
X9911850Y2000000I-128823250J124351800D01*
G01*
X9911850Y2000000D02*
G75*
G03*
X9911850Y21600000I-109223250J124351800D01*
G01*
M02*
