G04 EAGLE Gerber RS-274X export*
G75*
%MOMM*%
%FSLAX34Y34*%
%LPD*%
%INBottom Copper*%
%IPPOS*%
%AMOC8*%
G01*
%ADD10C,0.6858*%
%ADD11C,2.184*%
%ADD12C,1.93*%
%ADD13P,2.364X8X112.5*%
%ADD14P,1.815X8X112.5*%
%ADD15C,1.676*%
%ADD16C,1.676*%
%ADD17C,3*%
%ADD18C,3.5*%
%ADD19R,2.54X2.54*%
%ADD20C,2.54*%
%ADD21C,1.321*%
%ADD22C,5*%
%ADD23C,2*%
%ADD24C,3.81*%
%ADD25R,3.81X3.81*%
%ADD26C,2.032*%
%ADD27R,2.184X2.184*%
%ADD28C,1.93*%
%ADD29C,0.254*%
%ADD30C,1.016*%
%ADD31C,5.08*%
%ADD32C,1.27*%
%ADD33C,6.452*%
%ADD34C,0.8128*%
%ADD35C,5.08*%
%ADD36C,1.422*%
G36*
X1099618Y47321D02*
X1099618Y47321D01*
X1099737Y47328D01*
X1099775Y47341D01*
X1099816Y47346D01*
X1099926Y47389D01*
X1100039Y47426D01*
X1100074Y47448D01*
X1100111Y47463D01*
X1100207Y47533D01*
X1100308Y47596D01*
X1100336Y47626D01*
X1100369Y47649D01*
X1100445Y47741D01*
X1100526Y47828D01*
X1100546Y47863D01*
X1100571Y47894D01*
X1100622Y48002D01*
X1100680Y48106D01*
X1100690Y48146D01*
X1100707Y48182D01*
X1100729Y48299D01*
X1100759Y48414D01*
X1100763Y48475D01*
X1100767Y48495D01*
X1100765Y48515D01*
X1100769Y48575D01*
X1100769Y332420D01*
X1100754Y332538D01*
X1100747Y332657D01*
X1100734Y332695D01*
X1100729Y332736D01*
X1100686Y332846D01*
X1100649Y332959D01*
X1100627Y332994D01*
X1100612Y333031D01*
X1100543Y333127D01*
X1100479Y333228D01*
X1100449Y333256D01*
X1100426Y333289D01*
X1100334Y333365D01*
X1100247Y333446D01*
X1100212Y333466D01*
X1100181Y333491D01*
X1100073Y333542D01*
X1099969Y333600D01*
X1099929Y333610D01*
X1099893Y333627D01*
X1099776Y333649D01*
X1099661Y333679D01*
X1099601Y333683D01*
X1099581Y333687D01*
X1099560Y333685D01*
X1099500Y333689D01*
X1075115Y333689D01*
X1075017Y333677D01*
X1074917Y333674D01*
X1074859Y333657D01*
X1074799Y333649D01*
X1074707Y333613D01*
X1074612Y333585D01*
X1074560Y333555D01*
X1074503Y333532D01*
X1074423Y333474D01*
X1074338Y333424D01*
X1074263Y333358D01*
X1074246Y333346D01*
X1074238Y333336D01*
X1074217Y333318D01*
X1068884Y327985D01*
X1068824Y327907D01*
X1068756Y327834D01*
X1068727Y327781D01*
X1068690Y327734D01*
X1068650Y327643D01*
X1068602Y327556D01*
X1068587Y327497D01*
X1068563Y327442D01*
X1068548Y327344D01*
X1068523Y327248D01*
X1068522Y327231D01*
X1065496Y319927D01*
X1064917Y319348D01*
X1064844Y319254D01*
X1064765Y319164D01*
X1064747Y319128D01*
X1064722Y319096D01*
X1064675Y318987D01*
X1064621Y318881D01*
X1064612Y318842D01*
X1064596Y318804D01*
X1064577Y318687D01*
X1064551Y318571D01*
X1064552Y318530D01*
X1064546Y318490D01*
X1064557Y318372D01*
X1064561Y318253D01*
X1064572Y318214D01*
X1064576Y318174D01*
X1064616Y318062D01*
X1064649Y317947D01*
X1064670Y317912D01*
X1064683Y317874D01*
X1064750Y317776D01*
X1064811Y317673D01*
X1064850Y317628D01*
X1064862Y317611D01*
X1064877Y317598D01*
X1064917Y317553D01*
X1065496Y316973D01*
X1068513Y309691D01*
X1068513Y301809D01*
X1065496Y294527D01*
X1059923Y288954D01*
X1052641Y285937D01*
X1044759Y285937D01*
X1037477Y288954D01*
X1036293Y290138D01*
X1036215Y290198D01*
X1036143Y290266D01*
X1036090Y290295D01*
X1036042Y290332D01*
X1035951Y290372D01*
X1035864Y290420D01*
X1035806Y290435D01*
X1035750Y290459D01*
X1035652Y290474D01*
X1035556Y290499D01*
X1035456Y290505D01*
X1035436Y290509D01*
X1035424Y290507D01*
X1035396Y290509D01*
X1017093Y290509D01*
X1011492Y292830D01*
X1001484Y302838D01*
X1001406Y302898D01*
X1001333Y302966D01*
X1001280Y302995D01*
X1001233Y303032D01*
X1001142Y303072D01*
X1001055Y303120D01*
X1000996Y303135D01*
X1000941Y303159D01*
X1000843Y303174D01*
X1000747Y303199D01*
X1000647Y303205D01*
X1000627Y303209D01*
X1000614Y303207D01*
X1000586Y303209D01*
X993533Y303209D01*
X993435Y303197D01*
X993336Y303194D01*
X993278Y303177D01*
X993218Y303169D01*
X993126Y303133D01*
X993031Y303105D01*
X992978Y303075D01*
X992922Y303052D01*
X992842Y302994D01*
X992757Y302944D01*
X992682Y302878D01*
X992665Y302866D01*
X992657Y302856D01*
X992636Y302837D01*
X992529Y302730D01*
X985713Y299907D01*
X978337Y299907D01*
X971521Y302730D01*
X966305Y307946D01*
X963482Y314762D01*
X963482Y322138D01*
X965845Y327843D01*
X965853Y327871D01*
X965866Y327898D01*
X965895Y328025D01*
X965929Y328150D01*
X965930Y328179D01*
X965936Y328208D01*
X965932Y328338D01*
X965934Y328468D01*
X965927Y328496D01*
X965926Y328526D01*
X965890Y328651D01*
X965860Y328777D01*
X965846Y328803D01*
X965838Y328831D01*
X965772Y328943D01*
X965711Y329058D01*
X965692Y329080D01*
X965676Y329105D01*
X965570Y329226D01*
X953859Y340938D01*
X953781Y340998D01*
X953708Y341066D01*
X953655Y341095D01*
X953608Y341132D01*
X953517Y341172D01*
X953430Y341220D01*
X953371Y341235D01*
X953316Y341259D01*
X953218Y341274D01*
X953122Y341299D01*
X953022Y341305D01*
X953002Y341309D01*
X952989Y341307D01*
X952961Y341309D01*
X930805Y341309D01*
X930681Y341294D01*
X930555Y341284D01*
X930523Y341274D01*
X930490Y341269D01*
X930373Y341223D01*
X930254Y341183D01*
X930225Y341165D01*
X930194Y341152D01*
X930092Y341079D01*
X929987Y341010D01*
X929964Y340985D01*
X929937Y340966D01*
X929857Y340869D01*
X929771Y340776D01*
X929755Y340747D01*
X929734Y340721D01*
X929680Y340607D01*
X929621Y340496D01*
X929613Y340463D01*
X929598Y340433D01*
X929575Y340310D01*
X929545Y340187D01*
X929545Y340154D01*
X929539Y340121D01*
X929546Y339995D01*
X929548Y339869D01*
X929557Y339821D01*
X929558Y339803D01*
X929565Y339783D01*
X929579Y339712D01*
X930986Y334462D01*
X930986Y327838D01*
X929271Y321438D01*
X928279Y319720D01*
X928227Y319597D01*
X928171Y319478D01*
X928166Y319451D01*
X928156Y319426D01*
X928136Y319295D01*
X928111Y319165D01*
X928113Y319139D01*
X928109Y319112D01*
X928123Y318980D01*
X928131Y318848D01*
X928139Y318822D01*
X928142Y318796D01*
X928188Y318671D01*
X928229Y318546D01*
X928244Y318523D01*
X928253Y318497D01*
X928328Y318389D01*
X928399Y318277D01*
X928419Y318258D01*
X928434Y318236D01*
X928534Y318150D01*
X928631Y318059D01*
X928654Y318046D01*
X928675Y318028D01*
X928794Y317969D01*
X928909Y317905D01*
X928935Y317899D01*
X928960Y317887D01*
X929089Y317859D01*
X929217Y317826D01*
X929255Y317824D01*
X929271Y317820D01*
X929293Y317821D01*
X929378Y317816D01*
X937432Y317816D01*
X943033Y315495D01*
X987966Y270562D01*
X988044Y270502D01*
X988117Y270434D01*
X988170Y270405D01*
X988217Y270368D01*
X988308Y270328D01*
X988395Y270280D01*
X988454Y270265D01*
X988509Y270241D01*
X988607Y270226D01*
X988703Y270201D01*
X988803Y270195D01*
X988823Y270191D01*
X988836Y270193D01*
X988864Y270191D01*
X1026332Y270191D01*
X1031933Y267870D01*
X1048920Y250883D01*
X1051241Y245282D01*
X1051241Y231950D01*
X1051253Y231852D01*
X1051256Y231753D01*
X1051273Y231695D01*
X1051281Y231635D01*
X1051317Y231543D01*
X1051345Y231448D01*
X1051375Y231396D01*
X1051398Y231339D01*
X1051456Y231259D01*
X1051506Y231174D01*
X1051572Y231098D01*
X1051584Y231082D01*
X1051594Y231074D01*
X1051612Y231053D01*
X1057083Y225583D01*
X1057083Y208117D01*
X1044733Y195767D01*
X1027267Y195767D01*
X1014917Y208117D01*
X1014917Y225583D01*
X1020388Y231053D01*
X1020448Y231131D01*
X1020516Y231203D01*
X1020545Y231256D01*
X1020582Y231304D01*
X1020622Y231395D01*
X1020670Y231482D01*
X1020685Y231540D01*
X1020709Y231596D01*
X1020724Y231694D01*
X1020749Y231790D01*
X1020755Y231890D01*
X1020759Y231910D01*
X1020757Y231922D01*
X1020759Y231950D01*
X1020759Y235411D01*
X1020747Y235510D01*
X1020744Y235609D01*
X1020727Y235667D01*
X1020719Y235727D01*
X1020683Y235819D01*
X1020655Y235914D01*
X1020625Y235966D01*
X1020602Y236023D01*
X1020544Y236103D01*
X1020494Y236188D01*
X1020428Y236263D01*
X1020416Y236280D01*
X1020406Y236288D01*
X1020388Y236309D01*
X1017359Y239338D01*
X1017281Y239398D01*
X1017208Y239466D01*
X1017155Y239495D01*
X1017108Y239532D01*
X1017017Y239572D01*
X1016930Y239620D01*
X1016871Y239635D01*
X1016816Y239659D01*
X1016718Y239674D01*
X1016622Y239699D01*
X1016522Y239705D01*
X1016502Y239709D01*
X1016489Y239707D01*
X1016461Y239709D01*
X995220Y239709D01*
X995083Y239692D01*
X994944Y239679D01*
X994925Y239672D01*
X994905Y239669D01*
X994776Y239618D01*
X994645Y239571D01*
X994628Y239560D01*
X994609Y239552D01*
X994497Y239471D01*
X994382Y239393D01*
X994368Y239377D01*
X994352Y239366D01*
X994263Y239258D01*
X994171Y239154D01*
X994162Y239136D01*
X994149Y239121D01*
X994090Y238995D01*
X994027Y238871D01*
X994022Y238851D01*
X994014Y238833D01*
X993987Y238697D01*
X993957Y238561D01*
X993958Y238540D01*
X993954Y238521D01*
X993962Y238382D01*
X993967Y238243D01*
X993972Y238223D01*
X993973Y238203D01*
X994016Y238071D01*
X994055Y237937D01*
X994065Y237920D01*
X994072Y237901D01*
X994146Y237783D01*
X994217Y237663D01*
X994235Y237642D01*
X994242Y237632D01*
X994257Y237618D01*
X994323Y237543D01*
X1006283Y225583D01*
X1006283Y208117D01*
X993933Y195767D01*
X976467Y195767D01*
X964117Y208117D01*
X964117Y225583D01*
X976467Y237933D01*
X976901Y237933D01*
X976971Y237941D01*
X977040Y237940D01*
X977128Y237961D01*
X977217Y237973D01*
X977282Y237998D01*
X977350Y238015D01*
X977429Y238057D01*
X977513Y238090D01*
X977569Y238131D01*
X977631Y238163D01*
X977697Y238224D01*
X977770Y238276D01*
X977815Y238330D01*
X977866Y238377D01*
X977916Y238452D01*
X977973Y238521D01*
X978003Y238585D01*
X978041Y238643D01*
X978070Y238728D01*
X978108Y238809D01*
X978121Y238878D01*
X978144Y238944D01*
X978151Y239033D01*
X978168Y239121D01*
X978164Y239191D01*
X978169Y239261D01*
X978154Y239349D01*
X978148Y239439D01*
X978127Y239505D01*
X978115Y239574D01*
X978078Y239656D01*
X978050Y239741D01*
X978013Y239800D01*
X977984Y239864D01*
X977928Y239934D01*
X977880Y240010D01*
X977829Y240058D01*
X977786Y240112D01*
X977714Y240167D01*
X977649Y240228D01*
X977587Y240262D01*
X977532Y240304D01*
X977387Y240375D01*
X973392Y242030D01*
X928459Y286963D01*
X928381Y287023D01*
X928308Y287091D01*
X928255Y287120D01*
X928208Y287157D01*
X928117Y287197D01*
X928030Y287245D01*
X927971Y287260D01*
X927916Y287284D01*
X927818Y287299D01*
X927722Y287324D01*
X927622Y287330D01*
X927602Y287334D01*
X927589Y287332D01*
X927561Y287334D01*
X865039Y287334D01*
X864940Y287322D01*
X864841Y287319D01*
X864783Y287302D01*
X864723Y287294D01*
X864631Y287258D01*
X864536Y287230D01*
X864484Y287200D01*
X864427Y287177D01*
X864347Y287119D01*
X864262Y287069D01*
X864187Y287003D01*
X864170Y286991D01*
X864162Y286981D01*
X864141Y286963D01*
X845899Y268720D01*
X841433Y264255D01*
X835832Y261934D01*
X775793Y261934D01*
X770192Y264255D01*
X754495Y279951D01*
X750030Y284417D01*
X747709Y290018D01*
X747709Y292427D01*
X747697Y292526D01*
X747694Y292625D01*
X747677Y292683D01*
X747669Y292743D01*
X747633Y292835D01*
X747605Y292930D01*
X747575Y292982D01*
X747552Y293039D01*
X747494Y293119D01*
X747444Y293204D01*
X747378Y293280D01*
X747366Y293296D01*
X747356Y293304D01*
X747338Y293325D01*
X745077Y295586D01*
X741867Y303334D01*
X741867Y312608D01*
X741852Y312726D01*
X741845Y312845D01*
X741832Y312883D01*
X741827Y312924D01*
X741784Y313034D01*
X741747Y313147D01*
X741725Y313182D01*
X741710Y313219D01*
X741641Y313315D01*
X741577Y313416D01*
X741547Y313444D01*
X741524Y313477D01*
X741432Y313553D01*
X741345Y313634D01*
X741310Y313654D01*
X741279Y313679D01*
X741171Y313730D01*
X741067Y313788D01*
X741027Y313798D01*
X740991Y313815D01*
X740874Y313837D01*
X740759Y313867D01*
X740699Y313871D01*
X740679Y313875D01*
X740658Y313873D01*
X740598Y313877D01*
X708761Y313877D01*
X708662Y313865D01*
X708563Y313862D01*
X708505Y313845D01*
X708445Y313837D01*
X708353Y313801D01*
X708258Y313773D01*
X708206Y313743D01*
X708149Y313720D01*
X708069Y313662D01*
X707984Y313612D01*
X707909Y313546D01*
X707892Y313534D01*
X707884Y313524D01*
X707863Y313506D01*
X705374Y311016D01*
X699637Y307704D01*
X693237Y305989D01*
X686613Y305989D01*
X680213Y307704D01*
X674476Y311016D01*
X669791Y315701D01*
X666479Y321438D01*
X664764Y327838D01*
X664764Y334462D01*
X666479Y340862D01*
X669791Y346599D01*
X674476Y351284D01*
X680213Y354596D01*
X686613Y356311D01*
X693237Y356311D01*
X699637Y354596D01*
X705374Y351284D01*
X707863Y348794D01*
X707941Y348734D01*
X708014Y348666D01*
X708067Y348637D01*
X708114Y348600D01*
X708205Y348560D01*
X708292Y348512D01*
X708351Y348497D01*
X708406Y348473D01*
X708504Y348458D01*
X708600Y348433D01*
X708700Y348427D01*
X708720Y348423D01*
X708733Y348425D01*
X708761Y348423D01*
X747583Y348423D01*
X747701Y348438D01*
X747820Y348445D01*
X747858Y348458D01*
X747899Y348463D01*
X748009Y348506D01*
X748122Y348543D01*
X748157Y348565D01*
X748194Y348580D01*
X748290Y348649D01*
X748391Y348713D01*
X748419Y348743D01*
X748452Y348766D01*
X748528Y348858D01*
X748609Y348945D01*
X748629Y348980D01*
X748654Y349011D01*
X748705Y349119D01*
X748763Y349223D01*
X748773Y349263D01*
X748790Y349299D01*
X748812Y349416D01*
X748842Y349531D01*
X748846Y349591D01*
X748850Y349611D01*
X748848Y349632D01*
X748852Y349692D01*
X748852Y376086D01*
X748851Y376095D01*
X748852Y376105D01*
X748832Y376249D01*
X748830Y376278D01*
X748827Y376288D01*
X748812Y376402D01*
X748809Y376410D01*
X748808Y376419D01*
X748756Y376572D01*
X747582Y379405D01*
X747582Y391475D01*
X747567Y391593D01*
X747560Y391712D01*
X747547Y391750D01*
X747542Y391791D01*
X747499Y391901D01*
X747462Y392014D01*
X747440Y392049D01*
X747425Y392086D01*
X747356Y392182D01*
X747292Y392283D01*
X747262Y392311D01*
X747239Y392344D01*
X747147Y392420D01*
X747060Y392501D01*
X747025Y392521D01*
X746994Y392546D01*
X746886Y392597D01*
X746782Y392655D01*
X746742Y392665D01*
X746706Y392682D01*
X746589Y392704D01*
X746474Y392734D01*
X746414Y392738D01*
X746394Y392742D01*
X746373Y392740D01*
X746313Y392744D01*
X735137Y392744D01*
X735019Y392729D01*
X734900Y392722D01*
X734862Y392709D01*
X734821Y392704D01*
X734711Y392661D01*
X734598Y392624D01*
X734563Y392602D01*
X734526Y392587D01*
X734430Y392518D01*
X734329Y392454D01*
X734301Y392424D01*
X734268Y392401D01*
X734192Y392309D01*
X734111Y392222D01*
X734091Y392187D01*
X734066Y392156D01*
X734015Y392048D01*
X733957Y391944D01*
X733947Y391904D01*
X733930Y391868D01*
X733908Y391751D01*
X733878Y391636D01*
X733874Y391576D01*
X733870Y391556D01*
X733872Y391535D01*
X733868Y391475D01*
X733868Y379405D01*
X731045Y372589D01*
X725829Y367373D01*
X719013Y364550D01*
X711637Y364550D01*
X704821Y367373D01*
X703522Y368672D01*
X703428Y368745D01*
X703339Y368824D01*
X703303Y368842D01*
X703271Y368867D01*
X703162Y368914D01*
X703056Y368968D01*
X703017Y368977D01*
X702979Y368993D01*
X702862Y369012D01*
X702746Y369038D01*
X702705Y369037D01*
X702665Y369043D01*
X702547Y369032D01*
X702428Y369028D01*
X702389Y369017D01*
X702349Y369013D01*
X702237Y368973D01*
X702122Y368940D01*
X702087Y368920D01*
X702049Y368906D01*
X701951Y368839D01*
X701848Y368778D01*
X701803Y368739D01*
X701786Y368727D01*
X701773Y368712D01*
X701727Y368672D01*
X700429Y367373D01*
X693613Y364550D01*
X686237Y364550D01*
X679421Y367373D01*
X678122Y368672D01*
X678028Y368745D01*
X677939Y368824D01*
X677903Y368842D01*
X677871Y368867D01*
X677762Y368914D01*
X677656Y368968D01*
X677617Y368977D01*
X677579Y368993D01*
X677462Y369012D01*
X677346Y369038D01*
X677305Y369037D01*
X677265Y369043D01*
X677147Y369032D01*
X677028Y369028D01*
X676989Y369017D01*
X676949Y369013D01*
X676837Y368973D01*
X676722Y368940D01*
X676687Y368920D01*
X676649Y368906D01*
X676551Y368839D01*
X676448Y368778D01*
X676403Y368739D01*
X676386Y368727D01*
X676373Y368712D01*
X676327Y368672D01*
X675029Y367373D01*
X668213Y364550D01*
X660837Y364550D01*
X654021Y367373D01*
X648805Y372589D01*
X645982Y379405D01*
X645982Y391475D01*
X645967Y391593D01*
X645960Y391712D01*
X645947Y391750D01*
X645942Y391791D01*
X645899Y391901D01*
X645862Y392014D01*
X645840Y392049D01*
X645825Y392086D01*
X645756Y392182D01*
X645692Y392283D01*
X645662Y392311D01*
X645639Y392344D01*
X645547Y392420D01*
X645460Y392501D01*
X645425Y392521D01*
X645394Y392546D01*
X645286Y392597D01*
X645182Y392655D01*
X645142Y392665D01*
X645106Y392682D01*
X644989Y392704D01*
X644874Y392734D01*
X644814Y392738D01*
X644794Y392742D01*
X644773Y392740D01*
X644713Y392744D01*
X633537Y392744D01*
X633419Y392729D01*
X633300Y392722D01*
X633262Y392709D01*
X633221Y392704D01*
X633111Y392661D01*
X632998Y392624D01*
X632963Y392602D01*
X632926Y392587D01*
X632830Y392518D01*
X632729Y392454D01*
X632701Y392424D01*
X632668Y392401D01*
X632592Y392309D01*
X632511Y392222D01*
X632491Y392187D01*
X632466Y392156D01*
X632415Y392048D01*
X632357Y391944D01*
X632347Y391904D01*
X632330Y391868D01*
X632308Y391751D01*
X632278Y391636D01*
X632274Y391576D01*
X632270Y391556D01*
X632272Y391535D01*
X632268Y391475D01*
X632268Y379405D01*
X629445Y372589D01*
X624229Y367373D01*
X617413Y364550D01*
X610037Y364550D01*
X603221Y367373D01*
X601922Y368672D01*
X601828Y368745D01*
X601739Y368824D01*
X601703Y368842D01*
X601671Y368867D01*
X601562Y368914D01*
X601456Y368968D01*
X601417Y368977D01*
X601379Y368993D01*
X601262Y369012D01*
X601146Y369038D01*
X601105Y369037D01*
X601065Y369043D01*
X600947Y369032D01*
X600828Y369028D01*
X600789Y369017D01*
X600749Y369013D01*
X600637Y368973D01*
X600522Y368940D01*
X600487Y368920D01*
X600449Y368906D01*
X600351Y368839D01*
X600248Y368778D01*
X600203Y368739D01*
X600186Y368727D01*
X600173Y368712D01*
X600127Y368672D01*
X598829Y367373D01*
X592013Y364550D01*
X584637Y364550D01*
X577821Y367373D01*
X572605Y372589D01*
X569782Y379405D01*
X569782Y391475D01*
X569767Y391593D01*
X569760Y391712D01*
X569747Y391750D01*
X569742Y391791D01*
X569699Y391901D01*
X569662Y392014D01*
X569640Y392049D01*
X569625Y392086D01*
X569556Y392182D01*
X569492Y392283D01*
X569462Y392311D01*
X569439Y392344D01*
X569347Y392420D01*
X569260Y392501D01*
X569225Y392521D01*
X569194Y392546D01*
X569086Y392597D01*
X568982Y392655D01*
X568942Y392665D01*
X568906Y392682D01*
X568789Y392704D01*
X568674Y392734D01*
X568614Y392738D01*
X568594Y392742D01*
X568573Y392740D01*
X568513Y392744D01*
X557337Y392744D01*
X557219Y392729D01*
X557100Y392722D01*
X557062Y392709D01*
X557021Y392704D01*
X556911Y392661D01*
X556798Y392624D01*
X556763Y392602D01*
X556726Y392587D01*
X556630Y392518D01*
X556529Y392454D01*
X556501Y392424D01*
X556468Y392401D01*
X556392Y392309D01*
X556311Y392222D01*
X556291Y392187D01*
X556266Y392156D01*
X556215Y392048D01*
X556157Y391944D01*
X556147Y391904D01*
X556130Y391868D01*
X556108Y391751D01*
X556078Y391636D01*
X556074Y391576D01*
X556070Y391556D01*
X556072Y391535D01*
X556068Y391475D01*
X556068Y379405D01*
X553245Y372589D01*
X548029Y367373D01*
X541213Y364550D01*
X533837Y364550D01*
X527021Y367373D01*
X521805Y372589D01*
X518982Y379405D01*
X518982Y391475D01*
X518967Y391593D01*
X518960Y391712D01*
X518947Y391750D01*
X518942Y391791D01*
X518899Y391901D01*
X518862Y392014D01*
X518840Y392049D01*
X518825Y392086D01*
X518756Y392182D01*
X518692Y392283D01*
X518662Y392311D01*
X518639Y392344D01*
X518547Y392420D01*
X518460Y392501D01*
X518425Y392521D01*
X518394Y392546D01*
X518286Y392597D01*
X518182Y392655D01*
X518142Y392665D01*
X518106Y392682D01*
X517989Y392704D01*
X517874Y392734D01*
X517814Y392738D01*
X517794Y392742D01*
X517773Y392740D01*
X517713Y392744D01*
X506537Y392744D01*
X506419Y392729D01*
X506300Y392722D01*
X506262Y392709D01*
X506221Y392704D01*
X506111Y392661D01*
X505998Y392624D01*
X505963Y392602D01*
X505926Y392587D01*
X505830Y392518D01*
X505729Y392454D01*
X505701Y392424D01*
X505668Y392401D01*
X505592Y392309D01*
X505511Y392222D01*
X505491Y392187D01*
X505466Y392156D01*
X505415Y392048D01*
X505357Y391944D01*
X505347Y391904D01*
X505330Y391868D01*
X505308Y391751D01*
X505278Y391636D01*
X505274Y391576D01*
X505270Y391556D01*
X505272Y391535D01*
X505268Y391475D01*
X505268Y379405D01*
X502445Y372589D01*
X497229Y367373D01*
X490413Y364550D01*
X483037Y364550D01*
X476221Y367373D01*
X471005Y372589D01*
X468182Y379405D01*
X468182Y403545D01*
X468848Y405152D01*
X468850Y405161D01*
X468855Y405169D01*
X468892Y405313D01*
X468932Y405458D01*
X468932Y405468D01*
X468934Y405477D01*
X468944Y405637D01*
X468944Y505775D01*
X468932Y505873D01*
X468929Y505972D01*
X468912Y506030D01*
X468904Y506091D01*
X468868Y506183D01*
X468840Y506278D01*
X468810Y506330D01*
X468787Y506386D01*
X468729Y506466D01*
X468679Y506552D01*
X468613Y506627D01*
X468601Y506644D01*
X468591Y506651D01*
X468573Y506673D01*
X449523Y525723D01*
X449444Y525783D01*
X449372Y525851D01*
X449319Y525880D01*
X449271Y525917D01*
X449180Y525957D01*
X449094Y526005D01*
X449035Y526020D01*
X448979Y526044D01*
X448881Y526059D01*
X448786Y526084D01*
X448686Y526090D01*
X448665Y526094D01*
X448653Y526092D01*
X448625Y526094D01*
X236426Y526094D01*
X217748Y544773D01*
X217669Y544833D01*
X217597Y544901D01*
X217544Y544930D01*
X217496Y544967D01*
X217405Y545007D01*
X217319Y545055D01*
X217260Y545070D01*
X217204Y545094D01*
X217106Y545109D01*
X217011Y545134D01*
X216911Y545140D01*
X216890Y545144D01*
X216878Y545142D01*
X216850Y545144D01*
X156525Y545144D01*
X156407Y545129D01*
X156288Y545122D01*
X156250Y545109D01*
X156209Y545104D01*
X156099Y545061D01*
X155986Y545024D01*
X155951Y545002D01*
X155914Y544987D01*
X155818Y544918D01*
X155717Y544854D01*
X155689Y544824D01*
X155656Y544801D01*
X155581Y544709D01*
X155499Y544622D01*
X155479Y544587D01*
X155454Y544556D01*
X155403Y544448D01*
X155345Y544344D01*
X155335Y544304D01*
X155318Y544268D01*
X155296Y544151D01*
X155266Y544036D01*
X155262Y543976D01*
X155258Y543956D01*
X155260Y543935D01*
X155256Y543875D01*
X155256Y489900D01*
X155268Y489802D01*
X155271Y489703D01*
X155288Y489645D01*
X155296Y489584D01*
X155332Y489492D01*
X155360Y489397D01*
X155390Y489345D01*
X155413Y489289D01*
X155471Y489209D01*
X155521Y489123D01*
X155587Y489048D01*
X155599Y489031D01*
X155609Y489024D01*
X155628Y489003D01*
X165153Y479478D01*
X165231Y479417D01*
X165303Y479349D01*
X165356Y479320D01*
X165404Y479283D01*
X165495Y479243D01*
X165581Y479195D01*
X165640Y479180D01*
X165696Y479156D01*
X165794Y479141D01*
X165889Y479116D01*
X165989Y479110D01*
X166010Y479106D01*
X166022Y479108D01*
X166050Y479106D01*
X194099Y479106D01*
X237806Y435399D01*
X237806Y174305D01*
X237821Y174187D01*
X237828Y174068D01*
X237841Y174030D01*
X237846Y173989D01*
X237889Y173879D01*
X237926Y173766D01*
X237948Y173731D01*
X237963Y173694D01*
X238033Y173598D01*
X238096Y173497D01*
X238126Y173469D01*
X238149Y173436D01*
X238241Y173360D01*
X238328Y173279D01*
X238363Y173259D01*
X238394Y173234D01*
X238502Y173183D01*
X238606Y173125D01*
X238646Y173115D01*
X238682Y173098D01*
X238799Y173076D01*
X238914Y173046D01*
X238975Y173042D01*
X238995Y173038D01*
X239015Y173040D01*
X239075Y173036D01*
X338202Y173036D01*
X338252Y173042D01*
X338301Y173040D01*
X338409Y173062D01*
X338518Y173076D01*
X338564Y173094D01*
X338613Y173104D01*
X338712Y173152D01*
X338814Y173193D01*
X338854Y173222D01*
X338899Y173244D01*
X338982Y173315D01*
X339071Y173379D01*
X339103Y173418D01*
X339141Y173450D01*
X339204Y173540D01*
X339274Y173624D01*
X339295Y173669D01*
X339324Y173710D01*
X339363Y173813D01*
X339409Y173912D01*
X339419Y173961D01*
X339436Y174007D01*
X339449Y174117D01*
X339469Y174224D01*
X339466Y174274D01*
X339472Y174323D01*
X339456Y174432D01*
X339449Y174542D01*
X339434Y174589D01*
X339427Y174638D01*
X339375Y174791D01*
X336737Y181159D01*
X336737Y189041D01*
X339768Y196357D01*
X339796Y196387D01*
X339825Y196440D01*
X339862Y196488D01*
X339902Y196579D01*
X339950Y196666D01*
X339965Y196724D01*
X339989Y196780D01*
X340004Y196878D01*
X340029Y196974D01*
X340035Y197074D01*
X340039Y197094D01*
X340037Y197106D01*
X340039Y197134D01*
X340039Y251884D01*
X342553Y257953D01*
X363072Y278472D01*
X369141Y280986D01*
X422210Y280986D01*
X422308Y280998D01*
X422408Y281001D01*
X422466Y281018D01*
X422526Y281026D01*
X422618Y281062D01*
X422713Y281090D01*
X422765Y281120D01*
X422822Y281143D01*
X422902Y281201D01*
X422987Y281251D01*
X423062Y281317D01*
X423079Y281329D01*
X423087Y281339D01*
X423108Y281357D01*
X439309Y297559D01*
X439327Y297582D01*
X439350Y297601D01*
X439424Y297707D01*
X439504Y297810D01*
X439516Y297837D01*
X439533Y297861D01*
X439579Y297983D01*
X439630Y298102D01*
X439635Y298131D01*
X439646Y298159D01*
X439660Y298288D01*
X439680Y298416D01*
X439678Y298445D01*
X439681Y298475D01*
X439663Y298603D01*
X439650Y298733D01*
X439640Y298760D01*
X439636Y298790D01*
X439607Y298875D01*
X439607Y306263D01*
X442430Y313079D01*
X447646Y318295D01*
X454462Y321118D01*
X461838Y321118D01*
X468654Y318295D01*
X469953Y316996D01*
X470047Y316923D01*
X470136Y316844D01*
X470172Y316826D01*
X470204Y316801D01*
X470313Y316754D01*
X470419Y316700D01*
X470458Y316691D01*
X470496Y316675D01*
X470613Y316656D01*
X470729Y316630D01*
X470770Y316631D01*
X470810Y316625D01*
X470928Y316636D01*
X471047Y316640D01*
X471086Y316651D01*
X471126Y316655D01*
X471238Y316695D01*
X471353Y316728D01*
X471388Y316748D01*
X471426Y316762D01*
X471524Y316829D01*
X471627Y316890D01*
X471672Y316929D01*
X471689Y316941D01*
X471702Y316956D01*
X471748Y316996D01*
X473046Y318295D01*
X479862Y321118D01*
X487238Y321118D01*
X494054Y318295D01*
X495352Y316996D01*
X495447Y316923D01*
X495536Y316844D01*
X495572Y316826D01*
X495604Y316801D01*
X495713Y316754D01*
X495819Y316700D01*
X495858Y316691D01*
X495896Y316675D01*
X496013Y316656D01*
X496129Y316630D01*
X496170Y316631D01*
X496210Y316625D01*
X496328Y316636D01*
X496447Y316640D01*
X496486Y316651D01*
X496526Y316655D01*
X496639Y316695D01*
X496753Y316728D01*
X496787Y316748D01*
X496826Y316762D01*
X496924Y316829D01*
X497027Y316889D01*
X497072Y316929D01*
X497089Y316941D01*
X497102Y316956D01*
X497147Y316996D01*
X498446Y318295D01*
X505262Y321118D01*
X512638Y321118D01*
X519454Y318295D01*
X520752Y316996D01*
X520847Y316923D01*
X520936Y316844D01*
X520972Y316826D01*
X521004Y316801D01*
X521113Y316754D01*
X521219Y316700D01*
X521258Y316691D01*
X521296Y316675D01*
X521413Y316656D01*
X521529Y316630D01*
X521570Y316631D01*
X521610Y316625D01*
X521728Y316636D01*
X521847Y316640D01*
X521886Y316651D01*
X521926Y316655D01*
X522039Y316695D01*
X522153Y316728D01*
X522187Y316748D01*
X522226Y316762D01*
X522324Y316829D01*
X522427Y316889D01*
X522472Y316929D01*
X522489Y316941D01*
X522502Y316956D01*
X522547Y316996D01*
X523846Y318295D01*
X530662Y321118D01*
X538038Y321118D01*
X544854Y318295D01*
X547044Y316104D01*
X547083Y316074D01*
X547117Y316037D01*
X547209Y315977D01*
X547295Y315909D01*
X547341Y315890D01*
X547383Y315862D01*
X547486Y315827D01*
X547587Y315783D01*
X547636Y315775D01*
X547683Y315759D01*
X547793Y315750D01*
X547901Y315733D01*
X547951Y315738D01*
X548000Y315734D01*
X548109Y315753D01*
X548218Y315763D01*
X548265Y315780D01*
X548314Y315788D01*
X548414Y315833D01*
X548517Y315871D01*
X548558Y315898D01*
X548604Y315919D01*
X548689Y315987D01*
X548780Y316049D01*
X548813Y316086D01*
X548852Y316117D01*
X548918Y316205D01*
X548991Y316288D01*
X549014Y316332D01*
X549043Y316371D01*
X549114Y316516D01*
X549304Y316973D01*
X554877Y322546D01*
X562159Y325563D01*
X570041Y325563D01*
X577357Y322532D01*
X577387Y322504D01*
X577440Y322475D01*
X577488Y322438D01*
X577579Y322398D01*
X577666Y322350D01*
X577724Y322335D01*
X577780Y322311D01*
X577878Y322296D01*
X577974Y322271D01*
X578074Y322265D01*
X578094Y322261D01*
X578106Y322263D01*
X578134Y322261D01*
X579466Y322261D01*
X579564Y322273D01*
X579663Y322276D01*
X579721Y322293D01*
X579781Y322301D01*
X579873Y322337D01*
X579968Y322365D01*
X580020Y322395D01*
X580077Y322418D01*
X580157Y322476D01*
X580242Y322526D01*
X580255Y322537D01*
X587559Y325563D01*
X595441Y325563D01*
X602723Y322546D01*
X608296Y316973D01*
X611313Y309691D01*
X611313Y301809D01*
X608296Y294527D01*
X602723Y288954D01*
X595441Y285937D01*
X587559Y285937D01*
X583154Y287762D01*
X583040Y287793D01*
X582927Y287832D01*
X582887Y287835D01*
X582848Y287846D01*
X582729Y287848D01*
X582610Y287857D01*
X582570Y287850D01*
X582530Y287851D01*
X582414Y287823D01*
X582297Y287803D01*
X582260Y287786D01*
X582220Y287777D01*
X582115Y287721D01*
X582007Y287672D01*
X581975Y287647D01*
X581939Y287628D01*
X581851Y287548D01*
X581758Y287473D01*
X581734Y287441D01*
X581704Y287414D01*
X581639Y287314D01*
X581567Y287219D01*
X581540Y287165D01*
X581529Y287148D01*
X581523Y287129D01*
X581496Y287075D01*
X580097Y283697D01*
X559578Y263178D01*
X553509Y260664D01*
X481390Y260664D01*
X481292Y260652D01*
X481192Y260649D01*
X481134Y260632D01*
X481074Y260624D01*
X480982Y260588D01*
X480887Y260560D01*
X480835Y260530D01*
X480778Y260507D01*
X480698Y260449D01*
X480613Y260399D01*
X480538Y260333D01*
X480521Y260321D01*
X480513Y260311D01*
X480492Y260293D01*
X475032Y254833D01*
X474972Y254755D01*
X474904Y254682D01*
X474875Y254629D01*
X474838Y254582D01*
X474798Y254491D01*
X474750Y254404D01*
X474735Y254345D01*
X474711Y254290D01*
X474696Y254192D01*
X474671Y254096D01*
X474665Y253996D01*
X474661Y253976D01*
X474663Y253963D01*
X474661Y253935D01*
X474661Y244663D01*
X474667Y244614D01*
X474665Y244564D01*
X474687Y244457D01*
X474701Y244347D01*
X474719Y244301D01*
X474729Y244253D01*
X474777Y244154D01*
X474818Y244052D01*
X474847Y244012D01*
X474869Y243967D01*
X474940Y243883D01*
X475004Y243794D01*
X475043Y243763D01*
X475075Y243725D01*
X475165Y243662D01*
X475249Y243592D01*
X475294Y243570D01*
X475335Y243542D01*
X475438Y243503D01*
X475537Y243456D01*
X475586Y243447D01*
X475632Y243429D01*
X475742Y243417D01*
X475849Y243396D01*
X475899Y243399D01*
X475948Y243394D01*
X476057Y243409D01*
X476167Y243416D01*
X476214Y243431D01*
X476263Y243438D01*
X476416Y243490D01*
X479862Y244918D01*
X487238Y244918D01*
X494054Y242095D01*
X495352Y240796D01*
X495447Y240723D01*
X495536Y240644D01*
X495572Y240626D01*
X495604Y240601D01*
X495713Y240554D01*
X495819Y240500D01*
X495858Y240491D01*
X495896Y240475D01*
X496013Y240456D01*
X496129Y240430D01*
X496170Y240431D01*
X496210Y240425D01*
X496328Y240436D01*
X496447Y240440D01*
X496486Y240451D01*
X496526Y240455D01*
X496639Y240495D01*
X496753Y240528D01*
X496787Y240548D01*
X496826Y240562D01*
X496924Y240629D01*
X497027Y240689D01*
X497072Y240729D01*
X497089Y240741D01*
X497102Y240756D01*
X497147Y240796D01*
X498446Y242095D01*
X505262Y244918D01*
X512638Y244918D01*
X519454Y242095D01*
X524670Y236879D01*
X527493Y230063D01*
X527493Y222687D01*
X524670Y215871D01*
X524562Y215764D01*
X524502Y215686D01*
X524434Y215614D01*
X524405Y215561D01*
X524368Y215513D01*
X524328Y215422D01*
X524280Y215335D01*
X524265Y215277D01*
X524241Y215221D01*
X524226Y215123D01*
X524201Y215027D01*
X524195Y214937D01*
X524193Y214927D01*
X524194Y214921D01*
X524191Y214907D01*
X524193Y214895D01*
X524191Y214867D01*
X524191Y207468D01*
X521870Y201867D01*
X499162Y179159D01*
X499102Y179081D01*
X499034Y179008D01*
X499005Y178955D01*
X498968Y178908D01*
X498928Y178817D01*
X498880Y178730D01*
X498865Y178671D01*
X498841Y178616D01*
X498826Y178518D01*
X498801Y178422D01*
X498795Y178322D01*
X498791Y178302D01*
X498793Y178289D01*
X498791Y178261D01*
X498791Y159843D01*
X496470Y154242D01*
X476308Y134080D01*
X471319Y132013D01*
X471311Y132008D01*
X471302Y132006D01*
X471173Y131930D01*
X471043Y131855D01*
X471036Y131849D01*
X471028Y131844D01*
X470907Y131738D01*
X469373Y130204D01*
X462091Y127187D01*
X454209Y127187D01*
X446927Y130204D01*
X441354Y135777D01*
X438337Y143059D01*
X438337Y143844D01*
X438320Y143982D01*
X438307Y144121D01*
X438300Y144140D01*
X438297Y144160D01*
X438246Y144289D01*
X438199Y144420D01*
X438188Y144437D01*
X438180Y144456D01*
X438099Y144568D01*
X438021Y144683D01*
X438005Y144697D01*
X437994Y144713D01*
X437886Y144802D01*
X437782Y144894D01*
X437764Y144903D01*
X437749Y144916D01*
X437623Y144975D01*
X437499Y145038D01*
X437479Y145043D01*
X437461Y145051D01*
X437325Y145077D01*
X437189Y145108D01*
X437168Y145107D01*
X437149Y145111D01*
X437010Y145102D01*
X436871Y145098D01*
X436851Y145093D01*
X436831Y145091D01*
X436699Y145049D01*
X436565Y145010D01*
X436548Y145000D01*
X436529Y144993D01*
X436411Y144919D01*
X436291Y144848D01*
X436270Y144830D01*
X436260Y144823D01*
X436246Y144808D01*
X436171Y144742D01*
X422962Y131534D01*
X422902Y131456D01*
X422834Y131383D01*
X422805Y131330D01*
X422768Y131283D01*
X422728Y131192D01*
X422680Y131105D01*
X422665Y131046D01*
X422641Y130991D01*
X422626Y130893D01*
X422601Y130797D01*
X422595Y130697D01*
X422591Y130677D01*
X422593Y130664D01*
X422591Y130636D01*
X422591Y122204D01*
X422603Y122106D01*
X422606Y122007D01*
X422623Y121949D01*
X422631Y121889D01*
X422667Y121797D01*
X422695Y121702D01*
X422725Y121649D01*
X422748Y121593D01*
X422806Y121513D01*
X422856Y121428D01*
X422892Y121387D01*
X422894Y121383D01*
X422900Y121378D01*
X422922Y121352D01*
X422934Y121336D01*
X422944Y121328D01*
X422962Y121307D01*
X424146Y120123D01*
X427163Y112841D01*
X427163Y104959D01*
X424146Y97677D01*
X418573Y92104D01*
X411291Y89087D01*
X403409Y89087D01*
X398946Y90936D01*
X398898Y90949D01*
X398853Y90970D01*
X398745Y90991D01*
X398639Y91020D01*
X398589Y91021D01*
X398540Y91030D01*
X398431Y91023D01*
X398321Y91025D01*
X398273Y91013D01*
X398223Y91010D01*
X398119Y90977D01*
X398012Y90951D01*
X397968Y90928D01*
X397921Y90912D01*
X397828Y90854D01*
X397731Y90802D01*
X397694Y90769D01*
X397652Y90742D01*
X397577Y90662D01*
X397495Y90588D01*
X397468Y90547D01*
X397434Y90511D01*
X397381Y90414D01*
X397321Y90323D01*
X397304Y90276D01*
X397280Y90232D01*
X397253Y90126D01*
X397217Y90022D01*
X397213Y89972D01*
X397201Y89924D01*
X397191Y89763D01*
X397191Y87164D01*
X397203Y87065D01*
X397206Y86966D01*
X397223Y86908D01*
X397231Y86848D01*
X397267Y86756D01*
X397295Y86661D01*
X397325Y86609D01*
X397348Y86552D01*
X397406Y86472D01*
X397456Y86387D01*
X397522Y86312D01*
X397534Y86295D01*
X397544Y86287D01*
X397562Y86266D01*
X406941Y76887D01*
X407019Y76827D01*
X407092Y76759D01*
X407145Y76730D01*
X407192Y76693D01*
X407283Y76653D01*
X407370Y76605D01*
X407429Y76590D01*
X407484Y76566D01*
X407582Y76551D01*
X407678Y76526D01*
X407778Y76520D01*
X407798Y76516D01*
X407811Y76518D01*
X407839Y76516D01*
X771986Y76516D01*
X772085Y76528D01*
X772184Y76531D01*
X772242Y76548D01*
X772302Y76556D01*
X772394Y76592D01*
X772489Y76620D01*
X772541Y76650D01*
X772598Y76673D01*
X772678Y76731D01*
X772763Y76781D01*
X772838Y76847D01*
X772855Y76859D01*
X772863Y76869D01*
X772884Y76887D01*
X804488Y108491D01*
X804548Y108569D01*
X804616Y108642D01*
X804645Y108695D01*
X804682Y108742D01*
X804722Y108833D01*
X804770Y108920D01*
X804785Y108979D01*
X804809Y109034D01*
X804824Y109132D01*
X804849Y109228D01*
X804855Y109328D01*
X804859Y109348D01*
X804857Y109361D01*
X804859Y109389D01*
X804859Y127346D01*
X804847Y127444D01*
X804844Y127543D01*
X804827Y127601D01*
X804819Y127661D01*
X804783Y127753D01*
X804755Y127848D01*
X804725Y127901D01*
X804702Y127957D01*
X804644Y128037D01*
X804594Y128122D01*
X804528Y128198D01*
X804516Y128214D01*
X804506Y128222D01*
X804488Y128243D01*
X803304Y129427D01*
X800287Y136709D01*
X800287Y144591D01*
X803304Y151873D01*
X808877Y157446D01*
X816159Y160463D01*
X824041Y160463D01*
X831357Y157432D01*
X831387Y157404D01*
X831440Y157375D01*
X831488Y157338D01*
X831579Y157298D01*
X831666Y157250D01*
X831724Y157235D01*
X831780Y157211D01*
X831878Y157196D01*
X831974Y157171D01*
X832074Y157165D01*
X832094Y157161D01*
X832106Y157163D01*
X832134Y157161D01*
X844370Y157161D01*
X844468Y157173D01*
X844567Y157176D01*
X844625Y157193D01*
X844685Y157201D01*
X844777Y157237D01*
X844872Y157265D01*
X844924Y157295D01*
X844981Y157318D01*
X845061Y157376D01*
X845146Y157426D01*
X845222Y157492D01*
X845238Y157504D01*
X845246Y157514D01*
X845267Y157532D01*
X849467Y161733D01*
X866933Y161733D01*
X871133Y157532D01*
X871211Y157472D01*
X871283Y157404D01*
X871336Y157375D01*
X871384Y157338D01*
X871475Y157298D01*
X871562Y157250D01*
X871620Y157235D01*
X871676Y157211D01*
X871774Y157196D01*
X871870Y157171D01*
X871970Y157165D01*
X871990Y157161D01*
X872002Y157163D01*
X872030Y157161D01*
X916620Y157161D01*
X916738Y157176D01*
X916857Y157183D01*
X916895Y157196D01*
X916936Y157201D01*
X917046Y157244D01*
X917159Y157281D01*
X917194Y157303D01*
X917231Y157318D01*
X917327Y157387D01*
X917428Y157451D01*
X917456Y157481D01*
X917489Y157504D01*
X917565Y157596D01*
X917646Y157683D01*
X917666Y157718D01*
X917691Y157749D01*
X917742Y157857D01*
X917800Y157961D01*
X917810Y158001D01*
X917827Y158037D01*
X917849Y158154D01*
X917879Y158269D01*
X917883Y158329D01*
X917887Y158349D01*
X917885Y158370D01*
X917889Y158430D01*
X917889Y203020D01*
X917877Y203118D01*
X917874Y203217D01*
X917857Y203275D01*
X917849Y203335D01*
X917813Y203427D01*
X917785Y203522D01*
X917755Y203574D01*
X917732Y203631D01*
X917674Y203711D01*
X917624Y203796D01*
X917558Y203872D01*
X917546Y203888D01*
X917536Y203896D01*
X917518Y203917D01*
X913317Y208117D01*
X913317Y225583D01*
X925667Y237933D01*
X943133Y237933D01*
X955483Y225583D01*
X955483Y208117D01*
X951282Y203917D01*
X951222Y203839D01*
X951154Y203767D01*
X951125Y203714D01*
X951088Y203666D01*
X951048Y203575D01*
X951000Y203488D01*
X950985Y203430D01*
X950961Y203374D01*
X950946Y203276D01*
X950921Y203180D01*
X950915Y203080D01*
X950911Y203060D01*
X950913Y203048D01*
X950911Y203020D01*
X950911Y154480D01*
X950923Y154382D01*
X950926Y154283D01*
X950943Y154225D01*
X950951Y154165D01*
X950987Y154073D01*
X951015Y153978D01*
X951045Y153926D01*
X951068Y153869D01*
X951126Y153789D01*
X951176Y153704D01*
X951242Y153628D01*
X951254Y153612D01*
X951264Y153604D01*
X951282Y153583D01*
X955483Y149383D01*
X955483Y131917D01*
X943523Y119957D01*
X943438Y119848D01*
X943349Y119741D01*
X943340Y119722D01*
X943328Y119706D01*
X943273Y119578D01*
X943214Y119453D01*
X943210Y119433D01*
X943202Y119414D01*
X943180Y119276D01*
X943154Y119140D01*
X943155Y119120D01*
X943152Y119100D01*
X943165Y118961D01*
X943173Y118823D01*
X943180Y118804D01*
X943182Y118784D01*
X943229Y118652D01*
X943272Y118521D01*
X943282Y118503D01*
X943289Y118484D01*
X943367Y118369D01*
X943442Y118252D01*
X943456Y118238D01*
X943468Y118221D01*
X943572Y118129D01*
X943673Y118034D01*
X943691Y118024D01*
X943706Y118011D01*
X943830Y117947D01*
X943952Y117880D01*
X943971Y117875D01*
X943989Y117866D01*
X944125Y117836D01*
X944260Y117801D01*
X944288Y117799D01*
X944300Y117796D01*
X944320Y117797D01*
X944420Y117791D01*
X975180Y117791D01*
X975317Y117808D01*
X975456Y117821D01*
X975475Y117828D01*
X975495Y117831D01*
X975624Y117882D01*
X975755Y117929D01*
X975772Y117940D01*
X975791Y117948D01*
X975903Y118029D01*
X976018Y118107D01*
X976032Y118123D01*
X976048Y118134D01*
X976137Y118242D01*
X976229Y118346D01*
X976238Y118364D01*
X976251Y118379D01*
X976310Y118505D01*
X976373Y118629D01*
X976378Y118649D01*
X976386Y118667D01*
X976413Y118803D01*
X976443Y118939D01*
X976442Y118960D01*
X976446Y118979D01*
X976438Y119118D01*
X976433Y119257D01*
X976428Y119277D01*
X976427Y119297D01*
X976384Y119429D01*
X976345Y119563D01*
X976335Y119580D01*
X976328Y119599D01*
X976254Y119717D01*
X976183Y119837D01*
X976165Y119858D01*
X976158Y119868D01*
X976143Y119882D01*
X976077Y119957D01*
X964117Y131917D01*
X964117Y149383D01*
X976467Y161733D01*
X993933Y161733D01*
X1006283Y149383D01*
X1006283Y131917D01*
X994323Y119957D01*
X994238Y119848D01*
X994149Y119741D01*
X994140Y119722D01*
X994128Y119706D01*
X994073Y119578D01*
X994014Y119453D01*
X994010Y119433D01*
X994002Y119414D01*
X993980Y119276D01*
X993954Y119140D01*
X993955Y119120D01*
X993952Y119100D01*
X993965Y118961D01*
X993973Y118823D01*
X993980Y118804D01*
X993982Y118784D01*
X994029Y118652D01*
X994072Y118521D01*
X994082Y118503D01*
X994089Y118484D01*
X994167Y118369D01*
X994242Y118252D01*
X994256Y118238D01*
X994268Y118221D01*
X994372Y118129D01*
X994473Y118034D01*
X994491Y118024D01*
X994506Y118011D01*
X994630Y117947D01*
X994752Y117880D01*
X994771Y117875D01*
X994789Y117866D01*
X994925Y117836D01*
X995060Y117801D01*
X995088Y117799D01*
X995100Y117796D01*
X995120Y117797D01*
X995220Y117791D01*
X1010111Y117791D01*
X1010210Y117803D01*
X1010309Y117806D01*
X1010367Y117823D01*
X1010427Y117831D01*
X1010519Y117867D01*
X1010614Y117895D01*
X1010666Y117925D01*
X1010723Y117948D01*
X1010803Y118006D01*
X1010888Y118056D01*
X1010963Y118122D01*
X1010980Y118134D01*
X1010988Y118144D01*
X1011009Y118162D01*
X1018943Y126097D01*
X1019016Y126191D01*
X1019095Y126280D01*
X1019113Y126316D01*
X1019138Y126348D01*
X1019185Y126457D01*
X1019239Y126563D01*
X1019248Y126603D01*
X1019264Y126640D01*
X1019283Y126758D01*
X1019309Y126873D01*
X1019308Y126914D01*
X1019314Y126954D01*
X1019303Y127072D01*
X1019299Y127191D01*
X1019288Y127230D01*
X1019284Y127270D01*
X1019244Y127383D01*
X1019211Y127497D01*
X1019190Y127532D01*
X1019177Y127570D01*
X1019110Y127668D01*
X1019049Y127771D01*
X1019010Y127816D01*
X1018998Y127833D01*
X1018983Y127846D01*
X1018943Y127892D01*
X1014917Y131917D01*
X1014917Y149383D01*
X1027267Y161733D01*
X1044733Y161733D01*
X1057083Y149383D01*
X1057083Y131917D01*
X1051612Y126447D01*
X1051552Y126369D01*
X1051484Y126297D01*
X1051455Y126244D01*
X1051418Y126196D01*
X1051378Y126105D01*
X1051330Y126018D01*
X1051315Y125960D01*
X1051291Y125904D01*
X1051276Y125806D01*
X1051251Y125710D01*
X1051245Y125610D01*
X1051241Y125590D01*
X1051243Y125578D01*
X1051241Y125550D01*
X1051241Y118568D01*
X1048920Y112967D01*
X1025583Y89630D01*
X1019982Y87309D01*
X855514Y87309D01*
X855415Y87297D01*
X855316Y87294D01*
X855258Y87277D01*
X855198Y87269D01*
X855106Y87233D01*
X855011Y87205D01*
X854959Y87175D01*
X854902Y87152D01*
X854822Y87094D01*
X854737Y87044D01*
X854662Y86978D01*
X854645Y86966D01*
X854637Y86956D01*
X854616Y86938D01*
X817151Y49473D01*
X817066Y49363D01*
X816977Y49256D01*
X816969Y49237D01*
X816956Y49221D01*
X816901Y49093D01*
X816842Y48968D01*
X816838Y48948D01*
X816830Y48929D01*
X816808Y48791D01*
X816782Y48656D01*
X816783Y48635D01*
X816780Y48615D01*
X816793Y48476D01*
X816802Y48338D01*
X816808Y48319D01*
X816810Y48299D01*
X816857Y48167D01*
X816900Y48036D01*
X816911Y48018D01*
X816917Y47999D01*
X816996Y47884D01*
X817070Y47767D01*
X817085Y47753D01*
X817096Y47736D01*
X817200Y47644D01*
X817302Y47549D01*
X817319Y47539D01*
X817334Y47526D01*
X817458Y47463D01*
X817580Y47395D01*
X817600Y47390D01*
X817618Y47381D01*
X817754Y47351D01*
X817888Y47316D01*
X817916Y47314D01*
X817928Y47312D01*
X817948Y47312D01*
X818049Y47306D01*
X1099500Y47306D01*
X1099618Y47321D01*
G37*
G36*
X204248Y314018D02*
X204248Y314018D01*
X204347Y314021D01*
X204405Y314038D01*
X204466Y314046D01*
X204558Y314082D01*
X204653Y314110D01*
X204705Y314140D01*
X204761Y314163D01*
X204841Y314221D01*
X204927Y314271D01*
X205002Y314337D01*
X205019Y314349D01*
X205026Y314359D01*
X205048Y314378D01*
X227273Y336603D01*
X227333Y336681D01*
X227401Y336753D01*
X227430Y336806D01*
X227467Y336854D01*
X227507Y336945D01*
X227555Y337031D01*
X227570Y337090D01*
X227594Y337146D01*
X227609Y337244D01*
X227634Y337339D01*
X227640Y337439D01*
X227644Y337460D01*
X227642Y337472D01*
X227644Y337500D01*
X227644Y423225D01*
X227632Y423323D01*
X227629Y423422D01*
X227612Y423480D01*
X227604Y423541D01*
X227568Y423633D01*
X227540Y423728D01*
X227510Y423780D01*
X227487Y423836D01*
X227429Y423916D01*
X227379Y424002D01*
X227313Y424077D01*
X227301Y424094D01*
X227291Y424101D01*
X227273Y424123D01*
X185998Y465398D01*
X185919Y465458D01*
X185847Y465526D01*
X185794Y465555D01*
X185746Y465592D01*
X185655Y465632D01*
X185569Y465680D01*
X185510Y465695D01*
X185454Y465719D01*
X185356Y465734D01*
X185261Y465759D01*
X185161Y465765D01*
X185140Y465769D01*
X185128Y465767D01*
X185100Y465769D01*
X153876Y465769D01*
X135569Y484076D01*
X135569Y689399D01*
X249126Y802956D01*
X533824Y802956D01*
X580706Y756074D01*
X580706Y712150D01*
X580721Y712032D01*
X580728Y711913D01*
X580741Y711875D01*
X580746Y711834D01*
X580789Y711724D01*
X580826Y711611D01*
X580848Y711576D01*
X580863Y711539D01*
X580933Y711443D01*
X580996Y711342D01*
X581026Y711314D01*
X581049Y711281D01*
X581141Y711206D01*
X581228Y711124D01*
X581263Y711104D01*
X581294Y711079D01*
X581402Y711028D01*
X581506Y710970D01*
X581546Y710960D01*
X581582Y710943D01*
X581699Y710921D01*
X581814Y710891D01*
X581875Y710887D01*
X581895Y710883D01*
X581915Y710885D01*
X581975Y710881D01*
X601025Y710881D01*
X601143Y710896D01*
X601262Y710903D01*
X601300Y710916D01*
X601341Y710921D01*
X601451Y710964D01*
X601564Y711001D01*
X601599Y711023D01*
X601636Y711038D01*
X601732Y711108D01*
X601833Y711171D01*
X601861Y711201D01*
X601894Y711224D01*
X601970Y711316D01*
X602051Y711403D01*
X602071Y711438D01*
X602096Y711469D01*
X602147Y711577D01*
X602205Y711681D01*
X602215Y711721D01*
X602232Y711757D01*
X602254Y711874D01*
X602284Y711989D01*
X602288Y712050D01*
X602292Y712070D01*
X602290Y712090D01*
X602294Y712150D01*
X602294Y740199D01*
X614251Y752156D01*
X726756Y752156D01*
X726756Y708975D01*
X726771Y708857D01*
X726778Y708738D01*
X726791Y708700D01*
X726796Y708659D01*
X726839Y708549D01*
X726876Y708436D01*
X726898Y708401D01*
X726913Y708364D01*
X726983Y708268D01*
X727046Y708167D01*
X727076Y708139D01*
X727099Y708106D01*
X727191Y708031D01*
X727278Y707949D01*
X727313Y707929D01*
X727344Y707904D01*
X727452Y707853D01*
X727556Y707795D01*
X727596Y707785D01*
X727632Y707768D01*
X727749Y707746D01*
X727864Y707716D01*
X727925Y707712D01*
X727945Y707708D01*
X727965Y707710D01*
X728025Y707706D01*
X747075Y707706D01*
X747193Y707721D01*
X747312Y707728D01*
X747350Y707741D01*
X747391Y707746D01*
X747501Y707789D01*
X747614Y707826D01*
X747649Y707848D01*
X747686Y707863D01*
X747782Y707933D01*
X747883Y707996D01*
X747911Y708026D01*
X747944Y708049D01*
X748020Y708141D01*
X748101Y708228D01*
X748121Y708263D01*
X748146Y708294D01*
X748197Y708402D01*
X748255Y708506D01*
X748265Y708546D01*
X748282Y708582D01*
X748304Y708699D01*
X748334Y708814D01*
X748338Y708875D01*
X748342Y708895D01*
X748340Y708915D01*
X748344Y708975D01*
X748344Y740199D01*
X760301Y752156D01*
X864550Y752156D01*
X864668Y752171D01*
X864787Y752178D01*
X864825Y752191D01*
X864866Y752196D01*
X864976Y752239D01*
X865089Y752276D01*
X865124Y752298D01*
X865161Y752313D01*
X865257Y752383D01*
X865358Y752446D01*
X865386Y752476D01*
X865419Y752499D01*
X865495Y752591D01*
X865576Y752678D01*
X865596Y752713D01*
X865621Y752744D01*
X865672Y752852D01*
X865730Y752956D01*
X865740Y752996D01*
X865757Y753032D01*
X865779Y753149D01*
X865809Y753264D01*
X865813Y753325D01*
X865817Y753345D01*
X865815Y753365D01*
X865819Y753425D01*
X865819Y778299D01*
X890476Y802956D01*
X1137074Y802956D01*
X1180781Y759249D01*
X1180781Y712150D01*
X1180796Y712032D01*
X1180803Y711913D01*
X1180816Y711875D01*
X1180821Y711834D01*
X1180864Y711724D01*
X1180901Y711611D01*
X1180923Y711576D01*
X1180938Y711539D01*
X1181008Y711443D01*
X1181071Y711342D01*
X1181101Y711314D01*
X1181124Y711281D01*
X1181216Y711206D01*
X1181303Y711124D01*
X1181338Y711104D01*
X1181369Y711079D01*
X1181477Y711028D01*
X1181581Y710970D01*
X1181621Y710960D01*
X1181657Y710943D01*
X1181774Y710921D01*
X1181889Y710891D01*
X1181950Y710887D01*
X1181970Y710883D01*
X1181990Y710885D01*
X1182050Y710881D01*
X1201100Y710881D01*
X1201218Y710896D01*
X1201337Y710903D01*
X1201375Y710916D01*
X1201416Y710921D01*
X1201526Y710964D01*
X1201639Y711001D01*
X1201674Y711023D01*
X1201711Y711038D01*
X1201807Y711108D01*
X1201908Y711171D01*
X1201936Y711201D01*
X1201969Y711224D01*
X1202045Y711316D01*
X1202126Y711403D01*
X1202146Y711438D01*
X1202171Y711469D01*
X1202222Y711577D01*
X1202280Y711681D01*
X1202290Y711721D01*
X1202307Y711757D01*
X1202329Y711874D01*
X1202359Y711989D01*
X1202363Y712050D01*
X1202367Y712070D01*
X1202365Y712090D01*
X1202369Y712150D01*
X1202369Y740199D01*
X1214326Y752156D01*
X1326831Y752156D01*
X1326831Y708975D01*
X1326846Y708857D01*
X1326853Y708738D01*
X1326866Y708700D01*
X1326871Y708659D01*
X1326914Y708549D01*
X1326951Y708436D01*
X1326973Y708401D01*
X1326988Y708364D01*
X1327058Y708268D01*
X1327121Y708167D01*
X1327151Y708139D01*
X1327174Y708106D01*
X1327266Y708031D01*
X1327353Y707949D01*
X1327388Y707929D01*
X1327419Y707904D01*
X1327527Y707853D01*
X1327631Y707795D01*
X1327671Y707785D01*
X1327707Y707768D01*
X1327824Y707746D01*
X1327939Y707716D01*
X1328000Y707712D01*
X1328020Y707708D01*
X1328040Y707710D01*
X1328100Y707706D01*
X1347150Y707706D01*
X1347268Y707721D01*
X1347387Y707728D01*
X1347425Y707741D01*
X1347466Y707746D01*
X1347576Y707789D01*
X1347689Y707826D01*
X1347724Y707848D01*
X1347761Y707863D01*
X1347857Y707933D01*
X1347958Y707996D01*
X1347986Y708026D01*
X1348019Y708049D01*
X1348095Y708141D01*
X1348176Y708228D01*
X1348196Y708263D01*
X1348221Y708294D01*
X1348272Y708402D01*
X1348330Y708506D01*
X1348340Y708546D01*
X1348357Y708582D01*
X1348379Y708699D01*
X1348409Y708814D01*
X1348413Y708875D01*
X1348417Y708895D01*
X1348415Y708915D01*
X1348419Y708975D01*
X1348419Y867725D01*
X1348404Y867843D01*
X1348397Y867962D01*
X1348384Y868000D01*
X1348379Y868041D01*
X1348336Y868151D01*
X1348299Y868264D01*
X1348277Y868299D01*
X1348262Y868336D01*
X1348193Y868432D01*
X1348129Y868533D01*
X1348099Y868561D01*
X1348076Y868594D01*
X1347984Y868670D01*
X1347897Y868751D01*
X1347862Y868771D01*
X1347831Y868796D01*
X1347723Y868847D01*
X1347619Y868905D01*
X1347579Y868915D01*
X1347543Y868932D01*
X1347426Y868954D01*
X1347311Y868984D01*
X1347251Y868988D01*
X1347231Y868992D01*
X1347210Y868990D01*
X1347150Y868994D01*
X150175Y868994D01*
X150077Y868982D01*
X149978Y868979D01*
X149920Y868962D01*
X149859Y868954D01*
X149767Y868918D01*
X149672Y868890D01*
X149620Y868860D01*
X149564Y868837D01*
X149484Y868779D01*
X149398Y868729D01*
X149323Y868663D01*
X149306Y868651D01*
X149299Y868641D01*
X149278Y868623D01*
X38152Y757498D01*
X38092Y757419D01*
X38024Y757347D01*
X37995Y757294D01*
X37958Y757246D01*
X37918Y757155D01*
X37870Y757069D01*
X37855Y757010D01*
X37831Y756954D01*
X37816Y756856D01*
X37791Y756761D01*
X37785Y756661D01*
X37781Y756640D01*
X37783Y756628D01*
X37781Y756600D01*
X37781Y315275D01*
X37796Y315157D01*
X37803Y315038D01*
X37816Y315000D01*
X37821Y314959D01*
X37864Y314849D01*
X37901Y314736D01*
X37923Y314701D01*
X37938Y314664D01*
X38007Y314568D01*
X38071Y314467D01*
X38101Y314439D01*
X38124Y314406D01*
X38216Y314331D01*
X38303Y314249D01*
X38338Y314229D01*
X38369Y314204D01*
X38477Y314153D01*
X38581Y314095D01*
X38621Y314085D01*
X38657Y314068D01*
X38774Y314046D01*
X38889Y314016D01*
X38949Y314012D01*
X38969Y314008D01*
X38990Y314010D01*
X39050Y314006D01*
X204150Y314006D01*
X204248Y314018D01*
G37*
G36*
X1020243Y587071D02*
X1020243Y587071D01*
X1020362Y587078D01*
X1020400Y587091D01*
X1020441Y587096D01*
X1020551Y587139D01*
X1020664Y587176D01*
X1020699Y587198D01*
X1020736Y587213D01*
X1020832Y587283D01*
X1020933Y587346D01*
X1020961Y587376D01*
X1020994Y587399D01*
X1021070Y587491D01*
X1021151Y587578D01*
X1021171Y587613D01*
X1021196Y587644D01*
X1021247Y587752D01*
X1021305Y587856D01*
X1021315Y587896D01*
X1021332Y587932D01*
X1021354Y588049D01*
X1021384Y588164D01*
X1021388Y588225D01*
X1021392Y588245D01*
X1021390Y588265D01*
X1021394Y588325D01*
X1021394Y740725D01*
X1021379Y740843D01*
X1021372Y740962D01*
X1021359Y741000D01*
X1021354Y741041D01*
X1021311Y741151D01*
X1021274Y741264D01*
X1021252Y741299D01*
X1021237Y741336D01*
X1021168Y741432D01*
X1021104Y741533D01*
X1021074Y741561D01*
X1021051Y741594D01*
X1020959Y741670D01*
X1020872Y741751D01*
X1020837Y741771D01*
X1020806Y741796D01*
X1020698Y741847D01*
X1020594Y741905D01*
X1020554Y741915D01*
X1020518Y741932D01*
X1020401Y741954D01*
X1020286Y741984D01*
X1020226Y741988D01*
X1020206Y741992D01*
X1020185Y741990D01*
X1020125Y741994D01*
X947100Y741994D01*
X946982Y741979D01*
X946863Y741972D01*
X946825Y741959D01*
X946784Y741954D01*
X946674Y741911D01*
X946561Y741874D01*
X946526Y741852D01*
X946489Y741837D01*
X946393Y741768D01*
X946292Y741704D01*
X946264Y741674D01*
X946231Y741651D01*
X946156Y741559D01*
X946074Y741472D01*
X946054Y741437D01*
X946029Y741406D01*
X945978Y741298D01*
X945920Y741194D01*
X945910Y741154D01*
X945893Y741118D01*
X945871Y741001D01*
X945841Y740886D01*
X945837Y740826D01*
X945833Y740806D01*
X945835Y740785D01*
X945831Y740725D01*
X945831Y656269D01*
X875344Y656269D01*
X875344Y740725D01*
X875329Y740843D01*
X875322Y740962D01*
X875309Y741000D01*
X875304Y741041D01*
X875261Y741151D01*
X875224Y741264D01*
X875202Y741299D01*
X875187Y741336D01*
X875118Y741432D01*
X875054Y741533D01*
X875024Y741561D01*
X875001Y741594D01*
X874909Y741670D01*
X874822Y741751D01*
X874787Y741771D01*
X874756Y741796D01*
X874648Y741847D01*
X874544Y741905D01*
X874504Y741915D01*
X874468Y741932D01*
X874351Y741954D01*
X874236Y741984D01*
X874176Y741988D01*
X874156Y741992D01*
X874135Y741990D01*
X874075Y741994D01*
X791525Y741994D01*
X791407Y741979D01*
X791288Y741972D01*
X791250Y741959D01*
X791209Y741954D01*
X791099Y741911D01*
X790986Y741874D01*
X790951Y741852D01*
X790914Y741837D01*
X790818Y741768D01*
X790717Y741704D01*
X790689Y741674D01*
X790656Y741651D01*
X790581Y741559D01*
X790499Y741472D01*
X790479Y741437D01*
X790454Y741406D01*
X790403Y741298D01*
X790345Y741194D01*
X790335Y741154D01*
X790318Y741118D01*
X790296Y741001D01*
X790266Y740886D01*
X790262Y740826D01*
X790258Y740806D01*
X790260Y740785D01*
X790256Y740725D01*
X790256Y661876D01*
X775124Y646744D01*
X734375Y646744D01*
X734277Y646732D01*
X734178Y646729D01*
X734120Y646712D01*
X734059Y646704D01*
X733967Y646668D01*
X733872Y646640D01*
X733820Y646610D01*
X733764Y646587D01*
X733684Y646529D01*
X733598Y646479D01*
X733523Y646413D01*
X733506Y646401D01*
X733499Y646391D01*
X733478Y646373D01*
X708449Y621344D01*
X480901Y621344D01*
X418144Y684101D01*
X418144Y740725D01*
X418129Y740843D01*
X418122Y740962D01*
X418109Y741000D01*
X418104Y741041D01*
X418061Y741151D01*
X418024Y741264D01*
X418002Y741299D01*
X417987Y741336D01*
X417918Y741432D01*
X417854Y741533D01*
X417824Y741561D01*
X417801Y741594D01*
X417709Y741670D01*
X417622Y741751D01*
X417587Y741771D01*
X417556Y741796D01*
X417448Y741847D01*
X417344Y741905D01*
X417304Y741915D01*
X417268Y741932D01*
X417151Y741954D01*
X417036Y741984D01*
X416976Y741988D01*
X416956Y741992D01*
X416935Y741990D01*
X416875Y741994D01*
X343850Y741994D01*
X343732Y741979D01*
X343613Y741972D01*
X343575Y741959D01*
X343534Y741954D01*
X343424Y741911D01*
X343311Y741874D01*
X343276Y741852D01*
X343239Y741837D01*
X343143Y741768D01*
X343042Y741704D01*
X343014Y741674D01*
X342981Y741651D01*
X342906Y741559D01*
X342824Y741472D01*
X342804Y741437D01*
X342779Y741406D01*
X342728Y741298D01*
X342670Y741194D01*
X342660Y741154D01*
X342643Y741118D01*
X342621Y741001D01*
X342591Y740886D01*
X342587Y740826D01*
X342583Y740806D01*
X342585Y740785D01*
X342581Y740725D01*
X342581Y656269D01*
X272094Y656269D01*
X272094Y740725D01*
X272079Y740843D01*
X272072Y740962D01*
X272059Y741000D01*
X272054Y741041D01*
X272011Y741151D01*
X271974Y741264D01*
X271952Y741299D01*
X271937Y741336D01*
X271868Y741432D01*
X271804Y741533D01*
X271774Y741561D01*
X271751Y741594D01*
X271659Y741670D01*
X271572Y741751D01*
X271537Y741771D01*
X271506Y741796D01*
X271398Y741847D01*
X271294Y741905D01*
X271254Y741915D01*
X271218Y741932D01*
X271101Y741954D01*
X270986Y741984D01*
X270926Y741988D01*
X270906Y741992D01*
X270885Y741990D01*
X270825Y741994D01*
X213675Y741994D01*
X213577Y741982D01*
X213478Y741979D01*
X213420Y741962D01*
X213359Y741954D01*
X213267Y741918D01*
X213172Y741890D01*
X213120Y741860D01*
X213064Y741837D01*
X212984Y741779D01*
X212898Y741729D01*
X212823Y741663D01*
X212806Y741651D01*
X212799Y741641D01*
X212778Y741623D01*
X155628Y684473D01*
X155567Y684394D01*
X155499Y684322D01*
X155470Y684269D01*
X155433Y684221D01*
X155393Y684130D01*
X155345Y684044D01*
X155330Y683985D01*
X155306Y683929D01*
X155291Y683831D01*
X155266Y683736D01*
X155260Y683636D01*
X155256Y683615D01*
X155258Y683603D01*
X155256Y683575D01*
X155256Y588325D01*
X155271Y588207D01*
X155278Y588088D01*
X155291Y588050D01*
X155296Y588009D01*
X155339Y587899D01*
X155376Y587786D01*
X155398Y587751D01*
X155413Y587714D01*
X155483Y587618D01*
X155546Y587517D01*
X155576Y587489D01*
X155599Y587456D01*
X155691Y587381D01*
X155778Y587299D01*
X155813Y587279D01*
X155844Y587254D01*
X155952Y587203D01*
X156056Y587145D01*
X156096Y587135D01*
X156132Y587118D01*
X156249Y587096D01*
X156364Y587066D01*
X156425Y587062D01*
X156445Y587058D01*
X156465Y587060D01*
X156525Y587056D01*
X1020125Y587056D01*
X1020243Y587071D01*
G37*
G36*
X1302798Y587068D02*
X1302798Y587068D01*
X1302897Y587071D01*
X1302955Y587088D01*
X1303016Y587096D01*
X1303108Y587132D01*
X1303203Y587160D01*
X1303255Y587190D01*
X1303311Y587213D01*
X1303391Y587271D01*
X1303477Y587321D01*
X1303552Y587387D01*
X1303569Y587399D01*
X1303576Y587409D01*
X1303598Y587428D01*
X1319473Y603303D01*
X1319533Y603381D01*
X1319601Y603453D01*
X1319630Y603506D01*
X1319667Y603554D01*
X1319707Y603645D01*
X1319755Y603731D01*
X1319770Y603790D01*
X1319794Y603846D01*
X1319809Y603944D01*
X1319834Y604039D01*
X1319840Y604139D01*
X1319844Y604160D01*
X1319842Y604172D01*
X1319844Y604200D01*
X1319844Y743900D01*
X1319829Y744018D01*
X1319822Y744137D01*
X1319809Y744175D01*
X1319804Y744216D01*
X1319761Y744326D01*
X1319724Y744439D01*
X1319702Y744474D01*
X1319687Y744511D01*
X1319618Y744607D01*
X1319554Y744708D01*
X1319524Y744736D01*
X1319501Y744769D01*
X1319409Y744845D01*
X1319322Y744926D01*
X1319287Y744946D01*
X1319256Y744971D01*
X1319148Y745022D01*
X1319044Y745080D01*
X1319004Y745090D01*
X1318968Y745107D01*
X1318851Y745129D01*
X1318736Y745159D01*
X1318676Y745163D01*
X1318656Y745167D01*
X1318635Y745165D01*
X1318575Y745169D01*
X1255075Y745169D01*
X1254957Y745154D01*
X1254838Y745147D01*
X1254800Y745134D01*
X1254759Y745129D01*
X1254649Y745086D01*
X1254536Y745049D01*
X1254501Y745027D01*
X1254464Y745012D01*
X1254368Y744943D01*
X1254267Y744879D01*
X1254239Y744849D01*
X1254206Y744826D01*
X1254131Y744734D01*
X1254049Y744647D01*
X1254029Y744612D01*
X1254004Y744581D01*
X1253953Y744473D01*
X1253895Y744369D01*
X1253885Y744329D01*
X1253868Y744293D01*
X1253846Y744176D01*
X1253816Y744061D01*
X1253812Y744001D01*
X1253808Y743981D01*
X1253810Y743960D01*
X1253806Y743900D01*
X1253806Y674576D01*
X1238674Y659444D01*
X1188926Y659444D01*
X1173794Y674576D01*
X1173794Y734375D01*
X1173779Y734493D01*
X1173772Y734612D01*
X1173759Y734650D01*
X1173754Y734691D01*
X1173711Y734801D01*
X1173674Y734914D01*
X1173652Y734949D01*
X1173637Y734986D01*
X1173568Y735082D01*
X1173504Y735183D01*
X1173474Y735211D01*
X1173451Y735244D01*
X1173359Y735320D01*
X1173272Y735401D01*
X1173237Y735421D01*
X1173206Y735446D01*
X1173098Y735497D01*
X1172994Y735555D01*
X1172954Y735565D01*
X1172918Y735582D01*
X1172801Y735604D01*
X1172686Y735634D01*
X1172626Y735638D01*
X1172606Y735642D01*
X1172585Y735640D01*
X1172525Y735644D01*
X1170619Y735644D01*
X1170619Y756600D01*
X1170607Y756698D01*
X1170604Y756797D01*
X1170587Y756855D01*
X1170579Y756916D01*
X1170543Y757008D01*
X1170515Y757103D01*
X1170485Y757155D01*
X1170462Y757211D01*
X1170404Y757291D01*
X1170354Y757377D01*
X1170288Y757452D01*
X1170276Y757469D01*
X1170266Y757476D01*
X1170248Y757498D01*
X1135323Y792423D01*
X1135244Y792483D01*
X1135172Y792551D01*
X1135119Y792580D01*
X1135071Y792617D01*
X1134980Y792657D01*
X1134894Y792705D01*
X1134835Y792720D01*
X1134779Y792744D01*
X1134681Y792759D01*
X1134586Y792784D01*
X1134486Y792790D01*
X1134465Y792794D01*
X1134453Y792792D01*
X1134425Y792794D01*
X896300Y792794D01*
X896202Y792782D01*
X896103Y792779D01*
X896045Y792762D01*
X895984Y792754D01*
X895892Y792718D01*
X895797Y792690D01*
X895745Y792660D01*
X895689Y792637D01*
X895609Y792579D01*
X895523Y792529D01*
X895448Y792463D01*
X895431Y792451D01*
X895424Y792441D01*
X895403Y792423D01*
X882703Y779723D01*
X882642Y779644D01*
X882574Y779572D01*
X882545Y779519D01*
X882508Y779471D01*
X882468Y779380D01*
X882420Y779294D01*
X882405Y779235D01*
X882381Y779179D01*
X882366Y779081D01*
X882341Y778986D01*
X882335Y778886D01*
X882331Y778865D01*
X882333Y778853D01*
X882331Y778825D01*
X882331Y712150D01*
X882346Y712032D01*
X882353Y711913D01*
X882366Y711875D01*
X882371Y711834D01*
X882414Y711724D01*
X882451Y711611D01*
X882473Y711576D01*
X882488Y711539D01*
X882558Y711443D01*
X882621Y711342D01*
X882651Y711314D01*
X882674Y711281D01*
X882766Y711206D01*
X882853Y711124D01*
X882888Y711104D01*
X882919Y711079D01*
X883027Y711028D01*
X883131Y710970D01*
X883171Y710960D01*
X883207Y710943D01*
X883324Y710921D01*
X883439Y710891D01*
X883500Y710887D01*
X883520Y710883D01*
X883540Y710885D01*
X883600Y710881D01*
X902650Y710881D01*
X902768Y710896D01*
X902887Y710903D01*
X902925Y710916D01*
X902966Y710921D01*
X903076Y710964D01*
X903189Y711001D01*
X903224Y711023D01*
X903261Y711038D01*
X903357Y711108D01*
X903458Y711171D01*
X903486Y711201D01*
X903519Y711224D01*
X903595Y711316D01*
X903676Y711403D01*
X903696Y711438D01*
X903721Y711469D01*
X903772Y711577D01*
X903830Y711681D01*
X903840Y711721D01*
X903857Y711757D01*
X903879Y711874D01*
X903909Y711989D01*
X903913Y712050D01*
X903917Y712070D01*
X903915Y712090D01*
X903919Y712150D01*
X903919Y740199D01*
X915876Y752156D01*
X1016424Y752156D01*
X1028381Y740199D01*
X1028381Y712150D01*
X1028396Y712032D01*
X1028403Y711913D01*
X1028416Y711875D01*
X1028421Y711834D01*
X1028464Y711724D01*
X1028501Y711611D01*
X1028523Y711576D01*
X1028538Y711539D01*
X1028608Y711443D01*
X1028671Y711342D01*
X1028701Y711314D01*
X1028724Y711281D01*
X1028816Y711206D01*
X1028903Y711124D01*
X1028938Y711104D01*
X1028969Y711079D01*
X1029077Y711028D01*
X1029181Y710970D01*
X1029221Y710960D01*
X1029257Y710943D01*
X1029374Y710921D01*
X1029489Y710891D01*
X1029550Y710887D01*
X1029570Y710883D01*
X1029590Y710885D01*
X1029650Y710881D01*
X1048700Y710881D01*
X1048818Y710896D01*
X1048937Y710903D01*
X1048975Y710916D01*
X1049016Y710921D01*
X1049126Y710964D01*
X1049239Y711001D01*
X1049274Y711023D01*
X1049311Y711038D01*
X1049407Y711108D01*
X1049508Y711171D01*
X1049536Y711201D01*
X1049569Y711224D01*
X1049645Y711316D01*
X1049726Y711403D01*
X1049746Y711438D01*
X1049771Y711469D01*
X1049822Y711577D01*
X1049880Y711681D01*
X1049890Y711721D01*
X1049907Y711757D01*
X1049929Y711874D01*
X1049959Y711989D01*
X1049963Y712050D01*
X1049967Y712070D01*
X1049965Y712090D01*
X1049969Y712150D01*
X1049969Y740199D01*
X1061926Y752156D01*
X1079924Y752156D01*
X1091881Y740199D01*
X1091881Y588325D01*
X1091896Y588207D01*
X1091903Y588088D01*
X1091916Y588050D01*
X1091921Y588009D01*
X1091964Y587899D01*
X1092001Y587786D01*
X1092023Y587751D01*
X1092038Y587714D01*
X1092108Y587618D01*
X1092171Y587517D01*
X1092201Y587489D01*
X1092224Y587456D01*
X1092316Y587381D01*
X1092403Y587299D01*
X1092438Y587279D01*
X1092469Y587254D01*
X1092577Y587203D01*
X1092681Y587145D01*
X1092721Y587135D01*
X1092757Y587118D01*
X1092874Y587096D01*
X1092989Y587066D01*
X1093050Y587062D01*
X1093070Y587058D01*
X1093090Y587060D01*
X1093150Y587056D01*
X1302700Y587056D01*
X1302798Y587068D01*
G37*
G36*
X702723Y628343D02*
X702723Y628343D01*
X702822Y628346D01*
X702880Y628363D01*
X702941Y628371D01*
X703033Y628407D01*
X703128Y628435D01*
X703180Y628465D01*
X703236Y628488D01*
X703316Y628546D01*
X703402Y628596D01*
X703477Y628662D01*
X703494Y628674D01*
X703501Y628684D01*
X703523Y628703D01*
X719398Y644578D01*
X719458Y644656D01*
X719526Y644728D01*
X719555Y644781D01*
X719592Y644829D01*
X719632Y644920D01*
X719680Y645006D01*
X719695Y645065D01*
X719719Y645121D01*
X719734Y645219D01*
X719759Y645314D01*
X719765Y645414D01*
X719769Y645435D01*
X719767Y645447D01*
X719769Y645475D01*
X719769Y743900D01*
X719754Y744018D01*
X719747Y744137D01*
X719734Y744175D01*
X719729Y744216D01*
X719686Y744326D01*
X719649Y744439D01*
X719627Y744474D01*
X719612Y744511D01*
X719543Y744607D01*
X719479Y744708D01*
X719449Y744736D01*
X719426Y744769D01*
X719334Y744845D01*
X719247Y744926D01*
X719212Y744946D01*
X719181Y744971D01*
X719073Y745022D01*
X718969Y745080D01*
X718929Y745090D01*
X718893Y745107D01*
X718776Y745129D01*
X718661Y745159D01*
X718601Y745163D01*
X718581Y745167D01*
X718560Y745165D01*
X718500Y745169D01*
X655000Y745169D01*
X654882Y745154D01*
X654763Y745147D01*
X654725Y745134D01*
X654684Y745129D01*
X654574Y745086D01*
X654461Y745049D01*
X654426Y745027D01*
X654389Y745012D01*
X654293Y744943D01*
X654192Y744879D01*
X654164Y744849D01*
X654131Y744826D01*
X654056Y744734D01*
X653974Y744647D01*
X653954Y744612D01*
X653929Y744581D01*
X653878Y744473D01*
X653820Y744369D01*
X653810Y744329D01*
X653793Y744293D01*
X653771Y744176D01*
X653741Y744061D01*
X653737Y744001D01*
X653733Y743981D01*
X653735Y743960D01*
X653731Y743900D01*
X653731Y674576D01*
X638599Y659444D01*
X588851Y659444D01*
X573719Y674576D01*
X573719Y734375D01*
X573704Y734493D01*
X573697Y734612D01*
X573684Y734650D01*
X573679Y734691D01*
X573636Y734801D01*
X573599Y734914D01*
X573577Y734949D01*
X573562Y734986D01*
X573493Y735082D01*
X573429Y735183D01*
X573399Y735211D01*
X573376Y735244D01*
X573284Y735320D01*
X573197Y735401D01*
X573162Y735421D01*
X573131Y735446D01*
X573023Y735497D01*
X572919Y735555D01*
X572879Y735565D01*
X572843Y735582D01*
X572726Y735604D01*
X572611Y735634D01*
X572551Y735638D01*
X572531Y735642D01*
X572510Y735640D01*
X572450Y735644D01*
X570544Y735644D01*
X570544Y756600D01*
X570532Y756698D01*
X570529Y756797D01*
X570512Y756855D01*
X570504Y756916D01*
X570468Y757008D01*
X570440Y757103D01*
X570410Y757155D01*
X570387Y757211D01*
X570329Y757291D01*
X570279Y757377D01*
X570213Y757452D01*
X570201Y757469D01*
X570191Y757476D01*
X570173Y757498D01*
X535248Y792423D01*
X535169Y792483D01*
X535097Y792551D01*
X535044Y792580D01*
X534996Y792617D01*
X534905Y792657D01*
X534819Y792705D01*
X534760Y792720D01*
X534704Y792744D01*
X534606Y792759D01*
X534511Y792784D01*
X534411Y792790D01*
X534390Y792794D01*
X534378Y792792D01*
X534350Y792794D01*
X293050Y792794D01*
X292952Y792782D01*
X292853Y792779D01*
X292795Y792762D01*
X292734Y792754D01*
X292642Y792718D01*
X292547Y792690D01*
X292495Y792660D01*
X292439Y792637D01*
X292359Y792579D01*
X292273Y792529D01*
X292198Y792463D01*
X292181Y792451D01*
X292174Y792441D01*
X292153Y792423D01*
X279453Y779723D01*
X279392Y779644D01*
X279324Y779572D01*
X279295Y779519D01*
X279258Y779471D01*
X279218Y779380D01*
X279170Y779294D01*
X279155Y779235D01*
X279131Y779179D01*
X279116Y779081D01*
X279091Y778986D01*
X279085Y778886D01*
X279081Y778865D01*
X279083Y778853D01*
X279081Y778825D01*
X279081Y712150D01*
X279096Y712032D01*
X279103Y711913D01*
X279116Y711875D01*
X279121Y711834D01*
X279164Y711724D01*
X279201Y711611D01*
X279223Y711576D01*
X279238Y711539D01*
X279308Y711443D01*
X279371Y711342D01*
X279401Y711314D01*
X279424Y711281D01*
X279516Y711206D01*
X279603Y711124D01*
X279638Y711104D01*
X279669Y711079D01*
X279777Y711028D01*
X279881Y710970D01*
X279921Y710960D01*
X279957Y710943D01*
X280074Y710921D01*
X280189Y710891D01*
X280250Y710887D01*
X280270Y710883D01*
X280290Y710885D01*
X280350Y710881D01*
X299400Y710881D01*
X299518Y710896D01*
X299637Y710903D01*
X299675Y710916D01*
X299716Y710921D01*
X299826Y710964D01*
X299939Y711001D01*
X299974Y711023D01*
X300011Y711038D01*
X300107Y711108D01*
X300208Y711171D01*
X300236Y711201D01*
X300269Y711224D01*
X300345Y711316D01*
X300426Y711403D01*
X300446Y711438D01*
X300471Y711469D01*
X300522Y711577D01*
X300580Y711681D01*
X300590Y711721D01*
X300607Y711757D01*
X300629Y711874D01*
X300659Y711989D01*
X300663Y712050D01*
X300667Y712070D01*
X300665Y712090D01*
X300669Y712150D01*
X300669Y740199D01*
X312626Y752156D01*
X413174Y752156D01*
X425131Y740199D01*
X425131Y712150D01*
X425146Y712032D01*
X425153Y711913D01*
X425166Y711875D01*
X425171Y711834D01*
X425214Y711724D01*
X425251Y711611D01*
X425273Y711576D01*
X425288Y711539D01*
X425358Y711443D01*
X425421Y711342D01*
X425451Y711314D01*
X425474Y711281D01*
X425566Y711206D01*
X425653Y711124D01*
X425688Y711104D01*
X425719Y711079D01*
X425827Y711028D01*
X425931Y710970D01*
X425971Y710960D01*
X426007Y710943D01*
X426124Y710921D01*
X426239Y710891D01*
X426300Y710887D01*
X426320Y710883D01*
X426340Y710885D01*
X426400Y710881D01*
X445450Y710881D01*
X445568Y710896D01*
X445687Y710903D01*
X445725Y710916D01*
X445766Y710921D01*
X445876Y710964D01*
X445989Y711001D01*
X446024Y711023D01*
X446061Y711038D01*
X446157Y711108D01*
X446258Y711171D01*
X446286Y711201D01*
X446319Y711224D01*
X446395Y711316D01*
X446476Y711403D01*
X446496Y711438D01*
X446521Y711469D01*
X446572Y711577D01*
X446630Y711681D01*
X446640Y711721D01*
X446657Y711757D01*
X446679Y711874D01*
X446709Y711989D01*
X446713Y712050D01*
X446717Y712070D01*
X446715Y712090D01*
X446719Y712150D01*
X446719Y740199D01*
X458676Y752156D01*
X476674Y752156D01*
X488631Y740199D01*
X488631Y645475D01*
X488643Y645377D01*
X488646Y645278D01*
X488663Y645220D01*
X488671Y645159D01*
X488707Y645067D01*
X488735Y644972D01*
X488765Y644920D01*
X488788Y644864D01*
X488846Y644784D01*
X488896Y644698D01*
X488962Y644623D01*
X488974Y644606D01*
X488984Y644599D01*
X489003Y644578D01*
X504878Y628703D01*
X504956Y628642D01*
X505028Y628574D01*
X505081Y628545D01*
X505129Y628508D01*
X505220Y628468D01*
X505306Y628420D01*
X505365Y628405D01*
X505421Y628381D01*
X505519Y628366D01*
X505614Y628341D01*
X505714Y628335D01*
X505735Y628331D01*
X505747Y628333D01*
X505775Y628331D01*
X702625Y628331D01*
X702723Y628343D01*
G37*
%LPC*%
G36*
X581351Y90230D02*
X581351Y90230D01*
X577616Y91777D01*
X574758Y94635D01*
X573211Y98370D01*
X573211Y124256D01*
X574758Y127991D01*
X577793Y131025D01*
X577853Y131103D01*
X577921Y131175D01*
X577950Y131228D01*
X577987Y131276D01*
X578027Y131367D01*
X578075Y131454D01*
X578090Y131512D01*
X578114Y131568D01*
X578129Y131666D01*
X578154Y131762D01*
X578160Y131862D01*
X578164Y131882D01*
X578162Y131894D01*
X578164Y131922D01*
X578164Y155728D01*
X578152Y155826D01*
X578149Y155925D01*
X578132Y155983D01*
X578124Y156043D01*
X578088Y156135D01*
X578060Y156230D01*
X578030Y156282D01*
X578007Y156339D01*
X577949Y156419D01*
X577899Y156504D01*
X577833Y156580D01*
X577821Y156596D01*
X577811Y156604D01*
X577793Y156625D01*
X574758Y159659D01*
X573267Y163260D01*
X573242Y163303D01*
X573225Y163350D01*
X573164Y163441D01*
X573109Y163536D01*
X573075Y163572D01*
X573047Y163613D01*
X572964Y163686D01*
X572888Y163765D01*
X572846Y163791D01*
X572808Y163824D01*
X572710Y163874D01*
X572617Y163931D01*
X572569Y163946D01*
X572525Y163968D01*
X572418Y163992D01*
X572313Y164025D01*
X572263Y164027D01*
X572215Y164038D01*
X572105Y164035D01*
X571995Y164040D01*
X571947Y164030D01*
X571897Y164028D01*
X571791Y163998D01*
X571684Y163975D01*
X571639Y163954D01*
X571591Y163940D01*
X571497Y163884D01*
X571398Y163836D01*
X571360Y163803D01*
X571317Y163778D01*
X571197Y163672D01*
X561232Y153708D01*
X561172Y153630D01*
X561104Y153557D01*
X561075Y153504D01*
X561038Y153457D01*
X560998Y153366D01*
X560950Y153279D01*
X560935Y153220D01*
X560911Y153165D01*
X560896Y153067D01*
X560871Y152971D01*
X560865Y152871D01*
X560861Y152851D01*
X560863Y152838D01*
X560861Y152810D01*
X560861Y152515D01*
X557791Y145105D01*
X552120Y139434D01*
X544710Y136364D01*
X536690Y136364D01*
X529280Y139434D01*
X523609Y145105D01*
X520539Y152515D01*
X520539Y160535D01*
X523609Y167945D01*
X529280Y173616D01*
X536690Y176686D01*
X536985Y176686D01*
X537083Y176698D01*
X537183Y176701D01*
X537241Y176718D01*
X537301Y176726D01*
X537393Y176762D01*
X537488Y176790D01*
X537540Y176820D01*
X537597Y176843D01*
X537677Y176901D01*
X537762Y176951D01*
X537837Y177017D01*
X537854Y177029D01*
X537862Y177039D01*
X537883Y177057D01*
X549218Y188392D01*
X549278Y188470D01*
X549346Y188543D01*
X549375Y188596D01*
X549412Y188643D01*
X549452Y188734D01*
X549500Y188821D01*
X549515Y188880D01*
X549539Y188935D01*
X549554Y189033D01*
X549579Y189129D01*
X549585Y189229D01*
X549589Y189249D01*
X549587Y189262D01*
X549589Y189290D01*
X549589Y217516D01*
X549577Y217614D01*
X549574Y217713D01*
X549557Y217771D01*
X549549Y217831D01*
X549513Y217923D01*
X549485Y218018D01*
X549455Y218071D01*
X549432Y218127D01*
X549374Y218207D01*
X549324Y218292D01*
X549313Y218305D01*
X546287Y225609D01*
X546287Y233491D01*
X549304Y240773D01*
X554877Y246346D01*
X562159Y249363D01*
X570041Y249363D01*
X577323Y246346D01*
X577902Y245767D01*
X577996Y245694D01*
X578086Y245615D01*
X578122Y245597D01*
X578154Y245572D01*
X578263Y245525D01*
X578369Y245471D01*
X578408Y245462D01*
X578446Y245446D01*
X578563Y245427D01*
X578679Y245401D01*
X578720Y245402D01*
X578760Y245396D01*
X578878Y245407D01*
X578997Y245411D01*
X579036Y245422D01*
X579076Y245426D01*
X579188Y245466D01*
X579303Y245499D01*
X579338Y245520D01*
X579376Y245533D01*
X579474Y245600D01*
X579577Y245661D01*
X579622Y245700D01*
X579639Y245712D01*
X579652Y245727D01*
X579697Y245767D01*
X580277Y246346D01*
X587559Y249363D01*
X595441Y249363D01*
X602757Y246332D01*
X602787Y246304D01*
X602840Y246275D01*
X602888Y246238D01*
X602979Y246198D01*
X603066Y246150D01*
X603124Y246135D01*
X603180Y246111D01*
X603278Y246096D01*
X603374Y246071D01*
X603474Y246065D01*
X603494Y246061D01*
X603506Y246063D01*
X603534Y246061D01*
X604866Y246061D01*
X604964Y246073D01*
X605063Y246076D01*
X605121Y246093D01*
X605181Y246101D01*
X605273Y246137D01*
X605368Y246165D01*
X605421Y246195D01*
X605477Y246218D01*
X605557Y246276D01*
X605642Y246326D01*
X605655Y246337D01*
X612959Y249363D01*
X620841Y249363D01*
X628123Y246346D01*
X633696Y240773D01*
X636713Y233491D01*
X636713Y225609D01*
X633696Y218327D01*
X628123Y212754D01*
X620841Y209737D01*
X612959Y209737D01*
X612560Y209903D01*
X612512Y209916D01*
X612467Y209937D01*
X612359Y209958D01*
X612253Y209987D01*
X612203Y209987D01*
X612154Y209997D01*
X612045Y209990D01*
X611935Y209992D01*
X611887Y209980D01*
X611837Y209977D01*
X611733Y209943D01*
X611626Y209918D01*
X611582Y209894D01*
X611535Y209879D01*
X611442Y209820D01*
X611345Y209769D01*
X611308Y209735D01*
X611266Y209709D01*
X611191Y209629D01*
X611109Y209555D01*
X611082Y209513D01*
X611048Y209477D01*
X610995Y209381D01*
X610935Y209289D01*
X610918Y209242D01*
X610894Y209199D01*
X610867Y209092D01*
X610831Y208988D01*
X610827Y208939D01*
X610815Y208891D01*
X610805Y208730D01*
X610805Y196565D01*
X610817Y196467D01*
X610820Y196368D01*
X610837Y196310D01*
X610845Y196250D01*
X610881Y196158D01*
X610909Y196063D01*
X610939Y196011D01*
X610962Y195954D01*
X611020Y195874D01*
X611070Y195789D01*
X611136Y195713D01*
X611148Y195697D01*
X611158Y195689D01*
X611176Y195668D01*
X613830Y193015D01*
X615377Y189280D01*
X615377Y163394D01*
X614837Y162091D01*
X614824Y162043D01*
X614803Y161998D01*
X614782Y161890D01*
X614753Y161784D01*
X614752Y161734D01*
X614743Y161685D01*
X614750Y161576D01*
X614748Y161466D01*
X614760Y161418D01*
X614763Y161368D01*
X614796Y161264D01*
X614822Y161157D01*
X614845Y161113D01*
X614861Y161066D01*
X614919Y160973D01*
X614971Y160876D01*
X615004Y160839D01*
X615031Y160797D01*
X615111Y160722D01*
X615185Y160640D01*
X615226Y160613D01*
X615262Y160579D01*
X615359Y160526D01*
X615450Y160466D01*
X615497Y160449D01*
X615541Y160425D01*
X615647Y160398D01*
X615751Y160362D01*
X615801Y160358D01*
X615849Y160346D01*
X616010Y160336D01*
X697165Y160336D01*
X697215Y160342D01*
X697264Y160340D01*
X697372Y160362D01*
X697481Y160376D01*
X697527Y160394D01*
X697576Y160404D01*
X697674Y160452D01*
X697777Y160493D01*
X697817Y160522D01*
X697862Y160544D01*
X697945Y160615D01*
X698034Y160679D01*
X698066Y160718D01*
X698104Y160750D01*
X698167Y160840D01*
X698237Y160924D01*
X698258Y160969D01*
X698287Y161010D01*
X698326Y161113D01*
X698372Y161212D01*
X698382Y161261D01*
X698399Y161307D01*
X698412Y161417D01*
X698432Y161524D01*
X698429Y161574D01*
X698435Y161623D01*
X698419Y161732D01*
X698412Y161842D01*
X698397Y161889D01*
X698390Y161938D01*
X698338Y162091D01*
X697798Y163394D01*
X697798Y189280D01*
X699345Y193015D01*
X702203Y195873D01*
X702298Y195912D01*
X702357Y195946D01*
X702406Y195965D01*
X702427Y195981D01*
X702474Y196002D01*
X702521Y196039D01*
X702574Y196069D01*
X702645Y196138D01*
X702652Y196144D01*
X702663Y196152D01*
X702665Y196154D01*
X702723Y196200D01*
X702759Y196249D01*
X702803Y196291D01*
X702854Y196375D01*
X702914Y196454D01*
X702958Y196544D01*
X702969Y196562D01*
X702972Y196574D01*
X702985Y196599D01*
X704884Y201184D01*
X721847Y218147D01*
X727916Y220661D01*
X776316Y220661D01*
X776414Y220673D01*
X776513Y220676D01*
X776571Y220693D01*
X776631Y220701D01*
X776723Y220737D01*
X776818Y220765D01*
X776870Y220795D01*
X776927Y220818D01*
X777007Y220876D01*
X777092Y220926D01*
X777105Y220937D01*
X784443Y223977D01*
X784485Y223978D01*
X784543Y223995D01*
X784603Y224003D01*
X784695Y224039D01*
X784790Y224067D01*
X784842Y224097D01*
X784899Y224120D01*
X784979Y224178D01*
X785064Y224228D01*
X785139Y224294D01*
X785156Y224306D01*
X785164Y224316D01*
X785185Y224334D01*
X791697Y230847D01*
X797766Y233361D01*
X808066Y233361D01*
X808164Y233373D01*
X808263Y233376D01*
X808321Y233393D01*
X808381Y233401D01*
X808473Y233437D01*
X808568Y233465D01*
X808620Y233495D01*
X808677Y233518D01*
X808757Y233576D01*
X808842Y233626D01*
X808855Y233637D01*
X816159Y236663D01*
X824041Y236663D01*
X831357Y233632D01*
X831387Y233604D01*
X831440Y233575D01*
X831488Y233538D01*
X831579Y233498D01*
X831666Y233450D01*
X831724Y233435D01*
X831780Y233411D01*
X831878Y233396D01*
X831974Y233371D01*
X832074Y233365D01*
X832094Y233361D01*
X832106Y233363D01*
X832134Y233361D01*
X844370Y233361D01*
X844468Y233373D01*
X844567Y233376D01*
X844625Y233393D01*
X844685Y233401D01*
X844777Y233437D01*
X844872Y233465D01*
X844924Y233495D01*
X844981Y233518D01*
X845061Y233576D01*
X845146Y233626D01*
X845222Y233692D01*
X845238Y233704D01*
X845246Y233714D01*
X845267Y233732D01*
X849467Y237933D01*
X866933Y237933D01*
X879283Y225583D01*
X879283Y208117D01*
X866933Y195767D01*
X849467Y195767D01*
X845267Y199968D01*
X845189Y200028D01*
X845117Y200096D01*
X845064Y200125D01*
X845016Y200162D01*
X844925Y200202D01*
X844838Y200250D01*
X844780Y200265D01*
X844724Y200289D01*
X844626Y200304D01*
X844530Y200329D01*
X844430Y200335D01*
X844410Y200339D01*
X844398Y200337D01*
X844370Y200339D01*
X832134Y200339D01*
X832036Y200327D01*
X831937Y200324D01*
X831879Y200307D01*
X831819Y200299D01*
X831727Y200263D01*
X831632Y200235D01*
X831580Y200205D01*
X831523Y200182D01*
X831443Y200124D01*
X831358Y200074D01*
X831345Y200063D01*
X824041Y197037D01*
X816159Y197037D01*
X809385Y199843D01*
X809270Y199875D01*
X809158Y199913D01*
X809117Y199916D01*
X809078Y199927D01*
X808959Y199929D01*
X808841Y199938D01*
X808801Y199931D01*
X808760Y199932D01*
X808645Y199904D01*
X808527Y199884D01*
X808490Y199867D01*
X808451Y199858D01*
X808346Y199802D01*
X808237Y199753D01*
X808206Y199728D01*
X808170Y199709D01*
X808082Y199629D01*
X807989Y199555D01*
X807964Y199523D01*
X807935Y199495D01*
X807869Y199396D01*
X807798Y199301D01*
X807771Y199247D01*
X807760Y199230D01*
X807753Y199210D01*
X807727Y199156D01*
X805146Y192927D01*
X799573Y187354D01*
X792291Y184337D01*
X784398Y184337D01*
X784295Y184366D01*
X784163Y184406D01*
X784142Y184407D01*
X784123Y184413D01*
X783983Y184415D01*
X783845Y184421D01*
X783825Y184417D01*
X783805Y184418D01*
X783669Y184385D01*
X783534Y184357D01*
X783515Y184348D01*
X783496Y184344D01*
X783372Y184278D01*
X783248Y184217D01*
X783233Y184204D01*
X783215Y184195D01*
X783111Y184101D01*
X783006Y184011D01*
X782994Y183995D01*
X782979Y183981D01*
X782903Y183865D01*
X782823Y183751D01*
X782816Y183732D01*
X782804Y183715D01*
X782759Y183584D01*
X782710Y183454D01*
X782708Y183434D01*
X782701Y183414D01*
X782690Y183276D01*
X782675Y183138D01*
X782678Y183118D01*
X782676Y183097D01*
X782700Y182960D01*
X782719Y182823D01*
X782728Y182796D01*
X782730Y182784D01*
X782739Y182765D01*
X782763Y182695D01*
X782763Y174809D01*
X779746Y167527D01*
X774173Y161954D01*
X766857Y158923D01*
X766815Y158922D01*
X766757Y158905D01*
X766697Y158897D01*
X766605Y158861D01*
X766510Y158833D01*
X766458Y158803D01*
X766401Y158780D01*
X766321Y158722D01*
X766236Y158672D01*
X766161Y158606D01*
X766144Y158594D01*
X766136Y158584D01*
X766115Y158566D01*
X742201Y134651D01*
X737876Y130326D01*
X737803Y130232D01*
X737724Y130143D01*
X737706Y130107D01*
X737681Y130075D01*
X737634Y129966D01*
X737580Y129860D01*
X737571Y129820D01*
X737555Y129783D01*
X737536Y129665D01*
X737510Y129550D01*
X737511Y129509D01*
X737505Y129469D01*
X737516Y129351D01*
X737520Y129232D01*
X737531Y129193D01*
X737535Y129153D01*
X737575Y129041D01*
X737608Y128926D01*
X737629Y128891D01*
X737642Y128853D01*
X737709Y128755D01*
X737770Y128652D01*
X737809Y128607D01*
X737821Y128590D01*
X737836Y128577D01*
X737876Y128531D01*
X738417Y127991D01*
X739964Y124256D01*
X739964Y98370D01*
X738417Y94635D01*
X735559Y91777D01*
X731824Y90230D01*
X705938Y90230D01*
X702203Y91777D01*
X699345Y94635D01*
X697798Y98370D01*
X697798Y124256D01*
X698338Y125559D01*
X698348Y125594D01*
X698353Y125606D01*
X698355Y125616D01*
X698372Y125652D01*
X698393Y125760D01*
X698422Y125866D01*
X698423Y125916D01*
X698432Y125965D01*
X698425Y126074D01*
X698427Y126184D01*
X698415Y126232D01*
X698412Y126282D01*
X698379Y126386D01*
X698353Y126493D01*
X698330Y126537D01*
X698314Y126584D01*
X698256Y126677D01*
X698204Y126774D01*
X698171Y126811D01*
X698144Y126853D01*
X698064Y126928D01*
X697990Y127010D01*
X697949Y127037D01*
X697913Y127071D01*
X697816Y127124D01*
X697725Y127184D01*
X697678Y127201D01*
X697634Y127225D01*
X697528Y127252D01*
X697424Y127288D01*
X697374Y127292D01*
X697326Y127304D01*
X697165Y127314D01*
X616010Y127314D01*
X615960Y127308D01*
X615911Y127310D01*
X615803Y127288D01*
X615694Y127274D01*
X615648Y127256D01*
X615599Y127246D01*
X615501Y127198D01*
X615398Y127157D01*
X615358Y127128D01*
X615313Y127106D01*
X615230Y127035D01*
X615141Y126971D01*
X615109Y126932D01*
X615071Y126900D01*
X615008Y126810D01*
X614938Y126726D01*
X614917Y126681D01*
X614888Y126640D01*
X614849Y126537D01*
X614803Y126438D01*
X614793Y126389D01*
X614776Y126343D01*
X614763Y126233D01*
X614743Y126126D01*
X614746Y126076D01*
X614740Y126027D01*
X614756Y125918D01*
X614763Y125808D01*
X614778Y125761D01*
X614785Y125712D01*
X614837Y125559D01*
X615377Y124256D01*
X615377Y98370D01*
X613830Y94635D01*
X610972Y91777D01*
X607237Y90230D01*
X581351Y90230D01*
G37*
%LPD*%
G36*
X204248Y187018D02*
X204248Y187018D01*
X204347Y187021D01*
X204405Y187038D01*
X204466Y187046D01*
X204558Y187082D01*
X204653Y187110D01*
X204705Y187140D01*
X204761Y187163D01*
X204841Y187221D01*
X204927Y187271D01*
X205002Y187337D01*
X205019Y187349D01*
X205026Y187359D01*
X205048Y187378D01*
X227273Y209603D01*
X227333Y209681D01*
X227401Y209753D01*
X227430Y209806D01*
X227467Y209854D01*
X227507Y209945D01*
X227555Y210031D01*
X227570Y210090D01*
X227594Y210146D01*
X227609Y210244D01*
X227634Y210339D01*
X227640Y210439D01*
X227644Y210460D01*
X227642Y210472D01*
X227644Y210500D01*
X227644Y267650D01*
X227632Y267748D01*
X227629Y267847D01*
X227612Y267905D01*
X227604Y267966D01*
X227568Y268058D01*
X227540Y268153D01*
X227510Y268205D01*
X227487Y268261D01*
X227429Y268341D01*
X227379Y268427D01*
X227313Y268502D01*
X227301Y268519D01*
X227291Y268526D01*
X227273Y268548D01*
X205048Y290773D01*
X204969Y290833D01*
X204897Y290901D01*
X204844Y290930D01*
X204796Y290967D01*
X204705Y291007D01*
X204619Y291055D01*
X204560Y291070D01*
X204504Y291094D01*
X204406Y291109D01*
X204311Y291134D01*
X204211Y291140D01*
X204190Y291144D01*
X204178Y291142D01*
X204150Y291144D01*
X86675Y291144D01*
X86577Y291132D01*
X86478Y291129D01*
X86420Y291112D01*
X86359Y291104D01*
X86267Y291068D01*
X86172Y291040D01*
X86120Y291010D01*
X86064Y290987D01*
X85984Y290929D01*
X85898Y290879D01*
X85823Y290813D01*
X85806Y290801D01*
X85799Y290791D01*
X85777Y290773D01*
X69902Y274898D01*
X69842Y274819D01*
X69774Y274747D01*
X69745Y274694D01*
X69708Y274646D01*
X69668Y274555D01*
X69620Y274469D01*
X69605Y274410D01*
X69581Y274354D01*
X69566Y274256D01*
X69541Y274161D01*
X69535Y274061D01*
X69531Y274040D01*
X69533Y274028D01*
X69531Y274000D01*
X69531Y220025D01*
X69543Y219927D01*
X69546Y219828D01*
X69563Y219770D01*
X69571Y219709D01*
X69607Y219617D01*
X69635Y219522D01*
X69665Y219470D01*
X69688Y219414D01*
X69746Y219334D01*
X69796Y219248D01*
X69839Y219199D01*
X69840Y219198D01*
X69842Y219196D01*
X69862Y219173D01*
X69874Y219156D01*
X69884Y219149D01*
X69902Y219128D01*
X79427Y209603D01*
X79506Y209542D01*
X79578Y209474D01*
X79631Y209445D01*
X79679Y209408D01*
X79770Y209368D01*
X79856Y209320D01*
X79915Y209305D01*
X79971Y209281D01*
X80069Y209266D01*
X80164Y209241D01*
X80264Y209235D01*
X80285Y209231D01*
X80297Y209233D01*
X80325Y209231D01*
X121074Y209231D01*
X142928Y187378D01*
X143006Y187317D01*
X143078Y187249D01*
X143131Y187220D01*
X143179Y187183D01*
X143270Y187143D01*
X143356Y187095D01*
X143415Y187080D01*
X143471Y187056D01*
X143569Y187041D01*
X143664Y187016D01*
X143764Y187010D01*
X143785Y187006D01*
X143797Y187008D01*
X143825Y187006D01*
X204150Y187006D01*
X204248Y187018D01*
G37*
G36*
X802471Y292433D02*
X802471Y292433D01*
X802609Y292446D01*
X802628Y292453D01*
X802648Y292456D01*
X802777Y292507D01*
X802908Y292554D01*
X802925Y292565D01*
X802944Y292573D01*
X803056Y292654D01*
X803171Y292732D01*
X803185Y292748D01*
X803201Y292759D01*
X803290Y292867D01*
X803382Y292971D01*
X803391Y292989D01*
X803404Y293004D01*
X803463Y293130D01*
X803526Y293254D01*
X803531Y293274D01*
X803539Y293292D01*
X803566Y293429D01*
X803596Y293564D01*
X803595Y293585D01*
X803599Y293604D01*
X803591Y293743D01*
X803586Y293882D01*
X803581Y293902D01*
X803579Y293922D01*
X803537Y294054D01*
X803498Y294188D01*
X803488Y294205D01*
X803481Y294224D01*
X803407Y294342D01*
X803336Y294462D01*
X803318Y294483D01*
X803311Y294493D01*
X803296Y294507D01*
X803230Y294582D01*
X802227Y295586D01*
X799017Y303334D01*
X799017Y333566D01*
X799556Y334865D01*
X799558Y334874D01*
X799563Y334883D01*
X799600Y335028D01*
X799640Y335172D01*
X799640Y335181D01*
X799642Y335190D01*
X799652Y335351D01*
X799652Y376086D01*
X799651Y376095D01*
X799652Y376105D01*
X799632Y376249D01*
X799630Y376278D01*
X799627Y376288D01*
X799612Y376402D01*
X799609Y376410D01*
X799608Y376419D01*
X799556Y376572D01*
X798382Y379405D01*
X798382Y391475D01*
X798367Y391593D01*
X798360Y391712D01*
X798347Y391750D01*
X798342Y391791D01*
X798299Y391901D01*
X798262Y392014D01*
X798240Y392049D01*
X798225Y392086D01*
X798156Y392182D01*
X798092Y392283D01*
X798062Y392311D01*
X798039Y392344D01*
X797947Y392420D01*
X797860Y392501D01*
X797825Y392521D01*
X797794Y392546D01*
X797686Y392597D01*
X797582Y392655D01*
X797542Y392665D01*
X797506Y392682D01*
X797389Y392704D01*
X797274Y392734D01*
X797214Y392738D01*
X797194Y392742D01*
X797173Y392740D01*
X797113Y392744D01*
X785937Y392744D01*
X785819Y392729D01*
X785700Y392722D01*
X785662Y392709D01*
X785621Y392704D01*
X785511Y392661D01*
X785398Y392624D01*
X785363Y392602D01*
X785326Y392587D01*
X785230Y392518D01*
X785129Y392454D01*
X785101Y392424D01*
X785068Y392401D01*
X784992Y392309D01*
X784911Y392222D01*
X784891Y392187D01*
X784866Y392156D01*
X784815Y392048D01*
X784757Y391944D01*
X784747Y391904D01*
X784730Y391868D01*
X784708Y391751D01*
X784678Y391636D01*
X784674Y391576D01*
X784670Y391556D01*
X784672Y391535D01*
X784668Y391475D01*
X784668Y379405D01*
X783494Y376572D01*
X783492Y376563D01*
X783487Y376555D01*
X783450Y376410D01*
X783410Y376265D01*
X783410Y376256D01*
X783408Y376247D01*
X783398Y376086D01*
X783398Y335351D01*
X783399Y335342D01*
X783398Y335333D01*
X783419Y335184D01*
X783438Y335036D01*
X783441Y335027D01*
X783442Y335018D01*
X783494Y334865D01*
X784033Y333566D01*
X784033Y303334D01*
X781483Y297179D01*
X781475Y297150D01*
X781462Y297124D01*
X781433Y296997D01*
X781399Y296872D01*
X781399Y296842D01*
X781392Y296814D01*
X781396Y296684D01*
X781394Y296554D01*
X781401Y296525D01*
X781402Y296496D01*
X781438Y296371D01*
X781468Y296245D01*
X781482Y296219D01*
X781490Y296190D01*
X781556Y296079D01*
X781617Y295964D01*
X781637Y295942D01*
X781652Y295916D01*
X781758Y295796D01*
X784766Y292787D01*
X784844Y292727D01*
X784917Y292659D01*
X784970Y292630D01*
X785017Y292593D01*
X785108Y292553D01*
X785195Y292505D01*
X785254Y292490D01*
X785309Y292466D01*
X785407Y292451D01*
X785503Y292426D01*
X785603Y292420D01*
X785623Y292416D01*
X785636Y292418D01*
X785664Y292416D01*
X802333Y292416D01*
X802471Y292433D01*
G37*
D10*
X323648Y74229D02*
X323648Y105498D01*
X334071Y105498D02*
X313225Y105498D01*
X298989Y105498D02*
X298989Y74229D01*
X298989Y89863D02*
X293778Y95075D01*
X283355Y95075D01*
X278143Y89863D01*
X278143Y74229D01*
X258696Y74229D02*
X248273Y74229D01*
X258696Y74229D02*
X263907Y79440D01*
X263907Y89863D01*
X258696Y95075D01*
X248273Y95075D01*
X243061Y89863D01*
X243061Y84652D01*
X263907Y84652D01*
X228825Y89863D02*
X207979Y89863D01*
X193743Y74229D02*
X193743Y105498D01*
X178109Y105498D01*
X172897Y100286D01*
X172897Y89863D01*
X178109Y84652D01*
X193743Y84652D01*
X158661Y74229D02*
X158661Y105498D01*
X143027Y105498D01*
X137815Y100286D01*
X137815Y89863D01*
X143027Y84652D01*
X158661Y84652D01*
X148238Y84652D02*
X137815Y74229D01*
X118368Y105498D02*
X107945Y105498D01*
X118368Y105498D02*
X123579Y100286D01*
X123579Y79440D01*
X118368Y74229D01*
X107945Y74229D01*
X102733Y79440D01*
X102733Y100286D01*
X107945Y105498D01*
D11*
X620075Y710753D02*
X620075Y732597D01*
X591500Y732597D02*
X591500Y710753D01*
X562925Y710753D02*
X562925Y732597D01*
X766125Y732597D02*
X766125Y710753D01*
X737550Y710753D02*
X737550Y732597D01*
X708975Y732597D02*
X708975Y710753D01*
X318450Y710753D02*
X318450Y732597D01*
X289875Y732597D02*
X289875Y710753D01*
X261300Y710753D02*
X261300Y732597D01*
X464500Y732597D02*
X464500Y710753D01*
X435925Y710753D02*
X435925Y732597D01*
X407350Y732597D02*
X407350Y710753D01*
X1220150Y710753D02*
X1220150Y732597D01*
X1191575Y732597D02*
X1191575Y710753D01*
X1163000Y710753D02*
X1163000Y732597D01*
X1366200Y732597D02*
X1366200Y710753D01*
X1337625Y710753D02*
X1337625Y732597D01*
X1309050Y732597D02*
X1309050Y710753D01*
X921700Y710753D02*
X921700Y732597D01*
X893125Y732597D02*
X893125Y710753D01*
X864550Y710753D02*
X864550Y732597D01*
X1067750Y732597D02*
X1067750Y710753D01*
X1039175Y710753D02*
X1039175Y732597D01*
X1010600Y732597D02*
X1010600Y710753D01*
D12*
X620075Y572450D03*
X620075Y674050D03*
X766125Y572450D03*
X766125Y674050D03*
X318450Y572450D03*
X318450Y674050D03*
X464500Y572450D03*
X464500Y674050D03*
X1067750Y674050D03*
X1067750Y572450D03*
X921700Y674050D03*
X921700Y572450D03*
X1366200Y674050D03*
X1366200Y572450D03*
X1220150Y674050D03*
X1220150Y572450D03*
X562925Y572450D03*
X562925Y674050D03*
X261300Y572450D03*
X261300Y674050D03*
X864550Y674050D03*
X864550Y572450D03*
X1163000Y674050D03*
X1163000Y572450D03*
D13*
X858200Y140650D03*
X934400Y140650D03*
X985200Y140650D03*
X1036000Y140650D03*
X1036000Y216850D03*
X985200Y216850D03*
X934400Y216850D03*
X858200Y216850D03*
D12*
X820100Y216850D03*
X820100Y140650D03*
D14*
X458150Y226375D03*
D15*
X483550Y226375D03*
X483550Y302575D03*
X458150Y302575D03*
X508950Y226375D03*
X534350Y226375D03*
X508950Y302575D03*
X534350Y302575D03*
D12*
X788350Y204150D03*
X762950Y178750D03*
X788350Y153350D03*
X591500Y229550D03*
X591500Y305750D03*
X381950Y108900D03*
X381950Y185100D03*
X458150Y121600D03*
X458150Y147000D03*
X458150Y172400D03*
X407350Y185100D03*
X407350Y108900D03*
X616900Y229550D03*
X616900Y305750D03*
D16*
X486725Y383093D02*
X486725Y399857D01*
X512125Y399857D02*
X512125Y383093D01*
X537525Y383093D02*
X537525Y399857D01*
X562925Y399857D02*
X562925Y383093D01*
X588325Y383093D02*
X588325Y399857D01*
X613725Y399857D02*
X613725Y383093D01*
X639125Y383093D02*
X639125Y399857D01*
X664525Y399857D02*
X664525Y383093D01*
X689925Y383093D02*
X689925Y399857D01*
X715325Y399857D02*
X715325Y383093D01*
X740725Y383093D02*
X740725Y399857D01*
X766125Y399857D02*
X766125Y383093D01*
X791525Y383093D02*
X791525Y399857D01*
X816925Y399857D02*
X816925Y383093D01*
X842325Y383093D02*
X842325Y399857D01*
X867725Y399857D02*
X867725Y383093D01*
X893125Y383093D02*
X893125Y399857D01*
D17*
X1280425Y105725D03*
X1204275Y105725D03*
D18*
X1413825Y235900D03*
X1147125Y235900D03*
D19*
X1283650Y369250D03*
D20*
X1363025Y369250D03*
X1363025Y318450D03*
X1283650Y318450D03*
D11*
X762950Y307528D02*
X762950Y329372D01*
X791525Y329372D02*
X791525Y307528D01*
X820100Y307528D02*
X820100Y329372D01*
D17*
X905825Y331150D03*
X905825Y280350D03*
X689925Y331150D03*
X689925Y280350D03*
D21*
X842325Y432496D02*
X842325Y445704D01*
X867725Y445704D02*
X867725Y432496D01*
D22*
X102550Y350200D03*
X102550Y248600D03*
D12*
X1163000Y350200D03*
X1239200Y350200D03*
X1239200Y318450D03*
X1163000Y318450D03*
X1048700Y280350D03*
X1048700Y305750D03*
X1048700Y331150D03*
D15*
X982025Y293050D03*
X982025Y318450D03*
D12*
X1048700Y375600D03*
X972500Y375600D03*
X1118550Y429575D03*
X1093150Y404175D03*
X1118550Y378775D03*
X566100Y229550D03*
X566100Y305750D03*
D23*
X540700Y156525D03*
X540700Y131125D03*
D24*
X270825Y366075D03*
X194625Y366075D03*
D25*
X175575Y515300D03*
X175575Y616900D03*
D12*
X423225Y302575D03*
X423225Y226375D03*
D26*
X381950Y289875D03*
X381950Y239075D03*
D27*
X673669Y111313D03*
X718881Y111313D03*
X673669Y176337D03*
X718881Y176337D03*
X639506Y176337D03*
X594294Y176337D03*
X639506Y111313D03*
X594294Y111313D03*
D12*
X356550Y185100D03*
X356550Y108900D03*
D28*
X1162873Y429575D02*
X1182177Y429575D01*
X1182177Y404175D02*
X1162873Y404175D01*
D29*
X289875Y721675D02*
X289875Y775650D01*
X432750Y775650D01*
X435925Y775650D01*
X435925Y721675D01*
X435925Y772475D01*
X432750Y775650D01*
X435925Y775650D02*
X512125Y775650D01*
X512125Y762950D01*
X512125Y642300D01*
X559750Y642300D01*
X705800Y642300D01*
X705800Y718500D01*
X708975Y721675D01*
X562925Y721675D02*
X562925Y674050D01*
X562925Y645475D01*
X559750Y642300D01*
D30*
X559750Y648650D01*
X534350Y674050D01*
D12*
X534350Y674050D03*
X534350Y572450D03*
D30*
X534350Y559750D01*
X588325Y505775D01*
X588325Y391475D01*
D31*
X512125Y762950D03*
D29*
X1163000Y721675D02*
X1163000Y674050D01*
X1163000Y645475D01*
X1166175Y642300D01*
X1309050Y642300D01*
X1309050Y721675D01*
D30*
X689925Y508950D02*
X689925Y391475D01*
X689925Y508950D02*
X705800Y524825D01*
X813750Y524825D01*
X835975Y547050D01*
X1077275Y547050D01*
X1099500Y569275D01*
X1099500Y610550D01*
X1163000Y674050D01*
D31*
X1115375Y762950D03*
D32*
X194625Y366075D02*
X45400Y375600D01*
X45400Y210500D01*
X67625Y188275D01*
X115250Y188275D01*
X147000Y156525D01*
X820100Y140650D02*
X858200Y140650D01*
X934400Y140650D02*
X934400Y216850D01*
X934400Y140650D02*
X858200Y140650D01*
D30*
X820100Y140650D02*
X820100Y102550D01*
X401000Y61275D02*
X381950Y80325D01*
X401000Y61275D02*
X778825Y61275D01*
X820100Y102550D01*
D32*
X381950Y156525D02*
X147000Y156525D01*
X381950Y156525D02*
X394650Y156525D01*
X407350Y169225D01*
X407350Y185100D01*
X381950Y156525D02*
X381950Y108900D01*
D30*
X381950Y80325D01*
D32*
X1172525Y429575D02*
X1172525Y505775D01*
X1337625Y651825D02*
X1337625Y721675D01*
X1337625Y651825D02*
X1366200Y623250D01*
X1382075Y623250D01*
X1404300Y601025D01*
X1404300Y543875D01*
X1388425Y528000D01*
X1194750Y528000D01*
X1172525Y505775D01*
D16*
X620075Y674050D02*
X620075Y721675D01*
X766125Y721675D02*
X766125Y674050D01*
X318450Y674050D02*
X318450Y721675D01*
X464500Y721675D02*
X464500Y674050D01*
X1067750Y674050D02*
X1067750Y721675D01*
X921700Y721675D02*
X921700Y674050D01*
X1366200Y674050D02*
X1366200Y721675D01*
X1220150Y721675D02*
X1220150Y674050D01*
D32*
X613725Y572450D02*
X562925Y572450D01*
X613725Y572450D02*
X620075Y572450D01*
X766125Y572450D01*
D30*
X613725Y572450D02*
X613725Y391475D01*
D32*
X318450Y572450D02*
X261300Y572450D01*
X318450Y572450D02*
X464500Y572450D01*
D30*
X537525Y518475D02*
X537525Y391475D01*
X537525Y518475D02*
X483550Y572450D01*
X464500Y572450D01*
D32*
X864550Y572450D02*
X921700Y572450D01*
X1067750Y572450D01*
D30*
X664525Y521650D02*
X664525Y391475D01*
X664525Y521650D02*
X693100Y550225D01*
X801050Y550225D01*
X823275Y572450D01*
X864550Y572450D01*
D32*
X1163000Y572450D02*
X1220150Y572450D01*
X1366200Y572450D01*
D30*
X715325Y493075D02*
X715325Y391475D01*
X715325Y493075D02*
X724850Y502600D01*
X826450Y502600D01*
X845500Y521650D01*
X1083625Y521650D01*
X1134425Y572450D01*
X1163000Y572450D01*
D33*
X286700Y226375D03*
D32*
X791525Y391475D02*
X791525Y413700D01*
X778825Y426400D01*
X753425Y426400D01*
X740725Y413700D01*
X740725Y391475D01*
D30*
X1080450Y318450D02*
X1089975Y327975D01*
X1140775Y327975D01*
X1150300Y318450D01*
X1163000Y318450D01*
X1089975Y327975D02*
X1089975Y293050D01*
X1093150Y289875D01*
X1172525Y289875D01*
X1201100Y318450D01*
X1201100Y362900D01*
X1185225Y378775D02*
X1118550Y378775D01*
X1185225Y378775D02*
X1201100Y362900D01*
D32*
X591500Y305750D02*
X566100Y305750D01*
X458150Y261300D02*
X458150Y226375D01*
X458150Y261300D02*
X474025Y277175D01*
X550225Y277175D01*
X566100Y293050D01*
X566100Y305750D01*
X591500Y229550D02*
X597850Y229550D01*
X616900Y229550D01*
X594294Y225994D02*
X594294Y176337D01*
X594294Y225994D02*
X597850Y229550D01*
X728025Y143825D02*
X762950Y178750D01*
X728025Y143825D02*
X594675Y143825D01*
X594675Y175956D01*
X594294Y176337D01*
X594675Y143825D02*
X594675Y111694D01*
X594294Y111313D01*
X820100Y216850D02*
X858200Y216850D01*
X820100Y216850D02*
X801050Y216850D01*
X788350Y204150D01*
X718881Y191831D02*
X718881Y176337D01*
X718881Y191831D02*
X731200Y204150D01*
X788350Y204150D01*
X483550Y213675D02*
X483550Y226375D01*
X483550Y213675D02*
X474025Y204150D01*
X445450Y204150D01*
X423225Y226375D01*
X381950Y226375D02*
X381950Y185100D01*
X381950Y226375D02*
X381950Y239075D01*
X381950Y226375D02*
X423225Y226375D01*
D30*
X407350Y137475D02*
X407350Y108900D01*
X407350Y137475D02*
X442275Y172400D01*
X458150Y172400D01*
X508950Y210500D02*
X508950Y226375D01*
X508950Y210500D02*
X483550Y185100D01*
X483550Y162875D01*
X467675Y147000D01*
X458150Y147000D01*
D34*
X20000Y889950D02*
X1451925Y889950D01*
X1451925Y20000D01*
X20000Y20000D01*
X20000Y889950D01*
D35*
X1280425Y166000D02*
X1280425Y105725D01*
X1280425Y166000D02*
X1350325Y235900D01*
X1407475Y235900D01*
D32*
X1413825Y235900D01*
X1413825Y347025D01*
X1391600Y369250D01*
X1363025Y369250D01*
D35*
X1204275Y178750D02*
X1204275Y105725D01*
X1204275Y178750D02*
X1170938Y212088D01*
X1147125Y235900D01*
D32*
X1270950Y242250D02*
X1347150Y318450D01*
X1363025Y318450D01*
X1270950Y242250D02*
X1201100Y242250D01*
X1170938Y212088D01*
D36*
X766125Y331150D02*
X766125Y391475D01*
X766125Y331150D02*
X766125Y321625D01*
X762950Y318450D01*
X766125Y331150D02*
X689925Y331150D01*
D30*
X934400Y302575D02*
X982025Y254950D01*
X934400Y302575D02*
X858200Y302575D01*
X832800Y277175D01*
X778825Y277175D01*
X762950Y293050D01*
X762950Y318450D01*
X982025Y254950D02*
X1023300Y254950D01*
X1036000Y242250D01*
X1036000Y216850D01*
D36*
X816925Y331150D02*
X816925Y391475D01*
X816925Y331150D02*
X816925Y321625D01*
X820100Y318450D01*
X816925Y331150D02*
X905825Y331150D01*
D32*
X816925Y391475D02*
X816925Y413700D01*
X842325Y439100D01*
X867725Y439100D02*
X867725Y391475D01*
D33*
X181925Y226375D03*
D32*
X1239200Y350200D02*
X1283650Y369250D01*
X1163000Y350200D02*
X1067750Y350200D01*
X1048700Y331150D01*
D30*
X842325Y369250D02*
X842325Y391475D01*
X842325Y369250D02*
X855025Y356550D01*
X959800Y356550D01*
X982025Y334325D01*
X982025Y318450D01*
X1020125Y305750D02*
X1048700Y305750D01*
X1020125Y305750D02*
X1007425Y318450D01*
X982025Y318450D01*
D29*
X261300Y674050D02*
X261300Y721675D01*
X226375Y616900D02*
X175575Y616900D01*
X226375Y616900D02*
X261300Y616900D01*
X410525Y616900D01*
X864550Y616900D01*
X864550Y674050D01*
X864550Y721675D01*
X864550Y616900D02*
X1010600Y616900D01*
X1010600Y721675D01*
X261300Y674050D02*
X261300Y616900D01*
X407350Y620075D02*
X407350Y721675D01*
X407350Y620075D02*
X410525Y616900D01*
D30*
X486725Y518475D02*
X486725Y391475D01*
X486725Y518475D02*
X458150Y547050D01*
X242250Y547050D01*
X226375Y562925D01*
X226375Y616900D01*
D32*
X893125Y391475D02*
X956625Y391475D01*
X972500Y375600D01*
D30*
X1048700Y375600D02*
X1080450Y375600D01*
X1093150Y388300D01*
X1093150Y404175D01*
D32*
X566100Y229550D02*
X566100Y181925D01*
X540700Y156525D01*
X1239200Y318450D02*
X1283650Y318450D01*
D31*
X61275Y848675D03*
X1394775Y848675D03*
X61275Y73975D03*
X1394775Y73975D03*
D32*
X356550Y185100D02*
X356550Y248600D01*
X372425Y264475D01*
X429575Y264475D01*
X458150Y293050D01*
X458150Y302575D01*
D30*
X848675Y102550D02*
X1016950Y102550D01*
X1036000Y121600D01*
X1036000Y140650D01*
X791525Y45400D02*
X388300Y45400D01*
X791525Y45400D02*
X848675Y102550D01*
X388300Y45400D02*
X356550Y77150D01*
X356550Y108900D01*
D32*
X1143950Y404175D02*
X1172525Y404175D01*
X1143950Y404175D02*
X1118550Y429575D01*
M02*
