G04 EAGLE Gerber RS-274X export*
G75*
%MOMM*%
%FSLAX34Y34*%
%LPD*%
%INBottom Copper*%
%IPPOS*%
%AMOC8*
5,1,8,0,0,1.08239X$1,22.5*%
G01*
%ADD10C,0.685800*%
%ADD11C,2.184400*%
%ADD12C,1.930400*%
%ADD13P,2.364373X8X112.500000*%
%ADD14P,1.814519X8X112.500000*%
%ADD15C,1.676400*%
%ADD16C,1.676400*%
%ADD17C,3.000000*%
%ADD18C,3.500000*%
%ADD19R,2.540000X2.540000*%
%ADD20C,2.540000*%
%ADD21C,1.320800*%
%ADD22C,5.000000*%
%ADD23C,2.000000*%
%ADD24C,3.810000*%
%ADD25R,3.810000X3.810000*%
%ADD26C,2.032000*%
%ADD27R,2.184400X2.184400*%
%ADD28C,1.930400*%
%ADD29C,0.254000*%
%ADD30C,1.016000*%
%ADD31C,5.080000*%
%ADD32C,1.270000*%
%ADD33C,6.451600*%
%ADD34C,0.812800*%
%ADD35C,5.080000*%
%ADD36C,1.422400*%

G36*
X1012943Y87646D02*
X1012943Y87646D01*
X1013062Y87653D01*
X1013100Y87666D01*
X1013141Y87671D01*
X1013251Y87714D01*
X1013364Y87751D01*
X1013399Y87773D01*
X1013436Y87788D01*
X1013532Y87858D01*
X1013633Y87921D01*
X1013661Y87951D01*
X1013694Y87974D01*
X1013770Y88066D01*
X1013851Y88153D01*
X1013871Y88188D01*
X1013896Y88219D01*
X1013947Y88327D01*
X1014005Y88431D01*
X1014015Y88471D01*
X1014032Y88507D01*
X1014054Y88624D01*
X1014084Y88739D01*
X1014088Y88800D01*
X1014092Y88820D01*
X1014090Y88840D01*
X1014094Y88900D01*
X1014094Y372745D01*
X1014079Y372863D01*
X1014072Y372982D01*
X1014059Y373020D01*
X1014054Y373061D01*
X1014011Y373171D01*
X1013974Y373284D01*
X1013952Y373319D01*
X1013937Y373356D01*
X1013868Y373452D01*
X1013804Y373553D01*
X1013774Y373581D01*
X1013751Y373614D01*
X1013659Y373690D01*
X1013572Y373771D01*
X1013537Y373791D01*
X1013506Y373816D01*
X1013398Y373867D01*
X1013294Y373925D01*
X1013254Y373935D01*
X1013218Y373952D01*
X1013101Y373974D01*
X1012986Y374004D01*
X1012926Y374008D01*
X1012906Y374012D01*
X1012885Y374010D01*
X1012825Y374014D01*
X988440Y374014D01*
X988342Y374002D01*
X988242Y373999D01*
X988184Y373982D01*
X988124Y373974D01*
X988032Y373938D01*
X987937Y373910D01*
X987885Y373880D01*
X987828Y373857D01*
X987748Y373799D01*
X987663Y373749D01*
X987588Y373683D01*
X987571Y373671D01*
X987563Y373661D01*
X987542Y373643D01*
X982209Y368310D01*
X982149Y368232D01*
X982081Y368159D01*
X982052Y368106D01*
X982015Y368059D01*
X981975Y367968D01*
X981927Y367881D01*
X981912Y367822D01*
X981888Y367767D01*
X981873Y367669D01*
X981848Y367573D01*
X981847Y367556D01*
X978821Y360252D01*
X978242Y359673D01*
X978169Y359579D01*
X978090Y359489D01*
X978072Y359453D01*
X978047Y359421D01*
X978000Y359312D01*
X977946Y359206D01*
X977937Y359167D01*
X977921Y359129D01*
X977902Y359012D01*
X977876Y358896D01*
X977877Y358855D01*
X977871Y358815D01*
X977882Y358697D01*
X977886Y358578D01*
X977897Y358539D01*
X977901Y358499D01*
X977941Y358387D01*
X977974Y358272D01*
X977995Y358237D01*
X978008Y358199D01*
X978075Y358101D01*
X978136Y357998D01*
X978175Y357953D01*
X978187Y357936D01*
X978202Y357923D01*
X978242Y357878D01*
X978821Y357298D01*
X981838Y350016D01*
X981838Y342134D01*
X978821Y334852D01*
X973248Y329279D01*
X965966Y326262D01*
X958084Y326262D01*
X950802Y329279D01*
X949618Y330463D01*
X949540Y330523D01*
X949468Y330591D01*
X949415Y330620D01*
X949367Y330657D01*
X949276Y330697D01*
X949189Y330745D01*
X949131Y330760D01*
X949075Y330784D01*
X948977Y330799D01*
X948881Y330824D01*
X948781Y330830D01*
X948761Y330834D01*
X948749Y330832D01*
X948721Y330834D01*
X930418Y330834D01*
X924817Y333155D01*
X914809Y343163D01*
X914731Y343223D01*
X914658Y343291D01*
X914605Y343320D01*
X914558Y343357D01*
X914467Y343397D01*
X914380Y343445D01*
X914321Y343460D01*
X914266Y343484D01*
X914168Y343499D01*
X914072Y343524D01*
X913972Y343530D01*
X913952Y343534D01*
X913939Y343532D01*
X913911Y343534D01*
X906858Y343534D01*
X906760Y343522D01*
X906661Y343519D01*
X906603Y343502D01*
X906543Y343494D01*
X906451Y343458D01*
X906356Y343430D01*
X906303Y343400D01*
X906247Y343377D01*
X906167Y343319D01*
X906082Y343269D01*
X906007Y343203D01*
X905990Y343191D01*
X905982Y343181D01*
X905961Y343162D01*
X905854Y343055D01*
X899038Y340232D01*
X891662Y340232D01*
X884846Y343055D01*
X879630Y348271D01*
X876807Y355087D01*
X876807Y362463D01*
X879170Y368168D01*
X879178Y368196D01*
X879191Y368223D01*
X879220Y368350D01*
X879254Y368475D01*
X879255Y368504D01*
X879261Y368533D01*
X879257Y368663D01*
X879259Y368793D01*
X879252Y368821D01*
X879251Y368851D01*
X879215Y368976D01*
X879185Y369102D01*
X879171Y369128D01*
X879163Y369156D01*
X879097Y369268D01*
X879036Y369383D01*
X879017Y369405D01*
X879001Y369430D01*
X878895Y369551D01*
X867184Y381263D01*
X867106Y381323D01*
X867033Y381391D01*
X866980Y381420D01*
X866933Y381457D01*
X866842Y381497D01*
X866755Y381545D01*
X866696Y381560D01*
X866641Y381584D01*
X866543Y381599D01*
X866447Y381624D01*
X866347Y381630D01*
X866327Y381634D01*
X866314Y381632D01*
X866286Y381634D01*
X844130Y381634D01*
X844006Y381619D01*
X843880Y381609D01*
X843848Y381599D01*
X843815Y381594D01*
X843698Y381548D01*
X843579Y381508D01*
X843550Y381490D01*
X843519Y381477D01*
X843417Y381404D01*
X843312Y381335D01*
X843289Y381310D01*
X843262Y381291D01*
X843182Y381194D01*
X843096Y381101D01*
X843080Y381072D01*
X843059Y381046D01*
X843005Y380932D01*
X842946Y380821D01*
X842938Y380788D01*
X842923Y380758D01*
X842900Y380635D01*
X842870Y380512D01*
X842870Y380479D01*
X842864Y380446D01*
X842871Y380320D01*
X842873Y380194D01*
X842882Y380146D01*
X842883Y380128D01*
X842890Y380108D01*
X842904Y380037D01*
X844311Y374787D01*
X844311Y368163D01*
X842596Y361763D01*
X841604Y360045D01*
X841552Y359922D01*
X841496Y359803D01*
X841491Y359776D01*
X841481Y359751D01*
X841461Y359620D01*
X841436Y359490D01*
X841438Y359464D01*
X841434Y359437D01*
X841448Y359305D01*
X841456Y359173D01*
X841464Y359147D01*
X841467Y359121D01*
X841513Y358996D01*
X841554Y358871D01*
X841569Y358848D01*
X841578Y358822D01*
X841653Y358714D01*
X841724Y358602D01*
X841744Y358583D01*
X841759Y358561D01*
X841859Y358475D01*
X841956Y358384D01*
X841979Y358371D01*
X842000Y358353D01*
X842119Y358294D01*
X842234Y358230D01*
X842260Y358224D01*
X842285Y358212D01*
X842414Y358184D01*
X842542Y358151D01*
X842580Y358149D01*
X842596Y358145D01*
X842618Y358146D01*
X842703Y358141D01*
X850757Y358141D01*
X856358Y355820D01*
X901291Y310887D01*
X901369Y310827D01*
X901442Y310759D01*
X901495Y310730D01*
X901542Y310693D01*
X901633Y310653D01*
X901720Y310605D01*
X901779Y310590D01*
X901834Y310566D01*
X901932Y310551D01*
X902028Y310526D01*
X902128Y310520D01*
X902148Y310516D01*
X902161Y310518D01*
X902189Y310516D01*
X939657Y310516D01*
X945258Y308195D01*
X962245Y291208D01*
X964566Y285607D01*
X964566Y272275D01*
X964578Y272177D01*
X964581Y272078D01*
X964598Y272020D01*
X964606Y271960D01*
X964642Y271868D01*
X964670Y271773D01*
X964700Y271721D01*
X964723Y271664D01*
X964781Y271584D01*
X964831Y271499D01*
X964897Y271423D01*
X964909Y271407D01*
X964919Y271399D01*
X964937Y271378D01*
X970408Y265908D01*
X970408Y248442D01*
X958058Y236092D01*
X940592Y236092D01*
X928242Y248442D01*
X928242Y265908D01*
X933713Y271378D01*
X933773Y271456D01*
X933841Y271528D01*
X933870Y271581D01*
X933907Y271629D01*
X933947Y271720D01*
X933995Y271807D01*
X934010Y271865D01*
X934034Y271921D01*
X934049Y272019D01*
X934074Y272115D01*
X934080Y272215D01*
X934084Y272235D01*
X934082Y272247D01*
X934084Y272275D01*
X934084Y275736D01*
X934072Y275835D01*
X934069Y275934D01*
X934052Y275992D01*
X934044Y276052D01*
X934008Y276144D01*
X933980Y276239D01*
X933950Y276291D01*
X933927Y276348D01*
X933869Y276428D01*
X933819Y276513D01*
X933753Y276588D01*
X933741Y276605D01*
X933731Y276613D01*
X933713Y276634D01*
X930684Y279663D01*
X930606Y279723D01*
X930533Y279791D01*
X930480Y279820D01*
X930433Y279857D01*
X930342Y279897D01*
X930255Y279945D01*
X930196Y279960D01*
X930141Y279984D01*
X930043Y279999D01*
X929947Y280024D01*
X929847Y280030D01*
X929827Y280034D01*
X929814Y280032D01*
X929786Y280034D01*
X908545Y280034D01*
X908408Y280017D01*
X908269Y280004D01*
X908250Y279997D01*
X908230Y279994D01*
X908101Y279943D01*
X907970Y279896D01*
X907953Y279885D01*
X907934Y279877D01*
X907822Y279796D01*
X907707Y279718D01*
X907693Y279702D01*
X907677Y279691D01*
X907588Y279583D01*
X907496Y279479D01*
X907487Y279461D01*
X907474Y279446D01*
X907415Y279320D01*
X907352Y279196D01*
X907347Y279176D01*
X907339Y279158D01*
X907312Y279022D01*
X907282Y278886D01*
X907283Y278865D01*
X907279Y278846D01*
X907287Y278707D01*
X907292Y278568D01*
X907297Y278548D01*
X907298Y278528D01*
X907341Y278396D01*
X907380Y278262D01*
X907390Y278245D01*
X907397Y278226D01*
X907471Y278108D01*
X907542Y277988D01*
X907560Y277967D01*
X907567Y277957D01*
X907582Y277943D01*
X907648Y277868D01*
X919608Y265908D01*
X919608Y248442D01*
X907258Y236092D01*
X889792Y236092D01*
X877442Y248442D01*
X877442Y265908D01*
X889792Y278258D01*
X890226Y278258D01*
X890296Y278266D01*
X890365Y278265D01*
X890453Y278286D01*
X890542Y278298D01*
X890607Y278323D01*
X890675Y278340D01*
X890754Y278382D01*
X890838Y278415D01*
X890894Y278456D01*
X890956Y278488D01*
X891022Y278549D01*
X891095Y278601D01*
X891140Y278655D01*
X891191Y278702D01*
X891241Y278777D01*
X891298Y278846D01*
X891328Y278910D01*
X891366Y278968D01*
X891395Y279053D01*
X891433Y279134D01*
X891446Y279203D01*
X891469Y279269D01*
X891476Y279358D01*
X891493Y279446D01*
X891489Y279516D01*
X891494Y279586D01*
X891479Y279674D01*
X891473Y279764D01*
X891452Y279830D01*
X891440Y279899D01*
X891403Y279981D01*
X891375Y280066D01*
X891338Y280125D01*
X891309Y280189D01*
X891253Y280259D01*
X891205Y280335D01*
X891154Y280383D01*
X891111Y280437D01*
X891039Y280492D01*
X890974Y280553D01*
X890912Y280587D01*
X890857Y280629D01*
X890712Y280700D01*
X886717Y282355D01*
X841784Y327288D01*
X841706Y327348D01*
X841633Y327416D01*
X841580Y327445D01*
X841533Y327482D01*
X841442Y327522D01*
X841355Y327570D01*
X841296Y327585D01*
X841241Y327609D01*
X841143Y327624D01*
X841047Y327649D01*
X840947Y327655D01*
X840927Y327659D01*
X840914Y327657D01*
X840886Y327659D01*
X778364Y327659D01*
X778265Y327647D01*
X778166Y327644D01*
X778108Y327627D01*
X778048Y327619D01*
X777956Y327583D01*
X777861Y327555D01*
X777809Y327525D01*
X777752Y327502D01*
X777672Y327444D01*
X777587Y327394D01*
X777512Y327328D01*
X777495Y327316D01*
X777487Y327306D01*
X777466Y327288D01*
X759224Y309045D01*
X754758Y304580D01*
X749157Y302259D01*
X689118Y302259D01*
X683517Y304580D01*
X667820Y320276D01*
X663355Y324742D01*
X661034Y330343D01*
X661034Y332752D01*
X661022Y332851D01*
X661019Y332950D01*
X661002Y333008D01*
X660994Y333068D01*
X660958Y333160D01*
X660930Y333255D01*
X660900Y333307D01*
X660877Y333364D01*
X660819Y333444D01*
X660769Y333529D01*
X660703Y333605D01*
X660691Y333621D01*
X660681Y333629D01*
X660663Y333650D01*
X658402Y335911D01*
X655192Y343659D01*
X655192Y352933D01*
X655177Y353051D01*
X655170Y353170D01*
X655157Y353208D01*
X655152Y353249D01*
X655109Y353359D01*
X655072Y353472D01*
X655050Y353507D01*
X655035Y353544D01*
X654966Y353640D01*
X654902Y353741D01*
X654872Y353769D01*
X654849Y353802D01*
X654757Y353878D01*
X654670Y353959D01*
X654635Y353979D01*
X654604Y354004D01*
X654496Y354055D01*
X654392Y354113D01*
X654352Y354123D01*
X654316Y354140D01*
X654199Y354162D01*
X654084Y354192D01*
X654024Y354196D01*
X654004Y354200D01*
X653983Y354198D01*
X653923Y354202D01*
X622086Y354202D01*
X621987Y354190D01*
X621888Y354187D01*
X621830Y354170D01*
X621770Y354162D01*
X621678Y354126D01*
X621583Y354098D01*
X621531Y354068D01*
X621474Y354045D01*
X621394Y353987D01*
X621309Y353937D01*
X621234Y353871D01*
X621217Y353859D01*
X621209Y353849D01*
X621188Y353831D01*
X618699Y351341D01*
X612962Y348029D01*
X606562Y346314D01*
X599938Y346314D01*
X593538Y348029D01*
X587801Y351341D01*
X583116Y356026D01*
X579804Y361763D01*
X578089Y368163D01*
X578089Y374787D01*
X579804Y381187D01*
X583116Y386924D01*
X587801Y391609D01*
X593538Y394921D01*
X599938Y396636D01*
X606562Y396636D01*
X612962Y394921D01*
X618699Y391609D01*
X621188Y389119D01*
X621266Y389059D01*
X621339Y388991D01*
X621392Y388962D01*
X621439Y388925D01*
X621530Y388885D01*
X621617Y388837D01*
X621676Y388822D01*
X621731Y388798D01*
X621829Y388783D01*
X621925Y388758D01*
X622025Y388752D01*
X622045Y388748D01*
X622058Y388750D01*
X622086Y388748D01*
X660908Y388748D01*
X661026Y388763D01*
X661145Y388770D01*
X661183Y388783D01*
X661224Y388788D01*
X661334Y388831D01*
X661447Y388868D01*
X661482Y388890D01*
X661519Y388905D01*
X661615Y388974D01*
X661716Y389038D01*
X661744Y389068D01*
X661777Y389091D01*
X661853Y389183D01*
X661934Y389270D01*
X661954Y389305D01*
X661979Y389336D01*
X662030Y389444D01*
X662088Y389548D01*
X662098Y389588D01*
X662115Y389624D01*
X662137Y389741D01*
X662167Y389856D01*
X662171Y389916D01*
X662175Y389936D01*
X662173Y389957D01*
X662177Y390017D01*
X662177Y416411D01*
X662176Y416420D01*
X662177Y416430D01*
X662157Y416574D01*
X662155Y416603D01*
X662152Y416613D01*
X662137Y416727D01*
X662134Y416735D01*
X662133Y416744D01*
X662081Y416897D01*
X660907Y419730D01*
X660907Y431800D01*
X660892Y431918D01*
X660885Y432037D01*
X660872Y432075D01*
X660867Y432116D01*
X660824Y432226D01*
X660787Y432339D01*
X660765Y432374D01*
X660750Y432411D01*
X660681Y432507D01*
X660617Y432608D01*
X660587Y432636D01*
X660564Y432669D01*
X660472Y432745D01*
X660385Y432826D01*
X660350Y432846D01*
X660319Y432871D01*
X660211Y432922D01*
X660107Y432980D01*
X660067Y432990D01*
X660031Y433007D01*
X659914Y433029D01*
X659799Y433059D01*
X659739Y433063D01*
X659719Y433067D01*
X659698Y433065D01*
X659638Y433069D01*
X648462Y433069D01*
X648344Y433054D01*
X648225Y433047D01*
X648187Y433034D01*
X648146Y433029D01*
X648036Y432986D01*
X647923Y432949D01*
X647888Y432927D01*
X647851Y432912D01*
X647755Y432843D01*
X647654Y432779D01*
X647626Y432749D01*
X647593Y432726D01*
X647517Y432634D01*
X647436Y432547D01*
X647416Y432512D01*
X647391Y432481D01*
X647340Y432373D01*
X647282Y432269D01*
X647272Y432229D01*
X647255Y432193D01*
X647233Y432076D01*
X647203Y431961D01*
X647199Y431901D01*
X647195Y431881D01*
X647197Y431860D01*
X647193Y431800D01*
X647193Y419730D01*
X644370Y412914D01*
X639154Y407698D01*
X632338Y404875D01*
X624962Y404875D01*
X618146Y407698D01*
X616847Y408997D01*
X616753Y409070D01*
X616664Y409149D01*
X616628Y409167D01*
X616596Y409192D01*
X616487Y409239D01*
X616381Y409293D01*
X616342Y409302D01*
X616304Y409318D01*
X616187Y409337D01*
X616071Y409363D01*
X616030Y409362D01*
X615990Y409368D01*
X615872Y409357D01*
X615753Y409353D01*
X615714Y409342D01*
X615674Y409338D01*
X615562Y409298D01*
X615447Y409265D01*
X615412Y409245D01*
X615374Y409231D01*
X615276Y409164D01*
X615173Y409103D01*
X615128Y409064D01*
X615111Y409052D01*
X615098Y409037D01*
X615052Y408997D01*
X613754Y407698D01*
X606938Y404875D01*
X599562Y404875D01*
X592746Y407698D01*
X591447Y408997D01*
X591353Y409070D01*
X591264Y409149D01*
X591228Y409167D01*
X591196Y409192D01*
X591087Y409239D01*
X590981Y409293D01*
X590942Y409302D01*
X590904Y409318D01*
X590787Y409337D01*
X590671Y409363D01*
X590630Y409362D01*
X590590Y409368D01*
X590472Y409357D01*
X590353Y409353D01*
X590314Y409342D01*
X590274Y409338D01*
X590162Y409298D01*
X590047Y409265D01*
X590012Y409245D01*
X589974Y409231D01*
X589876Y409164D01*
X589773Y409103D01*
X589728Y409064D01*
X589711Y409052D01*
X589698Y409037D01*
X589652Y408997D01*
X588354Y407698D01*
X581538Y404875D01*
X574162Y404875D01*
X567346Y407698D01*
X562130Y412914D01*
X559307Y419730D01*
X559307Y431800D01*
X559292Y431918D01*
X559285Y432037D01*
X559272Y432075D01*
X559267Y432116D01*
X559224Y432226D01*
X559187Y432339D01*
X559165Y432374D01*
X559150Y432411D01*
X559081Y432507D01*
X559017Y432608D01*
X558987Y432636D01*
X558964Y432669D01*
X558872Y432745D01*
X558785Y432826D01*
X558750Y432846D01*
X558719Y432871D01*
X558611Y432922D01*
X558507Y432980D01*
X558467Y432990D01*
X558431Y433007D01*
X558314Y433029D01*
X558199Y433059D01*
X558139Y433063D01*
X558119Y433067D01*
X558098Y433065D01*
X558038Y433069D01*
X546862Y433069D01*
X546744Y433054D01*
X546625Y433047D01*
X546587Y433034D01*
X546546Y433029D01*
X546436Y432986D01*
X546323Y432949D01*
X546288Y432927D01*
X546251Y432912D01*
X546155Y432843D01*
X546054Y432779D01*
X546026Y432749D01*
X545993Y432726D01*
X545917Y432634D01*
X545836Y432547D01*
X545816Y432512D01*
X545791Y432481D01*
X545740Y432373D01*
X545682Y432269D01*
X545672Y432229D01*
X545655Y432193D01*
X545633Y432076D01*
X545603Y431961D01*
X545599Y431901D01*
X545595Y431881D01*
X545597Y431860D01*
X545593Y431800D01*
X545593Y419730D01*
X542770Y412914D01*
X537554Y407698D01*
X530738Y404875D01*
X523362Y404875D01*
X516546Y407698D01*
X515247Y408997D01*
X515153Y409070D01*
X515064Y409149D01*
X515028Y409167D01*
X514996Y409192D01*
X514887Y409239D01*
X514781Y409293D01*
X514742Y409302D01*
X514704Y409318D01*
X514587Y409337D01*
X514471Y409363D01*
X514430Y409362D01*
X514390Y409368D01*
X514272Y409357D01*
X514153Y409353D01*
X514114Y409342D01*
X514074Y409338D01*
X513962Y409298D01*
X513847Y409265D01*
X513812Y409245D01*
X513774Y409231D01*
X513676Y409164D01*
X513573Y409103D01*
X513528Y409064D01*
X513511Y409052D01*
X513498Y409037D01*
X513452Y408997D01*
X512154Y407698D01*
X505338Y404875D01*
X497962Y404875D01*
X491146Y407698D01*
X485930Y412914D01*
X483107Y419730D01*
X483107Y431800D01*
X483092Y431918D01*
X483085Y432037D01*
X483072Y432075D01*
X483067Y432116D01*
X483024Y432226D01*
X482987Y432339D01*
X482965Y432374D01*
X482950Y432411D01*
X482881Y432507D01*
X482817Y432608D01*
X482787Y432636D01*
X482764Y432669D01*
X482672Y432745D01*
X482585Y432826D01*
X482550Y432846D01*
X482519Y432871D01*
X482411Y432922D01*
X482307Y432980D01*
X482267Y432990D01*
X482231Y433007D01*
X482114Y433029D01*
X481999Y433059D01*
X481939Y433063D01*
X481919Y433067D01*
X481898Y433065D01*
X481838Y433069D01*
X470662Y433069D01*
X470544Y433054D01*
X470425Y433047D01*
X470387Y433034D01*
X470346Y433029D01*
X470236Y432986D01*
X470123Y432949D01*
X470088Y432927D01*
X470051Y432912D01*
X469955Y432843D01*
X469854Y432779D01*
X469826Y432749D01*
X469793Y432726D01*
X469717Y432634D01*
X469636Y432547D01*
X469616Y432512D01*
X469591Y432481D01*
X469540Y432373D01*
X469482Y432269D01*
X469472Y432229D01*
X469455Y432193D01*
X469433Y432076D01*
X469403Y431961D01*
X469399Y431901D01*
X469395Y431881D01*
X469397Y431860D01*
X469393Y431800D01*
X469393Y419730D01*
X466570Y412914D01*
X461354Y407698D01*
X454538Y404875D01*
X447162Y404875D01*
X440346Y407698D01*
X435130Y412914D01*
X432307Y419730D01*
X432307Y431800D01*
X432292Y431918D01*
X432285Y432037D01*
X432272Y432075D01*
X432267Y432116D01*
X432224Y432226D01*
X432187Y432339D01*
X432165Y432374D01*
X432150Y432411D01*
X432081Y432507D01*
X432017Y432608D01*
X431987Y432636D01*
X431964Y432669D01*
X431872Y432745D01*
X431785Y432826D01*
X431750Y432846D01*
X431719Y432871D01*
X431611Y432922D01*
X431507Y432980D01*
X431467Y432990D01*
X431431Y433007D01*
X431314Y433029D01*
X431199Y433059D01*
X431139Y433063D01*
X431119Y433067D01*
X431098Y433065D01*
X431038Y433069D01*
X419862Y433069D01*
X419744Y433054D01*
X419625Y433047D01*
X419587Y433034D01*
X419546Y433029D01*
X419436Y432986D01*
X419323Y432949D01*
X419288Y432927D01*
X419251Y432912D01*
X419155Y432843D01*
X419054Y432779D01*
X419026Y432749D01*
X418993Y432726D01*
X418917Y432634D01*
X418836Y432547D01*
X418816Y432512D01*
X418791Y432481D01*
X418740Y432373D01*
X418682Y432269D01*
X418672Y432229D01*
X418655Y432193D01*
X418633Y432076D01*
X418603Y431961D01*
X418599Y431901D01*
X418595Y431881D01*
X418597Y431860D01*
X418593Y431800D01*
X418593Y419730D01*
X415770Y412914D01*
X410554Y407698D01*
X403738Y404875D01*
X396362Y404875D01*
X389546Y407698D01*
X384330Y412914D01*
X381507Y419730D01*
X381507Y443870D01*
X382173Y445477D01*
X382175Y445486D01*
X382180Y445494D01*
X382217Y445638D01*
X382257Y445783D01*
X382257Y445793D01*
X382259Y445802D01*
X382269Y445962D01*
X382269Y546100D01*
X382257Y546198D01*
X382254Y546297D01*
X382237Y546355D01*
X382229Y546416D01*
X382193Y546508D01*
X382165Y546603D01*
X382135Y546655D01*
X382112Y546711D01*
X382054Y546791D01*
X382004Y546877D01*
X381938Y546952D01*
X381926Y546969D01*
X381916Y546976D01*
X381898Y546998D01*
X362848Y566048D01*
X362769Y566108D01*
X362697Y566176D01*
X362644Y566205D01*
X362596Y566242D01*
X362505Y566282D01*
X362419Y566330D01*
X362360Y566345D01*
X362304Y566369D01*
X362206Y566384D01*
X362111Y566409D01*
X362011Y566415D01*
X361990Y566419D01*
X361978Y566417D01*
X361950Y566419D01*
X149751Y566419D01*
X131073Y585098D01*
X130994Y585158D01*
X130922Y585226D01*
X130869Y585255D01*
X130821Y585292D01*
X130730Y585332D01*
X130644Y585380D01*
X130585Y585395D01*
X130529Y585419D01*
X130431Y585434D01*
X130336Y585459D01*
X130236Y585465D01*
X130215Y585469D01*
X130203Y585467D01*
X130175Y585469D01*
X69850Y585469D01*
X69732Y585454D01*
X69613Y585447D01*
X69575Y585434D01*
X69534Y585429D01*
X69424Y585386D01*
X69311Y585349D01*
X69276Y585327D01*
X69239Y585312D01*
X69143Y585243D01*
X69042Y585179D01*
X69014Y585149D01*
X68981Y585126D01*
X68906Y585034D01*
X68824Y584947D01*
X68804Y584912D01*
X68779Y584881D01*
X68728Y584773D01*
X68670Y584669D01*
X68660Y584629D01*
X68643Y584593D01*
X68621Y584476D01*
X68591Y584361D01*
X68587Y584301D01*
X68583Y584281D01*
X68585Y584260D01*
X68581Y584200D01*
X68581Y530225D01*
X68593Y530127D01*
X68596Y530028D01*
X68613Y529970D01*
X68621Y529909D01*
X68657Y529817D01*
X68685Y529722D01*
X68715Y529670D01*
X68738Y529614D01*
X68796Y529534D01*
X68846Y529448D01*
X68912Y529373D01*
X68924Y529356D01*
X68934Y529349D01*
X68953Y529328D01*
X78478Y519803D01*
X78556Y519742D01*
X78628Y519674D01*
X78681Y519645D01*
X78729Y519608D01*
X78820Y519568D01*
X78906Y519520D01*
X78965Y519505D01*
X79021Y519481D01*
X79119Y519466D01*
X79214Y519441D01*
X79314Y519435D01*
X79335Y519431D01*
X79347Y519433D01*
X79375Y519431D01*
X107424Y519431D01*
X151131Y475724D01*
X151131Y214630D01*
X151146Y214512D01*
X151153Y214393D01*
X151166Y214355D01*
X151171Y214314D01*
X151214Y214204D01*
X151251Y214091D01*
X151273Y214056D01*
X151288Y214019D01*
X151358Y213923D01*
X151421Y213822D01*
X151451Y213794D01*
X151474Y213761D01*
X151566Y213685D01*
X151653Y213604D01*
X151688Y213584D01*
X151719Y213559D01*
X151827Y213508D01*
X151931Y213450D01*
X151971Y213440D01*
X152007Y213423D01*
X152124Y213401D01*
X152239Y213371D01*
X152300Y213367D01*
X152320Y213363D01*
X152340Y213365D01*
X152400Y213361D01*
X251527Y213361D01*
X251577Y213367D01*
X251626Y213365D01*
X251734Y213387D01*
X251843Y213401D01*
X251889Y213419D01*
X251938Y213429D01*
X252037Y213477D01*
X252139Y213518D01*
X252179Y213547D01*
X252224Y213569D01*
X252307Y213640D01*
X252396Y213704D01*
X252428Y213743D01*
X252466Y213775D01*
X252529Y213865D01*
X252599Y213949D01*
X252620Y213994D01*
X252649Y214035D01*
X252688Y214138D01*
X252734Y214237D01*
X252744Y214286D01*
X252761Y214332D01*
X252774Y214442D01*
X252794Y214549D01*
X252791Y214599D01*
X252797Y214648D01*
X252781Y214757D01*
X252774Y214867D01*
X252759Y214914D01*
X252752Y214963D01*
X252700Y215116D01*
X250062Y221484D01*
X250062Y229366D01*
X253093Y236682D01*
X253121Y236712D01*
X253150Y236765D01*
X253187Y236813D01*
X253227Y236904D01*
X253275Y236991D01*
X253290Y237049D01*
X253314Y237105D01*
X253329Y237203D01*
X253354Y237299D01*
X253360Y237399D01*
X253364Y237419D01*
X253362Y237431D01*
X253364Y237459D01*
X253364Y292209D01*
X255878Y298278D01*
X276397Y318797D01*
X282466Y321311D01*
X335535Y321311D01*
X335633Y321323D01*
X335733Y321326D01*
X335791Y321343D01*
X335851Y321351D01*
X335943Y321387D01*
X336038Y321415D01*
X336090Y321445D01*
X336147Y321468D01*
X336227Y321526D01*
X336312Y321576D01*
X336387Y321642D01*
X336404Y321654D01*
X336412Y321664D01*
X336433Y321682D01*
X352634Y337884D01*
X352652Y337907D01*
X352675Y337926D01*
X352749Y338032D01*
X352829Y338135D01*
X352841Y338162D01*
X352858Y338186D01*
X352904Y338308D01*
X352955Y338427D01*
X352960Y338456D01*
X352971Y338484D01*
X352985Y338613D01*
X353005Y338741D01*
X353003Y338770D01*
X353006Y338800D01*
X352988Y338928D01*
X352975Y339058D01*
X352965Y339085D01*
X352961Y339115D01*
X352932Y339200D01*
X352932Y346588D01*
X355755Y353404D01*
X360971Y358620D01*
X367787Y361443D01*
X375163Y361443D01*
X381979Y358620D01*
X383278Y357321D01*
X383372Y357248D01*
X383461Y357169D01*
X383497Y357151D01*
X383529Y357126D01*
X383638Y357079D01*
X383744Y357025D01*
X383783Y357016D01*
X383821Y357000D01*
X383938Y356981D01*
X384054Y356955D01*
X384095Y356956D01*
X384135Y356950D01*
X384253Y356961D01*
X384372Y356965D01*
X384411Y356976D01*
X384451Y356980D01*
X384563Y357020D01*
X384678Y357053D01*
X384713Y357073D01*
X384751Y357087D01*
X384849Y357154D01*
X384952Y357215D01*
X384997Y357254D01*
X385014Y357266D01*
X385027Y357281D01*
X385073Y357321D01*
X386371Y358620D01*
X393187Y361443D01*
X400563Y361443D01*
X407379Y358620D01*
X408677Y357321D01*
X408772Y357248D01*
X408861Y357169D01*
X408897Y357151D01*
X408929Y357126D01*
X409038Y357079D01*
X409144Y357025D01*
X409183Y357016D01*
X409221Y357000D01*
X409338Y356981D01*
X409454Y356955D01*
X409495Y356956D01*
X409535Y356950D01*
X409653Y356961D01*
X409772Y356965D01*
X409811Y356976D01*
X409851Y356980D01*
X409964Y357020D01*
X410078Y357053D01*
X410112Y357073D01*
X410151Y357087D01*
X410249Y357154D01*
X410352Y357214D01*
X410397Y357254D01*
X410414Y357266D01*
X410427Y357281D01*
X410472Y357321D01*
X411771Y358620D01*
X418587Y361443D01*
X425963Y361443D01*
X432779Y358620D01*
X434077Y357321D01*
X434172Y357248D01*
X434261Y357169D01*
X434297Y357151D01*
X434329Y357126D01*
X434438Y357079D01*
X434544Y357025D01*
X434583Y357016D01*
X434621Y357000D01*
X434738Y356981D01*
X434854Y356955D01*
X434895Y356956D01*
X434935Y356950D01*
X435053Y356961D01*
X435172Y356965D01*
X435211Y356976D01*
X435251Y356980D01*
X435364Y357020D01*
X435478Y357053D01*
X435512Y357073D01*
X435551Y357087D01*
X435649Y357154D01*
X435752Y357214D01*
X435797Y357254D01*
X435814Y357266D01*
X435827Y357281D01*
X435872Y357321D01*
X437171Y358620D01*
X443987Y361443D01*
X451363Y361443D01*
X458179Y358620D01*
X460369Y356429D01*
X460408Y356399D01*
X460442Y356362D01*
X460534Y356302D01*
X460620Y356234D01*
X460666Y356215D01*
X460708Y356187D01*
X460811Y356152D01*
X460912Y356108D01*
X460961Y356100D01*
X461008Y356084D01*
X461118Y356075D01*
X461226Y356058D01*
X461276Y356063D01*
X461325Y356059D01*
X461434Y356078D01*
X461543Y356088D01*
X461590Y356105D01*
X461639Y356113D01*
X461739Y356158D01*
X461842Y356196D01*
X461883Y356223D01*
X461929Y356244D01*
X462014Y356312D01*
X462105Y356374D01*
X462138Y356411D01*
X462177Y356442D01*
X462243Y356530D01*
X462316Y356613D01*
X462339Y356657D01*
X462368Y356696D01*
X462439Y356841D01*
X462629Y357298D01*
X468202Y362871D01*
X475484Y365888D01*
X483366Y365888D01*
X490682Y362857D01*
X490712Y362829D01*
X490765Y362800D01*
X490813Y362763D01*
X490904Y362723D01*
X490991Y362675D01*
X491049Y362660D01*
X491105Y362636D01*
X491203Y362621D01*
X491299Y362596D01*
X491399Y362590D01*
X491419Y362586D01*
X491431Y362588D01*
X491459Y362586D01*
X492791Y362586D01*
X492889Y362598D01*
X492988Y362601D01*
X493046Y362618D01*
X493106Y362626D01*
X493198Y362662D01*
X493293Y362690D01*
X493345Y362720D01*
X493402Y362743D01*
X493482Y362801D01*
X493567Y362851D01*
X493580Y362862D01*
X500884Y365888D01*
X508766Y365888D01*
X516048Y362871D01*
X521621Y357298D01*
X524638Y350016D01*
X524638Y342134D01*
X521621Y334852D01*
X516048Y329279D01*
X508766Y326262D01*
X500884Y326262D01*
X496479Y328087D01*
X496365Y328118D01*
X496252Y328157D01*
X496212Y328160D01*
X496173Y328171D01*
X496054Y328173D01*
X495935Y328182D01*
X495895Y328175D01*
X495855Y328176D01*
X495739Y328148D01*
X495622Y328128D01*
X495585Y328111D01*
X495545Y328102D01*
X495440Y328046D01*
X495332Y327997D01*
X495300Y327972D01*
X495264Y327953D01*
X495176Y327873D01*
X495083Y327798D01*
X495059Y327766D01*
X495029Y327739D01*
X494964Y327639D01*
X494892Y327544D01*
X494865Y327490D01*
X494854Y327473D01*
X494848Y327454D01*
X494821Y327400D01*
X493422Y324022D01*
X472903Y303503D01*
X466834Y300989D01*
X394715Y300989D01*
X394617Y300977D01*
X394517Y300974D01*
X394459Y300957D01*
X394399Y300949D01*
X394307Y300913D01*
X394212Y300885D01*
X394160Y300855D01*
X394103Y300832D01*
X394023Y300774D01*
X393938Y300724D01*
X393863Y300658D01*
X393846Y300646D01*
X393838Y300636D01*
X393817Y300618D01*
X388357Y295158D01*
X388297Y295080D01*
X388229Y295007D01*
X388200Y294954D01*
X388163Y294907D01*
X388123Y294816D01*
X388075Y294729D01*
X388060Y294670D01*
X388036Y294615D01*
X388021Y294517D01*
X387996Y294421D01*
X387990Y294321D01*
X387986Y294301D01*
X387988Y294288D01*
X387986Y294260D01*
X387986Y284988D01*
X387992Y284939D01*
X387990Y284889D01*
X388012Y284782D01*
X388026Y284672D01*
X388044Y284626D01*
X388054Y284578D01*
X388102Y284479D01*
X388143Y284377D01*
X388172Y284337D01*
X388194Y284292D01*
X388265Y284208D01*
X388329Y284119D01*
X388368Y284088D01*
X388400Y284050D01*
X388490Y283987D01*
X388574Y283917D01*
X388619Y283895D01*
X388660Y283867D01*
X388763Y283828D01*
X388862Y283781D01*
X388911Y283772D01*
X388957Y283754D01*
X389067Y283742D01*
X389174Y283721D01*
X389224Y283724D01*
X389273Y283719D01*
X389382Y283734D01*
X389492Y283741D01*
X389539Y283756D01*
X389588Y283763D01*
X389741Y283815D01*
X393187Y285243D01*
X400563Y285243D01*
X407379Y282420D01*
X408677Y281121D01*
X408772Y281048D01*
X408861Y280969D01*
X408897Y280951D01*
X408929Y280926D01*
X409038Y280879D01*
X409144Y280825D01*
X409183Y280816D01*
X409221Y280800D01*
X409338Y280781D01*
X409454Y280755D01*
X409495Y280756D01*
X409535Y280750D01*
X409653Y280761D01*
X409772Y280765D01*
X409811Y280776D01*
X409851Y280780D01*
X409964Y280820D01*
X410078Y280853D01*
X410112Y280873D01*
X410151Y280887D01*
X410249Y280954D01*
X410352Y281014D01*
X410397Y281054D01*
X410414Y281066D01*
X410427Y281081D01*
X410472Y281121D01*
X411771Y282420D01*
X418587Y285243D01*
X425963Y285243D01*
X432779Y282420D01*
X437995Y277204D01*
X440818Y270388D01*
X440818Y263012D01*
X437995Y256196D01*
X437887Y256089D01*
X437827Y256011D01*
X437759Y255939D01*
X437730Y255886D01*
X437693Y255838D01*
X437653Y255747D01*
X437605Y255660D01*
X437590Y255602D01*
X437566Y255546D01*
X437551Y255448D01*
X437526Y255352D01*
X437520Y255262D01*
X437518Y255252D01*
X437519Y255246D01*
X437516Y255232D01*
X437518Y255220D01*
X437516Y255192D01*
X437516Y247793D01*
X435195Y242192D01*
X412487Y219484D01*
X412427Y219406D01*
X412359Y219333D01*
X412330Y219280D01*
X412293Y219233D01*
X412253Y219142D01*
X412205Y219055D01*
X412190Y218996D01*
X412166Y218941D01*
X412151Y218843D01*
X412126Y218747D01*
X412120Y218647D01*
X412116Y218627D01*
X412118Y218614D01*
X412116Y218586D01*
X412116Y200168D01*
X409795Y194567D01*
X389633Y174405D01*
X384644Y172338D01*
X384636Y172333D01*
X384627Y172331D01*
X384498Y172255D01*
X384368Y172180D01*
X384361Y172174D01*
X384353Y172169D01*
X384232Y172063D01*
X382698Y170529D01*
X375416Y167512D01*
X367534Y167512D01*
X360252Y170529D01*
X354679Y176102D01*
X351662Y183384D01*
X351662Y184169D01*
X351645Y184307D01*
X351632Y184446D01*
X351625Y184465D01*
X351622Y184485D01*
X351571Y184614D01*
X351524Y184745D01*
X351513Y184762D01*
X351505Y184781D01*
X351424Y184893D01*
X351346Y185008D01*
X351330Y185022D01*
X351319Y185038D01*
X351211Y185127D01*
X351107Y185219D01*
X351089Y185228D01*
X351074Y185241D01*
X350948Y185300D01*
X350824Y185363D01*
X350804Y185368D01*
X350786Y185376D01*
X350650Y185402D01*
X350514Y185433D01*
X350493Y185432D01*
X350474Y185436D01*
X350335Y185427D01*
X350196Y185423D01*
X350176Y185418D01*
X350156Y185416D01*
X350024Y185374D01*
X349890Y185335D01*
X349873Y185325D01*
X349854Y185318D01*
X349736Y185244D01*
X349616Y185173D01*
X349595Y185155D01*
X349585Y185148D01*
X349571Y185133D01*
X349496Y185067D01*
X336287Y171859D01*
X336227Y171781D01*
X336159Y171708D01*
X336130Y171655D01*
X336093Y171608D01*
X336053Y171517D01*
X336005Y171430D01*
X335990Y171371D01*
X335966Y171316D01*
X335951Y171218D01*
X335926Y171122D01*
X335920Y171022D01*
X335916Y171002D01*
X335918Y170989D01*
X335916Y170961D01*
X335916Y162529D01*
X335928Y162431D01*
X335931Y162332D01*
X335948Y162274D01*
X335956Y162214D01*
X335992Y162122D01*
X336020Y162027D01*
X336050Y161974D01*
X336073Y161918D01*
X336131Y161838D01*
X336181Y161753D01*
X336217Y161712D01*
X336219Y161708D01*
X336225Y161703D01*
X336247Y161677D01*
X336259Y161661D01*
X336269Y161653D01*
X336287Y161632D01*
X337471Y160448D01*
X340488Y153166D01*
X340488Y145284D01*
X337471Y138002D01*
X331898Y132429D01*
X324616Y129412D01*
X316734Y129412D01*
X312271Y131261D01*
X312223Y131274D01*
X312178Y131295D01*
X312070Y131316D01*
X311964Y131345D01*
X311914Y131346D01*
X311865Y131355D01*
X311756Y131348D01*
X311646Y131350D01*
X311598Y131338D01*
X311548Y131335D01*
X311444Y131302D01*
X311337Y131276D01*
X311293Y131253D01*
X311246Y131237D01*
X311153Y131179D01*
X311056Y131127D01*
X311019Y131094D01*
X310977Y131067D01*
X310902Y130987D01*
X310820Y130913D01*
X310793Y130872D01*
X310759Y130836D01*
X310706Y130739D01*
X310646Y130648D01*
X310629Y130601D01*
X310605Y130557D01*
X310578Y130451D01*
X310542Y130347D01*
X310538Y130297D01*
X310526Y130249D01*
X310516Y130088D01*
X310516Y127489D01*
X310528Y127390D01*
X310531Y127291D01*
X310548Y127233D01*
X310556Y127173D01*
X310592Y127081D01*
X310620Y126986D01*
X310650Y126934D01*
X310673Y126877D01*
X310731Y126797D01*
X310781Y126712D01*
X310847Y126637D01*
X310859Y126620D01*
X310869Y126612D01*
X310887Y126591D01*
X320266Y117212D01*
X320344Y117152D01*
X320417Y117084D01*
X320470Y117055D01*
X320517Y117018D01*
X320608Y116978D01*
X320695Y116930D01*
X320754Y116915D01*
X320809Y116891D01*
X320907Y116876D01*
X321003Y116851D01*
X321103Y116845D01*
X321123Y116841D01*
X321136Y116843D01*
X321164Y116841D01*
X685311Y116841D01*
X685410Y116853D01*
X685509Y116856D01*
X685567Y116873D01*
X685627Y116881D01*
X685719Y116917D01*
X685814Y116945D01*
X685866Y116975D01*
X685923Y116998D01*
X686003Y117056D01*
X686088Y117106D01*
X686163Y117172D01*
X686180Y117184D01*
X686188Y117194D01*
X686209Y117212D01*
X717813Y148816D01*
X717873Y148894D01*
X717941Y148967D01*
X717970Y149020D01*
X718007Y149067D01*
X718047Y149158D01*
X718095Y149245D01*
X718110Y149304D01*
X718134Y149359D01*
X718149Y149457D01*
X718174Y149553D01*
X718180Y149653D01*
X718184Y149673D01*
X718182Y149686D01*
X718184Y149714D01*
X718184Y167671D01*
X718172Y167769D01*
X718169Y167868D01*
X718152Y167926D01*
X718144Y167986D01*
X718108Y168078D01*
X718080Y168173D01*
X718050Y168226D01*
X718027Y168282D01*
X717969Y168362D01*
X717919Y168447D01*
X717853Y168523D01*
X717841Y168539D01*
X717831Y168547D01*
X717813Y168568D01*
X716629Y169752D01*
X713612Y177034D01*
X713612Y184916D01*
X716629Y192198D01*
X722202Y197771D01*
X729484Y200788D01*
X737366Y200788D01*
X744682Y197757D01*
X744712Y197729D01*
X744765Y197700D01*
X744813Y197663D01*
X744904Y197623D01*
X744991Y197575D01*
X745049Y197560D01*
X745105Y197536D01*
X745203Y197521D01*
X745299Y197496D01*
X745399Y197490D01*
X745419Y197486D01*
X745431Y197488D01*
X745459Y197486D01*
X757695Y197486D01*
X757793Y197498D01*
X757892Y197501D01*
X757950Y197518D01*
X758010Y197526D01*
X758102Y197562D01*
X758197Y197590D01*
X758249Y197620D01*
X758306Y197643D01*
X758386Y197701D01*
X758471Y197751D01*
X758547Y197817D01*
X758563Y197829D01*
X758571Y197839D01*
X758592Y197857D01*
X762792Y202058D01*
X780258Y202058D01*
X784458Y197857D01*
X784536Y197797D01*
X784608Y197729D01*
X784661Y197700D01*
X784709Y197663D01*
X784800Y197623D01*
X784887Y197575D01*
X784945Y197560D01*
X785001Y197536D01*
X785099Y197521D01*
X785195Y197496D01*
X785295Y197490D01*
X785315Y197486D01*
X785327Y197488D01*
X785355Y197486D01*
X829945Y197486D01*
X830063Y197501D01*
X830182Y197508D01*
X830220Y197521D01*
X830261Y197526D01*
X830371Y197569D01*
X830484Y197606D01*
X830519Y197628D01*
X830556Y197643D01*
X830652Y197712D01*
X830753Y197776D01*
X830781Y197806D01*
X830814Y197829D01*
X830890Y197921D01*
X830971Y198008D01*
X830991Y198043D01*
X831016Y198074D01*
X831067Y198182D01*
X831125Y198286D01*
X831135Y198326D01*
X831152Y198362D01*
X831174Y198479D01*
X831204Y198594D01*
X831208Y198654D01*
X831212Y198674D01*
X831210Y198695D01*
X831214Y198755D01*
X831214Y243345D01*
X831202Y243443D01*
X831199Y243542D01*
X831182Y243600D01*
X831174Y243660D01*
X831138Y243752D01*
X831110Y243847D01*
X831080Y243899D01*
X831057Y243956D01*
X830999Y244036D01*
X830949Y244121D01*
X830883Y244197D01*
X830871Y244213D01*
X830861Y244221D01*
X830843Y244242D01*
X826642Y248442D01*
X826642Y265908D01*
X838992Y278258D01*
X856458Y278258D01*
X868808Y265908D01*
X868808Y248442D01*
X864607Y244242D01*
X864547Y244164D01*
X864479Y244092D01*
X864450Y244039D01*
X864413Y243991D01*
X864373Y243900D01*
X864325Y243813D01*
X864310Y243755D01*
X864286Y243699D01*
X864271Y243601D01*
X864246Y243505D01*
X864240Y243405D01*
X864236Y243385D01*
X864238Y243373D01*
X864236Y243345D01*
X864236Y194805D01*
X864248Y194707D01*
X864251Y194608D01*
X864268Y194550D01*
X864276Y194490D01*
X864312Y194398D01*
X864340Y194303D01*
X864370Y194251D01*
X864393Y194194D01*
X864451Y194114D01*
X864501Y194029D01*
X864567Y193953D01*
X864579Y193937D01*
X864589Y193929D01*
X864607Y193908D01*
X868808Y189708D01*
X868808Y172242D01*
X856848Y160282D01*
X856763Y160173D01*
X856674Y160066D01*
X856665Y160047D01*
X856653Y160031D01*
X856598Y159903D01*
X856539Y159778D01*
X856535Y159758D01*
X856527Y159739D01*
X856505Y159601D01*
X856479Y159465D01*
X856480Y159445D01*
X856477Y159425D01*
X856490Y159286D01*
X856498Y159148D01*
X856505Y159129D01*
X856507Y159109D01*
X856554Y158977D01*
X856597Y158846D01*
X856607Y158828D01*
X856614Y158809D01*
X856692Y158694D01*
X856767Y158577D01*
X856781Y158563D01*
X856793Y158546D01*
X856897Y158454D01*
X856998Y158359D01*
X857016Y158349D01*
X857031Y158336D01*
X857155Y158272D01*
X857277Y158205D01*
X857296Y158200D01*
X857314Y158191D01*
X857450Y158161D01*
X857585Y158126D01*
X857613Y158124D01*
X857625Y158121D01*
X857645Y158122D01*
X857745Y158116D01*
X888505Y158116D01*
X888642Y158133D01*
X888781Y158146D01*
X888800Y158153D01*
X888820Y158156D01*
X888949Y158207D01*
X889080Y158254D01*
X889097Y158265D01*
X889116Y158273D01*
X889228Y158354D01*
X889343Y158432D01*
X889357Y158448D01*
X889373Y158459D01*
X889462Y158567D01*
X889554Y158671D01*
X889563Y158689D01*
X889576Y158704D01*
X889635Y158830D01*
X889698Y158954D01*
X889703Y158974D01*
X889711Y158992D01*
X889738Y159128D01*
X889768Y159264D01*
X889767Y159285D01*
X889771Y159304D01*
X889763Y159443D01*
X889758Y159582D01*
X889753Y159602D01*
X889752Y159622D01*
X889709Y159754D01*
X889670Y159888D01*
X889660Y159905D01*
X889653Y159924D01*
X889579Y160042D01*
X889508Y160162D01*
X889490Y160183D01*
X889483Y160193D01*
X889468Y160207D01*
X889402Y160282D01*
X877442Y172242D01*
X877442Y189708D01*
X889792Y202058D01*
X907258Y202058D01*
X919608Y189708D01*
X919608Y172242D01*
X907648Y160282D01*
X907563Y160173D01*
X907474Y160066D01*
X907465Y160047D01*
X907453Y160031D01*
X907398Y159903D01*
X907339Y159778D01*
X907335Y159758D01*
X907327Y159739D01*
X907305Y159601D01*
X907279Y159465D01*
X907280Y159445D01*
X907277Y159425D01*
X907290Y159286D01*
X907298Y159148D01*
X907305Y159129D01*
X907307Y159109D01*
X907354Y158977D01*
X907397Y158846D01*
X907407Y158828D01*
X907414Y158809D01*
X907492Y158694D01*
X907567Y158577D01*
X907581Y158563D01*
X907593Y158546D01*
X907697Y158454D01*
X907798Y158359D01*
X907816Y158349D01*
X907831Y158336D01*
X907955Y158272D01*
X908077Y158205D01*
X908096Y158200D01*
X908114Y158191D01*
X908250Y158161D01*
X908385Y158126D01*
X908413Y158124D01*
X908425Y158121D01*
X908445Y158122D01*
X908545Y158116D01*
X923436Y158116D01*
X923535Y158128D01*
X923634Y158131D01*
X923692Y158148D01*
X923752Y158156D01*
X923844Y158192D01*
X923939Y158220D01*
X923991Y158250D01*
X924048Y158273D01*
X924128Y158331D01*
X924213Y158381D01*
X924288Y158447D01*
X924305Y158459D01*
X924313Y158469D01*
X924334Y158487D01*
X932268Y166422D01*
X932341Y166516D01*
X932420Y166605D01*
X932438Y166641D01*
X932463Y166673D01*
X932510Y166782D01*
X932564Y166888D01*
X932573Y166928D01*
X932589Y166965D01*
X932608Y167083D01*
X932634Y167198D01*
X932633Y167239D01*
X932639Y167279D01*
X932628Y167397D01*
X932624Y167516D01*
X932613Y167555D01*
X932609Y167595D01*
X932569Y167708D01*
X932536Y167822D01*
X932515Y167857D01*
X932502Y167895D01*
X932435Y167993D01*
X932374Y168096D01*
X932335Y168141D01*
X932323Y168158D01*
X932308Y168171D01*
X932268Y168217D01*
X928242Y172242D01*
X928242Y189708D01*
X940592Y202058D01*
X958058Y202058D01*
X970408Y189708D01*
X970408Y172242D01*
X964937Y166772D01*
X964877Y166694D01*
X964809Y166622D01*
X964780Y166569D01*
X964743Y166521D01*
X964703Y166430D01*
X964655Y166343D01*
X964640Y166285D01*
X964616Y166229D01*
X964601Y166131D01*
X964576Y166035D01*
X964570Y165935D01*
X964566Y165915D01*
X964568Y165903D01*
X964566Y165875D01*
X964566Y158893D01*
X962245Y153292D01*
X938908Y129955D01*
X933307Y127634D01*
X768839Y127634D01*
X768740Y127622D01*
X768641Y127619D01*
X768583Y127602D01*
X768523Y127594D01*
X768431Y127558D01*
X768336Y127530D01*
X768284Y127500D01*
X768227Y127477D01*
X768147Y127419D01*
X768062Y127369D01*
X767987Y127303D01*
X767970Y127291D01*
X767962Y127281D01*
X767941Y127263D01*
X730476Y89798D01*
X730391Y89688D01*
X730302Y89581D01*
X730294Y89562D01*
X730281Y89546D01*
X730226Y89418D01*
X730167Y89293D01*
X730163Y89273D01*
X730155Y89254D01*
X730133Y89116D01*
X730107Y88981D01*
X730108Y88960D01*
X730105Y88940D01*
X730118Y88801D01*
X730127Y88663D01*
X730133Y88644D01*
X730135Y88624D01*
X730182Y88492D01*
X730225Y88361D01*
X730236Y88343D01*
X730242Y88324D01*
X730321Y88209D01*
X730395Y88092D01*
X730410Y88078D01*
X730421Y88061D01*
X730525Y87969D01*
X730627Y87874D01*
X730644Y87864D01*
X730659Y87851D01*
X730783Y87788D01*
X730905Y87720D01*
X730925Y87715D01*
X730943Y87706D01*
X731079Y87676D01*
X731213Y87641D01*
X731241Y87639D01*
X731253Y87637D01*
X731273Y87637D01*
X731374Y87631D01*
X1012825Y87631D01*
X1012943Y87646D01*
G37*
G36*
X117573Y354343D02*
X117573Y354343D01*
X117672Y354346D01*
X117730Y354363D01*
X117791Y354371D01*
X117883Y354407D01*
X117978Y354435D01*
X118030Y354465D01*
X118086Y354488D01*
X118166Y354546D01*
X118252Y354596D01*
X118327Y354662D01*
X118344Y354674D01*
X118351Y354684D01*
X118373Y354703D01*
X140598Y376928D01*
X140658Y377006D01*
X140726Y377078D01*
X140755Y377131D01*
X140792Y377179D01*
X140832Y377270D01*
X140880Y377356D01*
X140895Y377415D01*
X140919Y377471D01*
X140934Y377569D01*
X140959Y377664D01*
X140965Y377764D01*
X140969Y377785D01*
X140967Y377797D01*
X140969Y377825D01*
X140969Y463550D01*
X140957Y463648D01*
X140954Y463747D01*
X140937Y463805D01*
X140929Y463866D01*
X140893Y463958D01*
X140865Y464053D01*
X140835Y464105D01*
X140812Y464161D01*
X140754Y464241D01*
X140704Y464327D01*
X140638Y464402D01*
X140626Y464419D01*
X140616Y464426D01*
X140598Y464448D01*
X99323Y505723D01*
X99244Y505783D01*
X99172Y505851D01*
X99119Y505880D01*
X99071Y505917D01*
X98980Y505957D01*
X98894Y506005D01*
X98835Y506020D01*
X98779Y506044D01*
X98681Y506059D01*
X98586Y506084D01*
X98486Y506090D01*
X98465Y506094D01*
X98453Y506092D01*
X98425Y506094D01*
X67201Y506094D01*
X48894Y524401D01*
X48894Y729724D01*
X162451Y843281D01*
X447149Y843281D01*
X494031Y796399D01*
X494031Y752475D01*
X494046Y752357D01*
X494053Y752238D01*
X494066Y752200D01*
X494071Y752159D01*
X494114Y752049D01*
X494151Y751936D01*
X494173Y751901D01*
X494188Y751864D01*
X494258Y751768D01*
X494321Y751667D01*
X494351Y751639D01*
X494374Y751606D01*
X494466Y751531D01*
X494553Y751449D01*
X494588Y751429D01*
X494619Y751404D01*
X494727Y751353D01*
X494831Y751295D01*
X494871Y751285D01*
X494907Y751268D01*
X495024Y751246D01*
X495139Y751216D01*
X495200Y751212D01*
X495220Y751208D01*
X495240Y751210D01*
X495300Y751206D01*
X514350Y751206D01*
X514468Y751221D01*
X514587Y751228D01*
X514625Y751241D01*
X514666Y751246D01*
X514776Y751289D01*
X514889Y751326D01*
X514924Y751348D01*
X514961Y751363D01*
X515057Y751433D01*
X515158Y751496D01*
X515186Y751526D01*
X515219Y751549D01*
X515295Y751641D01*
X515376Y751728D01*
X515396Y751763D01*
X515421Y751794D01*
X515472Y751902D01*
X515530Y752006D01*
X515540Y752046D01*
X515557Y752082D01*
X515579Y752199D01*
X515609Y752314D01*
X515613Y752375D01*
X515617Y752395D01*
X515615Y752415D01*
X515619Y752475D01*
X515619Y780524D01*
X527576Y792481D01*
X640081Y792481D01*
X640081Y749300D01*
X640096Y749182D01*
X640103Y749063D01*
X640116Y749025D01*
X640121Y748984D01*
X640164Y748874D01*
X640201Y748761D01*
X640223Y748726D01*
X640238Y748689D01*
X640308Y748593D01*
X640371Y748492D01*
X640401Y748464D01*
X640424Y748431D01*
X640516Y748356D01*
X640603Y748274D01*
X640638Y748254D01*
X640669Y748229D01*
X640777Y748178D01*
X640881Y748120D01*
X640921Y748110D01*
X640957Y748093D01*
X641074Y748071D01*
X641189Y748041D01*
X641250Y748037D01*
X641270Y748033D01*
X641290Y748035D01*
X641350Y748031D01*
X660400Y748031D01*
X660518Y748046D01*
X660637Y748053D01*
X660675Y748066D01*
X660716Y748071D01*
X660826Y748114D01*
X660939Y748151D01*
X660974Y748173D01*
X661011Y748188D01*
X661107Y748258D01*
X661208Y748321D01*
X661236Y748351D01*
X661269Y748374D01*
X661345Y748466D01*
X661426Y748553D01*
X661446Y748588D01*
X661471Y748619D01*
X661522Y748727D01*
X661580Y748831D01*
X661590Y748871D01*
X661607Y748907D01*
X661629Y749024D01*
X661659Y749139D01*
X661663Y749200D01*
X661667Y749220D01*
X661665Y749240D01*
X661669Y749300D01*
X661669Y780524D01*
X673626Y792481D01*
X777875Y792481D01*
X777993Y792496D01*
X778112Y792503D01*
X778150Y792516D01*
X778191Y792521D01*
X778301Y792564D01*
X778414Y792601D01*
X778449Y792623D01*
X778486Y792638D01*
X778582Y792708D01*
X778683Y792771D01*
X778711Y792801D01*
X778744Y792824D01*
X778820Y792916D01*
X778901Y793003D01*
X778921Y793038D01*
X778946Y793069D01*
X778997Y793177D01*
X779055Y793281D01*
X779065Y793321D01*
X779082Y793357D01*
X779104Y793474D01*
X779134Y793589D01*
X779138Y793650D01*
X779142Y793670D01*
X779140Y793690D01*
X779144Y793750D01*
X779144Y818624D01*
X803801Y843281D01*
X1050399Y843281D01*
X1094106Y799574D01*
X1094106Y752475D01*
X1094121Y752357D01*
X1094128Y752238D01*
X1094141Y752200D01*
X1094146Y752159D01*
X1094189Y752049D01*
X1094226Y751936D01*
X1094248Y751901D01*
X1094263Y751864D01*
X1094333Y751768D01*
X1094396Y751667D01*
X1094426Y751639D01*
X1094449Y751606D01*
X1094541Y751531D01*
X1094628Y751449D01*
X1094663Y751429D01*
X1094694Y751404D01*
X1094802Y751353D01*
X1094906Y751295D01*
X1094946Y751285D01*
X1094982Y751268D01*
X1095099Y751246D01*
X1095214Y751216D01*
X1095275Y751212D01*
X1095295Y751208D01*
X1095315Y751210D01*
X1095375Y751206D01*
X1114425Y751206D01*
X1114543Y751221D01*
X1114662Y751228D01*
X1114700Y751241D01*
X1114741Y751246D01*
X1114851Y751289D01*
X1114964Y751326D01*
X1114999Y751348D01*
X1115036Y751363D01*
X1115132Y751433D01*
X1115233Y751496D01*
X1115261Y751526D01*
X1115294Y751549D01*
X1115370Y751641D01*
X1115451Y751728D01*
X1115471Y751763D01*
X1115496Y751794D01*
X1115547Y751902D01*
X1115605Y752006D01*
X1115615Y752046D01*
X1115632Y752082D01*
X1115654Y752199D01*
X1115684Y752314D01*
X1115688Y752375D01*
X1115692Y752395D01*
X1115690Y752415D01*
X1115694Y752475D01*
X1115694Y780524D01*
X1127651Y792481D01*
X1240156Y792481D01*
X1240156Y749300D01*
X1240171Y749182D01*
X1240178Y749063D01*
X1240191Y749025D01*
X1240196Y748984D01*
X1240239Y748874D01*
X1240276Y748761D01*
X1240298Y748726D01*
X1240313Y748689D01*
X1240383Y748593D01*
X1240446Y748492D01*
X1240476Y748464D01*
X1240499Y748431D01*
X1240591Y748356D01*
X1240678Y748274D01*
X1240713Y748254D01*
X1240744Y748229D01*
X1240852Y748178D01*
X1240956Y748120D01*
X1240996Y748110D01*
X1241032Y748093D01*
X1241149Y748071D01*
X1241264Y748041D01*
X1241325Y748037D01*
X1241345Y748033D01*
X1241365Y748035D01*
X1241425Y748031D01*
X1260475Y748031D01*
X1260593Y748046D01*
X1260712Y748053D01*
X1260750Y748066D01*
X1260791Y748071D01*
X1260901Y748114D01*
X1261014Y748151D01*
X1261049Y748173D01*
X1261086Y748188D01*
X1261182Y748258D01*
X1261283Y748321D01*
X1261311Y748351D01*
X1261344Y748374D01*
X1261420Y748466D01*
X1261501Y748553D01*
X1261521Y748588D01*
X1261546Y748619D01*
X1261597Y748727D01*
X1261655Y748831D01*
X1261665Y748871D01*
X1261682Y748907D01*
X1261704Y749024D01*
X1261734Y749139D01*
X1261738Y749200D01*
X1261742Y749220D01*
X1261740Y749240D01*
X1261744Y749300D01*
X1261744Y908050D01*
X1261729Y908168D01*
X1261722Y908287D01*
X1261709Y908325D01*
X1261704Y908366D01*
X1261661Y908476D01*
X1261624Y908589D01*
X1261602Y908624D01*
X1261587Y908661D01*
X1261518Y908757D01*
X1261454Y908858D01*
X1261424Y908886D01*
X1261401Y908919D01*
X1261309Y908995D01*
X1261222Y909076D01*
X1261187Y909096D01*
X1261156Y909121D01*
X1261048Y909172D01*
X1260944Y909230D01*
X1260904Y909240D01*
X1260868Y909257D01*
X1260751Y909279D01*
X1260636Y909309D01*
X1260576Y909313D01*
X1260556Y909317D01*
X1260535Y909315D01*
X1260475Y909319D01*
X63500Y909319D01*
X63402Y909307D01*
X63303Y909304D01*
X63245Y909287D01*
X63184Y909279D01*
X63092Y909243D01*
X62997Y909215D01*
X62945Y909185D01*
X62889Y909162D01*
X62809Y909104D01*
X62723Y909054D01*
X62648Y908988D01*
X62631Y908976D01*
X62624Y908966D01*
X62603Y908948D01*
X-48523Y797823D01*
X-48583Y797744D01*
X-48651Y797672D01*
X-48680Y797619D01*
X-48717Y797571D01*
X-48757Y797480D01*
X-48805Y797394D01*
X-48820Y797335D01*
X-48844Y797279D01*
X-48859Y797181D01*
X-48884Y797086D01*
X-48890Y796986D01*
X-48894Y796965D01*
X-48892Y796953D01*
X-48894Y796925D01*
X-48894Y355600D01*
X-48879Y355482D01*
X-48872Y355363D01*
X-48859Y355325D01*
X-48854Y355284D01*
X-48811Y355174D01*
X-48774Y355061D01*
X-48752Y355026D01*
X-48737Y354989D01*
X-48668Y354893D01*
X-48604Y354792D01*
X-48574Y354764D01*
X-48551Y354731D01*
X-48459Y354656D01*
X-48372Y354574D01*
X-48337Y354554D01*
X-48306Y354529D01*
X-48198Y354478D01*
X-48094Y354420D01*
X-48054Y354410D01*
X-48018Y354393D01*
X-47901Y354371D01*
X-47786Y354341D01*
X-47726Y354337D01*
X-47706Y354333D01*
X-47685Y354335D01*
X-47625Y354331D01*
X117475Y354331D01*
X117573Y354343D01*
G37*
G36*
X933568Y627396D02*
X933568Y627396D01*
X933687Y627403D01*
X933725Y627416D01*
X933766Y627421D01*
X933876Y627464D01*
X933989Y627501D01*
X934024Y627523D01*
X934061Y627538D01*
X934157Y627608D01*
X934258Y627671D01*
X934286Y627701D01*
X934319Y627724D01*
X934395Y627816D01*
X934476Y627903D01*
X934496Y627938D01*
X934521Y627969D01*
X934572Y628077D01*
X934630Y628181D01*
X934640Y628221D01*
X934657Y628257D01*
X934679Y628374D01*
X934709Y628489D01*
X934713Y628550D01*
X934717Y628570D01*
X934715Y628590D01*
X934719Y628650D01*
X934719Y781050D01*
X934704Y781168D01*
X934697Y781287D01*
X934684Y781325D01*
X934679Y781366D01*
X934636Y781476D01*
X934599Y781589D01*
X934577Y781624D01*
X934562Y781661D01*
X934493Y781757D01*
X934429Y781858D01*
X934399Y781886D01*
X934376Y781919D01*
X934284Y781995D01*
X934197Y782076D01*
X934162Y782096D01*
X934131Y782121D01*
X934023Y782172D01*
X933919Y782230D01*
X933879Y782240D01*
X933843Y782257D01*
X933726Y782279D01*
X933611Y782309D01*
X933551Y782313D01*
X933531Y782317D01*
X933510Y782315D01*
X933450Y782319D01*
X860425Y782319D01*
X860307Y782304D01*
X860188Y782297D01*
X860150Y782284D01*
X860109Y782279D01*
X859999Y782236D01*
X859886Y782199D01*
X859851Y782177D01*
X859814Y782162D01*
X859718Y782093D01*
X859617Y782029D01*
X859589Y781999D01*
X859556Y781976D01*
X859481Y781884D01*
X859399Y781797D01*
X859379Y781762D01*
X859354Y781731D01*
X859303Y781623D01*
X859245Y781519D01*
X859235Y781479D01*
X859218Y781443D01*
X859196Y781326D01*
X859166Y781211D01*
X859162Y781151D01*
X859158Y781131D01*
X859160Y781110D01*
X859156Y781050D01*
X859156Y696594D01*
X788669Y696594D01*
X788669Y781050D01*
X788654Y781168D01*
X788647Y781287D01*
X788634Y781325D01*
X788629Y781366D01*
X788586Y781476D01*
X788549Y781589D01*
X788527Y781624D01*
X788512Y781661D01*
X788443Y781757D01*
X788379Y781858D01*
X788349Y781886D01*
X788326Y781919D01*
X788234Y781995D01*
X788147Y782076D01*
X788112Y782096D01*
X788081Y782121D01*
X787973Y782172D01*
X787869Y782230D01*
X787829Y782240D01*
X787793Y782257D01*
X787676Y782279D01*
X787561Y782309D01*
X787501Y782313D01*
X787481Y782317D01*
X787460Y782315D01*
X787400Y782319D01*
X704850Y782319D01*
X704732Y782304D01*
X704613Y782297D01*
X704575Y782284D01*
X704534Y782279D01*
X704424Y782236D01*
X704311Y782199D01*
X704276Y782177D01*
X704239Y782162D01*
X704143Y782093D01*
X704042Y782029D01*
X704014Y781999D01*
X703981Y781976D01*
X703906Y781884D01*
X703824Y781797D01*
X703804Y781762D01*
X703779Y781731D01*
X703728Y781623D01*
X703670Y781519D01*
X703660Y781479D01*
X703643Y781443D01*
X703621Y781326D01*
X703591Y781211D01*
X703587Y781151D01*
X703583Y781131D01*
X703585Y781110D01*
X703581Y781050D01*
X703581Y702201D01*
X688449Y687069D01*
X647700Y687069D01*
X647602Y687057D01*
X647503Y687054D01*
X647445Y687037D01*
X647384Y687029D01*
X647292Y686993D01*
X647197Y686965D01*
X647145Y686935D01*
X647089Y686912D01*
X647009Y686854D01*
X646923Y686804D01*
X646848Y686738D01*
X646831Y686726D01*
X646824Y686716D01*
X646803Y686698D01*
X621774Y661669D01*
X394226Y661669D01*
X331469Y724426D01*
X331469Y781050D01*
X331454Y781168D01*
X331447Y781287D01*
X331434Y781325D01*
X331429Y781366D01*
X331386Y781476D01*
X331349Y781589D01*
X331327Y781624D01*
X331312Y781661D01*
X331243Y781757D01*
X331179Y781858D01*
X331149Y781886D01*
X331126Y781919D01*
X331034Y781995D01*
X330947Y782076D01*
X330912Y782096D01*
X330881Y782121D01*
X330773Y782172D01*
X330669Y782230D01*
X330629Y782240D01*
X330593Y782257D01*
X330476Y782279D01*
X330361Y782309D01*
X330301Y782313D01*
X330281Y782317D01*
X330260Y782315D01*
X330200Y782319D01*
X257175Y782319D01*
X257057Y782304D01*
X256938Y782297D01*
X256900Y782284D01*
X256859Y782279D01*
X256749Y782236D01*
X256636Y782199D01*
X256601Y782177D01*
X256564Y782162D01*
X256468Y782093D01*
X256367Y782029D01*
X256339Y781999D01*
X256306Y781976D01*
X256231Y781884D01*
X256149Y781797D01*
X256129Y781762D01*
X256104Y781731D01*
X256053Y781623D01*
X255995Y781519D01*
X255985Y781479D01*
X255968Y781443D01*
X255946Y781326D01*
X255916Y781211D01*
X255912Y781151D01*
X255908Y781131D01*
X255910Y781110D01*
X255906Y781050D01*
X255906Y696594D01*
X185419Y696594D01*
X185419Y781050D01*
X185404Y781168D01*
X185397Y781287D01*
X185384Y781325D01*
X185379Y781366D01*
X185336Y781476D01*
X185299Y781589D01*
X185277Y781624D01*
X185262Y781661D01*
X185193Y781757D01*
X185129Y781858D01*
X185099Y781886D01*
X185076Y781919D01*
X184984Y781995D01*
X184897Y782076D01*
X184862Y782096D01*
X184831Y782121D01*
X184723Y782172D01*
X184619Y782230D01*
X184579Y782240D01*
X184543Y782257D01*
X184426Y782279D01*
X184311Y782309D01*
X184251Y782313D01*
X184231Y782317D01*
X184210Y782315D01*
X184150Y782319D01*
X127000Y782319D01*
X126902Y782307D01*
X126803Y782304D01*
X126745Y782287D01*
X126684Y782279D01*
X126592Y782243D01*
X126497Y782215D01*
X126445Y782185D01*
X126389Y782162D01*
X126309Y782104D01*
X126223Y782054D01*
X126148Y781988D01*
X126131Y781976D01*
X126124Y781966D01*
X126103Y781948D01*
X68953Y724798D01*
X68892Y724719D01*
X68824Y724647D01*
X68795Y724594D01*
X68758Y724546D01*
X68718Y724455D01*
X68670Y724369D01*
X68655Y724310D01*
X68631Y724254D01*
X68616Y724156D01*
X68591Y724061D01*
X68585Y723961D01*
X68581Y723940D01*
X68583Y723928D01*
X68581Y723900D01*
X68581Y628650D01*
X68596Y628532D01*
X68603Y628413D01*
X68616Y628375D01*
X68621Y628334D01*
X68664Y628224D01*
X68701Y628111D01*
X68723Y628076D01*
X68738Y628039D01*
X68808Y627943D01*
X68871Y627842D01*
X68901Y627814D01*
X68924Y627781D01*
X69016Y627706D01*
X69103Y627624D01*
X69138Y627604D01*
X69169Y627579D01*
X69277Y627528D01*
X69381Y627470D01*
X69421Y627460D01*
X69457Y627443D01*
X69574Y627421D01*
X69689Y627391D01*
X69750Y627387D01*
X69770Y627383D01*
X69790Y627385D01*
X69850Y627381D01*
X933450Y627381D01*
X933568Y627396D01*
G37*
G36*
X1216123Y627393D02*
X1216123Y627393D01*
X1216222Y627396D01*
X1216280Y627413D01*
X1216341Y627421D01*
X1216433Y627457D01*
X1216528Y627485D01*
X1216580Y627515D01*
X1216636Y627538D01*
X1216716Y627596D01*
X1216802Y627646D01*
X1216877Y627712D01*
X1216894Y627724D01*
X1216901Y627734D01*
X1216923Y627753D01*
X1232798Y643628D01*
X1232858Y643706D01*
X1232926Y643778D01*
X1232955Y643831D01*
X1232992Y643879D01*
X1233032Y643970D01*
X1233080Y644056D01*
X1233095Y644115D01*
X1233119Y644171D01*
X1233134Y644269D01*
X1233159Y644364D01*
X1233165Y644464D01*
X1233169Y644485D01*
X1233167Y644497D01*
X1233169Y644525D01*
X1233169Y784225D01*
X1233154Y784343D01*
X1233147Y784462D01*
X1233134Y784500D01*
X1233129Y784541D01*
X1233086Y784651D01*
X1233049Y784764D01*
X1233027Y784799D01*
X1233012Y784836D01*
X1232943Y784932D01*
X1232879Y785033D01*
X1232849Y785061D01*
X1232826Y785094D01*
X1232734Y785170D01*
X1232647Y785251D01*
X1232612Y785271D01*
X1232581Y785296D01*
X1232473Y785347D01*
X1232369Y785405D01*
X1232329Y785415D01*
X1232293Y785432D01*
X1232176Y785454D01*
X1232061Y785484D01*
X1232001Y785488D01*
X1231981Y785492D01*
X1231960Y785490D01*
X1231900Y785494D01*
X1168400Y785494D01*
X1168282Y785479D01*
X1168163Y785472D01*
X1168125Y785459D01*
X1168084Y785454D01*
X1167974Y785411D01*
X1167861Y785374D01*
X1167826Y785352D01*
X1167789Y785337D01*
X1167693Y785268D01*
X1167592Y785204D01*
X1167564Y785174D01*
X1167531Y785151D01*
X1167456Y785059D01*
X1167374Y784972D01*
X1167354Y784937D01*
X1167329Y784906D01*
X1167278Y784798D01*
X1167220Y784694D01*
X1167210Y784654D01*
X1167193Y784618D01*
X1167171Y784501D01*
X1167141Y784386D01*
X1167137Y784326D01*
X1167133Y784306D01*
X1167135Y784285D01*
X1167131Y784225D01*
X1167131Y714901D01*
X1151999Y699769D01*
X1102251Y699769D01*
X1087119Y714901D01*
X1087119Y774700D01*
X1087104Y774818D01*
X1087097Y774937D01*
X1087084Y774975D01*
X1087079Y775016D01*
X1087036Y775126D01*
X1086999Y775239D01*
X1086977Y775274D01*
X1086962Y775311D01*
X1086893Y775407D01*
X1086829Y775508D01*
X1086799Y775536D01*
X1086776Y775569D01*
X1086684Y775645D01*
X1086597Y775726D01*
X1086562Y775746D01*
X1086531Y775771D01*
X1086423Y775822D01*
X1086319Y775880D01*
X1086279Y775890D01*
X1086243Y775907D01*
X1086126Y775929D01*
X1086011Y775959D01*
X1085951Y775963D01*
X1085931Y775967D01*
X1085910Y775965D01*
X1085850Y775969D01*
X1083944Y775969D01*
X1083944Y796925D01*
X1083932Y797023D01*
X1083929Y797122D01*
X1083912Y797180D01*
X1083904Y797241D01*
X1083868Y797333D01*
X1083840Y797428D01*
X1083810Y797480D01*
X1083787Y797536D01*
X1083729Y797616D01*
X1083679Y797702D01*
X1083613Y797777D01*
X1083601Y797794D01*
X1083591Y797801D01*
X1083573Y797823D01*
X1048648Y832748D01*
X1048569Y832808D01*
X1048497Y832876D01*
X1048444Y832905D01*
X1048396Y832942D01*
X1048305Y832982D01*
X1048219Y833030D01*
X1048160Y833045D01*
X1048104Y833069D01*
X1048006Y833084D01*
X1047911Y833109D01*
X1047811Y833115D01*
X1047790Y833119D01*
X1047778Y833117D01*
X1047750Y833119D01*
X809625Y833119D01*
X809527Y833107D01*
X809428Y833104D01*
X809370Y833087D01*
X809309Y833079D01*
X809217Y833043D01*
X809122Y833015D01*
X809070Y832985D01*
X809014Y832962D01*
X808934Y832904D01*
X808848Y832854D01*
X808773Y832788D01*
X808756Y832776D01*
X808749Y832766D01*
X808728Y832748D01*
X796028Y820048D01*
X795967Y819969D01*
X795899Y819897D01*
X795870Y819844D01*
X795833Y819796D01*
X795793Y819705D01*
X795745Y819619D01*
X795730Y819560D01*
X795706Y819504D01*
X795691Y819406D01*
X795666Y819311D01*
X795660Y819211D01*
X795656Y819190D01*
X795658Y819178D01*
X795656Y819150D01*
X795656Y752475D01*
X795671Y752357D01*
X795678Y752238D01*
X795691Y752200D01*
X795696Y752159D01*
X795739Y752049D01*
X795776Y751936D01*
X795798Y751901D01*
X795813Y751864D01*
X795883Y751768D01*
X795946Y751667D01*
X795976Y751639D01*
X795999Y751606D01*
X796091Y751531D01*
X796178Y751449D01*
X796213Y751429D01*
X796244Y751404D01*
X796352Y751353D01*
X796456Y751295D01*
X796496Y751285D01*
X796532Y751268D01*
X796649Y751246D01*
X796764Y751216D01*
X796825Y751212D01*
X796845Y751208D01*
X796865Y751210D01*
X796925Y751206D01*
X815975Y751206D01*
X816093Y751221D01*
X816212Y751228D01*
X816250Y751241D01*
X816291Y751246D01*
X816401Y751289D01*
X816514Y751326D01*
X816549Y751348D01*
X816586Y751363D01*
X816682Y751433D01*
X816783Y751496D01*
X816811Y751526D01*
X816844Y751549D01*
X816920Y751641D01*
X817001Y751728D01*
X817021Y751763D01*
X817046Y751794D01*
X817097Y751902D01*
X817155Y752006D01*
X817165Y752046D01*
X817182Y752082D01*
X817204Y752199D01*
X817234Y752314D01*
X817238Y752375D01*
X817242Y752395D01*
X817240Y752415D01*
X817244Y752475D01*
X817244Y780524D01*
X829201Y792481D01*
X929749Y792481D01*
X941706Y780524D01*
X941706Y752475D01*
X941721Y752357D01*
X941728Y752238D01*
X941741Y752200D01*
X941746Y752159D01*
X941789Y752049D01*
X941826Y751936D01*
X941848Y751901D01*
X941863Y751864D01*
X941933Y751768D01*
X941996Y751667D01*
X942026Y751639D01*
X942049Y751606D01*
X942141Y751531D01*
X942228Y751449D01*
X942263Y751429D01*
X942294Y751404D01*
X942402Y751353D01*
X942506Y751295D01*
X942546Y751285D01*
X942582Y751268D01*
X942699Y751246D01*
X942814Y751216D01*
X942875Y751212D01*
X942895Y751208D01*
X942915Y751210D01*
X942975Y751206D01*
X962025Y751206D01*
X962143Y751221D01*
X962262Y751228D01*
X962300Y751241D01*
X962341Y751246D01*
X962451Y751289D01*
X962564Y751326D01*
X962599Y751348D01*
X962636Y751363D01*
X962732Y751433D01*
X962833Y751496D01*
X962861Y751526D01*
X962894Y751549D01*
X962970Y751641D01*
X963051Y751728D01*
X963071Y751763D01*
X963096Y751794D01*
X963147Y751902D01*
X963205Y752006D01*
X963215Y752046D01*
X963232Y752082D01*
X963254Y752199D01*
X963284Y752314D01*
X963288Y752375D01*
X963292Y752395D01*
X963290Y752415D01*
X963294Y752475D01*
X963294Y780524D01*
X975251Y792481D01*
X993249Y792481D01*
X1005206Y780524D01*
X1005206Y628650D01*
X1005221Y628532D01*
X1005228Y628413D01*
X1005241Y628375D01*
X1005246Y628334D01*
X1005289Y628224D01*
X1005326Y628111D01*
X1005348Y628076D01*
X1005363Y628039D01*
X1005433Y627943D01*
X1005496Y627842D01*
X1005526Y627814D01*
X1005549Y627781D01*
X1005641Y627706D01*
X1005728Y627624D01*
X1005763Y627604D01*
X1005794Y627579D01*
X1005902Y627528D01*
X1006006Y627470D01*
X1006046Y627460D01*
X1006082Y627443D01*
X1006199Y627421D01*
X1006314Y627391D01*
X1006375Y627387D01*
X1006395Y627383D01*
X1006415Y627385D01*
X1006475Y627381D01*
X1216025Y627381D01*
X1216123Y627393D01*
G37*
G36*
X616048Y668668D02*
X616048Y668668D01*
X616147Y668671D01*
X616205Y668688D01*
X616266Y668696D01*
X616358Y668732D01*
X616453Y668760D01*
X616505Y668790D01*
X616561Y668813D01*
X616641Y668871D01*
X616727Y668921D01*
X616802Y668987D01*
X616819Y668999D01*
X616826Y669009D01*
X616848Y669028D01*
X632723Y684903D01*
X632783Y684981D01*
X632851Y685053D01*
X632880Y685106D01*
X632917Y685154D01*
X632957Y685245D01*
X633005Y685331D01*
X633020Y685390D01*
X633044Y685446D01*
X633059Y685544D01*
X633084Y685639D01*
X633090Y685739D01*
X633094Y685760D01*
X633092Y685772D01*
X633094Y685800D01*
X633094Y784225D01*
X633079Y784343D01*
X633072Y784462D01*
X633059Y784500D01*
X633054Y784541D01*
X633011Y784651D01*
X632974Y784764D01*
X632952Y784799D01*
X632937Y784836D01*
X632868Y784932D01*
X632804Y785033D01*
X632774Y785061D01*
X632751Y785094D01*
X632659Y785170D01*
X632572Y785251D01*
X632537Y785271D01*
X632506Y785296D01*
X632398Y785347D01*
X632294Y785405D01*
X632254Y785415D01*
X632218Y785432D01*
X632101Y785454D01*
X631986Y785484D01*
X631926Y785488D01*
X631906Y785492D01*
X631885Y785490D01*
X631825Y785494D01*
X568325Y785494D01*
X568207Y785479D01*
X568088Y785472D01*
X568050Y785459D01*
X568009Y785454D01*
X567899Y785411D01*
X567786Y785374D01*
X567751Y785352D01*
X567714Y785337D01*
X567618Y785268D01*
X567517Y785204D01*
X567489Y785174D01*
X567456Y785151D01*
X567381Y785059D01*
X567299Y784972D01*
X567279Y784937D01*
X567254Y784906D01*
X567203Y784798D01*
X567145Y784694D01*
X567135Y784654D01*
X567118Y784618D01*
X567096Y784501D01*
X567066Y784386D01*
X567062Y784326D01*
X567058Y784306D01*
X567060Y784285D01*
X567056Y784225D01*
X567056Y714901D01*
X551924Y699769D01*
X502176Y699769D01*
X487044Y714901D01*
X487044Y774700D01*
X487029Y774818D01*
X487022Y774937D01*
X487009Y774975D01*
X487004Y775016D01*
X486961Y775126D01*
X486924Y775239D01*
X486902Y775274D01*
X486887Y775311D01*
X486818Y775407D01*
X486754Y775508D01*
X486724Y775536D01*
X486701Y775569D01*
X486609Y775645D01*
X486522Y775726D01*
X486487Y775746D01*
X486456Y775771D01*
X486348Y775822D01*
X486244Y775880D01*
X486204Y775890D01*
X486168Y775907D01*
X486051Y775929D01*
X485936Y775959D01*
X485876Y775963D01*
X485856Y775967D01*
X485835Y775965D01*
X485775Y775969D01*
X483869Y775969D01*
X483869Y796925D01*
X483857Y797023D01*
X483854Y797122D01*
X483837Y797180D01*
X483829Y797241D01*
X483793Y797333D01*
X483765Y797428D01*
X483735Y797480D01*
X483712Y797536D01*
X483654Y797616D01*
X483604Y797702D01*
X483538Y797777D01*
X483526Y797794D01*
X483516Y797801D01*
X483498Y797823D01*
X448573Y832748D01*
X448494Y832808D01*
X448422Y832876D01*
X448369Y832905D01*
X448321Y832942D01*
X448230Y832982D01*
X448144Y833030D01*
X448085Y833045D01*
X448029Y833069D01*
X447931Y833084D01*
X447836Y833109D01*
X447736Y833115D01*
X447715Y833119D01*
X447703Y833117D01*
X447675Y833119D01*
X206375Y833119D01*
X206277Y833107D01*
X206178Y833104D01*
X206120Y833087D01*
X206059Y833079D01*
X205967Y833043D01*
X205872Y833015D01*
X205820Y832985D01*
X205764Y832962D01*
X205684Y832904D01*
X205598Y832854D01*
X205523Y832788D01*
X205506Y832776D01*
X205499Y832766D01*
X205478Y832748D01*
X192778Y820048D01*
X192717Y819969D01*
X192649Y819897D01*
X192620Y819844D01*
X192583Y819796D01*
X192543Y819705D01*
X192495Y819619D01*
X192480Y819560D01*
X192456Y819504D01*
X192441Y819406D01*
X192416Y819311D01*
X192410Y819211D01*
X192406Y819190D01*
X192408Y819178D01*
X192406Y819150D01*
X192406Y752475D01*
X192421Y752357D01*
X192428Y752238D01*
X192441Y752200D01*
X192446Y752159D01*
X192489Y752049D01*
X192526Y751936D01*
X192548Y751901D01*
X192563Y751864D01*
X192633Y751768D01*
X192696Y751667D01*
X192726Y751639D01*
X192749Y751606D01*
X192841Y751531D01*
X192928Y751449D01*
X192963Y751429D01*
X192994Y751404D01*
X193102Y751353D01*
X193206Y751295D01*
X193246Y751285D01*
X193282Y751268D01*
X193399Y751246D01*
X193514Y751216D01*
X193575Y751212D01*
X193595Y751208D01*
X193615Y751210D01*
X193675Y751206D01*
X212725Y751206D01*
X212843Y751221D01*
X212962Y751228D01*
X213000Y751241D01*
X213041Y751246D01*
X213151Y751289D01*
X213264Y751326D01*
X213299Y751348D01*
X213336Y751363D01*
X213432Y751433D01*
X213533Y751496D01*
X213561Y751526D01*
X213594Y751549D01*
X213670Y751641D01*
X213751Y751728D01*
X213771Y751763D01*
X213796Y751794D01*
X213847Y751902D01*
X213905Y752006D01*
X213915Y752046D01*
X213932Y752082D01*
X213954Y752199D01*
X213984Y752314D01*
X213988Y752375D01*
X213992Y752395D01*
X213990Y752415D01*
X213994Y752475D01*
X213994Y780524D01*
X225951Y792481D01*
X326499Y792481D01*
X338456Y780524D01*
X338456Y752475D01*
X338471Y752357D01*
X338478Y752238D01*
X338491Y752200D01*
X338496Y752159D01*
X338539Y752049D01*
X338576Y751936D01*
X338598Y751901D01*
X338613Y751864D01*
X338683Y751768D01*
X338746Y751667D01*
X338776Y751639D01*
X338799Y751606D01*
X338891Y751531D01*
X338978Y751449D01*
X339013Y751429D01*
X339044Y751404D01*
X339152Y751353D01*
X339256Y751295D01*
X339296Y751285D01*
X339332Y751268D01*
X339449Y751246D01*
X339564Y751216D01*
X339625Y751212D01*
X339645Y751208D01*
X339665Y751210D01*
X339725Y751206D01*
X358775Y751206D01*
X358893Y751221D01*
X359012Y751228D01*
X359050Y751241D01*
X359091Y751246D01*
X359201Y751289D01*
X359314Y751326D01*
X359349Y751348D01*
X359386Y751363D01*
X359482Y751433D01*
X359583Y751496D01*
X359611Y751526D01*
X359644Y751549D01*
X359720Y751641D01*
X359801Y751728D01*
X359821Y751763D01*
X359846Y751794D01*
X359897Y751902D01*
X359955Y752006D01*
X359965Y752046D01*
X359982Y752082D01*
X360004Y752199D01*
X360034Y752314D01*
X360038Y752375D01*
X360042Y752395D01*
X360040Y752415D01*
X360044Y752475D01*
X360044Y780524D01*
X372001Y792481D01*
X389999Y792481D01*
X401956Y780524D01*
X401956Y685800D01*
X401968Y685702D01*
X401971Y685603D01*
X401988Y685545D01*
X401996Y685484D01*
X402032Y685392D01*
X402060Y685297D01*
X402090Y685245D01*
X402113Y685189D01*
X402171Y685109D01*
X402221Y685023D01*
X402287Y684948D01*
X402299Y684931D01*
X402309Y684924D01*
X402328Y684903D01*
X418203Y669028D01*
X418281Y668967D01*
X418353Y668899D01*
X418406Y668870D01*
X418454Y668833D01*
X418545Y668793D01*
X418631Y668745D01*
X418690Y668730D01*
X418746Y668706D01*
X418844Y668691D01*
X418939Y668666D01*
X419039Y668660D01*
X419060Y668656D01*
X419072Y668658D01*
X419100Y668656D01*
X615950Y668656D01*
X616048Y668668D01*
G37*
%LPC*%
G36*
X494676Y130555D02*
X494676Y130555D01*
X490941Y132102D01*
X488083Y134960D01*
X486536Y138695D01*
X486536Y164581D01*
X488083Y168316D01*
X491118Y171350D01*
X491178Y171428D01*
X491246Y171500D01*
X491275Y171553D01*
X491312Y171601D01*
X491352Y171692D01*
X491400Y171779D01*
X491415Y171837D01*
X491439Y171893D01*
X491454Y171991D01*
X491479Y172087D01*
X491485Y172187D01*
X491489Y172207D01*
X491487Y172219D01*
X491489Y172247D01*
X491489Y196053D01*
X491477Y196151D01*
X491474Y196250D01*
X491457Y196308D01*
X491449Y196368D01*
X491413Y196460D01*
X491385Y196555D01*
X491355Y196607D01*
X491332Y196664D01*
X491274Y196744D01*
X491224Y196829D01*
X491158Y196905D01*
X491146Y196921D01*
X491136Y196929D01*
X491118Y196950D01*
X488083Y199984D01*
X486592Y203585D01*
X486567Y203628D01*
X486550Y203675D01*
X486489Y203766D01*
X486434Y203861D01*
X486400Y203897D01*
X486372Y203938D01*
X486289Y204011D01*
X486213Y204090D01*
X486171Y204116D01*
X486133Y204149D01*
X486035Y204199D01*
X485942Y204256D01*
X485894Y204271D01*
X485850Y204293D01*
X485743Y204317D01*
X485638Y204350D01*
X485588Y204352D01*
X485540Y204363D01*
X485430Y204360D01*
X485320Y204365D01*
X485272Y204355D01*
X485222Y204353D01*
X485116Y204323D01*
X485009Y204300D01*
X484964Y204279D01*
X484916Y204265D01*
X484822Y204209D01*
X484723Y204161D01*
X484685Y204128D01*
X484642Y204103D01*
X484522Y203997D01*
X474557Y194033D01*
X474497Y193955D01*
X474429Y193882D01*
X474400Y193829D01*
X474363Y193782D01*
X474323Y193691D01*
X474275Y193604D01*
X474260Y193545D01*
X474236Y193490D01*
X474221Y193392D01*
X474196Y193296D01*
X474190Y193196D01*
X474186Y193176D01*
X474188Y193163D01*
X474186Y193135D01*
X474186Y192840D01*
X471116Y185430D01*
X465445Y179759D01*
X458035Y176689D01*
X450015Y176689D01*
X442605Y179759D01*
X436934Y185430D01*
X433864Y192840D01*
X433864Y200860D01*
X436934Y208270D01*
X442605Y213941D01*
X450015Y217011D01*
X450310Y217011D01*
X450408Y217023D01*
X450508Y217026D01*
X450566Y217043D01*
X450626Y217051D01*
X450718Y217087D01*
X450813Y217115D01*
X450865Y217145D01*
X450922Y217168D01*
X451002Y217226D01*
X451087Y217276D01*
X451162Y217342D01*
X451179Y217354D01*
X451187Y217364D01*
X451208Y217382D01*
X462543Y228717D01*
X462603Y228795D01*
X462671Y228868D01*
X462700Y228921D01*
X462737Y228968D01*
X462777Y229059D01*
X462825Y229146D01*
X462840Y229205D01*
X462864Y229260D01*
X462879Y229358D01*
X462904Y229454D01*
X462910Y229554D01*
X462914Y229574D01*
X462912Y229587D01*
X462914Y229615D01*
X462914Y257841D01*
X462902Y257939D01*
X462899Y258038D01*
X462882Y258096D01*
X462874Y258156D01*
X462838Y258248D01*
X462810Y258343D01*
X462780Y258396D01*
X462757Y258452D01*
X462699Y258532D01*
X462649Y258617D01*
X462638Y258630D01*
X459612Y265934D01*
X459612Y273816D01*
X462629Y281098D01*
X468202Y286671D01*
X475484Y289688D01*
X483366Y289688D01*
X490648Y286671D01*
X491227Y286092D01*
X491321Y286019D01*
X491411Y285940D01*
X491447Y285922D01*
X491479Y285897D01*
X491588Y285850D01*
X491694Y285796D01*
X491733Y285787D01*
X491771Y285771D01*
X491888Y285752D01*
X492004Y285726D01*
X492045Y285727D01*
X492085Y285721D01*
X492203Y285732D01*
X492322Y285736D01*
X492361Y285747D01*
X492401Y285751D01*
X492513Y285791D01*
X492628Y285824D01*
X492663Y285845D01*
X492701Y285858D01*
X492799Y285925D01*
X492902Y285986D01*
X492947Y286025D01*
X492964Y286037D01*
X492977Y286052D01*
X493022Y286092D01*
X493602Y286671D01*
X500884Y289688D01*
X508766Y289688D01*
X516082Y286657D01*
X516112Y286629D01*
X516165Y286600D01*
X516213Y286563D01*
X516304Y286523D01*
X516391Y286475D01*
X516449Y286460D01*
X516505Y286436D01*
X516603Y286421D01*
X516699Y286396D01*
X516799Y286390D01*
X516819Y286386D01*
X516831Y286388D01*
X516859Y286386D01*
X518191Y286386D01*
X518289Y286398D01*
X518388Y286401D01*
X518446Y286418D01*
X518506Y286426D01*
X518598Y286462D01*
X518693Y286490D01*
X518746Y286520D01*
X518802Y286543D01*
X518882Y286601D01*
X518967Y286651D01*
X518980Y286662D01*
X526284Y289688D01*
X534166Y289688D01*
X541448Y286671D01*
X547021Y281098D01*
X550038Y273816D01*
X550038Y265934D01*
X547021Y258652D01*
X541448Y253079D01*
X534166Y250062D01*
X526284Y250062D01*
X525885Y250228D01*
X525837Y250241D01*
X525792Y250262D01*
X525684Y250283D01*
X525578Y250312D01*
X525528Y250312D01*
X525479Y250322D01*
X525370Y250315D01*
X525260Y250317D01*
X525212Y250305D01*
X525162Y250302D01*
X525058Y250268D01*
X524951Y250243D01*
X524907Y250219D01*
X524860Y250204D01*
X524767Y250145D01*
X524670Y250094D01*
X524633Y250060D01*
X524591Y250034D01*
X524516Y249954D01*
X524434Y249880D01*
X524407Y249838D01*
X524373Y249802D01*
X524320Y249706D01*
X524260Y249614D01*
X524243Y249567D01*
X524219Y249524D01*
X524192Y249417D01*
X524156Y249313D01*
X524152Y249264D01*
X524140Y249216D01*
X524130Y249055D01*
X524130Y236890D01*
X524142Y236792D01*
X524145Y236693D01*
X524162Y236635D01*
X524170Y236575D01*
X524206Y236483D01*
X524234Y236388D01*
X524264Y236336D01*
X524287Y236279D01*
X524345Y236199D01*
X524395Y236114D01*
X524461Y236038D01*
X524473Y236022D01*
X524483Y236014D01*
X524501Y235993D01*
X527155Y233340D01*
X528702Y229605D01*
X528702Y203719D01*
X528162Y202416D01*
X528149Y202368D01*
X528128Y202323D01*
X528107Y202215D01*
X528078Y202109D01*
X528077Y202059D01*
X528068Y202010D01*
X528075Y201901D01*
X528073Y201791D01*
X528085Y201743D01*
X528088Y201693D01*
X528121Y201589D01*
X528147Y201482D01*
X528170Y201438D01*
X528186Y201391D01*
X528244Y201298D01*
X528296Y201201D01*
X528329Y201164D01*
X528356Y201122D01*
X528436Y201047D01*
X528510Y200965D01*
X528551Y200938D01*
X528587Y200904D01*
X528684Y200851D01*
X528775Y200791D01*
X528822Y200774D01*
X528866Y200750D01*
X528972Y200723D01*
X529076Y200687D01*
X529126Y200683D01*
X529174Y200671D01*
X529335Y200661D01*
X610490Y200661D01*
X610540Y200667D01*
X610589Y200665D01*
X610697Y200687D01*
X610806Y200701D01*
X610852Y200719D01*
X610901Y200729D01*
X610999Y200777D01*
X611102Y200818D01*
X611142Y200847D01*
X611187Y200869D01*
X611270Y200940D01*
X611359Y201004D01*
X611391Y201043D01*
X611429Y201075D01*
X611492Y201165D01*
X611562Y201249D01*
X611583Y201294D01*
X611612Y201335D01*
X611651Y201438D01*
X611697Y201537D01*
X611707Y201586D01*
X611724Y201632D01*
X611737Y201742D01*
X611757Y201849D01*
X611754Y201899D01*
X611760Y201948D01*
X611744Y202057D01*
X611737Y202167D01*
X611722Y202214D01*
X611715Y202263D01*
X611663Y202416D01*
X611123Y203719D01*
X611123Y229605D01*
X612670Y233340D01*
X615528Y236198D01*
X615623Y236237D01*
X615682Y236271D01*
X615731Y236290D01*
X615752Y236306D01*
X615799Y236327D01*
X615846Y236364D01*
X615899Y236394D01*
X615970Y236463D01*
X615977Y236469D01*
X615988Y236477D01*
X615990Y236479D01*
X616048Y236525D01*
X616084Y236574D01*
X616128Y236616D01*
X616179Y236700D01*
X616239Y236779D01*
X616283Y236869D01*
X616294Y236887D01*
X616297Y236899D01*
X616310Y236924D01*
X618209Y241509D01*
X635172Y258472D01*
X641241Y260986D01*
X689641Y260986D01*
X689739Y260998D01*
X689838Y261001D01*
X689896Y261018D01*
X689956Y261026D01*
X690048Y261062D01*
X690143Y261090D01*
X690195Y261120D01*
X690252Y261143D01*
X690332Y261201D01*
X690417Y261251D01*
X690430Y261262D01*
X697768Y264302D01*
X697810Y264303D01*
X697868Y264320D01*
X697928Y264328D01*
X698020Y264364D01*
X698115Y264392D01*
X698167Y264422D01*
X698224Y264445D01*
X698304Y264503D01*
X698389Y264553D01*
X698464Y264619D01*
X698481Y264631D01*
X698489Y264641D01*
X698510Y264659D01*
X705022Y271172D01*
X711091Y273686D01*
X721391Y273686D01*
X721489Y273698D01*
X721588Y273701D01*
X721646Y273718D01*
X721706Y273726D01*
X721798Y273762D01*
X721893Y273790D01*
X721945Y273820D01*
X722002Y273843D01*
X722082Y273901D01*
X722167Y273951D01*
X722180Y273962D01*
X729484Y276988D01*
X737366Y276988D01*
X744682Y273957D01*
X744712Y273929D01*
X744765Y273900D01*
X744813Y273863D01*
X744904Y273823D01*
X744991Y273775D01*
X745049Y273760D01*
X745105Y273736D01*
X745203Y273721D01*
X745299Y273696D01*
X745399Y273690D01*
X745419Y273686D01*
X745431Y273688D01*
X745459Y273686D01*
X757695Y273686D01*
X757793Y273698D01*
X757892Y273701D01*
X757950Y273718D01*
X758010Y273726D01*
X758102Y273762D01*
X758197Y273790D01*
X758249Y273820D01*
X758306Y273843D01*
X758386Y273901D01*
X758471Y273951D01*
X758547Y274017D01*
X758563Y274029D01*
X758571Y274039D01*
X758592Y274057D01*
X762792Y278258D01*
X780258Y278258D01*
X792608Y265908D01*
X792608Y248442D01*
X780258Y236092D01*
X762792Y236092D01*
X758592Y240293D01*
X758514Y240353D01*
X758442Y240421D01*
X758389Y240450D01*
X758341Y240487D01*
X758250Y240527D01*
X758163Y240575D01*
X758105Y240590D01*
X758049Y240614D01*
X757951Y240629D01*
X757855Y240654D01*
X757755Y240660D01*
X757735Y240664D01*
X757723Y240662D01*
X757695Y240664D01*
X745459Y240664D01*
X745361Y240652D01*
X745262Y240649D01*
X745204Y240632D01*
X745144Y240624D01*
X745052Y240588D01*
X744957Y240560D01*
X744905Y240530D01*
X744848Y240507D01*
X744768Y240449D01*
X744683Y240399D01*
X744670Y240388D01*
X737366Y237362D01*
X729484Y237362D01*
X722710Y240168D01*
X722595Y240200D01*
X722483Y240238D01*
X722442Y240241D01*
X722403Y240252D01*
X722284Y240254D01*
X722166Y240263D01*
X722126Y240256D01*
X722085Y240257D01*
X721970Y240229D01*
X721852Y240209D01*
X721815Y240192D01*
X721776Y240183D01*
X721671Y240127D01*
X721562Y240078D01*
X721531Y240053D01*
X721495Y240034D01*
X721407Y239954D01*
X721314Y239880D01*
X721289Y239848D01*
X721260Y239820D01*
X721194Y239721D01*
X721123Y239626D01*
X721096Y239572D01*
X721085Y239555D01*
X721078Y239535D01*
X721052Y239481D01*
X718471Y233252D01*
X712898Y227679D01*
X705616Y224662D01*
X697723Y224662D01*
X697620Y224691D01*
X697488Y224731D01*
X697467Y224732D01*
X697448Y224738D01*
X697308Y224740D01*
X697170Y224746D01*
X697150Y224742D01*
X697130Y224743D01*
X696994Y224710D01*
X696859Y224682D01*
X696840Y224673D01*
X696821Y224669D01*
X696697Y224603D01*
X696573Y224542D01*
X696558Y224529D01*
X696540Y224520D01*
X696436Y224426D01*
X696331Y224336D01*
X696319Y224320D01*
X696304Y224306D01*
X696228Y224190D01*
X696148Y224076D01*
X696141Y224057D01*
X696129Y224040D01*
X696084Y223909D01*
X696035Y223779D01*
X696033Y223759D01*
X696026Y223739D01*
X696015Y223601D01*
X696000Y223463D01*
X696003Y223443D01*
X696001Y223422D01*
X696025Y223285D01*
X696044Y223148D01*
X696053Y223121D01*
X696055Y223109D01*
X696064Y223090D01*
X696088Y223020D01*
X696088Y215134D01*
X693071Y207852D01*
X687498Y202279D01*
X680182Y199248D01*
X680140Y199247D01*
X680082Y199230D01*
X680022Y199222D01*
X679930Y199186D01*
X679835Y199158D01*
X679783Y199128D01*
X679726Y199105D01*
X679646Y199047D01*
X679561Y198997D01*
X679486Y198931D01*
X679469Y198919D01*
X679461Y198909D01*
X679440Y198891D01*
X655526Y174976D01*
X651201Y170651D01*
X651128Y170557D01*
X651049Y170468D01*
X651031Y170432D01*
X651006Y170400D01*
X650959Y170291D01*
X650905Y170185D01*
X650896Y170145D01*
X650880Y170108D01*
X650861Y169990D01*
X650835Y169875D01*
X650836Y169834D01*
X650830Y169794D01*
X650841Y169676D01*
X650845Y169557D01*
X650856Y169518D01*
X650860Y169478D01*
X650900Y169366D01*
X650933Y169251D01*
X650954Y169216D01*
X650967Y169178D01*
X651034Y169080D01*
X651095Y168977D01*
X651134Y168932D01*
X651146Y168915D01*
X651161Y168902D01*
X651201Y168856D01*
X651742Y168316D01*
X653289Y164581D01*
X653289Y138695D01*
X651742Y134960D01*
X648884Y132102D01*
X645149Y130555D01*
X619263Y130555D01*
X615528Y132102D01*
X612670Y134960D01*
X611123Y138695D01*
X611123Y164581D01*
X611663Y165884D01*
X611673Y165919D01*
X611678Y165931D01*
X611680Y165941D01*
X611697Y165977D01*
X611718Y166085D01*
X611747Y166191D01*
X611748Y166241D01*
X611757Y166290D01*
X611750Y166399D01*
X611752Y166509D01*
X611740Y166557D01*
X611737Y166607D01*
X611704Y166711D01*
X611678Y166818D01*
X611655Y166862D01*
X611639Y166909D01*
X611581Y167002D01*
X611529Y167099D01*
X611496Y167136D01*
X611469Y167178D01*
X611389Y167253D01*
X611315Y167335D01*
X611274Y167362D01*
X611238Y167396D01*
X611141Y167449D01*
X611050Y167509D01*
X611003Y167526D01*
X610959Y167550D01*
X610853Y167577D01*
X610749Y167613D01*
X610699Y167617D01*
X610651Y167629D01*
X610490Y167639D01*
X529335Y167639D01*
X529285Y167633D01*
X529236Y167635D01*
X529128Y167613D01*
X529019Y167599D01*
X528973Y167581D01*
X528924Y167571D01*
X528826Y167523D01*
X528723Y167482D01*
X528683Y167453D01*
X528638Y167431D01*
X528555Y167360D01*
X528466Y167296D01*
X528434Y167257D01*
X528396Y167225D01*
X528333Y167135D01*
X528263Y167051D01*
X528242Y167006D01*
X528213Y166965D01*
X528174Y166862D01*
X528128Y166763D01*
X528118Y166714D01*
X528101Y166668D01*
X528088Y166558D01*
X528068Y166451D01*
X528071Y166401D01*
X528065Y166352D01*
X528081Y166243D01*
X528088Y166133D01*
X528103Y166086D01*
X528110Y166037D01*
X528162Y165884D01*
X528702Y164581D01*
X528702Y138695D01*
X527155Y134960D01*
X524297Y132102D01*
X520562Y130555D01*
X494676Y130555D01*
G37*
%LPD*%
G36*
X117573Y227343D02*
X117573Y227343D01*
X117672Y227346D01*
X117730Y227363D01*
X117791Y227371D01*
X117883Y227407D01*
X117978Y227435D01*
X118030Y227465D01*
X118086Y227488D01*
X118166Y227546D01*
X118252Y227596D01*
X118327Y227662D01*
X118344Y227674D01*
X118351Y227684D01*
X118373Y227703D01*
X140598Y249928D01*
X140658Y250006D01*
X140726Y250078D01*
X140755Y250131D01*
X140792Y250179D01*
X140832Y250270D01*
X140880Y250356D01*
X140895Y250415D01*
X140919Y250471D01*
X140934Y250569D01*
X140959Y250664D01*
X140965Y250764D01*
X140969Y250785D01*
X140967Y250797D01*
X140969Y250825D01*
X140969Y307975D01*
X140957Y308073D01*
X140954Y308172D01*
X140937Y308230D01*
X140929Y308291D01*
X140893Y308383D01*
X140865Y308478D01*
X140835Y308530D01*
X140812Y308586D01*
X140754Y308666D01*
X140704Y308752D01*
X140638Y308827D01*
X140626Y308844D01*
X140616Y308851D01*
X140598Y308873D01*
X118373Y331098D01*
X118294Y331158D01*
X118222Y331226D01*
X118169Y331255D01*
X118121Y331292D01*
X118030Y331332D01*
X117944Y331380D01*
X117885Y331395D01*
X117829Y331419D01*
X117731Y331434D01*
X117636Y331459D01*
X117536Y331465D01*
X117515Y331469D01*
X117503Y331467D01*
X117475Y331469D01*
X0Y331469D01*
X-98Y331457D01*
X-197Y331454D01*
X-255Y331437D01*
X-316Y331429D01*
X-408Y331393D01*
X-503Y331365D01*
X-555Y331335D01*
X-611Y331312D01*
X-691Y331254D01*
X-777Y331204D01*
X-852Y331138D01*
X-869Y331126D01*
X-876Y331116D01*
X-898Y331098D01*
X-16773Y315223D01*
X-16833Y315144D01*
X-16901Y315072D01*
X-16930Y315019D01*
X-16967Y314971D01*
X-17007Y314880D01*
X-17055Y314794D01*
X-17070Y314735D01*
X-17094Y314679D01*
X-17109Y314581D01*
X-17134Y314486D01*
X-17140Y314386D01*
X-17144Y314365D01*
X-17142Y314353D01*
X-17144Y314325D01*
X-17144Y260350D01*
X-17132Y260252D01*
X-17129Y260153D01*
X-17112Y260095D01*
X-17104Y260034D01*
X-17068Y259942D01*
X-17040Y259847D01*
X-17010Y259795D01*
X-16987Y259739D01*
X-16929Y259659D01*
X-16879Y259573D01*
X-16836Y259524D01*
X-16835Y259523D01*
X-16833Y259521D01*
X-16813Y259498D01*
X-16801Y259481D01*
X-16791Y259474D01*
X-16773Y259453D01*
X-7248Y249928D01*
X-7169Y249867D01*
X-7097Y249799D01*
X-7044Y249770D01*
X-6996Y249733D01*
X-6905Y249693D01*
X-6819Y249645D01*
X-6760Y249630D01*
X-6704Y249606D01*
X-6606Y249591D01*
X-6511Y249566D01*
X-6411Y249560D01*
X-6390Y249556D01*
X-6378Y249558D01*
X-6350Y249556D01*
X34399Y249556D01*
X56253Y227703D01*
X56331Y227642D01*
X56403Y227574D01*
X56456Y227545D01*
X56504Y227508D01*
X56595Y227468D01*
X56681Y227420D01*
X56740Y227405D01*
X56796Y227381D01*
X56894Y227366D01*
X56989Y227341D01*
X57089Y227335D01*
X57110Y227331D01*
X57122Y227333D01*
X57150Y227331D01*
X117475Y227331D01*
X117573Y227343D01*
G37*
G36*
X715796Y332758D02*
X715796Y332758D01*
X715934Y332771D01*
X715953Y332778D01*
X715973Y332781D01*
X716102Y332832D01*
X716233Y332879D01*
X716250Y332890D01*
X716269Y332898D01*
X716381Y332979D01*
X716496Y333057D01*
X716510Y333073D01*
X716526Y333084D01*
X716615Y333192D01*
X716707Y333296D01*
X716716Y333314D01*
X716729Y333329D01*
X716788Y333455D01*
X716851Y333579D01*
X716856Y333599D01*
X716864Y333617D01*
X716891Y333754D01*
X716921Y333889D01*
X716920Y333910D01*
X716924Y333929D01*
X716916Y334068D01*
X716911Y334207D01*
X716906Y334227D01*
X716904Y334247D01*
X716862Y334379D01*
X716823Y334513D01*
X716813Y334530D01*
X716806Y334549D01*
X716732Y334667D01*
X716661Y334787D01*
X716643Y334808D01*
X716636Y334818D01*
X716621Y334832D01*
X716555Y334907D01*
X715552Y335911D01*
X712342Y343659D01*
X712342Y373891D01*
X712881Y375190D01*
X712883Y375199D01*
X712888Y375208D01*
X712925Y375353D01*
X712965Y375497D01*
X712965Y375506D01*
X712967Y375515D01*
X712977Y375676D01*
X712977Y416411D01*
X712976Y416420D01*
X712977Y416430D01*
X712957Y416574D01*
X712955Y416603D01*
X712952Y416613D01*
X712937Y416727D01*
X712934Y416735D01*
X712933Y416744D01*
X712881Y416897D01*
X711707Y419730D01*
X711707Y431800D01*
X711692Y431918D01*
X711685Y432037D01*
X711672Y432075D01*
X711667Y432116D01*
X711624Y432226D01*
X711587Y432339D01*
X711565Y432374D01*
X711550Y432411D01*
X711481Y432507D01*
X711417Y432608D01*
X711387Y432636D01*
X711364Y432669D01*
X711272Y432745D01*
X711185Y432826D01*
X711150Y432846D01*
X711119Y432871D01*
X711011Y432922D01*
X710907Y432980D01*
X710867Y432990D01*
X710831Y433007D01*
X710714Y433029D01*
X710599Y433059D01*
X710539Y433063D01*
X710519Y433067D01*
X710498Y433065D01*
X710438Y433069D01*
X699262Y433069D01*
X699144Y433054D01*
X699025Y433047D01*
X698987Y433034D01*
X698946Y433029D01*
X698836Y432986D01*
X698723Y432949D01*
X698688Y432927D01*
X698651Y432912D01*
X698555Y432843D01*
X698454Y432779D01*
X698426Y432749D01*
X698393Y432726D01*
X698317Y432634D01*
X698236Y432547D01*
X698216Y432512D01*
X698191Y432481D01*
X698140Y432373D01*
X698082Y432269D01*
X698072Y432229D01*
X698055Y432193D01*
X698033Y432076D01*
X698003Y431961D01*
X697999Y431901D01*
X697995Y431881D01*
X697997Y431860D01*
X697993Y431800D01*
X697993Y419730D01*
X696819Y416897D01*
X696817Y416888D01*
X696812Y416880D01*
X696775Y416735D01*
X696735Y416590D01*
X696735Y416581D01*
X696733Y416572D01*
X696723Y416411D01*
X696723Y375676D01*
X696724Y375667D01*
X696723Y375658D01*
X696744Y375509D01*
X696763Y375361D01*
X696766Y375352D01*
X696767Y375343D01*
X696819Y375190D01*
X697358Y373891D01*
X697358Y343659D01*
X694808Y337504D01*
X694800Y337475D01*
X694787Y337449D01*
X694758Y337322D01*
X694724Y337197D01*
X694724Y337167D01*
X694717Y337139D01*
X694721Y337009D01*
X694719Y336879D01*
X694726Y336850D01*
X694727Y336821D01*
X694763Y336696D01*
X694793Y336570D01*
X694807Y336544D01*
X694815Y336515D01*
X694881Y336404D01*
X694942Y336289D01*
X694962Y336267D01*
X694977Y336241D01*
X695083Y336121D01*
X698091Y333112D01*
X698169Y333052D01*
X698242Y332984D01*
X698295Y332955D01*
X698342Y332918D01*
X698433Y332878D01*
X698520Y332830D01*
X698579Y332815D01*
X698634Y332791D01*
X698732Y332776D01*
X698828Y332751D01*
X698928Y332745D01*
X698948Y332741D01*
X698961Y332743D01*
X698989Y332741D01*
X715658Y332741D01*
X715796Y332758D01*
G37*
D10*
X236973Y114554D02*
X236973Y145823D01*
X247396Y145823D02*
X226550Y145823D01*
X212314Y145823D02*
X212314Y114554D01*
X212314Y130188D02*
X207103Y135400D01*
X196680Y135400D01*
X191468Y130188D01*
X191468Y114554D01*
X172021Y114554D02*
X161598Y114554D01*
X172021Y114554D02*
X177232Y119765D01*
X177232Y130188D01*
X172021Y135400D01*
X161598Y135400D01*
X156386Y130188D01*
X156386Y124977D01*
X177232Y124977D01*
X142150Y130188D02*
X121304Y130188D01*
X107068Y114554D02*
X107068Y145823D01*
X91434Y145823D01*
X86222Y140611D01*
X86222Y130188D01*
X91434Y124977D01*
X107068Y124977D01*
X71986Y114554D02*
X71986Y145823D01*
X56352Y145823D01*
X51140Y140611D01*
X51140Y130188D01*
X56352Y124977D01*
X71986Y124977D01*
X61563Y124977D02*
X51140Y114554D01*
X31693Y145823D02*
X21270Y145823D01*
X31693Y145823D02*
X36904Y140611D01*
X36904Y119765D01*
X31693Y114554D01*
X21270Y114554D01*
X16058Y119765D01*
X16058Y140611D01*
X21270Y145823D01*
D11*
X533400Y751078D02*
X533400Y772922D01*
X504825Y772922D02*
X504825Y751078D01*
X476250Y751078D02*
X476250Y772922D01*
X679450Y772922D02*
X679450Y751078D01*
X650875Y751078D02*
X650875Y772922D01*
X622300Y772922D02*
X622300Y751078D01*
X231775Y751078D02*
X231775Y772922D01*
X203200Y772922D02*
X203200Y751078D01*
X174625Y751078D02*
X174625Y772922D01*
X377825Y772922D02*
X377825Y751078D01*
X349250Y751078D02*
X349250Y772922D01*
X320675Y772922D02*
X320675Y751078D01*
X1133475Y751078D02*
X1133475Y772922D01*
X1104900Y772922D02*
X1104900Y751078D01*
X1076325Y751078D02*
X1076325Y772922D01*
X1279525Y772922D02*
X1279525Y751078D01*
X1250950Y751078D02*
X1250950Y772922D01*
X1222375Y772922D02*
X1222375Y751078D01*
X835025Y751078D02*
X835025Y772922D01*
X806450Y772922D02*
X806450Y751078D01*
X777875Y751078D02*
X777875Y772922D01*
X981075Y772922D02*
X981075Y751078D01*
X952500Y751078D02*
X952500Y772922D01*
X923925Y772922D02*
X923925Y751078D01*
D12*
X533400Y612775D03*
X533400Y714375D03*
X679450Y612775D03*
X679450Y714375D03*
X231775Y612775D03*
X231775Y714375D03*
X377825Y612775D03*
X377825Y714375D03*
X981075Y714375D03*
X981075Y612775D03*
X835025Y714375D03*
X835025Y612775D03*
X1279525Y714375D03*
X1279525Y612775D03*
X1133475Y714375D03*
X1133475Y612775D03*
X476250Y612775D03*
X476250Y714375D03*
X174625Y612775D03*
X174625Y714375D03*
X777875Y714375D03*
X777875Y612775D03*
X1076325Y714375D03*
X1076325Y612775D03*
D13*
X771525Y180975D03*
X847725Y180975D03*
X898525Y180975D03*
X949325Y180975D03*
X949325Y257175D03*
X898525Y257175D03*
X847725Y257175D03*
X771525Y257175D03*
D12*
X733425Y257175D03*
X733425Y180975D03*
D14*
X371475Y266700D03*
D15*
X396875Y266700D03*
X396875Y342900D03*
X371475Y342900D03*
X422275Y266700D03*
X447675Y266700D03*
X422275Y342900D03*
X447675Y342900D03*
D12*
X701675Y244475D03*
X676275Y219075D03*
X701675Y193675D03*
X504825Y269875D03*
X504825Y346075D03*
X295275Y149225D03*
X295275Y225425D03*
X371475Y161925D03*
X371475Y187325D03*
X371475Y212725D03*
X320675Y225425D03*
X320675Y149225D03*
X530225Y269875D03*
X530225Y346075D03*
D16*
X400050Y423418D02*
X400050Y440182D01*
X425450Y440182D02*
X425450Y423418D01*
X450850Y423418D02*
X450850Y440182D01*
X476250Y440182D02*
X476250Y423418D01*
X501650Y423418D02*
X501650Y440182D01*
X527050Y440182D02*
X527050Y423418D01*
X552450Y423418D02*
X552450Y440182D01*
X577850Y440182D02*
X577850Y423418D01*
X603250Y423418D02*
X603250Y440182D01*
X628650Y440182D02*
X628650Y423418D01*
X654050Y423418D02*
X654050Y440182D01*
X679450Y440182D02*
X679450Y423418D01*
X704850Y423418D02*
X704850Y440182D01*
X730250Y440182D02*
X730250Y423418D01*
X755650Y423418D02*
X755650Y440182D01*
X781050Y440182D02*
X781050Y423418D01*
X806450Y423418D02*
X806450Y440182D01*
D17*
X1193750Y146050D03*
X1117600Y146050D03*
D18*
X1327150Y276225D03*
X1060450Y276225D03*
D19*
X1196975Y409575D03*
D20*
X1276350Y409575D03*
X1276350Y358775D03*
X1196975Y358775D03*
D11*
X676275Y347853D02*
X676275Y369697D01*
X704850Y369697D02*
X704850Y347853D01*
X733425Y347853D02*
X733425Y369697D01*
D17*
X819150Y371475D03*
X819150Y320675D03*
X603250Y371475D03*
X603250Y320675D03*
D21*
X755650Y472821D02*
X755650Y486029D01*
X781050Y486029D02*
X781050Y472821D01*
D22*
X15875Y390525D03*
X15875Y288925D03*
D12*
X1076325Y390525D03*
X1152525Y390525D03*
X1152525Y358775D03*
X1076325Y358775D03*
X962025Y320675D03*
X962025Y346075D03*
X962025Y371475D03*
D15*
X895350Y333375D03*
X895350Y358775D03*
D12*
X962025Y415925D03*
X885825Y415925D03*
X1031875Y469900D03*
X1006475Y444500D03*
X1031875Y419100D03*
X479425Y269875D03*
X479425Y346075D03*
D23*
X454025Y196850D03*
X454025Y171450D03*
D24*
X184150Y406400D03*
X107950Y406400D03*
D25*
X88900Y555625D03*
X88900Y657225D03*
D12*
X336550Y342900D03*
X336550Y266700D03*
D26*
X295275Y330200D03*
X295275Y279400D03*
D27*
X586994Y151638D03*
X632206Y151638D03*
X586994Y216662D03*
X632206Y216662D03*
X552831Y216662D03*
X507619Y216662D03*
X552831Y151638D03*
X507619Y151638D03*
D12*
X269875Y225425D03*
X269875Y149225D03*
D28*
X1076198Y469900D02*
X1095502Y469900D01*
X1095502Y444500D02*
X1076198Y444500D01*
D29*
X203200Y762000D02*
X203200Y815975D01*
X346075Y815975D01*
X349250Y815975D01*
X349250Y762000D01*
X349250Y812800D01*
X346075Y815975D01*
X349250Y815975D02*
X425450Y815975D01*
X425450Y803275D01*
X425450Y682625D01*
X473075Y682625D01*
X619125Y682625D01*
X619125Y758825D01*
X622300Y762000D01*
X476250Y762000D02*
X476250Y714375D01*
X476250Y685800D01*
X473075Y682625D01*
D30*
X473075Y688975D01*
X447675Y714375D01*
D12*
X447675Y714375D03*
X447675Y612775D03*
D30*
X447675Y600075D01*
X501650Y546100D01*
X501650Y431800D01*
D31*
X425450Y803275D03*
D29*
X1076325Y762000D02*
X1076325Y714375D01*
X1076325Y685800D01*
X1079500Y682625D01*
X1222375Y682625D01*
X1222375Y762000D01*
D30*
X603250Y549275D02*
X603250Y431800D01*
X603250Y549275D02*
X619125Y565150D01*
X727075Y565150D01*
X749300Y587375D01*
X990600Y587375D01*
X1012825Y609600D01*
X1012825Y650875D01*
X1076325Y714375D01*
D31*
X1028700Y803275D03*
D32*
X107950Y406400D02*
X-41275Y415925D01*
X-41275Y250825D01*
X-19050Y228600D01*
X28575Y228600D01*
X60325Y196850D01*
X733425Y180975D02*
X771525Y180975D01*
X847725Y180975D02*
X847725Y257175D01*
X847725Y180975D02*
X771525Y180975D01*
D30*
X733425Y180975D02*
X733425Y142875D01*
X314325Y101600D02*
X295275Y120650D01*
X314325Y101600D02*
X692150Y101600D01*
X733425Y142875D01*
D32*
X295275Y196850D02*
X60325Y196850D01*
X295275Y196850D02*
X307975Y196850D01*
X320675Y209550D01*
X320675Y225425D01*
X295275Y196850D02*
X295275Y149225D01*
D30*
X295275Y120650D01*
D32*
X1085850Y469900D02*
X1085850Y546100D01*
X1250950Y692150D02*
X1250950Y762000D01*
X1250950Y692150D02*
X1279525Y663575D01*
X1295400Y663575D01*
X1317625Y641350D01*
X1317625Y584200D01*
X1301750Y568325D01*
X1108075Y568325D01*
X1085850Y546100D01*
D16*
X533400Y714375D02*
X533400Y762000D01*
X679450Y762000D02*
X679450Y714375D01*
X231775Y714375D02*
X231775Y762000D01*
X377825Y762000D02*
X377825Y714375D01*
X981075Y714375D02*
X981075Y762000D01*
X835025Y762000D02*
X835025Y714375D01*
X1279525Y714375D02*
X1279525Y762000D01*
X1133475Y762000D02*
X1133475Y714375D01*
D32*
X527050Y612775D02*
X476250Y612775D01*
X527050Y612775D02*
X533400Y612775D01*
X679450Y612775D01*
D30*
X527050Y612775D02*
X527050Y431800D01*
D32*
X231775Y612775D02*
X174625Y612775D01*
X231775Y612775D02*
X377825Y612775D01*
D30*
X450850Y558800D02*
X450850Y431800D01*
X450850Y558800D02*
X396875Y612775D01*
X377825Y612775D01*
D32*
X777875Y612775D02*
X835025Y612775D01*
X981075Y612775D01*
D30*
X577850Y561975D02*
X577850Y431800D01*
X577850Y561975D02*
X606425Y590550D01*
X714375Y590550D01*
X736600Y612775D01*
X777875Y612775D01*
D32*
X1076325Y612775D02*
X1133475Y612775D01*
X1279525Y612775D01*
D30*
X628650Y533400D02*
X628650Y431800D01*
X628650Y533400D02*
X638175Y542925D01*
X739775Y542925D01*
X758825Y561975D01*
X996950Y561975D01*
X1047750Y612775D01*
X1076325Y612775D01*
D33*
X200025Y266700D03*
D32*
X704850Y431800D02*
X704850Y454025D01*
X692150Y466725D01*
X666750Y466725D01*
X654050Y454025D01*
X654050Y431800D01*
D30*
X993775Y358775D02*
X1003300Y368300D01*
X1054100Y368300D01*
X1063625Y358775D01*
X1076325Y358775D01*
X1003300Y368300D02*
X1003300Y333375D01*
X1006475Y330200D01*
X1085850Y330200D01*
X1114425Y358775D01*
X1114425Y403225D01*
X1098550Y419100D02*
X1031875Y419100D01*
X1098550Y419100D02*
X1114425Y403225D01*
D32*
X504825Y346075D02*
X479425Y346075D01*
X371475Y301625D02*
X371475Y266700D01*
X371475Y301625D02*
X387350Y317500D01*
X463550Y317500D01*
X479425Y333375D01*
X479425Y346075D01*
X504825Y269875D02*
X511175Y269875D01*
X530225Y269875D01*
X507619Y266319D02*
X507619Y216662D01*
X507619Y266319D02*
X511175Y269875D01*
X641350Y184150D02*
X676275Y219075D01*
X641350Y184150D02*
X508000Y184150D01*
X508000Y216281D01*
X507619Y216662D01*
X508000Y184150D02*
X508000Y152019D01*
X507619Y151638D01*
X733425Y257175D02*
X771525Y257175D01*
X733425Y257175D02*
X714375Y257175D01*
X701675Y244475D01*
X632206Y232156D02*
X632206Y216662D01*
X632206Y232156D02*
X644525Y244475D01*
X701675Y244475D01*
X396875Y254000D02*
X396875Y266700D01*
X396875Y254000D02*
X387350Y244475D01*
X358775Y244475D01*
X336550Y266700D01*
X295275Y266700D02*
X295275Y225425D01*
X295275Y266700D02*
X295275Y279400D01*
X295275Y266700D02*
X336550Y266700D01*
D30*
X320675Y177800D02*
X320675Y149225D01*
X320675Y177800D02*
X355600Y212725D01*
X371475Y212725D01*
X422275Y250825D02*
X422275Y266700D01*
X422275Y250825D02*
X396875Y225425D01*
X396875Y203200D01*
X381000Y187325D01*
X371475Y187325D01*
D34*
X-66675Y930275D02*
X1365250Y930275D01*
X1365250Y60325D01*
X-66675Y60325D01*
X-66675Y930275D01*
D35*
X1193750Y206325D02*
X1193750Y146050D01*
X1193750Y206325D02*
X1263650Y276225D01*
X1320800Y276225D01*
D32*
X1327150Y276225D01*
X1327150Y387350D01*
X1304925Y409575D01*
X1276350Y409575D01*
D35*
X1117600Y219075D02*
X1117600Y146050D01*
X1117600Y219075D02*
X1084263Y252413D01*
X1060450Y276225D01*
D32*
X1184275Y282575D02*
X1260475Y358775D01*
X1276350Y358775D01*
X1184275Y282575D02*
X1114425Y282575D01*
X1084263Y252413D01*
D36*
X679450Y371475D02*
X679450Y431800D01*
X679450Y371475D02*
X679450Y361950D01*
X676275Y358775D01*
X679450Y371475D02*
X603250Y371475D01*
D30*
X847725Y342900D02*
X895350Y295275D01*
X847725Y342900D02*
X771525Y342900D01*
X746125Y317500D01*
X692150Y317500D01*
X676275Y333375D01*
X676275Y358775D01*
X895350Y295275D02*
X936625Y295275D01*
X949325Y282575D01*
X949325Y257175D01*
D36*
X730250Y371475D02*
X730250Y431800D01*
X730250Y371475D02*
X730250Y361950D01*
X733425Y358775D01*
X730250Y371475D02*
X819150Y371475D01*
D32*
X730250Y431800D02*
X730250Y454025D01*
X755650Y479425D01*
X781050Y479425D02*
X781050Y431800D01*
D33*
X95250Y266700D03*
D32*
X1152525Y390525D02*
X1196975Y409575D01*
X1076325Y390525D02*
X981075Y390525D01*
X962025Y371475D01*
D30*
X755650Y409575D02*
X755650Y431800D01*
X755650Y409575D02*
X768350Y396875D01*
X873125Y396875D01*
X895350Y374650D01*
X895350Y358775D01*
X933450Y346075D02*
X962025Y346075D01*
X933450Y346075D02*
X920750Y358775D01*
X895350Y358775D01*
D29*
X174625Y714375D02*
X174625Y762000D01*
X139700Y657225D02*
X88900Y657225D01*
X139700Y657225D02*
X174625Y657225D01*
X323850Y657225D01*
X777875Y657225D01*
X777875Y714375D01*
X777875Y762000D01*
X777875Y657225D02*
X923925Y657225D01*
X923925Y762000D01*
X174625Y714375D02*
X174625Y657225D01*
X320675Y660400D02*
X320675Y762000D01*
X320675Y660400D02*
X323850Y657225D01*
D30*
X400050Y558800D02*
X400050Y431800D01*
X400050Y558800D02*
X371475Y587375D01*
X155575Y587375D01*
X139700Y603250D01*
X139700Y657225D01*
D32*
X806450Y431800D02*
X869950Y431800D01*
X885825Y415925D01*
D30*
X962025Y415925D02*
X993775Y415925D01*
X1006475Y428625D01*
X1006475Y444500D01*
D32*
X479425Y269875D02*
X479425Y222250D01*
X454025Y196850D01*
X1152525Y358775D02*
X1196975Y358775D01*
D31*
X-25400Y889000D03*
X1308100Y889000D03*
X-25400Y114300D03*
X1308100Y114300D03*
D32*
X269875Y225425D02*
X269875Y288925D01*
X285750Y304800D01*
X342900Y304800D01*
X371475Y333375D01*
X371475Y342900D01*
D30*
X762000Y142875D02*
X930275Y142875D01*
X949325Y161925D01*
X949325Y180975D01*
X704850Y85725D02*
X301625Y85725D01*
X704850Y85725D02*
X762000Y142875D01*
X301625Y85725D02*
X269875Y117475D01*
X269875Y149225D01*
D32*
X1057275Y444500D02*
X1085850Y444500D01*
X1057275Y444500D02*
X1031875Y469900D01*
M02*
